<?xml version="1.0" encoding="UTF-8" standalone="no"?>
<!-- Created with Inkscape (http://www.inkscape.org/) -->

<svg
   version="1.1"
   id="svg9"
   xml:space="preserve"
   width="2321.1514"
   height="1418.87"
   viewBox="0 0 2321.1514 1418.87"
   xmlns="http://www.w3.org/2000/svg"
   xmlns:svg="http://www.w3.org/2000/svg"><defs
     id="defs13"><clipPath
       clipPathUnits="userSpaceOnUse"
       id="clipPath61"><path
         d="M 0,1080 H 1920 V 0 H 0 Z"
         id="path59" /></clipPath><clipPath
       clipPathUnits="userSpaceOnUse"
       id="clipPath69"><path
         d="m 4172.376,1080 h -1920 V 0 h 1920 z"
         id="path67" /></clipPath><clipPath
       clipPathUnits="userSpaceOnUse"
       id="clipPath81"><path
         d="m 6402.957,-2630.664 h -1920 v 1080 h 1920 z"
         id="path79" /></clipPath></defs><g
     id="g15"
     transform="matrix(1.3333333,0,0,-1.3333333,-71.679977,1434.1778)"><g
       id="g550"
       transform="matrix(0.66540376,0,0,0.71407175,357.96833,207.362)"><g
         id="g27"
         transform="translate(1790.62,-39.816276)"><path
           d="m 0,0 h -227.926 c -153.457,0 -277.858,124.401 -277.858,277.858 v 0 c 0,153.457 124.401,277.858 277.858,277.858 H 0 c 153.457,0 277.858,-124.401 277.858,-277.858 v 0 C 277.858,124.401 153.457,0 0,0"
           style="fill:#ff8d00;fill-opacity:1;fill-rule:nonzero;stroke:none"
           id="path29" /></g><g
         id="g31"
         transform="translate(433.6774,67.6285)"><path
           d="m 0,0 h -618.049 c -85.57,0 -154.938,69.368 -154.938,154.938 v 0 c 0,85.57 69.368,154.938 154.938,154.938 H 0 c 85.57,0 154.938,-69.368 154.938,-154.938 v 0 C 154.938,69.368 85.57,0 0,0"
           style="fill:#ff8d00;fill-opacity:1;fill-rule:nonzero;stroke:none"
           id="path33" /></g><g
         id="g35"
         transform="translate(708.11542,569.30748)"><path
           d="m 0,0 h -887.436 c -153.456,0 -277.858,124.401 -277.858,277.858 v 0 c 0,153.457 124.402,277.858 277.858,277.858 H 0 c 153.457,0 277.858,-124.401 277.858,-277.858 v 0 C 277.858,124.401 153.457,0 0,0"
           style="fill:#ff323c;fill-opacity:1;fill-rule:nonzero;stroke:none"
           id="path37" /></g><g
         id="g47"
         transform="translate(2022.673,943.1452)"><path
           d="m 0,0 h -1126.303 c -75.332,0 -136.4,61.068 -136.4,136.4 v 0 c 0,75.331 61.068,136.399 136.4,136.399 H 0 c 75.331,0 136.4,-61.068 136.4,-136.399 v 0 C 136.4,61.068 75.331,0 0,0"
           style="fill:#ff8d00;fill-opacity:1;fill-rule:nonzero;stroke:none"
           id="path49" /></g><g
         id="g39"
         transform="translate(1339.5935,98.562206)"><path
           d="m 0,0 h -773.167 c -307.732,0 -557.199,249.467 -557.199,557.199 v 0.001 c 0,307.733 249.467,557.199 557.199,557.199 H 0 c 307.733,0 557.199,-249.466 557.199,-557.199 v -0.001 C 557.199,249.467 307.733,0 0,0"
           style="fill:#ff5b00;fill-opacity:1;fill-rule:nonzero;stroke:none"
           id="path41" /></g><g
         id="g51"
         transform="translate(1721.769,-128.87078)"><path
           d="m 0,0 h -692.681 c -67.105,0 -121.504,54.399 -121.504,121.504 v 10e-4 c 0,67.105 54.399,121.504 121.504,121.504 H 0 c 67.105,0 121.504,-54.399 121.504,-121.504 v -10e-4 C 121.504,54.399 67.105,0 0,0"
           style="fill:#ff5b00;fill-opacity:1;fill-rule:nonzero;stroke:none"
           id="path53" /></g><g
         id="g43"
         transform="translate(862.02462,-274.31571)"><path
           d="m 0,0 h -777.499 c -153.457,0 -277.858,124.401 -277.858,277.858 v 0 c 0,153.457 124.401,277.858 277.858,277.858 H 0 c 153.457,0 277.858,-124.401 277.858,-277.858 v 0 C 277.858,124.401 153.457,0 0,0"
           style="fill:#ffb500;fill-opacity:1;fill-rule:nonzero;stroke:none"
           id="path45" /></g></g><g
       id="g55"><g
         id="g57"
         clip-path="url(#clipPath61)"><g
           id="g63"><g
             id="g65"
             clip-path="url(#clipPath69)"><g
               id="g71"
               transform="translate(1480.2557,-1219.3414)"><path
                 d="m 0,0 c 1459.055,0 2641.849,1182.801 2641.849,2641.854 v 0.013 c 0,139.988 -10.929,277.419 -31.905,411.521 h -803.869 c 29.297,-132.071 44.871,-269.307 44.871,-410.199 v -0.01 C 1850.946,1601.593 1006.57,757.222 -35.019,757.222 H -731.722 V 0 Z"
                 style="fill:#236edb;fill-opacity:1;fill-rule:nonzero;stroke:none"
                 id="path73" /></g></g></g><g
           id="g75"><g
             id="g77"
             clip-path="url(#clipPath81)"><g
               id="g83"
               transform="translate(2096.5293,193.7598)"><path
                 d="M 0,0 C 313.012,313.012 820.506,313.013 1133.518,0.001 L 971.64,-161.877 c -223.61,223.61 -586.153,223.61 -809.763,0 -223.61,-223.61 -223.61,-586.153 0,-809.763 L 0,-1133.518 C -313.013,-820.506 -313.014,-313.014 0,0"
                 style="fill:#00918d;fill-opacity:1;fill-rule:nonzero;stroke:none"
                 id="path85" /></g><g
               id="g87"
               transform="translate(2107.8132,2123.5549)"><path
                 d="M 0,0 C 313.012,313.012 820.506,313.013 1133.518,0 L 971.64,-161.877 c -223.61,223.61 -586.153,223.61 -809.763,0 -223.61,-223.61 -223.61,-586.153 0,-809.763 L 0,-1133.518 C -313.013,-820.506 -313.014,-313.014 0,0"
                 style="fill:#00918d;fill-opacity:1;fill-rule:nonzero;stroke:none"
                 id="path89" /></g><path
               d="m 1860.041,1337.011 h 228.93 v -9210.508 h -228.93 z"
               style="fill:#00918d;fill-opacity:1;fill-rule:nonzero;stroke:none"
               id="path91" /></g></g></g></g></g></svg>
