<?xml version="1.0" encoding="utf-8"?>
<!-- Generator: Adobe Illustrator 27.5.0, SVG Export Plug-In . SVG Version: 6.00 Build 0)  -->
<svg version="1.1" id="Layer_1" xmlns="http://www.w3.org/2000/svg" xmlns:xlink="http://www.w3.org/1999/xlink" x="0px" y="0px"
	 viewBox="0 0 450 220" style="enable-background:new 0 0 450 220;" xml:space="preserve">
<style type="text/css">
	.st0{fill:url(#SVGID_1_);}
</style>
<linearGradient id="SVGID_1_" gradientUnits="userSpaceOnUse" x1="172.836" y1="144.5245" x2="278.7142" y2="83.3957">
	<stop  offset="0.06" style="stop-color:#007FFF"/>
	<stop  offset="0.39" style="stop-color:#FF8C00"/>
	<stop  offset="0.69" style="stop-color:#FF0053"/>
	<stop  offset="1" style="stop-color:#4F58DE"/>
</linearGradient>
<path class="st0" d="M199.64,125.76c0.66,1.31-0.17,2.08-0.88,2.08c-0.6,0-26.77,0-34.62,0c-1.3,0-1.68-0.75-1.03-2.05
	c3.89-7.79,17.1-32.13,17.53-32.93c0.5-0.93,1-0.96,1.48,0C182.53,93.69,195.73,117.94,199.64,125.76z M284.59,125.76
	c0.66,1.31-0.17,2.08-0.88,2.08c-0.6,0-26.77,0-34.62,0c-1.3,0-1.68-0.75-1.03-2.05c3.89-7.79,17.1-32.13,17.53-32.93
	c0.5-0.93,1-0.96,1.48,0C267.49,93.69,280.68,117.94,284.59,125.76z M259.9,92.16c-0.6,0-26.99,0-34.84,0
	c-1.3,0-1.68,0.75-1.03,2.05c3.89,7.79,17.1,32.13,17.53,32.93c0.5,0.93,1.22,0.96,1.7,0c0.41-0.82,13.61-25.08,17.51-32.9
	C261.43,92.92,260.6,92.16,259.9,92.16z M225.08,102.83c-2.29-4.28-4.97-10.68-15.38-10.68c-7.53,0-21.12,0-21.53,0
	c-1.3,0-1.68,0.75-1.03,2.05c3.89,7.79,16.67,32.13,17.1,32.93c0.02,0.03,0.04,0.06,0.06,0.1c0.09,0.23,0.27,0.4,0.54,0.5
	c0.18,0.09,0.38,0.13,0.57,0.11c0.05,0,0.11,0.01,0.16,0.01h16.87c9.19,0,11.51-7.53,8.66-13.3
	C227.74,107.72,227.58,107.51,225.08,102.83z"/>
</svg>
