<?xml version="1.0" encoding="utf-8"?>
<!-- Generator: Adobe Illustrator 27.5.0, SVG Export Plug-In . SVG Version: 6.00 Build 0)  -->
<svg version="1.1" id="Layer_1" xmlns="http://www.w3.org/2000/svg" xmlns:xlink="http://www.w3.org/1999/xlink" x="0px" y="0px"
	 viewBox="0 0 450 220" style="enable-background:new 0 0 450 220;" xml:space="preserve">
<style type="text/css">
	.st0{fill:#2E2E2E;}
	.st1{fill:#FF9900;}
	.st2{fill:#64B5F6;stroke:#64B5F6;stroke-width:5.8734;stroke-miterlimit:10;}
	.st3{fill:#64B5F6;}
	.st4{fill:#969696;}
	.st5{fill:#64B5F6;stroke:#64B5F6;stroke-width:7.438;stroke-linecap:round;stroke-miterlimit:10;}
	.st6{fill:none;stroke:#FFFFFF;stroke-width:2.3493;stroke-miterlimit:10;}
</style>
<path class="st0" d="M172.07,121.29c0.14-0.59,0.28-1.19,0.42-1.78c0.85-3.62,1.71-7.24,2.56-10.87c0.2-0.84,0.41-1,1.27-1
	c0.51,0,1.01,0,1.52,0c0.62,0.01,0.87,0.2,1.02,0.81c0.22,0.9,0.43,1.79,0.64,2.69c0.8,3.39,1.6,6.78,2.4,10.17
	c0.01,0.04,0.02,0.08,0.08,0.12c0.03-0.09,0.05-0.17,0.08-0.26c1.08-4.17,2.16-8.34,3.24-12.51c0-0.01,0-0.02,0-0.02
	c0.23-0.86,0.43-1.01,1.32-1.01c0.53,0,1.06,0,1.6,0c0.39,0,0.54,0.16,0.5,0.55c-0.01,0.18-0.05,0.36-0.11,0.53
	c-1.57,5.02-3.14,10.05-4.7,15.07c-0.27,0.88-0.47,1.02-1.39,1.02c-0.48,0-0.97,0.01-1.45,0c-0.71-0.01-0.94-0.2-1.11-0.89
	c-0.61-2.54-1.22-5.08-1.83-7.62c-0.37-1.56-0.75-3.11-1.12-4.66c-0.01-0.06-0.04-0.12-0.1-0.17c-0.15,0.63-0.3,1.26-0.45,1.89
	c-0.83,3.48-1.67,6.95-2.5,10.43c0,0.02-0.01,0.03-0.01,0.05c-0.21,0.8-0.4,0.95-1.23,0.96c-0.55,0-1.1-0.01-1.64,0
	c-0.53,0.01-0.84-0.25-0.99-0.74c-0.22-0.72-0.45-1.43-0.67-2.15c-1.34-4.4-2.68-8.81-4.01-13.21c-0.05-0.16-0.09-0.33-0.11-0.5
	c-0.05-0.34,0.12-0.54,0.46-0.54c0.69,0,1.37,0,2.06,0c0.42,0,0.71,0.19,0.83,0.59c0.21,0.72,0.41,1.44,0.59,2.17
	c0.91,3.56,1.81,7.12,2.71,10.68c0.02,0.07,0.04,0.14,0.06,0.21C172.03,121.3,172.05,121.3,172.07,121.29z"/>
<path class="st1" d="M176.37,141.91c-1.38-0.06-2.47-0.07-3.56-0.15c-2.2-0.16-4.38-0.49-6.53-0.98c-3.27-0.75-6.41-1.87-9.42-3.36
	c-3.33-1.66-6.4-3.72-9.19-6.19c-0.13-0.11-0.26-0.22-0.38-0.34c-0.23-0.24-0.27-0.47-0.13-0.68c0.14-0.19,0.42-0.24,0.69-0.1
	c0.32,0.16,0.63,0.35,0.94,0.52c3.48,1.93,7.13,3.45,10.93,4.61c2.52,0.77,5.07,1.38,7.67,1.77c1.26,0.19,2.52,0.36,3.78,0.48
	c1.33,0.12,2.67,0.21,4.01,0.24c1.34,0.04,2.68,0.06,4.02-0.01c1.55-0.08,3.09-0.23,4.63-0.42c5.15-0.64,10.11-1.99,14.9-3.99
	c0.29-0.12,0.57-0.19,0.88-0.06c0.53,0.22,0.67,0.83,0.26,1.24c-0.24,0.24-0.53,0.43-0.81,0.63c-2.58,1.79-5.39,3.14-8.34,4.2
	c-2.35,0.84-4.76,1.47-7.22,1.89c-1.14,0.19-2.29,0.35-3.44,0.46C178.75,141.79,177.42,141.85,176.37,141.91z"/>
<path class="st0" d="M160.47,122.6c-0.39,0.37-0.74,0.75-1.15,1.06c-2,1.56-4.25,1.98-6.66,1.24c-1.84-0.57-2.86-1.94-3.14-3.83
	c-0.18-1.2-0.07-2.37,0.51-3.46c0.78-1.45,2.05-2.28,3.6-2.69c1.28-0.34,2.59-0.34,3.9-0.17c0.86,0.11,1.7,0.3,2.56,0.45
	c0.04,0.01,0.08,0.01,0.11,0.01c0.02-0.02,0.03-0.04,0.03-0.05c0.02-0.95,0.06-1.9-0.13-2.83c-0.28-1.45-1.12-2.2-2.63-2.42
	c-1.77-0.26-3.45,0.07-5.1,0.67c-0.4,0.14-0.79,0.3-1.2,0.42c-0.34,0.1-0.55-0.03-0.57-0.39c-0.02-0.46-0.01-0.93,0-1.4
	c0.01-0.35,0.22-0.59,0.52-0.71c0.68-0.29,1.36-0.6,2.07-0.81c2.01-0.6,4.05-0.7,6.1-0.23c2.22,0.51,3.58,1.97,3.94,4.23
	c0.1,0.63,0.15,1.28,0.15,1.93c0.02,1.9,0,3.81,0.01,5.71c0,0.51,0.05,1.02,0.11,1.53c0.08,0.72,0.42,1.35,0.74,1.99
	c0.25,0.49,0.18,0.78-0.27,1.09c-0.38,0.26-0.76,0.51-1.14,0.76c-0.45,0.29-0.84,0.26-1.17-0.17c-0.36-0.46-0.66-0.97-0.98-1.46
	C160.61,122.92,160.55,122.75,160.47,122.6z M157.11,116.88c-0.69,0.07-1.3,0.09-1.89,0.2c-1.16,0.22-2.03,0.83-2.3,2.05
	c-0.09,0.41-0.09,0.85-0.07,1.26c0.08,1.22,0.84,2.09,2.02,2.27c1.24,0.19,2.43-0.04,3.52-0.67c0.99-0.58,1.67-1.42,1.79-2.6
	c0.06-0.58,0.06-1.17,0.1-1.76c0.01-0.2-0.07-0.27-0.25-0.3C159.03,117.17,158.04,117.02,157.11,116.88z"/>
<path class="st0" d="M196,125.33c-1.56-0.02-3.07-0.3-4.53-0.85c-0.27-0.1-0.53-0.25-0.79-0.39c-0.38-0.21-0.55-0.55-0.56-0.97
	c-0.01-0.34-0.01-0.67,0-1.01c0.02-0.51,0.25-0.68,0.74-0.52c0.32,0.1,0.62,0.25,0.94,0.36c1.85,0.69,3.75,0.96,5.7,0.56
	c0.42-0.09,0.84-0.27,1.21-0.5c1.26-0.77,1.38-2.83-0.14-3.57c-0.74-0.36-1.53-0.61-2.31-0.88c-0.94-0.33-1.91-0.58-2.83-0.95
	c-1.51-0.61-2.58-1.69-2.97-3.29c-0.47-1.89,0.1-3.47,1.59-4.71c1.08-0.9,2.36-1.32,3.74-1.43c1.62-0.14,3.2,0.09,4.73,0.63
	c0.33,0.12,0.64,0.3,0.93,0.48c0.28,0.18,0.44,0.46,0.44,0.8c0,0.38,0.01,0.77-0.01,1.15c-0.02,0.39-0.24,0.55-0.61,0.43
	c-0.42-0.13-0.82-0.33-1.24-0.47c-1.53-0.5-3.08-0.63-4.67-0.31c-0.23,0.05-0.45,0.14-0.67,0.23c-1.49,0.61-1.55,2.7-0.32,3.48
	c0.61,0.38,1.26,0.64,1.94,0.86c1.19,0.39,2.39,0.74,3.55,1.19c1.34,0.51,2.37,1.4,2.78,2.83c0.61,2.08-0.07,4.36-2.25,5.71
	c-1.02,0.63-2.16,0.92-3.34,1.05C196.72,125.3,196.36,125.3,196,125.33z"/>
<path class="st1" d="M201.24,128.83c0.99,0.04,1.96,0.12,2.91,0.38c0.9,0.24,1.1,0.5,1.1,1.43c-0.01,1.68-0.45,3.27-1.1,4.81
	c-0.56,1.32-1.31,2.52-2.35,3.52c-0.15,0.15-0.31,0.29-0.49,0.41c-0.16,0.12-0.36,0.21-0.54,0.06c-0.17-0.14-0.1-0.34-0.03-0.52
	c0.39-1.06,0.83-2.11,1.18-3.19c0.27-0.84,0.47-1.71,0.65-2.58c0.07-0.31,0.04-0.65,0.02-0.98c-0.03-0.39-0.25-0.69-0.63-0.8
	c-0.43-0.13-0.87-0.24-1.31-0.28c-1.12-0.1-2.25-0.04-3.37,0.08c-0.79,0.08-1.57,0.17-2.36,0.25c-0.17,0.02-0.36,0.02-0.45-0.16
	c-0.1-0.19,0.01-0.37,0.15-0.48c0.28-0.22,0.58-0.43,0.89-0.6c1.15-0.64,2.39-1,3.69-1.16
	C199.87,128.93,200.55,128.89,201.24,128.83z"/>
<path class="st2" d="M274.68,101.32c0.56,0.24,1,0.42,1.44,0.62c0.88,0.41,1.72,0.89,2.52,1.43c1.22,0.82,2.34,1.77,3.34,2.86
	c1.11,1.2,2.04,2.53,2.8,3.98c0.03,0.07,0.07,0.13,0.1,0.2c0.06,0.13,0.04,0.24-0.05,0.3c-0.09,0.06-0.21,0.03-0.3-0.07
	c-0.11-0.12-0.2-0.24-0.31-0.36c-1.12-1.34-2.38-2.53-3.76-3.61c-0.91-0.71-1.87-1.36-2.87-1.93c-0.49-0.28-0.98-0.54-1.48-0.79
	c-0.53-0.26-1.06-0.5-1.61-0.73c-0.54-0.23-1.09-0.44-1.65-0.62c-0.65-0.21-1.3-0.39-1.97-0.55c-2.21-0.55-4.46-0.77-6.74-0.7
	c-0.14,0-0.26-0.01-0.37-0.11c-0.18-0.17-0.15-0.44,0.09-0.55c0.14-0.06,0.29-0.09,0.43-0.13c1.34-0.33,2.7-0.44,4.08-0.41
	c1.1,0.02,2.18,0.14,3.26,0.36c0.5,0.1,0.99,0.22,1.48,0.35C273.69,101,274.24,101.19,274.68,101.32z"/>
<g>
	<g>
		<path class="st3" d="M267.13,97.17c-0.5-0.29-0.99-0.62-1.45-0.97c0.22,0.17,0.43,0.33,0.65,0.5c-0.95-0.73-1.8-1.58-2.53-2.53
			c0.17,0.22,0.33,0.43,0.5,0.65c-0.71-0.93-1.29-1.93-1.75-3.01c-0.29-0.68-1.23-1.28-1.91-1.46c-0.76-0.21-1.78-0.12-2.46,0.32
			c-0.68,0.44-1.28,1.09-1.46,1.91c-0.04,0.28-0.08,0.56-0.11,0.85c0,0.58,0.15,1.11,0.44,1.61c1.35,3.19,3.89,5.92,6.87,7.65
			c0.72,0.42,1.66,0.54,2.46,0.32c0.74-0.2,1.54-0.78,1.91-1.46c0.39-0.74,0.59-1.64,0.32-2.46
			C268.34,98.28,267.86,97.6,267.13,97.17L267.13,97.17z"/>
	</g>
</g>
<g>
	<g>
		<path class="st3" d="M269.48,98.2c-0.47-0.71-0.87-1.46-1.2-2.25c0.11,0.25,0.21,0.51,0.32,0.76c-0.47-1.13-0.79-2.3-0.96-3.51
			c0.04,0.28,0.08,0.56,0.11,0.85c-0.05-0.4-0.09-0.81-0.11-1.21c-0.04-0.84-0.33-1.65-0.93-2.25c-0.55-0.55-1.46-0.97-2.25-0.93
			c-0.82,0.04-1.68,0.31-2.25,0.93c-0.56,0.61-0.98,1.41-0.93,2.25c0.15,3.03,1.04,6.03,2.71,8.58c0.45,0.69,1.09,1.24,1.91,1.46
			c0.76,0.21,1.78,0.12,2.46-0.32c0.68-0.44,1.28-1.09,1.46-1.91C269.99,99.84,269.96,98.92,269.48,98.2L269.48,98.2z"/>
	</g>
</g>
<g>
	<path class="st3" d="M216.11,125.23c-1.28,0-2.48-0.23-3.59-0.7c-1.11-0.46-2.09-1.11-2.92-1.95c-0.83-0.84-1.49-1.8-1.96-2.9
		c-0.47-1.1-0.71-2.29-0.71-3.57c0-1.28,0.24-2.47,0.71-3.57c0.47-1.1,1.13-2.06,1.96-2.9s1.81-1.48,2.92-1.95
		c1.11-0.46,2.31-0.7,3.59-0.7c0.83,0,1.63,0.09,2.4,0.28c0.78,0.19,1.48,0.46,2.1,0.81c0.22,0.12,0.38,0.27,0.48,0.47
		c0.1,0.19,0.15,0.38,0.15,0.57c0,0.35-0.11,0.66-0.34,0.92c-0.23,0.26-0.51,0.39-0.85,0.39c-0.12,0-0.24-0.02-0.37-0.05
		c-0.13-0.03-0.24-0.08-0.34-0.13c-0.47-0.24-0.98-0.42-1.52-0.54c-0.54-0.13-1.11-0.19-1.72-0.19c-1.21,0-2.31,0.29-3.29,0.87
		c-0.98,0.58-1.75,1.37-2.32,2.37c-0.57,1-0.85,2.11-0.85,3.34c0,1.21,0.28,2.32,0.85,3.33c0.56,1,1.34,1.8,2.32,2.38
		c0.98,0.58,2.07,0.87,3.29,0.87c0.59,0,1.21-0.07,1.87-0.21c0.66-0.14,1.21-0.33,1.67-0.57l-0.2,0.68v-4.81l0.4,0.35h-3.31
		c-0.37,0-0.68-0.12-0.92-0.35c-0.25-0.24-0.37-0.54-0.37-0.91c0-0.37,0.12-0.67,0.37-0.91c0.24-0.24,0.55-0.35,0.92-0.35h4.38
		c0.35,0,0.65,0.12,0.9,0.37c0.24,0.24,0.37,0.55,0.37,0.92v5.62c0,0.27-0.07,0.5-0.2,0.68c-0.13,0.19-0.29,0.34-0.46,0.46
		c-0.76,0.47-1.6,0.85-2.52,1.14C218.09,125.09,217.12,125.23,216.11,125.23z"/>
	<path class="st3" d="M228.15,123.69c-0.02,0.37-0.16,0.68-0.42,0.92c-0.26,0.24-0.57,0.37-0.92,0.37c-0.39,0-0.7-0.12-0.95-0.37
		c-0.24-0.24-0.37-0.55-0.37-0.92v-15.13c0-0.37,0.13-0.68,0.38-0.92c0.25-0.24,0.58-0.37,0.99-0.37c0.34,0,0.64,0.12,0.9,0.37
		c0.26,0.24,0.39,0.55,0.39,0.92V123.69z"/>
	<path class="st3" d="M233.77,124.98c-0.4,0-0.76-0.12-1.06-0.37c-0.3-0.24-0.46-0.55-0.46-0.92v-15.13c0-0.37,0.13-0.68,0.38-0.92
		c0.25-0.24,0.56-0.37,0.91-0.37h7.13c0.91,0,1.75,0.22,2.5,0.67c0.76,0.45,1.37,1.06,1.83,1.85c0.46,0.78,0.7,1.68,0.7,2.69
		c0,0.67-0.14,1.32-0.4,1.94c-0.27,0.62-0.63,1.16-1.09,1.63c-0.46,0.47-0.97,0.83-1.54,1.06l-0.28-0.48
		c0.52,0.19,0.98,0.45,1.37,0.8c0.39,0.35,0.7,0.75,0.92,1.21c0.23,0.46,0.35,0.99,0.37,1.58c0.05,0.52,0.1,0.96,0.14,1.3
		c0.04,0.35,0.1,0.63,0.19,0.85c0.08,0.22,0.24,0.39,0.46,0.51c0.3,0.17,0.49,0.42,0.57,0.76c0.08,0.34,0,0.64-0.22,0.91
		c-0.15,0.2-0.34,0.33-0.57,0.39c-0.23,0.06-0.46,0.07-0.7,0.03c-0.24-0.04-0.44-0.11-0.61-0.19c-0.27-0.17-0.54-0.41-0.82-0.72
		c-0.28-0.31-0.5-0.75-0.67-1.3c-0.17-0.56-0.25-1.29-0.25-2.2c0-0.42-0.07-0.78-0.2-1.09c-0.14-0.3-0.32-0.55-0.56-0.75
		c-0.24-0.19-0.51-0.34-0.84-0.43c-0.32-0.09-0.67-0.14-1.06-0.14h-5.36l0.35-0.51v6.05c0,0.37-0.1,0.68-0.3,0.92
		C234.4,124.86,234.12,124.98,233.77,124.98z M234.58,115.95h6.05c0.39-0.02,0.76-0.17,1.13-0.47c0.36-0.29,0.66-0.7,0.89-1.2
		c0.23-0.51,0.34-1.08,0.34-1.72c0-0.81-0.24-1.49-0.72-2.04c-0.48-0.55-1.05-0.82-1.71-0.82h-5.92l0.28-0.66v7.44L234.58,115.95z"
		/>
	<path class="st3" d="M259.27,122.5c0.35,0,0.65,0.12,0.9,0.35c0.24,0.24,0.37,0.53,0.37,0.89s-0.12,0.65-0.37,0.89
		c-0.24,0.24-0.54,0.35-0.9,0.35h-8.5c-0.37,0-0.68-0.12-0.92-0.37c-0.24-0.24-0.37-0.55-0.37-0.92v-15.13
		c0-0.37,0.13-0.68,0.38-0.92c0.25-0.24,0.58-0.37,0.99-0.37c0.34,0,0.64,0.12,0.9,0.37c0.26,0.24,0.39,0.55,0.39,0.92v14.37
		l-0.53-0.43H259.27z"/>
	<path class="st3" d="M268.88,125.23c-1.21,0-2.29-0.17-3.24-0.51c-0.94-0.34-1.85-0.89-2.71-1.67c-0.19-0.13-0.33-0.3-0.42-0.49
		c-0.09-0.19-0.14-0.39-0.14-0.59c0-0.32,0.12-0.61,0.35-0.86c0.24-0.25,0.53-0.38,0.89-0.38c0.27,0,0.52,0.09,0.76,0.28
		c0.64,0.59,1.31,1.04,2.01,1.34c0.7,0.3,1.52,0.46,2.47,0.46c0.67,0,1.29-0.11,1.86-0.33c0.56-0.22,1.02-0.51,1.35-0.89
		c0.34-0.37,0.51-0.8,0.51-1.29c0-0.61-0.17-1.11-0.52-1.51c-0.35-0.4-0.84-0.72-1.49-0.99c-0.65-0.26-1.43-0.48-2.34-0.67
		c-0.84-0.15-1.6-0.36-2.26-0.63c-0.67-0.27-1.24-0.61-1.71-1.02c-0.47-0.41-0.84-0.91-1.09-1.48c-0.25-0.57-0.38-1.24-0.38-2
		c0-1.03,0.27-1.91,0.81-2.66c0.54-0.74,1.27-1.32,2.2-1.72c0.93-0.4,1.97-0.61,3.14-0.61c1.06,0,2.06,0.16,2.99,0.49
		c0.93,0.33,1.68,0.77,2.25,1.33c0.4,0.35,0.61,0.73,0.61,1.14c0,0.3-0.12,0.59-0.37,0.85c-0.24,0.26-0.53,0.39-0.85,0.39
		c-0.24,0-0.44-0.07-0.61-0.2c-0.27-0.29-0.63-0.54-1.09-0.77c-0.46-0.23-0.94-0.42-1.45-0.57c-0.51-0.15-1.01-0.23-1.48-0.23
		c-0.76,0-1.41,0.11-1.95,0.32c-0.54,0.21-0.95,0.5-1.24,0.86c-0.29,0.36-0.43,0.79-0.43,1.28c0,0.57,0.16,1.05,0.49,1.42
		c0.33,0.37,0.79,0.67,1.38,0.9c0.59,0.23,1.27,0.43,2.02,0.62c0.93,0.2,1.76,0.43,2.49,0.68c0.73,0.25,1.35,0.58,1.86,0.97
		c0.51,0.4,0.89,0.89,1.16,1.48c0.27,0.59,0.4,1.32,0.4,2.2c0,1.01-0.29,1.9-0.86,2.66c-0.57,0.76-1.33,1.35-2.26,1.77
		C271.07,125.02,270.03,125.23,268.88,125.23z"/>
</g>
<g>
	<path class="st3" d="M212.6,131.43l-2.31,5.55c-0.04,0.11-0.1,0.2-0.18,0.26c-0.08,0.06-0.17,0.09-0.28,0.09
		c-0.15,0-0.26-0.04-0.34-0.13c-0.08-0.09-0.12-0.19-0.12-0.32c0-0.05,0.01-0.1,0.03-0.16l2.61-6.31c0.05-0.12,0.12-0.21,0.21-0.27
		c0.09-0.06,0.19-0.09,0.3-0.08c0.1,0,0.2,0.03,0.29,0.09c0.09,0.06,0.15,0.15,0.2,0.26l2.58,6.21c0.03,0.07,0.04,0.14,0.04,0.21
		c0,0.15-0.05,0.27-0.15,0.36c-0.1,0.09-0.21,0.14-0.33,0.14c-0.1,0-0.2-0.03-0.28-0.1s-0.15-0.15-0.19-0.25l-2.33-5.51
		L212.6,131.43z M210.7,135.52l0.46-0.99h2.91l0.17,0.99H210.7z"/>
	<path class="st3" d="M218.27,137.29c-0.16,0-0.31-0.05-0.43-0.15c-0.12-0.1-0.18-0.22-0.18-0.37v-6.14c0-0.15,0.05-0.28,0.15-0.37
		c0.1-0.1,0.23-0.15,0.37-0.15h2.9c0.37,0,0.71,0.09,1.02,0.27c0.31,0.18,0.56,0.43,0.74,0.75s0.28,0.68,0.28,1.09
		c0,0.27-0.05,0.54-0.16,0.79c-0.11,0.25-0.26,0.47-0.44,0.66c-0.18,0.19-0.39,0.34-0.63,0.43l-0.11-0.2
		c0.21,0.08,0.4,0.18,0.55,0.32c0.16,0.14,0.28,0.3,0.37,0.49c0.09,0.19,0.14,0.4,0.15,0.64c0.02,0.21,0.04,0.39,0.06,0.53
		c0.02,0.14,0.04,0.25,0.08,0.34c0.03,0.09,0.1,0.16,0.18,0.21c0.12,0.07,0.2,0.17,0.23,0.31c0.03,0.14,0,0.26-0.09,0.37
		c-0.06,0.08-0.14,0.14-0.23,0.16c-0.09,0.02-0.19,0.03-0.28,0.01c-0.1-0.02-0.18-0.04-0.25-0.08c-0.11-0.07-0.22-0.17-0.33-0.29
		c-0.11-0.13-0.2-0.3-0.27-0.53s-0.1-0.52-0.1-0.89c0-0.17-0.03-0.32-0.08-0.44c-0.06-0.12-0.13-0.22-0.23-0.3
		c-0.1-0.08-0.21-0.14-0.34-0.17c-0.13-0.04-0.27-0.06-0.43-0.06h-2.18l0.14-0.21v2.45c0,0.15-0.04,0.28-0.12,0.37
		C218.52,137.24,218.41,137.29,218.27,137.29z M218.6,133.62h2.45c0.16-0.01,0.31-0.07,0.46-0.19s0.27-0.28,0.36-0.49
		c0.09-0.21,0.14-0.44,0.14-0.7c0-0.33-0.1-0.6-0.29-0.83c-0.2-0.22-0.43-0.33-0.69-0.33h-2.4l0.11-0.27v3.02L218.6,133.62z"/>
	<path class="st3" d="M228.91,137.39c-0.52,0-1.01-0.09-1.46-0.28c-0.45-0.19-0.85-0.45-1.19-0.79c-0.34-0.34-0.6-0.73-0.8-1.18
		c-0.19-0.44-0.29-0.93-0.29-1.45c0-0.52,0.1-1,0.29-1.45c0.19-0.44,0.46-0.84,0.8-1.18c0.34-0.34,0.73-0.6,1.19-0.79
		c0.45-0.19,0.94-0.28,1.46-0.28c0.34,0,0.66,0.04,0.98,0.11c0.32,0.08,0.6,0.18,0.85,0.33c0.09,0.05,0.15,0.11,0.2,0.19
		c0.04,0.08,0.06,0.16,0.06,0.23c0,0.14-0.05,0.27-0.14,0.37c-0.09,0.11-0.21,0.16-0.34,0.16c-0.05,0-0.1-0.01-0.15-0.02
		c-0.05-0.01-0.1-0.03-0.14-0.05c-0.19-0.1-0.4-0.17-0.62-0.22c-0.22-0.05-0.45-0.08-0.7-0.08c-0.49,0-0.94,0.12-1.33,0.35
		c-0.4,0.24-0.71,0.56-0.94,0.96c-0.23,0.4-0.34,0.86-0.34,1.36c0,0.49,0.11,0.94,0.34,1.35c0.23,0.41,0.54,0.73,0.94,0.97
		c0.4,0.24,0.84,0.35,1.33,0.35c0.24,0,0.49-0.03,0.76-0.09c0.27-0.06,0.49-0.14,0.68-0.23l-0.08,0.28v-1.95l0.16,0.14h-1.35
		c-0.15,0-0.28-0.05-0.37-0.14s-0.15-0.22-0.15-0.37c0-0.15,0.05-0.27,0.15-0.37c0.1-0.1,0.22-0.14,0.37-0.14h1.78
		c0.14,0,0.27,0.05,0.36,0.15c0.1,0.1,0.15,0.22,0.15,0.37v2.28c0,0.11-0.03,0.2-0.08,0.28c-0.05,0.08-0.12,0.14-0.18,0.18
		c-0.31,0.19-0.65,0.35-1.02,0.46S229.32,137.39,228.91,137.39z"/>
	<path class="st3" d="M234.27,130.1h3.55c0.14,0,0.27,0.05,0.36,0.14c0.1,0.1,0.15,0.22,0.15,0.36c0,0.14-0.05,0.26-0.15,0.35
		c-0.1,0.09-0.22,0.13-0.36,0.13h-3.1l0.1-0.17v2.3l-0.09-0.1h2.63c0.14,0,0.27,0.05,0.36,0.14c0.1,0.1,0.15,0.22,0.15,0.37
		c0,0.14-0.05,0.26-0.15,0.35c-0.1,0.09-0.22,0.13-0.36,0.13h-2.61l0.07-0.09v2.37l-0.07-0.08h3.07c0.14,0,0.27,0.05,0.36,0.15
		s0.15,0.21,0.15,0.34c0,0.14-0.05,0.26-0.15,0.35c-0.1,0.09-0.22,0.14-0.36,0.14h-3.55c-0.14,0-0.27-0.05-0.37-0.15
		c-0.1-0.1-0.15-0.22-0.15-0.37v-6.14c0-0.15,0.05-0.28,0.15-0.37C234,130.15,234.12,130.1,234.27,130.1z"/>
	<path class="st3" d="M246.02,130.1c0.14,0,0.25,0.05,0.33,0.14c0.09,0.09,0.13,0.21,0.13,0.34v6.18c0,0.15-0.05,0.28-0.15,0.37
		c-0.1,0.1-0.22,0.15-0.37,0.15c-0.07,0-0.14-0.01-0.22-0.04c-0.08-0.03-0.14-0.07-0.18-0.11l-4.22-5.47l0.24-0.13v5.29
		c0,0.13-0.04,0.24-0.13,0.33c-0.09,0.09-0.2,0.14-0.34,0.14c-0.14,0-0.26-0.05-0.34-0.14c-0.09-0.09-0.13-0.2-0.13-0.33v-6.19
		c0-0.16,0.05-0.28,0.15-0.38c0.1-0.1,0.23-0.14,0.37-0.14c0.08,0,0.16,0.02,0.24,0.05c0.09,0.03,0.15,0.08,0.19,0.14l4.12,5.36
		l-0.15,0.14v-5.21c0-0.14,0.04-0.25,0.13-0.34C245.77,130.14,245.89,130.1,246.02,130.1z"/>
	<path class="st3" d="M249.2,131.08c-0.14,0-0.27-0.05-0.37-0.14c-0.1-0.09-0.15-0.21-0.15-0.36c0-0.14,0.05-0.26,0.15-0.35
		c0.1-0.09,0.23-0.13,0.37-0.13h4.67c0.14,0,0.26,0.05,0.36,0.14c0.1,0.09,0.15,0.21,0.15,0.35c0,0.15-0.05,0.27-0.15,0.36
		c-0.1,0.09-0.22,0.13-0.36,0.13H249.2z M251.53,137.29c-0.16,0-0.3-0.05-0.4-0.15c-0.1-0.1-0.15-0.22-0.15-0.37v-6.15h1.1v6.15
		c0,0.15-0.05,0.28-0.16,0.37C251.82,137.24,251.69,137.29,251.53,137.29z"/>
	<path class="st3" d="M257.65,136.76c-0.01,0.15-0.06,0.28-0.17,0.37c-0.11,0.1-0.23,0.15-0.37,0.15c-0.16,0-0.29-0.05-0.39-0.15
		c-0.1-0.1-0.15-0.22-0.15-0.37v-6.14c0-0.15,0.05-0.28,0.15-0.37c0.1-0.1,0.24-0.15,0.4-0.15c0.14,0,0.26,0.05,0.36,0.15
		c0.11,0.1,0.16,0.22,0.16,0.37V136.76z"/>
	<path class="st3" d="M265.73,130.1c0.14,0,0.25,0.05,0.33,0.14c0.09,0.09,0.13,0.21,0.13,0.34v6.18c0,0.15-0.05,0.28-0.15,0.37
		c-0.1,0.1-0.22,0.15-0.37,0.15c-0.07,0-0.14-0.01-0.22-0.04c-0.08-0.03-0.14-0.07-0.18-0.11l-4.22-5.47l0.24-0.13v5.29
		c0,0.13-0.04,0.24-0.13,0.33c-0.09,0.09-0.2,0.14-0.34,0.14c-0.14,0-0.26-0.05-0.34-0.14c-0.09-0.09-0.13-0.2-0.13-0.33v-6.19
		c0-0.16,0.05-0.28,0.15-0.38c0.1-0.1,0.23-0.14,0.37-0.14c0.08,0,0.16,0.02,0.24,0.05c0.09,0.03,0.15,0.08,0.19,0.14l4.12,5.36
		l-0.15,0.14v-5.21c0-0.14,0.04-0.25,0.13-0.34C265.48,130.14,265.59,130.1,265.73,130.1z"/>
	<path class="st3" d="M271.46,131.43l-2.31,5.55c-0.04,0.11-0.1,0.2-0.18,0.26c-0.08,0.06-0.17,0.09-0.28,0.09
		c-0.15,0-0.26-0.04-0.34-0.13c-0.08-0.09-0.12-0.19-0.12-0.32c0-0.05,0.01-0.1,0.03-0.16l2.61-6.31c0.05-0.12,0.12-0.21,0.21-0.27
		c0.09-0.06,0.19-0.09,0.3-0.08c0.1,0,0.2,0.03,0.29,0.09c0.09,0.06,0.15,0.15,0.2,0.26l2.58,6.21c0.03,0.07,0.04,0.14,0.04,0.21
		c0,0.15-0.05,0.27-0.15,0.36c-0.1,0.09-0.21,0.14-0.33,0.14c-0.1,0-0.2-0.03-0.28-0.1c-0.09-0.06-0.15-0.15-0.19-0.25l-2.33-5.51
		L271.46,131.43z M269.56,135.52l0.46-0.99h2.91l0.17,0.99H269.56z"/>
</g>
<g>
	<g>
		<path class="st4" d="M228.84,140.58c0.14,0,0.25,0.05,0.34,0.14c0.08,0.09,0.12,0.21,0.12,0.35v3.63c0,0.51-0.11,0.97-0.34,1.37
			s-0.53,0.72-0.92,0.94c-0.39,0.23-0.84,0.34-1.35,0.34c-0.5,0-0.95-0.11-1.35-0.34c-0.39-0.23-0.7-0.54-0.93-0.94
			c-0.23-0.4-0.34-0.86-0.34-1.37v-3.63c0-0.14,0.05-0.26,0.14-0.35c0.1-0.09,0.22-0.14,0.37-0.14c0.12,0,0.23,0.05,0.33,0.14
			c0.1,0.09,0.15,0.21,0.15,0.35v3.63c0,0.34,0.07,0.63,0.22,0.89c0.15,0.25,0.35,0.45,0.6,0.59c0.25,0.14,0.51,0.22,0.79,0.22
			c0.31,0,0.59-0.07,0.84-0.22c0.26-0.14,0.46-0.34,0.62-0.59c0.16-0.25,0.23-0.55,0.23-0.89v-3.63c0-0.14,0.04-0.26,0.12-0.35
			C228.59,140.63,228.7,140.58,228.84,140.58z"/>
		<path class="st4" d="M230.46,146.51c-0.06-0.09-0.08-0.19-0.08-0.31c0.01-0.12,0.07-0.22,0.2-0.3c0.09-0.06,0.18-0.08,0.28-0.07
			c0.1,0.01,0.19,0.06,0.28,0.15c0.18,0.2,0.38,0.35,0.6,0.47c0.22,0.12,0.49,0.17,0.8,0.17c0.13-0.01,0.26-0.03,0.39-0.06
			c0.13-0.03,0.25-0.1,0.34-0.19c0.1-0.09,0.14-0.23,0.14-0.41c0-0.16-0.05-0.29-0.15-0.38c-0.1-0.1-0.24-0.17-0.4-0.23
			c-0.17-0.06-0.34-0.12-0.54-0.17c-0.2-0.06-0.41-0.12-0.62-0.19c-0.21-0.07-0.39-0.16-0.56-0.27c-0.17-0.11-0.3-0.26-0.41-0.44
			c-0.11-0.18-0.16-0.4-0.16-0.66c0-0.3,0.08-0.56,0.25-0.78c0.17-0.22,0.39-0.39,0.66-0.51c0.27-0.12,0.57-0.18,0.89-0.18
			c0.19,0,0.38,0.02,0.58,0.07c0.2,0.05,0.4,0.12,0.59,0.22c0.19,0.1,0.36,0.24,0.5,0.4c0.06,0.08,0.1,0.18,0.11,0.3
			c0.01,0.11-0.04,0.22-0.16,0.31c-0.08,0.06-0.17,0.09-0.28,0.09s-0.2-0.04-0.27-0.11c-0.12-0.15-0.28-0.27-0.47-0.36
			c-0.19-0.09-0.41-0.13-0.65-0.13c-0.12,0-0.25,0.02-0.38,0.05c-0.13,0.03-0.24,0.1-0.33,0.19c-0.09,0.09-0.13,0.22-0.13,0.39
			c0,0.16,0.05,0.29,0.16,0.38c0.11,0.1,0.24,0.18,0.42,0.24c0.17,0.06,0.36,0.12,0.56,0.17c0.2,0.05,0.39,0.11,0.59,0.18
			s0.37,0.16,0.53,0.27c0.16,0.11,0.28,0.26,0.38,0.43c0.1,0.18,0.15,0.4,0.15,0.67c0,0.31-0.09,0.58-0.27,0.8
			c-0.18,0.22-0.41,0.39-0.69,0.5c-0.28,0.12-0.57,0.17-0.88,0.17c-0.36,0-0.73-0.07-1.09-0.2
			C231.01,147.06,230.71,146.84,230.46,146.51z"/>
		<path class="st4" d="M237.63,147.39c-0.52,0-0.98-0.11-1.37-0.33c-0.39-0.22-0.7-0.52-0.91-0.91c-0.21-0.39-0.32-0.83-0.32-1.33
			c0-0.56,0.11-1.04,0.34-1.44c0.23-0.4,0.52-0.71,0.89-0.92c0.37-0.21,0.75-0.32,1.16-0.32c0.31,0,0.6,0.06,0.89,0.19
			c0.28,0.12,0.53,0.3,0.75,0.52c0.22,0.22,0.39,0.48,0.52,0.78c0.13,0.3,0.19,0.62,0.2,0.97c-0.01,0.13-0.06,0.23-0.15,0.32
			s-0.21,0.12-0.33,0.12h-3.71l-0.23-0.81h3.6l-0.18,0.17v-0.24c-0.02-0.22-0.1-0.42-0.23-0.59c-0.13-0.17-0.3-0.3-0.49-0.39
			c-0.19-0.09-0.4-0.14-0.62-0.14c-0.19,0-0.38,0.03-0.56,0.09c-0.18,0.06-0.33,0.16-0.47,0.29c-0.13,0.13-0.24,0.31-0.33,0.53
			c-0.08,0.22-0.12,0.49-0.12,0.82c0,0.35,0.07,0.66,0.22,0.92c0.15,0.26,0.34,0.46,0.59,0.61c0.25,0.14,0.53,0.22,0.83,0.22
			c0.23,0,0.42-0.02,0.57-0.07c0.15-0.05,0.28-0.11,0.38-0.18s0.19-0.14,0.27-0.2c0.1-0.06,0.2-0.09,0.29-0.09
			c0.11,0,0.21,0.04,0.29,0.12c0.08,0.08,0.12,0.17,0.12,0.28c0,0.14-0.07,0.27-0.21,0.38c-0.17,0.17-0.41,0.31-0.71,0.44
			C238.28,147.33,237.96,147.39,237.63,147.39z"/>
		<path class="st4" d="M241.29,147.3c-0.14,0-0.26-0.05-0.34-0.14c-0.09-0.09-0.13-0.21-0.13-0.35v-4.06c0-0.14,0.04-0.26,0.13-0.35
			c0.09-0.09,0.2-0.14,0.34-0.14c0.13,0,0.25,0.05,0.34,0.14c0.09,0.09,0.14,0.21,0.14,0.35v1.07l-0.1-0.41
			c0.05-0.18,0.13-0.34,0.23-0.5c0.11-0.15,0.23-0.29,0.38-0.4c0.15-0.12,0.31-0.2,0.49-0.27c0.18-0.06,0.37-0.1,0.57-0.1
			c0.17,0,0.31,0.04,0.43,0.13c0.12,0.09,0.18,0.2,0.18,0.34c0,0.17-0.04,0.3-0.13,0.38c-0.09,0.08-0.19,0.12-0.3,0.12
			c-0.1,0-0.19-0.02-0.28-0.06c-0.09-0.04-0.19-0.06-0.32-0.06c-0.13,0-0.27,0.03-0.41,0.11c-0.14,0.07-0.27,0.17-0.38,0.31
			c-0.12,0.14-0.21,0.3-0.27,0.48c-0.07,0.18-0.1,0.39-0.1,0.62v2.3c0,0.14-0.05,0.26-0.14,0.35
			C241.53,147.25,241.42,147.3,241.29,147.3z"/>
		<path class="st4" d="M250.96,147.39c-0.48,0-0.94-0.09-1.36-0.26c-0.42-0.18-0.79-0.42-1.11-0.74c-0.32-0.32-0.56-0.68-0.74-1.1
			c-0.18-0.41-0.27-0.86-0.27-1.35c0-0.48,0.09-0.93,0.27-1.35c0.18-0.41,0.43-0.78,0.74-1.1c0.32-0.32,0.68-0.56,1.11-0.74
			c0.42-0.18,0.87-0.26,1.36-0.26c0.31,0,0.62,0.04,0.91,0.11c0.29,0.07,0.56,0.17,0.79,0.31c0.08,0.04,0.14,0.1,0.18,0.18
			c0.04,0.07,0.06,0.15,0.06,0.22c0,0.13-0.04,0.25-0.13,0.35c-0.09,0.1-0.19,0.15-0.32,0.15c-0.04,0-0.09-0.01-0.14-0.02
			c-0.05-0.01-0.09-0.03-0.13-0.05c-0.18-0.09-0.37-0.16-0.57-0.21c-0.2-0.05-0.42-0.07-0.65-0.07c-0.46,0-0.87,0.11-1.24,0.33
			c-0.37,0.22-0.66,0.52-0.88,0.89c-0.21,0.38-0.32,0.8-0.32,1.26c0,0.46,0.11,0.88,0.32,1.26c0.21,0.38,0.51,0.68,0.88,0.9
			c0.37,0.22,0.78,0.33,1.24,0.33c0.22,0,0.46-0.03,0.71-0.08c0.25-0.05,0.46-0.13,0.63-0.22l-0.08,0.26v-1.82l0.15,0.13h-1.25
			c-0.14,0-0.26-0.04-0.35-0.13c-0.09-0.09-0.14-0.2-0.14-0.34c0-0.14,0.05-0.25,0.14-0.34c0.09-0.09,0.21-0.13,0.35-0.13h1.66
			c0.13,0,0.25,0.05,0.34,0.14c0.09,0.09,0.14,0.21,0.14,0.35v2.13c0,0.1-0.03,0.19-0.08,0.26c-0.05,0.07-0.11,0.13-0.17,0.17
			c-0.29,0.18-0.6,0.32-0.95,0.43C251.7,147.34,251.34,147.39,250.96,147.39z"/>
		<path class="st4" d="M254.88,147.3c-0.14,0-0.26-0.05-0.34-0.14c-0.09-0.09-0.13-0.21-0.13-0.35v-4.06c0-0.14,0.04-0.26,0.13-0.35
			c0.09-0.09,0.2-0.14,0.34-0.14c0.13,0,0.25,0.05,0.34,0.14c0.09,0.09,0.14,0.21,0.14,0.35v1.07l-0.1-0.41
			c0.05-0.18,0.13-0.34,0.23-0.5c0.11-0.15,0.23-0.29,0.38-0.4c0.15-0.12,0.31-0.2,0.49-0.27c0.18-0.06,0.37-0.1,0.57-0.1
			c0.17,0,0.31,0.04,0.43,0.13c0.12,0.09,0.18,0.2,0.18,0.34c0,0.17-0.04,0.3-0.13,0.38c-0.09,0.08-0.19,0.12-0.3,0.12
			c-0.1,0-0.19-0.02-0.28-0.06c-0.09-0.04-0.19-0.06-0.32-0.06c-0.13,0-0.27,0.03-0.41,0.11c-0.14,0.07-0.27,0.17-0.38,0.31
			c-0.12,0.14-0.21,0.3-0.27,0.48c-0.07,0.18-0.1,0.39-0.1,0.62v2.3c0,0.14-0.05,0.26-0.14,0.35
			C255.13,147.25,255.01,147.3,254.88,147.3z"/>
		<path class="st4" d="M262.98,144.78c0,0.51-0.11,0.96-0.34,1.35c-0.23,0.39-0.53,0.7-0.91,0.92c-0.38,0.22-0.81,0.34-1.29,0.34
			c-0.47,0-0.9-0.11-1.29-0.34c-0.39-0.22-0.69-0.53-0.92-0.92c-0.23-0.39-0.34-0.84-0.34-1.35c0-0.52,0.11-0.97,0.34-1.36
			c0.23-0.39,0.53-0.7,0.92-0.93c0.39-0.23,0.82-0.34,1.29-0.34c0.48,0,0.91,0.11,1.29,0.34c0.38,0.23,0.69,0.54,0.91,0.93
			C262.87,143.81,262.98,144.26,262.98,144.78z M262.02,144.78c0-0.35-0.07-0.66-0.21-0.91c-0.14-0.26-0.33-0.46-0.57-0.61
			c-0.24-0.15-0.51-0.22-0.81-0.22c-0.29,0-0.56,0.08-0.8,0.22c-0.24,0.15-0.43,0.35-0.57,0.61c-0.14,0.26-0.22,0.56-0.22,0.91
			c0,0.34,0.07,0.64,0.22,0.9c0.14,0.26,0.34,0.47,0.57,0.61c0.24,0.15,0.51,0.22,0.8,0.22c0.3,0,0.57-0.07,0.81-0.22
			c0.24-0.15,0.43-0.35,0.57-0.61C261.95,145.42,262.02,145.12,262.02,144.78z"/>
		<path class="st4" d="M267.77,142.26c0.13,0,0.25,0.05,0.34,0.14c0.09,0.09,0.14,0.21,0.14,0.35v2.52c0,0.66-0.19,1.18-0.56,1.56
			c-0.37,0.37-0.89,0.56-1.57,0.56c-0.67,0-1.19-0.19-1.56-0.56c-0.37-0.37-0.55-0.89-0.55-1.56v-2.52c0-0.14,0.04-0.26,0.13-0.35
			c0.09-0.09,0.2-0.14,0.34-0.14c0.13,0,0.25,0.05,0.34,0.14c0.09,0.09,0.14,0.21,0.14,0.35v2.52c0,0.41,0.1,0.72,0.29,0.93
			c0.19,0.2,0.48,0.31,0.86,0.31c0.38,0,0.67-0.1,0.87-0.31c0.2-0.2,0.3-0.51,0.3-0.93v-2.52c0-0.14,0.04-0.26,0.13-0.35
			C267.51,142.31,267.63,142.26,267.77,142.26z"/>
		<path class="st4" d="M272.11,142.17c0.45,0,0.84,0.11,1.19,0.34s0.62,0.53,0.83,0.91c0.2,0.39,0.31,0.83,0.31,1.35
			c0,0.51-0.1,0.96-0.31,1.35c-0.2,0.39-0.48,0.7-0.82,0.92c-0.34,0.22-0.73,0.33-1.17,0.33c-0.24,0-0.47-0.04-0.69-0.11
			c-0.22-0.08-0.41-0.18-0.57-0.3c-0.17-0.12-0.3-0.26-0.41-0.4c-0.11-0.14-0.17-0.27-0.2-0.39l0.26-0.12v2.67
			c0,0.14-0.05,0.26-0.14,0.35c-0.09,0.09-0.21,0.14-0.34,0.14c-0.14,0-0.26-0.05-0.34-0.14c-0.09-0.09-0.13-0.21-0.13-0.35v-5.99
			c0-0.13,0.04-0.25,0.13-0.34c0.09-0.1,0.2-0.14,0.34-0.14c0.13,0,0.25,0.05,0.34,0.14c0.09,0.1,0.14,0.21,0.14,0.34v0.66
			l-0.15-0.09c0.02-0.12,0.08-0.25,0.18-0.38c0.1-0.13,0.23-0.25,0.39-0.37c0.16-0.12,0.33-0.21,0.54-0.28
			C271.69,142.21,271.9,142.17,272.11,142.17z M272.01,143.05c-0.31,0-0.57,0.08-0.8,0.22c-0.23,0.15-0.4,0.35-0.53,0.61
			c-0.13,0.26-0.19,0.55-0.19,0.88c0,0.33,0.06,0.62,0.19,0.89c0.13,0.26,0.3,0.47,0.53,0.62c0.23,0.15,0.49,0.22,0.8,0.22
			c0.3,0,0.56-0.07,0.78-0.22c0.22-0.15,0.4-0.36,0.53-0.62c0.13-0.26,0.2-0.56,0.2-0.89c0-0.33-0.07-0.62-0.2-0.88
			c-0.13-0.26-0.31-0.46-0.53-0.61C272.57,143.13,272.31,143.05,272.01,143.05z"/>
	</g>
</g>
<path class="st5" d="M274.32,100.97c-4.1-2.42-5.4-6.28-4.4-11.76c0.79-4.32,6.41-10.93,8.76-14.34c0.4-0.58,1.3-0.42,1.47,0.27
	c0.67,2.71,1.9,6.15,2.29,10.12c0.56,5.55-0.1,9.14-0.1,9.14"/>
<path class="st5" d="M276.68,101.56c0.06-2.27,1.9-6.15,7.02-6.62c4.75-0.44,12.51,2.81,13.64,3.3c0.06,0.03,0.07,0.11,0.02,0.15
	c-0.8,0.64-5.89,4.98-10.04,6.04c-4.55,1.16-6.34,0.9-6.34,0.9"/>
<path class="st6" d="M289.05,93.8c-5.69-0.76-7.93,0.11-10.98,2.14s-2.64,5-2.64,5"/>
</svg>
