<?xml version="1.0" encoding="utf-8"?>
<!-- Generator: Adobe Illustrator 27.8.1, SVG Export Plug-In . SVG Version: 6.00 Build 0)  -->
<svg version="1.1" id="Layer_1" xmlns="http://www.w3.org/2000/svg" xmlns:xlink="http://www.w3.org/1999/xlink" x="0px" y="0px"
	 viewBox="0 0 450 220" style="enable-background:new 0 0 450 220;" xml:space="preserve">
<style type="text/css">
	.st0{fill-rule:evenodd;clip-rule:evenodd;fill:#1C3E77;}
	.st1{fill-rule:evenodd;clip-rule:evenodd;fill:#33739E;}
	.st2{fill-rule:evenodd;clip-rule:evenodd;fill:#3577A1;}
	.st3{fill-rule:evenodd;clip-rule:evenodd;fill:#1C3E76;}
	.st4{fill-rule:evenodd;clip-rule:evenodd;fill:#1C3D76;}
	.st5{fill-rule:evenodd;clip-rule:evenodd;fill:#234E83;}
	.st6{fill-rule:evenodd;clip-rule:evenodd;fill:#459DBC;}
	.st7{fill-rule:evenodd;clip-rule:evenodd;fill:#2C6391;}
	.st8{fill-rule:evenodd;clip-rule:evenodd;fill:#3679A2;}
	.st9{fill-rule:evenodd;clip-rule:evenodd;fill:#3F8EB2;}
	.st10{fill-rule:evenodd;clip-rule:evenodd;fill:#2A5F8F;}
</style>
<image style="display:none;overflow:visible;enable-background:new    ;" width="1026" height="1026" xlink:href="9878B4439AD71F48.png"  transform="matrix(0.1358 0 0 0.1358 151.57 34.6684)">
</image>
<image style="display:none;overflow:visible;enable-background:new    ;" width="1000" height="229" xlink:href="9878B4439AD71F48.jpg"  transform="matrix(0.388 0 0 0.388 38 60.78)">
</image>
<image style="display:none;overflow:visible;enable-background:new    ;" width="1356" height="874" xlink:href="9878B4439AD71F4F.png"  transform="matrix(0.2196 0 0 0.2196 74.1968 13)">
</image>
<g>
	<g>
		<path class="st0" d="M72.7,85.1c0.1,0,0.1-0.1,0.2-0.2c-3.9-0.2-7.8-0.2-11.7-0.2c-0.4-0.5-0.6-1-0.8-1.5
			c4.6-0.1,9.1-0.2,13.7-0.3c0.5-1,0.8-2.1,1-3.2c-5.3,0.1-10.7,0-16-0.2c-0.2-0.5-0.2-1.1-0.2-1.7c5.5,0,11,0,16.5,0
			c-0.3-1.8,0.4-2.7,2.2-2.8c0.6,0.1,1,0.4,1.3,0.9c0.2,4.7-1.2,8.8-4.2,12.4c-1.5,1.6-3,3-4.8,4.3c-1-0.6-1.8-1.4-2.7-2.2
			C69.3,88.9,71.1,87.1,72.7,85.1z"/>
	</g>
	<g>
		<path class="st1" d="M74.1,82.9c-4.6,0.1-9.1,0.2-13.7,0.3c-0.1,0-0.1-0.1-0.2-0.2C64.8,82.9,69.4,82.8,74.1,82.9z"/>
	</g>
	<g>
		<path class="st2" d="M61.2,84.7c3.9-0.1,7.8,0,11.7,0.2c0,0.1-0.1,0.2-0.2,0.2C68.9,85,65,84.8,61.2,84.7z"/>
	</g>
	<g>
		<path class="st3" d="M62.4,99.4c-0.1,0-0.1,0.1-0.2,0.2c3.3,0.2,6.6,0.2,9.9,0.2c0.4,0.5,0.8,1,1.2,1.5c-4.1,0.1-8.2,0.2-12.4,0.3
			c-0.7,0.9-1.2,2-1.5,3.2c-0.1,0-0.1,0.1-0.2,0.2c5.2,0.2,10.5,0.2,15.7,0.2c0.2,0.5,0.3,1.1,0.3,1.7c-5.5,0-10.9,0-16.4,0
			c-0.2,1.2-0.2,2.4,0,3.5c5.4,0.2,10.9,0.2,16.4,0.2c0,0.2,0,0.4,0,0.7c-0.1,0.4-0.1,0.8-0.2,1.2c-5.3,0-10.6,0-15.9,0
			c0.2,1.2,0.7,2.3,1.3,3.3c4.3,0.1,8.7,0.2,13,0.3c-0.3,0.5-0.7,1-1,1.5c-3.6-0.1-7.2,0-10.9,0.2c0,0.1,0.1,0.2,0.2,0.2
			c1.6,1.8,3.3,3.4,5.2,4.9c-0.9,0.7-1.9,1.5-2.8,2.3c-2.2-1.7-4.1-3.7-5.8-5.8c-4.4-6.9-4.3-13.9,0.2-20.7c1.6-2.1,3.5-4,5.7-5.5
			c0.9,0.7,1.9,1.4,2.8,2.2C65.4,96.4,63.8,97.8,62.4,99.4z"/>
	</g>
	<g>
		<path class="st0" d="M127,98.4c1.5-0.2,2.8,0.1,4,0.9c1.1,1.6,1.1,3.3,0.1,4.9c-1.7,1.2-3.5,1.3-5.4,0.4c-1.3-1.2-1.7-2.7-1.1-4.4
			C125.2,99.3,126,98.7,127,98.4z"/>
	</g>
	<g>
		<path class="st4" d="M329.8,98.4c2.3,0,4.6,0,6.8,0c0,11.8,0,23.6,0,35.4c-2.3,0-4.6,0-6.8,0C329.8,122,329.8,110.2,329.8,98.4z"
			/>
	</g>
	<g>
		<path class="st5" d="M62.4,99.4c3.2,0.1,6.5,0.2,9.7,0.3c-3.3,0.1-6.6,0-9.9-0.2C62.2,99.5,62.3,99.4,62.4,99.4z"/>
	</g>
	<g>
		<path class="st6" d="M73.2,101.3c0.1,0,0.1,0.1,0.2,0.2c-4.2,0.2-8.4,0.2-12.5,0.2C65,101.5,69.1,101.4,73.2,101.3z"/>
	</g>
	<g>
		<path class="st4" d="M170.8,102.9c1.5,0,3,0,4.5,0c0,1.8,0,3.7,0,5.5c2.4,0,4.8,0,7.2,0c0,1.7,0,3.5,0,5.2c-2.4,0-4.8,0-7.2,0
			c0,4.4,0,8.8,0.1,13.2c0.6,1.4,1.6,2.1,3.2,1.8c1.4,0,2.8-0.3,4.1-0.7c0,1.7,0,3.5,0,5.2c-2.8,0.9-5.7,1.3-8.7,0.9
			c-3.3-0.8-5.1-2.9-5.4-6.3c-0.1-4.7-0.1-9.5-0.1-14.2c-1.1,0-2.2,0-3.3,0c0-1,0-2,0.1-3c1.3-0.7,2.5-1.5,3.7-2.3
			C169.6,106.5,170.2,104.7,170.8,102.9z"/>
	</g>
	<g>
		<path class="st7" d="M59.4,104.8c5.2,0.1,10.4,0.2,15.5,0.3c-5.2,0.1-10.5,0-15.7-0.2C59.2,104.8,59.3,104.8,59.4,104.8z"/>
	</g>
	<g>
		<path class="st4" d="M223.9,108c3.6-0.3,7,0.3,10.2,1.8c-0.7,1.7-1.4,3.4-2,5.1c-0.1,0.1-0.2,0.1-0.3,0.2
			c-1.2-0.5-2.5-0.9-3.8-1.3c-4-0.8-6.3,0.8-7.1,4.8c-0.1,2.1-0.1,4.1,0.2,6.2c1,3.1,3.2,4.4,6.4,3.9c2-0.2,3.9-0.9,5.6-2.1
			c0.1,2,0.1,4-0.1,6c-2.3,1.3-4.7,1.8-7.4,1.7c-4.4,0.4-7.8-1.2-10.3-4.8c-1.6-3.7-2.1-7.5-1.5-11.5
			C214.9,112.1,218.3,108.8,223.9,108z"/>
	</g>
	<g>
		<path class="st4" d="M262.5,115.6c0,6,0,12,0,18c-2.2,0-4.5,0-6.7,0c0.1-5.2,0-10.4-0.2-15.5c-0.2-3.9-2.2-5.3-6-4.4
			c-1.2,0.4-2,1.1-2.6,2.3c-0.4,1-0.7,2-0.8,3c-0.1,4.9-0.1,9.8-0.1,14.7c-2.3,0-4.6,0-6.8,0c0-8.4,0-16.8,0-25.2
			c1.7-0.1,3.5,0,5.2,0.2c0.4,1,0.7,2,0.8,3c0.2,0,0.5,0,0.7-0.2c1.9-2.5,4.4-3.7,7.6-3.5C258.9,107.9,261.8,110.4,262.5,115.6z"/>
	</g>
	<g>
		<path class="st4" d="M124.7,108.5c2.3,0,4.6,0,6.8,0c0,8.5,0,16.9,0,25.4c-2.3,0-4.6,0-6.8,0C124.7,125.4,124.7,116.9,124.7,108.5
			z"/>
	</g>
	<g>
		<path class="st8" d="M58.9,110.3c5.5,0,11,0,16.5,0c0,0.3,0,0.6-0.2,0.8c0-0.2,0-0.4,0-0.7C69.7,110.5,64.3,110.5,58.9,110.3z"/>
	</g>
	<path class="st4" d="M209.5,116.6c-0.8-4.3-3.3-7-7.4-8.3c-1.9-0.3-3.9-0.5-5.8-0.4c-2.1,0.4-4.1,1.3-5.8,2.6c-3,3-4.3,6.5-4,10.8
		c-0.1,7.3,3.5,11.6,10.7,12.8c3.8,0.5,7.5,0,11-1.6c0.2-1.8,0.2-3.6,0-5.3c-2.6,1.3-5.4,2-8.4,2c-4.1-0.2-6.2-2.3-6.3-6.3
		c5.5,0,10.9,0,16.4,0C209.8,120.8,209.7,118.7,209.5,116.6z M203,118.1c-3.2,0-6.3,0-9.5,0c0-2.4,1-4.1,3.2-5.1
		c3.4-0.8,5.6,0.6,6.3,3.9C203,117.4,203,117.8,203,118.1z"/>
	<path class="st4" d="M157.4,110.4c-3-2-6.4-2.8-10-2.4c-5.3,0.9-8.6,4-9.8,9.4c-0.2,2.1-0.3,4.2-0.2,6.3c0.9,5.8,4.1,9.2,9.8,10.4
		c9.5,0.7,14.4-3.7,14.7-13.3C162,116.6,160.5,113.1,157.4,110.4z M154.7,123.3c-0.3,4-2.4,5.8-6.4,5.3c-2.2-0.7-3.4-2.3-3.6-4.6
		c-0.5-2.7-0.3-5.3,0.5-7.9c0.7-1.4,1.9-2.3,3.4-2.7c3.5-0.3,5.6,1.3,6.1,4.8C154.8,120,154.8,121.7,154.7,123.3z"/>
	<path class="st4" d="M292.7,118.8c-0.3-3.3-1.7-6-4.1-8.3c-3.1-2.1-6.4-3-10.2-2.6c-3,0.5-5.5,1.9-7.6,4.2c-2.1,3.4-3,7-2.5,11
		c1.5,8.2,6.3,11.8,14.6,10.9c4-0.6,6.9-2.7,8.6-6.3C292.7,124.9,293.1,121.9,292.7,118.8z M284.8,126.3c-0.6,1.2-1.6,2-2.9,2.3
		c-3.8,0.6-6-1.1-6.4-4.9c-0.5-2.6-0.3-5.2,0.7-7.7c0.7-1.3,1.8-2.2,3.3-2.5c3.7-0.3,5.8,1.5,6.3,5.2
		C285.9,121.3,285.7,123.8,284.8,126.3z"/>
	<path class="st4" d="M366.7,117.1c-0.8-3.1-2.5-5.6-5.1-7.4c-2.8-1.5-5.8-2.1-9-1.8c-4.7,0.7-7.8,3.4-9.4,7.9
		c-0.6,2.9-0.8,5.8-0.3,8.7c0.5,3,2,5.5,4.3,7.4c3,2,6.4,2.8,10,2.2c5.6-1.1,8.9-4.4,9.8-10.1C367,121.7,366.9,119.4,366.7,117.1z
		 M359.5,125.2c-1,2.9-3,4-6.1,3.4c-2.1-0.6-3.3-1.9-3.6-4.1c-0.2-2.1-0.3-4.1-0.2-6.2c0.3-2.5,1.7-4.2,4.1-4.8
		c3.6-0.2,5.6,1.5,6.1,5C360,120.7,359.9,123,359.5,125.2z"/>
	<g>
		<path class="st9" d="M60.5,115.6c4.4-0.1,8.8,0,13.2,0.2c0,0.1-0.1,0.2-0.2,0.2C69.2,115.9,64.9,115.8,60.5,115.6z"/>
	</g>
	<g>
		<path class="st10" d="M72.6,117.5c-3.6,0.1-7.1,0.2-10.7,0.3c-0.1,0-0.1-0.1-0.2-0.2C65.3,117.5,68.9,117.4,72.6,117.5z"/>
	</g>
	<g>
		<path class="st4" d="M203,117c0.2,0.4,0.2,0.9,0.2,1.3c-3.3,0.1-6.5,0-9.7-0.2c3.2,0,6.3,0,9.5,0C203,117.8,203,117.4,203,117z"/>
	</g>
	<path class="st4" d="M317.8,116.3c1.5-0.4,2.8-1.3,3.8-2.5c1.1-2.1,1.5-4.3,1.2-6.7c-0.3-1.5-1.1-2.9-2.3-3.9
		c-2-1.3-4.1-2.1-6.5-2.3c-5-0.2-9.9-0.3-14.9-0.3c0,11.1,0,22.2,0,33.2c4.6,0,9.2,0,13.9-0.1c1.8-0.1,3.5-0.5,5.2-1.2
		c3.7-1.7,5.5-4.5,5.5-8.6C323.7,119.9,321.8,117.3,317.8,116.3z M306.1,106.5c1.9,0,3.9,0,5.8,0.1c3.3,0.4,4.4,2.3,3.3,5.4
		c-0.3,0.5-0.6,0.8-1.1,1.1c-0.8,0.3-1.6,0.5-2.5,0.7c-1.8,0.1-3.7,0.1-5.5,0.1C306.1,111.4,306.1,108.9,306.1,106.5z M316.2,125
		c-0.7,1.8-2,2.7-3.9,2.8c-2,0-4,0-6,0c0-2.8,0-5.6,0-8.4c1.9,0,3.8,0,5.7,0C315.4,119.7,316.8,121.6,316.2,125z"/>
	<path class="st4" d="M118.5,123.9c0-4.1-1.9-6.6-5.8-7.6c1.9-0.5,3.3-1.6,4.3-3.3c2.1-7.5-0.8-11.5-8.6-12.1
		c-4.8-0.2-9.6-0.3-14.4-0.3c0,11.1,0,22.2,0,33.2c4.6,0,9.2,0,13.9-0.1c1.8-0.1,3.5-0.5,5.2-1.2C116.8,131,118.6,128.1,118.5,123.9
		z M101,106.3c1.5-0.1,3,0,4.5,0.2c1.6-0.1,3,0.3,4.3,1.2c1,1.6,1,3.2,0,4.8c-0.9,0.8-2,1.2-3.3,1.2c-1.8,0.2-3.6,0.2-5.5,0.2
		C101,111.3,101,108.8,101,106.3z M110.6,126.2c-0.9,1-2,1.6-3.4,1.8c-2,0.1-4,0.1-6,0.1c-0.2-2.9-0.2-5.8-0.2-8.7
		c2-0.1,3.9,0,5.8,0.2C111,120.1,112.2,122.3,110.6,126.2z"/>
	<g>
		<path class="st4" d="M312,119.5c-1.9,0-3.8,0-5.7,0c0,2.8,0,5.6,0,8.4c2,0,4,0,6,0c-2,0.2-4.1,0.2-6.2,0.2c0-2.9,0-5.8,0-8.7
			C308.1,119.3,310,119.3,312,119.5z"/>
	</g>
	<g>
		<path class="st4" d="M69.7,125c3.7,2.6,6.5,5.9,8.3,10c0.8,2.3,1,4.6,0.7,7c-0.8,0.7-1.6,0.8-2.6,0.4c-0.6-0.7-0.8-1.5-0.7-2.4
			c-5.5,0-11,0-16.5,0c0-0.6,0-1.2,0.2-1.8c5.3-0.1,10.7-0.1,16-0.1c-0.1-1.1-0.4-2.1-0.8-3c-4.7-0.1-9.4-0.2-14-0.3
			c0.2-0.5,0.5-1,0.8-1.5c4-0.1,8-0.2,12-0.3c-1.7-2.2-3.7-4.2-6-5.8C68,126.6,68.9,125.8,69.7,125z"/>
	</g>
	<g>
		<path class="st4" d="M262.5,115.6c0.2,6,0.2,12.1,0.2,18.2c-2.3,0-4.7,0-7,0c0-5.2,0-10.5,0-15.7c0.2,5.2,0.2,10.3,0.2,15.5
			c2.2,0,4.5,0,6.7,0C262.5,127.7,262.5,121.7,262.5,115.6z"/>
	</g>
	<g>
		<path class="st4" d="M239.3,108.5c0,8.4,0,16.8,0,25.2c2.3,0,4.6,0,6.8,0c-2.3,0.2-4.6,0.2-7,0.2
			C239.1,125.4,239.1,116.9,239.3,108.5z"/>
	</g>
	<path class="st4" d="M394.8,108.5c-3.1,0-6.2,0-9.4-0.1c-1.9-0.3-3.8-0.5-5.7-0.4c-6.2,0.7-9,4.3-8.4,10.5c0.5,2.5,1.9,4.3,4.1,5.4
		c-0.9,0.6-1.7,1.2-2.4,1.9c-1.4,2.6-0.8,4.6,1.8,6.1c-0.6,0.1-1.1,0.3-1.7,0.5c-4,2.1-4.9,5.1-2.8,9.1c1.8,2,4,3,6.6,3.3
		c2.7,0.1,5.5,0.1,8.2-0.2c1.7-0.4,3.4-0.9,5-1.7c2.3-1.2,3.8-3.2,4.3-5.8c0.6-5.4-1.8-8.3-7.3-8.6c-2.6-0.1-5.1-0.1-7.7-0.2
		c-0.4-0.1-0.8-0.3-1.2-0.5c-0.5-1-0.4-1.8,0.5-2.5c2,0,4-0.1,6-0.3c2.9-0.5,5-2.1,6.4-4.6c1.1-2.6,1-5.2-0.3-7.7
		c1.3-0.3,2.6-0.5,3.8-0.8C394.8,110.8,394.8,109.6,394.8,108.5z M378.1,134.2c2.5,0,5,0,7.5,0.1c2.5,0.2,3.3,1.5,2.4,3.8
		c-1,1.2-2.2,1.8-3.8,2.1c-2.2,0.3-4.5,0.3-6.7,0c-2.2-0.7-2.8-2.2-1.9-4.3C376.3,135.1,377.2,134.5,378.1,134.2z M385.2,118.3
		c-0.5,2-1.7,2.9-3.8,2.8c-1.5,0-2.6-0.6-3.3-2c-0.7-2-0.5-4,0.5-5.8c0.5-0.5,1.1-0.9,1.8-1.2c2.4-0.4,4,0.6,4.8,2.8
		C385.3,116.1,385.3,117.2,385.2,118.3z"/>
</g>
</svg>
