<?xml version="1.0" encoding="utf-8"?>
<!-- Generator: Adobe Illustrator 27.8.1, SVG Export Plug-In . SVG Version: 6.00 Build 0)  -->
<svg version="1.1" id="Layer_1" xmlns="http://www.w3.org/2000/svg" xmlns:xlink="http://www.w3.org/1999/xlink" x="0px" y="0px"
	 viewBox="0 0 450 220" style="enable-background:new 0 0 450 220;" xml:space="preserve">
<style type="text/css">
	.st0{fill:#231F20;}
	.st1{clip-path:url(#SVGID_00000014631968078273949360000016414131735143469459_);fill:#231F20;}
</style>
<image style="display:none;overflow:visible;enable-background:new    ;" width="1026" height="1026" xlink:href="18C714E1C8F1E0A3.png"  transform="matrix(0.1358 0 0 0.1358 151.57 34.6684)">
</image>
<image style="display:none;overflow:visible;enable-background:new    ;" width="1000" height="229" xlink:href="18C714E1C8F1E0A1.jpg"  transform="matrix(0.388 0 0 0.388 38 60.78)">
</image>
<image style="display:none;overflow:visible;enable-background:new    ;" width="1356" height="874" xlink:href="18C714E1C8F1E0A7.png"  transform="matrix(0.2196 0 0 0.2196 74.1968 13)">
</image>
<g>
	<polygon class="st0" points="216.7,86.3 208.8,86.3 208.8,134.3 239.8,134.3 239.8,126.4 216.7,126.4 216.7,86.3 	"/>
	<polygon class="st0" points="261.7,134.3 296.9,134.3 296.9,126.4 261.7,126.4 261.7,134.3 	"/>
	<polygon class="st0" points="296.9,106.3 261.8,106.3 261.8,114.3 296.9,114.3 296.9,106.3 	"/>
	<polygon class="st0" points="261.7,94.2 296.9,94.2 296.9,86.3 261.7,86.3 261.7,94.2 	"/>
	<polygon class="st0" points="110.1,86.3 88.7,134.3 97.4,134.3 114,96.9 130.7,134.3 139.4,134.3 118,86.3 114,86.3 110.1,86.3 	
		"/>
	<path class="st0" d="M53.3,93.6c4.5,0,8.6,1.8,11.6,4.8l5.6-5.6c-4.4-4.4-10.5-7.1-17.2-7.1C39.9,85.7,29,96.6,29,110
		s10.9,24.3,24.3,24.3c6.7,0,12.8-2.7,17.2-7.1l-5.6-5.6c-3,3-7.1,4.8-11.6,4.8c-9,0-16.4-7.4-16.4-16.4
		C36.9,101,44.3,93.6,53.3,93.6L53.3,93.6z"/>
	<polygon class="st0" points="169.3,110 158.7,86.3 150,86.3 165.3,120.6 165.3,134.3 173.2,134.3 173.2,120.6 188.5,86.3 
		179.8,86.3 169.3,110 	"/>
	<g>
		<defs>
			<rect id="SVGID_1_" x="29" y="85.7" width="392" height="48.7"/>
		</defs>
		<clipPath id="SVGID_00000080893495715121950810000018299040562249317522_">
			<use xlink:href="#SVGID_1_"  style="overflow:visible;"/>
		</clipPath>
		<polygon style="clip-path:url(#SVGID_00000080893495715121950810000018299040562249317522_);fill:#231F20;" points="354.5,121.5 
			327,86.3 319,86.3 319,134.3 326.9,134.3 326.9,99.1 354.4,134.3 362.5,134.3 362.5,86.3 354.5,86.3 354.5,121.5 		"/>
		<polygon style="clip-path:url(#SVGID_00000080893495715121950810000018299040562249317522_);fill:#231F20;" points="384.6,86.3 
			384.6,94.2 398.8,94.2 398.8,134.3 406.8,134.3 406.8,94.2 421,94.2 421,86.3 384.6,86.3 		"/>
	</g>
	<polygon class="st0" points="118.7,125.7 99.2,125.7 99.2,117.9 115.3,117.9 118.7,125.7 	"/>
</g>
</svg>
