<?xml version="1.0" encoding="utf-8"?>
<!-- Generator: Adobe Illustrator 27.5.0, SVG Export Plug-In . SVG Version: 6.00 Build 0)  -->
<svg version="1.1" id="Layer_1" xmlns="http://www.w3.org/2000/svg" xmlns:xlink="http://www.w3.org/1999/xlink" x="0px" y="0px"
	 viewBox="0 0 450 220" style="enable-background:new 0 0 450 220;" xml:space="preserve">
<style type="text/css">
	.st0{fill:#231F20;}
</style>
<g>
	<g>
		<path class="st0" d="M142.48,104.39c-1.39,0-2.7-0.25-3.9-0.76s-2.26-1.19-3.15-2.05c-0.89-0.86-1.6-1.87-2.11-3.04
			c-0.51-1.16-0.77-2.41-0.77-3.73c0-1.34,0.26-2.6,0.77-3.76c0.51-1.16,1.21-2.18,2.11-3.05c0.89-0.87,1.94-1.55,3.15-2.05
			c1.21-0.49,2.51-0.74,3.9-0.74c1.07,0,2.07,0.14,3.02,0.43c0.95,0.29,1.81,0.69,2.6,1.2c0.78,0.51,1.47,1.12,2.06,1.83
			c0.59,0.71,1.07,1.49,1.44,2.34l-3.95,1.56c-0.44-0.98-1.11-1.76-2.01-2.35c-0.9-0.58-1.94-0.88-3.12-0.88
			c-0.81,0-1.55,0.14-2.24,0.43c-0.69,0.29-1.29,0.67-1.8,1.16c-0.51,0.49-0.91,1.07-1.19,1.73c-0.28,0.66-0.42,1.37-0.42,2.13
			c0,0.74,0.14,1.44,0.42,2.1c0.28,0.66,0.68,1.24,1.19,1.73c0.51,0.49,1.12,0.88,1.81,1.16c0.7,0.29,1.45,0.43,2.25,0.43
			c1.24,0,2.3-0.31,3.19-0.93c0.88-0.62,1.54-1.42,1.98-2.4l3.95,1.59c-0.37,0.85-0.85,1.64-1.44,2.37
			c-0.59,0.73-1.27,1.35-2.04,1.87c-0.77,0.52-1.64,0.93-2.6,1.22C144.63,104.24,143.59,104.39,142.48,104.39z"/>
		<path class="st0" d="M153.33,80.18h4.41v7.71c0.65-0.83,1.46-1.48,2.43-1.96c0.97-0.48,2.06-0.72,3.28-0.72
			c2.37,0,4.23,0.71,5.57,2.12c1.34,1.41,2.01,3.38,2.01,5.9v11.13h-4.51v-10.6c0-1.47-0.36-2.62-1.08-3.46
			c-0.72-0.84-1.8-1.26-3.23-1.26c-0.61,0-1.19,0.11-1.73,0.34c-0.54,0.22-1.02,0.55-1.42,0.97c-0.4,0.43-0.72,0.96-0.95,1.6
			c-0.23,0.64-0.34,1.36-0.34,2.17v10.25h-4.44V80.18z"/>
		<path class="st0" d="M173.55,85.24h4.44v19.11h-4.44V85.24z"/>
		<path class="st0" d="M189.85,104.39c-1.39,0-2.7-0.25-3.9-0.76s-2.26-1.19-3.15-2.05c-0.89-0.86-1.6-1.87-2.11-3.04
			c-0.51-1.16-0.77-2.41-0.77-3.73c0-1.34,0.26-2.6,0.77-3.76c0.51-1.16,1.21-2.18,2.11-3.05c0.89-0.87,1.94-1.55,3.15-2.05
			c1.21-0.49,2.51-0.74,3.9-0.74c1.07,0,2.07,0.14,3.02,0.43c0.95,0.29,1.81,0.69,2.6,1.2c0.78,0.51,1.47,1.12,2.06,1.83
			c0.59,0.71,1.07,1.49,1.44,2.34l-3.95,1.56c-0.44-0.98-1.11-1.76-2.01-2.35c-0.9-0.58-1.94-0.88-3.12-0.88
			c-0.81,0-1.55,0.14-2.24,0.43c-0.69,0.29-1.29,0.67-1.8,1.16c-0.51,0.49-0.91,1.07-1.19,1.73c-0.28,0.66-0.42,1.37-0.42,2.13
			c0,0.74,0.14,1.44,0.42,2.1c0.28,0.66,0.68,1.24,1.19,1.73c0.51,0.49,1.12,0.88,1.81,1.16c0.7,0.29,1.45,0.43,2.25,0.43
			c1.24,0,2.3-0.31,3.19-0.93c0.88-0.62,1.54-1.42,1.98-2.4l3.95,1.59c-0.37,0.85-0.85,1.64-1.44,2.37
			c-0.59,0.73-1.27,1.35-2.04,1.87c-0.77,0.52-1.64,0.93-2.6,1.22C192,104.24,190.96,104.39,189.85,104.39z"/>
		<path class="st0" d="M209.32,104.39c-1.15,0-2.29-0.22-3.41-0.65c-1.12-0.43-2.13-1.06-3.02-1.87c-0.89-0.82-1.61-1.82-2.16-3.01
			c-0.54-1.19-0.82-2.54-0.82-4.05c0-1.53,0.27-2.89,0.8-4.08c0.53-1.19,1.24-2.19,2.12-3.01c0.88-0.82,1.89-1.44,3.04-1.87
			c1.14-0.43,2.31-0.65,3.51-0.65c1.26,0,2.43,0.23,3.5,0.69c1.07,0.46,1.95,1.08,2.65,1.87v-2.52h4.41v19.11h-4.41v-2.72
			c-0.7,0.85-1.59,1.53-2.68,2.01C211.76,104.14,210.59,104.39,209.32,104.39z M210.04,100.34c0.83,0,1.59-0.14,2.29-0.43
			c0.7-0.29,1.3-0.69,1.8-1.2c0.5-0.51,0.9-1.1,1.19-1.78c0.29-0.67,0.44-1.4,0.44-2.18c0-0.76-0.15-1.47-0.44-2.15
			c-0.29-0.67-0.69-1.26-1.19-1.76c-0.5-0.5-1.1-0.89-1.8-1.18c-0.7-0.29-1.46-0.43-2.29-0.43c-0.81,0-1.56,0.14-2.27,0.43
			c-0.71,0.29-1.32,0.67-1.85,1.17c-0.52,0.49-0.93,1.07-1.22,1.75c-0.29,0.67-0.44,1.4-0.44,2.18c0,0.78,0.15,1.51,0.44,2.19
			c0.29,0.69,0.7,1.28,1.22,1.78c0.52,0.5,1.14,0.9,1.85,1.18C208.48,100.19,209.24,100.34,210.04,100.34z"/>
		<path class="st0" d="M229.64,104.39c-2.11,0-3.87-0.39-5.26-1.18c-1.39-0.79-2.47-1.92-3.23-3.41l4.08-1.84
			c0.46,0.84,1.08,1.48,1.86,1.93c0.78,0.45,1.7,0.67,2.74,0.67c1.09,0,1.91-0.22,2.45-0.65c0.54-0.44,0.82-0.96,0.82-1.56
			c0-0.33-0.13-0.6-0.38-0.81c-0.25-0.21-0.58-0.39-0.98-0.54c-0.4-0.16-0.88-0.29-1.42-0.39c-0.54-0.1-1.11-0.22-1.7-0.34
			c-0.83-0.17-1.64-0.36-2.43-0.59c-0.8-0.23-1.51-0.54-2.14-0.95c-0.63-0.4-1.14-0.92-1.54-1.56c-0.39-0.63-0.59-1.43-0.59-2.38
			c0-0.73,0.18-1.43,0.54-2.1c0.36-0.67,0.87-1.27,1.52-1.79s1.44-0.93,2.37-1.23c0.93-0.3,1.95-0.45,3.09-0.45
			c1.92,0,3.51,0.35,4.79,1.06c1.27,0.71,2.28,1.67,3.02,2.9l-3.76,1.78c-0.39-0.64-0.94-1.15-1.63-1.52
			c-0.7-0.37-1.5-0.56-2.42-0.56c-1.05,0-1.82,0.2-2.32,0.59c-0.5,0.39-0.75,0.85-0.75,1.37c0,0.6,0.37,1.03,1.11,1.29
			c0.74,0.26,1.83,0.53,3.27,0.83c0.78,0.15,1.57,0.34,2.37,0.58c0.79,0.24,1.52,0.56,2.17,0.97s1.18,0.92,1.58,1.56
			c0.4,0.63,0.6,1.43,0.6,2.38c0,0.64-0.15,1.31-0.46,2.01c-0.31,0.7-0.78,1.34-1.42,1.93c-0.64,0.59-1.45,1.08-2.43,1.45
			C232.19,104.2,231.02,104.39,229.64,104.39z"/>
		<path class="st0" d="M254.81,104.38c-1.5,0-2.87-0.25-4.11-0.74c-1.24-0.49-2.3-1.17-3.18-2.03c-0.88-0.86-1.57-1.87-2.06-3.04
			c-0.49-1.16-0.73-2.41-0.73-3.73c0-1.34,0.26-2.6,0.77-3.78c0.51-1.17,1.21-2.19,2.11-3.05c0.89-0.86,1.94-1.54,3.15-2.05
			c1.21-0.5,2.51-0.76,3.9-0.76c1.41,0,2.73,0.23,3.94,0.69s2.25,1.1,3.12,1.93c0.87,0.83,1.55,1.8,2.04,2.92
			c0.49,1.12,0.73,2.35,0.73,3.67v1.56h-15.54c0.3,1.35,0.97,2.44,1.99,3.27c1.02,0.83,2.32,1.24,3.89,1.24
			c1.24,0,2.32-0.3,3.23-0.91c0.91-0.61,1.6-1.43,2.06-2.45l3.62,2.09c-0.83,1.55-1.99,2.79-3.48,3.74
			C258.75,103.91,256.94,104.38,254.81,104.38z M254.65,89.1c-1.33,0-2.48,0.29-3.45,0.88c-0.97,0.59-1.65,1.36-2.04,2.32H260
			c-0.33-1.05-0.96-1.84-1.89-2.39C257.17,89.37,256.02,89.1,254.65,89.1z"/>
		<path class="st0" d="M266.43,85.24h4.38v2.61c0.63-0.8,1.43-1.44,2.4-1.92c0.97-0.48,2.07-0.72,3.31-0.72
			c2.37,0,4.23,0.7,5.57,2.12c1.34,1.41,2.01,3.38,2.01,5.9v11.12h-4.47V93.72c0-1.45-0.36-2.59-1.08-3.43
			c-0.72-0.84-1.8-1.26-3.23-1.26c-1.26,0-2.32,0.44-3.18,1.31c-0.86,0.87-1.29,2.13-1.29,3.76v10.24h-4.41V85.24z"/>
	</g>
	<g>
		<path class="st0" d="M132.49,113.98h3.27v-2.91l4.44-3.04v5.95h3.89v3.95h-3.89v7.15c0,0.83,0.04,1.5,0.13,2.01
			c0.09,0.51,0.27,0.9,0.54,1.18c0.27,0.27,0.66,0.45,1.18,0.54c0.51,0.09,1.19,0.13,2.04,0.13v4.15h-0.62
			c-1.48,0-2.72-0.13-3.71-0.39c-0.99-0.26-1.78-0.7-2.37-1.32c-0.59-0.62-1.01-1.44-1.26-2.45c-0.25-1.01-0.38-2.28-0.38-3.81
			v-7.19h-3.27V113.98z"/>
		<path class="st0" d="M155.03,133.12c-1.5,0-2.87-0.25-4.12-0.74c-1.24-0.49-2.3-1.17-3.19-2.03c-0.88-0.86-1.57-1.87-2.06-3.04
			c-0.49-1.16-0.73-2.41-0.73-3.73c0-1.34,0.26-2.6,0.77-3.78c0.51-1.18,1.21-2.19,2.11-3.05c0.89-0.86,1.94-1.54,3.15-2.05
			c1.21-0.5,2.51-0.76,3.9-0.76c1.42,0,2.73,0.23,3.94,0.69c1.21,0.46,2.25,1.1,3.12,1.93c0.87,0.83,1.55,1.8,2.04,2.93
			c0.49,1.12,0.73,2.35,0.73,3.67v1.56h-15.55c0.3,1.35,0.97,2.44,1.99,3.27c1.02,0.83,2.32,1.24,3.89,1.24
			c1.24,0,2.32-0.3,3.23-0.91c0.91-0.61,1.6-1.43,2.06-2.45l3.63,2.09c-0.83,1.55-1.99,2.79-3.48,3.74
			C158.98,132.65,157.16,133.12,155.03,133.12z M154.87,117.83c-1.33,0-2.48,0.29-3.45,0.88c-0.97,0.59-1.65,1.36-2.04,2.32h10.85
			c-0.33-1.05-0.96-1.85-1.89-2.39C157.39,118.11,156.24,117.83,154.87,117.83z"/>
		<path class="st0" d="M175.97,133.12c-1.39,0-2.7-0.25-3.9-0.76s-2.26-1.19-3.15-2.05c-0.89-0.86-1.6-1.87-2.11-3.04
			c-0.51-1.16-0.77-2.41-0.77-3.73c0-1.34,0.26-2.6,0.77-3.76c0.51-1.16,1.21-2.18,2.11-3.05c0.89-0.87,1.94-1.55,3.15-2.05
			c1.21-0.49,2.51-0.74,3.9-0.74c1.07,0,2.07,0.14,3.02,0.43c0.95,0.29,1.81,0.69,2.6,1.2c0.78,0.51,1.47,1.12,2.06,1.83
			c0.59,0.71,1.07,1.49,1.44,2.34l-3.95,1.56c-0.44-0.98-1.11-1.76-2.01-2.35c-0.9-0.58-1.94-0.88-3.12-0.88
			c-0.81,0-1.55,0.14-2.24,0.43c-0.69,0.29-1.29,0.67-1.8,1.16c-0.51,0.49-0.91,1.07-1.19,1.73c-0.28,0.66-0.42,1.37-0.42,2.13
			c0,0.74,0.14,1.44,0.42,2.1c0.28,0.66,0.68,1.24,1.19,1.73c0.51,0.49,1.12,0.88,1.81,1.16c0.7,0.29,1.45,0.43,2.25,0.43
			c1.24,0,2.3-0.31,3.19-0.93c0.88-0.62,1.54-1.42,1.98-2.4l3.95,1.59c-0.37,0.85-0.85,1.64-1.44,2.37
			c-0.59,0.73-1.27,1.35-2.04,1.87c-0.77,0.52-1.64,0.93-2.6,1.22C178.11,132.98,177.08,133.12,175.97,133.12z"/>
		<path class="st0" d="M186.82,113.98h4.38v2.61c0.63-0.8,1.43-1.44,2.4-1.92c0.97-0.48,2.07-0.72,3.32-0.72
			c2.37,0,4.23,0.71,5.57,2.12c1.34,1.41,2.01,3.38,2.01,5.9v11.13h-4.48v-10.63c0-1.45-0.36-2.59-1.08-3.43
			c-0.72-0.84-1.8-1.26-3.23-1.26c-1.26,0-2.32,0.44-3.19,1.31c-0.86,0.87-1.29,2.13-1.29,3.77v10.25h-4.41V113.98z"/>
		<path class="st0" d="M216.31,133.12c-1.37,0-2.66-0.25-3.87-0.74c-1.21-0.49-2.26-1.18-3.15-2.05c-0.89-0.87-1.6-1.89-2.11-3.05
			c-0.51-1.16-0.77-2.41-0.77-3.73c0-1.34,0.26-2.6,0.77-3.76c0.51-1.16,1.21-2.18,2.11-3.05c0.89-0.87,1.94-1.55,3.15-2.05
			c1.21-0.49,2.5-0.74,3.87-0.74s2.66,0.25,3.85,0.74c1.2,0.49,2.25,1.18,3.15,2.05c0.9,0.87,1.61,1.89,2.12,3.05
			c0.51,1.17,0.77,2.42,0.77,3.76c0,1.32-0.26,2.57-0.77,3.73c-0.51,1.17-1.22,2.18-2.12,3.05c-0.9,0.87-1.96,1.55-3.15,2.05
			C218.97,132.88,217.69,133.12,216.31,133.12z M216.31,128.97c0.78,0,1.51-0.14,2.19-0.43c0.67-0.29,1.26-0.67,1.76-1.16
			c0.5-0.49,0.89-1.07,1.18-1.73c0.28-0.66,0.42-1.36,0.42-2.1c0-0.76-0.14-1.47-0.42-2.13c-0.28-0.66-0.68-1.24-1.18-1.73
			c-0.5-0.49-1.09-0.88-1.76-1.16c-0.68-0.29-1.4-0.43-2.19-0.43c-0.78,0-1.52,0.14-2.21,0.43c-0.69,0.29-1.27,0.67-1.76,1.16
			c-0.49,0.49-0.88,1.07-1.16,1.73c-0.28,0.66-0.42,1.37-0.42,2.13c0,0.74,0.14,1.44,0.42,2.1c0.28,0.66,0.67,1.24,1.16,1.73
			c0.49,0.49,1.08,0.88,1.76,1.16C214.8,128.83,215.53,128.97,216.31,128.97z"/>
		<path class="st0" d="M228.14,108.92h4.44v24.17h-4.44V108.92z"/>
		<path class="st0" d="M244.41,133.12c-1.37,0-2.66-0.25-3.87-0.74c-1.21-0.49-2.26-1.18-3.15-2.05c-0.89-0.87-1.6-1.89-2.11-3.05
			c-0.51-1.16-0.77-2.41-0.77-3.73c0-1.34,0.26-2.6,0.77-3.76c0.51-1.16,1.21-2.18,2.11-3.05c0.89-0.87,1.94-1.55,3.15-2.05
			c1.21-0.49,2.5-0.74,3.87-0.74s2.66,0.25,3.85,0.74c1.2,0.49,2.25,1.18,3.15,2.05c0.9,0.87,1.61,1.89,2.12,3.05
			c0.51,1.17,0.77,2.42,0.77,3.76c0,1.32-0.26,2.57-0.77,3.73c-0.51,1.17-1.22,2.18-2.12,3.05c-0.9,0.87-1.96,1.55-3.15,2.05
			C247.07,132.88,245.78,133.12,244.41,133.12z M244.41,128.97c0.78,0,1.51-0.14,2.19-0.43c0.67-0.29,1.26-0.67,1.76-1.16
			c0.5-0.49,0.89-1.07,1.18-1.73c0.28-0.66,0.42-1.36,0.42-2.1c0-0.76-0.14-1.47-0.42-2.13c-0.28-0.66-0.68-1.24-1.18-1.73
			c-0.5-0.49-1.09-0.88-1.76-1.16c-0.68-0.29-1.4-0.43-2.19-0.43c-0.78,0-1.52,0.14-2.21,0.43c-0.69,0.29-1.27,0.67-1.76,1.16
			c-0.49,0.49-0.88,1.07-1.16,1.73c-0.28,0.66-0.42,1.37-0.42,2.13c0,0.74,0.14,1.44,0.42,2.1c0.28,0.66,0.67,1.24,1.16,1.73
			c0.49,0.49,1.08,0.88,1.76,1.16C242.89,128.83,243.63,128.97,244.41,128.97z"/>
		<path class="st0" d="M271.43,130.18c-0.7,0.91-1.59,1.63-2.68,2.16c-1.09,0.52-2.28,0.78-3.56,0.78c-1.15,0-2.29-0.22-3.41-0.65
			c-1.12-0.43-2.13-1.06-3.02-1.87c-0.89-0.82-1.61-1.82-2.16-3.01c-0.54-1.19-0.82-2.54-0.82-4.05c0-1.53,0.27-2.89,0.8-4.08
			c0.53-1.19,1.24-2.19,2.12-3.01c0.88-0.82,1.89-1.44,3.04-1.87c1.14-0.43,2.31-0.65,3.51-0.65c1.26,0,2.43,0.25,3.5,0.74
			c1.07,0.49,1.95,1.16,2.65,1.99v-2.7h4.41v18.39c0,1.33-0.21,2.58-0.64,3.74c-0.42,1.16-1.05,2.18-1.88,3.05
			c-0.83,0.87-1.86,1.56-3.09,2.06c-1.23,0.51-2.65,0.76-4.26,0.76c-1.24,0-2.37-0.14-3.38-0.41c-1.01-0.27-1.92-0.65-2.73-1.14
			c-0.81-0.49-1.51-1.07-2.12-1.73c-0.61-0.66-1.13-1.4-1.57-2.2l3.92-2.38c0.7,1.28,1.48,2.24,2.35,2.87
			c0.87,0.63,2.07,0.95,3.59,0.95c0.83,0,1.58-0.15,2.25-0.46c0.67-0.3,1.25-0.71,1.71-1.21c0.47-0.5,0.83-1.09,1.08-1.76
			c0.25-0.68,0.38-1.37,0.38-2.09V130.18z M265.91,129.07c0.83,0,1.59-0.14,2.29-0.43c0.7-0.29,1.3-0.69,1.8-1.2
			c0.5-0.51,0.9-1.1,1.19-1.78c0.29-0.67,0.44-1.4,0.44-2.18c0-0.76-0.15-1.47-0.44-2.15c-0.29-0.67-0.69-1.26-1.19-1.76
			c-0.5-0.5-1.1-0.89-1.8-1.18c-0.7-0.29-1.46-0.43-2.29-0.43c-0.81,0-1.56,0.14-2.27,0.43c-0.71,0.29-1.32,0.67-1.85,1.17
			c-0.52,0.49-0.93,1.07-1.22,1.75c-0.29,0.67-0.44,1.4-0.44,2.18c0,0.78,0.15,1.51,0.44,2.19c0.29,0.69,0.7,1.28,1.22,1.78
			c0.52,0.5,1.14,0.9,1.85,1.18C264.34,128.93,265.1,129.07,265.91,129.07z"/>
		<path class="st0" d="M278.38,113.98h4.44v19.11h-4.44V113.98z M282.66,106.79h4.12l-4.05,5.55h-4.05L282.66,106.79z"/>
		<path class="st0" d="M294.16,133.12c-1.15,0-2.29-0.22-3.41-0.65c-1.12-0.43-2.13-1.06-3.02-1.87c-0.89-0.82-1.61-1.82-2.16-3.01
			c-0.54-1.19-0.82-2.54-0.82-4.05c0-1.53,0.27-2.89,0.8-4.08c0.53-1.19,1.24-2.19,2.12-3.01c0.88-0.82,1.89-1.44,3.04-1.87
			c1.14-0.43,2.31-0.65,3.51-0.65c1.26,0,2.43,0.23,3.5,0.69c1.07,0.46,1.95,1.08,2.65,1.87v-2.52h4.41v19.11h-4.41v-2.72
			c-0.7,0.85-1.59,1.53-2.68,2.01C296.6,132.88,295.43,133.12,294.16,133.12z M294.88,129.07c0.83,0,1.59-0.14,2.29-0.43
			c0.7-0.29,1.3-0.69,1.8-1.2c0.5-0.51,0.9-1.1,1.19-1.78c0.29-0.67,0.44-1.4,0.44-2.18c0-0.76-0.15-1.47-0.44-2.15
			c-0.29-0.67-0.69-1.26-1.19-1.76c-0.5-0.5-1.1-0.89-1.8-1.18c-0.7-0.29-1.46-0.43-2.29-0.43c-0.81,0-1.56,0.14-2.27,0.43
			c-0.71,0.29-1.32,0.67-1.85,1.17c-0.52,0.49-0.93,1.07-1.22,1.75c-0.29,0.67-0.44,1.4-0.44,2.18c0,0.78,0.15,1.51,0.44,2.19
			s0.7,1.28,1.22,1.78c0.52,0.5,1.14,0.9,1.85,1.18C293.32,128.93,294.08,129.07,294.88,129.07z"/>
	</g>
	<g>
		<path class="st0" d="M173.52,82.68v-2.23l4.5-2.43v4.66H173.52z"/>
	</g>
</g>
<g>
	<path class="st0" d="M315.51,117.06c0,1.77-1.39,3.16-3.19,3.16c-1.79,0-3.21-1.39-3.21-3.16c0-1.73,1.43-3.12,3.21-3.12
		C314.12,113.95,315.51,115.33,315.51,117.06z M309.9,117.06c0,1.39,1.03,2.49,2.43,2.49c1.37,0,2.38-1.1,2.38-2.47
		c0-1.39-1.01-2.51-2.4-2.51C310.93,114.57,309.9,115.7,309.9,117.06z M311.82,118.7h-0.72v-3.12c0.29-0.06,0.68-0.1,1.2-0.1
		c0.59,0,0.86,0.1,1.08,0.23c0.17,0.13,0.3,0.38,0.3,0.68c0,0.34-0.27,0.61-0.65,0.72v0.04c0.3,0.11,0.48,0.34,0.57,0.76
		c0.1,0.48,0.15,0.67,0.23,0.78h-0.78c-0.1-0.11-0.15-0.4-0.25-0.76c-0.06-0.34-0.25-0.49-0.65-0.49h-0.34V118.7z M311.84,116.93
		h0.34c0.4,0,0.72-0.13,0.72-0.46c0-0.29-0.21-0.48-0.67-0.48c-0.19,0-0.32,0.02-0.4,0.04V116.93z"/>
</g>
</svg>
