<?xml version="1.0" encoding="utf-8"?>
<!-- Generator: Adobe Illustrator 27.8.1, SVG Export Plug-In . SVG Version: 6.00 Build 0)  -->
<svg version="1.1" id="Layer_1" xmlns="http://www.w3.org/2000/svg" xmlns:xlink="http://www.w3.org/1999/xlink" x="0px" y="0px"
	 viewBox="0 0 450 220" style="enable-background:new 0 0 450 220;" xml:space="preserve">
<style type="text/css">
	.st0{fill:#C3161C;}
</style>
<image style="display:none;overflow:visible;enable-background:new    ;" width="1026" height="1026" xlink:href="2393DC9ADBCA006B.png"  transform="matrix(0.1358 0 0 0.1358 151.57 34.6684)">
</image>
<image style="display:none;overflow:visible;enable-background:new    ;" width="1000" height="229" xlink:href="2393DC9ADBCA0069.jpg"  transform="matrix(0.388 0 0 0.388 38 60.78)">
</image>
<image style="display:none;overflow:visible;enable-background:new    ;" width="1356" height="874" xlink:href="2393DC9ADBCA006F.png"  transform="matrix(0.2196 0 0 0.2196 74.1968 13)">
</image>
<g>
	<path class="st0" d="M86,130.4c0,2.3-1.1,4.3-3.4,6.1c-2.6,2-6.1,3.1-10.3,3.1c-4.5,0-8.1-0.9-10.9-2.6c-3-1.9-4.5-4.5-4.5-7.9
		V91.7c0-3.7,1.1-6.4,3.3-8.2c2.5-2,6.5-3.1,12.1-3.1c4.8,0,8.3,1,10.7,3.1c2,1.8,3,4.2,3,7.2v10.5h-12V89.6c0-0.5-0.2-0.9-0.5-1.1
		c-0.3-0.2-0.8-0.3-1.4-0.3c-0.7,0-1.2,0.1-1.5,0.3c-0.3,0.2-0.5,0.6-0.5,1.1v40.5c0,0.4,0.2,0.8,0.6,1c0.4,0.3,0.9,0.4,1.4,0.4
		c0.7,0,1.1-0.1,1.4-0.4c0.3-0.3,0.5-0.6,0.5-1v-14.4h12V130.4z"/>
	<path class="st0" d="M103.3,138.9H90.2V80.8h13.2V138.9z"/>
	<path class="st0" d="M133.1,138.9h-25.9V80.8h25.8v7.4h-12.6v15.7h11.4v7.1h-11.4v20.5h12.7V138.9z"/>
	<path class="st0" d="M170.2,138.9h-13.6l-9-31v31h-11V80.8h15.1l7.6,26.5V80.8h11V138.9z"/>
	<path class="st0" d="M203.4,130.4c0,2.3-1.1,4.3-3.4,6.1c-2.6,2-6.1,3.1-10.3,3.1c-4.5,0-8.1-0.9-10.9-2.6c-3-1.9-4.5-4.5-4.5-7.9
		V91.7c0-3.7,1.1-6.4,3.3-8.2c2.5-2,6.5-3.1,12.1-3.1c4.8,0,8.3,1,10.7,3.1c2,1.8,3,4.2,3,7.2v10.5h-12V89.6c0-0.5-0.1-0.9-0.5-1.1
		c-0.3-0.2-0.8-0.3-1.4-0.3c-0.7,0-1.2,0.1-1.5,0.3c-0.3,0.2-0.5,0.6-0.5,1.1v40.5c0,0.4,0.2,0.8,0.6,1c0.4,0.3,0.9,0.4,1.4,0.4
		c0.7,0,1.1-0.1,1.4-0.4c0.3-0.3,0.5-0.6,0.5-1v-14.4h12V130.4z"/>
	<path class="st0" d="M220.7,138.9h-13.2V80.8h13.2V138.9z"/>
	<path class="st0" d="M260.4,138.9h-13l-2.3-15.6H239l-2.3,15.6h-13l9.9-58.1h16.8L260.4,138.9z M243.9,115.3L242,97.9l-1.9,17.4
		H243.9z"/>
	<path class="st0" d="M266.5,81.1h13.9v22.3h11.1V81.1h14v57.7h-14v-24.2h-11.1v24.2h-13.9V81.1z"/>
	<path class="st0" d="M331.2,80.2c7.2,0,13,2.6,17.1,7.9c4.2,5.3,6.3,12.5,6.3,21.6c0,9.2-2.1,16.5-6.3,21.9
		c-4.2,5.5-9.7,8.2-16.4,8.2c-7,0-12.3-2.8-16.2-8.5c-3.8-5.7-5.7-12.7-5.7-21.2c0-5.8,0.9-11.1,2.8-15.8c1.9-4.6,4.5-8.2,7.8-10.6
		C324.1,81.4,327.6,80.2,331.2,80.2z M332.7,92.4c-2.8,0-5,1.6-6.4,4.7c-1.5,3.1-2.2,7.4-2.2,12.8c0,5.5,0.7,9.8,2.2,12.9
		c1.4,3.1,3.4,4.7,6,4.7c2.5,0,4.5-1.6,6.1-4.8c1.5-3.2,2.3-7.5,2.3-12.9c0-5.6-0.8-9.9-2.3-12.9C336.7,93.9,334.9,92.4,332.7,92.4z
		"/>
	<path class="st0" d="M351.1,81.1h15.8l5.1,18.3l5-18.3h16l-14.1,31.3v26.5h-14v-26.5L351.1,81.1z"/>
</g>
</svg>
