<?xml version="1.0" encoding="utf-8"?>
<!-- Generator: Adobe Illustrator 27.5.0, SVG Export Plug-In . SVG Version: 6.00 Build 0)  -->
<svg version="1.1" id="Layer_1" xmlns="http://www.w3.org/2000/svg" xmlns:xlink="http://www.w3.org/1999/xlink" x="0px" y="0px"
	 viewBox="0 0 450 220" style="enable-background:new 0 0 450 220;" xml:space="preserve">
<style type="text/css">
	.st0{fill:#239DFF;}
</style>
<g>
	<g>
		<path class="st0" d="M204.93,80.91h-7.19c-1.33,0-2.19,1.02-2.19,2.3v53.55c0,1.28,0.87,2.31,2.19,2.31h7.19
			c1.33,0,2.34-1.03,2.34-2.31V83.22C207.27,81.94,206.25,80.91,204.93,80.91z"/>
	</g>
	<g>
		<path class="st0" d="M182.47,123.2c-0.65-1.43-2.52-1.83-3.67-0.75c-3.04,2.85-7.12,4.6-11.62,4.6
			c-11.78,0-20.78-11.95-15.51-24.4c1.56-3.68,4.51-6.62,8.19-8.17c7.19-3.04,14.19-1.31,18.83,2.96c1.16,1.07,3.02,0.69,3.68-0.75
			l3.11-6.83c0.5-1.09,0.15-2.38-0.8-3.1c-7.3-5.51-17.26-7.68-27.64-4.14c-8.33,2.84-14.83,9.56-17.47,17.95
			c-6.33,20.08,8.49,38.54,27.62,38.54c6.66,0,12.78-2.25,17.68-6.02c0.93-0.71,1.22-1.98,0.73-3.05L182.47,123.2z"/>
	</g>
	<g>
		<path class="st0" d="M310.44,100.57c-2.65-8.39-9.14-15.11-17.47-17.95c-5.9-2.01-11.66-2.18-16.87-0.94
			c-8.7,1.94-14.99,6.06-20.53,17.95l-11.11,24.1L225.6,82.28c-0.38-0.83-1.2-1.36-2.11-1.36l-8.24-0.01
			c-1.69,0-2.82,1.75-2.11,3.28l24.45,53.47c0.38,0.83,1.2,1.39,2.11,1.39l0.4,0.03h9.25c0.19,0,0.37-0.04,0.55-0.1
			c0.64-0.22,1.17-0.67,1.45-1.3c0,0,12.24-27.87,12.39-28.2c3.73-8.79,5.99-12.44,11.9-14.96c4.47-1.9,9.76-2.13,14.88,0.18
			c3.56,1.61,6.36,4.56,7.85,8.17c0.94,2.26,1.42,4.59,1.5,6.88c0.13,9.53-7.55,17.3-17.05,17.3c-4.5,0-8.58-1.75-11.62-4.6
			c-1.15-1.08-3.02-0.68-3.67,0.75l-3.12,6.84c-0.48,1.06-0.19,2.33,0.73,3.05c4.9,3.77,11.02,6.02,17.68,6.02
			C301.95,139.11,316.77,120.65,310.44,100.57z"/>
	</g>
</g>
</svg>
