<?xml version="1.0" encoding="utf-8"?>
<!-- Generator: Adobe Illustrator 27.5.0, SVG Export Plug-In . SVG Version: 6.00 Build 0)  -->
<svg version="1.1" id="Layer_1" xmlns="http://www.w3.org/2000/svg" xmlns:xlink="http://www.w3.org/1999/xlink" x="0px" y="0px"
	 viewBox="0 0 450 220" style="enable-background:new 0 0 450 220;" xml:space="preserve">
<style type="text/css">
	.st0{fill:#239DFF;}
</style>
<g>
	<g>
		<path class="st0" d="M210.26,88.64h-5.28c-0.98,0-1.61,0.75-1.61,1.69v39.32c0,0.94,0.64,1.7,1.61,1.7h5.28
			c0.98,0,1.72-0.76,1.72-1.7V90.33C211.98,89.39,211.23,88.64,210.26,88.64z"/>
	</g>
	<g>
		<path class="st0" d="M193.77,119.69c-0.48-1.05-1.85-1.34-2.69-0.55c-2.23,2.09-5.23,3.38-8.53,3.38
			c-8.65,0-15.26-8.77-11.39-17.92c1.15-2.7,3.31-4.86,6.01-6c5.28-2.23,10.42-0.96,13.83,2.17c0.85,0.79,2.22,0.51,2.7-0.55
			l2.28-5.01c0.37-0.8,0.11-1.75-0.59-2.28c-5.36-4.05-12.67-5.64-20.29-3.04c-6.12,2.09-10.89,7.02-12.83,13.18
			c-4.65,14.74,6.23,28.3,20.28,28.3c4.89,0,9.38-1.65,12.98-4.42c0.68-0.52,0.9-1.45,0.54-2.24L193.77,119.69z"/>
	</g>
	<g>
		<path class="st0" d="M287.73,103.07c-1.95-6.16-6.71-11.09-12.83-13.18c-4.33-1.48-8.56-1.6-12.39-0.69
			c-6.39,1.42-11.01,4.45-15.07,13.18l-8.16,17.7l-13.85-30.44c-0.28-0.61-0.88-1-1.55-1l-6.05-0.01c-1.24,0-2.07,1.28-1.55,2.41
			l17.95,39.26c0.28,0.61,0.88,1.02,1.55,1.02l0.29,0.02h6.79c0.14,0,0.27-0.03,0.4-0.07c0.47-0.16,0.86-0.49,1.06-0.95
			c0,0,8.99-20.46,9.1-20.71c2.74-6.45,4.4-9.13,8.74-10.98c3.28-1.4,7.17-1.56,10.93,0.13c2.61,1.18,4.67,3.35,5.76,6
			c0.69,1.66,1.04,3.37,1.1,5.05c0.1,7-5.54,12.7-12.52,12.7c-3.3,0-6.3-1.28-8.53-3.38c-0.84-0.79-2.22-0.5-2.69,0.55l-2.29,5.02
			c-0.35,0.78-0.14,1.71,0.54,2.24c3.6,2.77,8.09,4.42,12.98,4.42C281.5,131.37,292.38,117.82,287.73,103.07z"/>
	</g>
</g>
</svg>
