<?xml version="1.0" encoding="utf-8"?>
<!-- Generator: Adobe Illustrator 27.8.1, SVG Export Plug-In . SVG Version: 6.00 Build 0)  -->
<svg version="1.1" id="Layer_1" xmlns="http://www.w3.org/2000/svg" xmlns:xlink="http://www.w3.org/1999/xlink" x="0px" y="0px"
	 viewBox="0 0 450 220" style="enable-background:new 0 0 450 220;" xml:space="preserve">
<style type="text/css">
	.st0{fill:#202730;}
	.st1{fill:#FFFFFF;}
	.st2{fill:#1BBC9B;}
</style>
<image style="display:none;overflow:visible;enable-background:new    ;" width="1024" height="1024" xlink:href="99F34F2D03B4865D.png"  transform="matrix(0.1361 0 0 0.1361 151.57 34.6684)">
</image>
<image style="display:none;overflow:visible;enable-background:new    ;" width="1003" height="230" xlink:href="99F34F2D03B4865F.jpg"  transform="matrix(0.3868 0 0 0.3868 38.0132 60.7225)">
</image>
<image style="display:none;overflow:visible;enable-background:new    ;" width="1354" height="875" xlink:href="99F34F2D03B4865A.png"  transform="matrix(0.2198 0 0 0.2198 74.3114 12.8224)">
</image>
<g>
	<path class="st0" d="M73.5,82.6c-7.9,0-14.7,2.6-20.1,8.1C48,96.1,45,102.4,45,110s2.8,14,8.4,19.3s12.2,8.1,20.1,8.1
		c7.8,0,14.5-2.6,20.1-8.1c5.6-5.3,8.4-11.9,8.4-19.3c0-7.4-2.8-14-8.4-19.3C88.1,85.3,81.3,82.6,73.5,82.6z"/>
	<path class="st0" d="M124.2,101.9c-2,2-3,4.8-3,8.1c0,3.5,1,6.1,3,8.1c2,2,4.8,3,8.1,3c2.6,0,4.9-0.7,6.8-2
		c1.8-1.3,3.1-3.1,3.8-5.4h-6.1c-0.8,1.8-2.1,2.6-4.3,2.6c-1.6,0-3-0.5-4-1.6c-1-1.2-1.5-2.8-1.5-4.8s0.5-3.6,1.5-4.8
		c1-1.2,2.3-1.8,4-1.8c2.1,0,3.6,0.8,4.3,2.6h6.1c-0.8-2.1-2.1-4-3.8-5.1c-1.8-1.3-4.1-2-6.8-2C128.8,98.8,126.2,99.8,124.2,101.9z"
		/>
	<path class="st0" d="M148.8,101.9c-2.1,2-3.3,4.8-3.3,8.1s1.2,5.9,3.3,8.1c2.1,2,4.9,3.1,8.2,3.1s6.1-1,8.2-3.1
		c2.1-2,3.3-4.8,3.3-8.1s-1.2-5.9-3.3-8.1c-2.1-2-4.9-3.1-8.2-3.1S150.9,99.8,148.8,101.9z M151.3,110c0-2.1,0.5-3.6,1.6-4.8
		c1.2-1.2,2.5-1.6,4.1-1.6c1.5,0,3,0.5,4.1,1.6c1.2,1.2,1.6,2.6,1.6,4.8c0,2-0.5,3.6-1.6,4.8c-1.2,1.2-2.5,1.6-4.1,1.6
		c-1.6,0-3-0.5-4-1.6C151.7,113.6,151.3,112,151.3,110z M161.3,93.5V89l-9.2,4.6v3.8L161.3,93.5z"/>
	<path class="st0" d="M194.8,91.9h-5.6v10.6c-1.6-2.5-4-3.6-7.1-3.6c-3.1,0-5.6,1-7.6,3.1s-3,4.8-3,7.9c0,3.1,1,5.9,3,8.1
		c2,2.1,4.6,3.1,7.6,3.1c3,0,5.4-1.3,7.1-4v3.6h5.6V91.9z M179,114.6c-1.2-1.2-1.8-2.8-1.8-4.6s0.7-3.5,1.8-4.6
		c1.2-1.2,2.5-1.6,4.1-1.6s3,0.5,4.3,1.6c1.2,1.2,1.8,2.6,1.8,4.6s-0.7,3.5-1.8,4.6c-1.2,1.2-2.6,1.6-4.1,1.6
		C181.6,116.3,180.3,115.8,179,114.6z"/>
	<path class="st0" d="M207.2,93.7c0-0.8-0.3-1.6-1-2.3c-0.7-0.7-1.5-1-2.5-1c-0.8,0-1.6,0.3-2.5,1c-0.7,0.7-1,1.5-1,2.3
		c0,1,0.3,1.6,1,2.3c0.8,0.7,1.5,1,2.5,1c0.8,0,1.6-0.3,2.5-1C206.9,95.3,207.2,94.5,207.2,93.7z M206.5,99.1h-5.8v21.6h5.8V99.1z"
		/>
	<path class="st0" d="M213.9,101.9c-2,2.1-3,4.8-3,7.9c0,3.1,1,5.9,3,8.1c2,2.1,4.6,3.1,7.6,3.1c3,0,5.4-1.3,7.1-4v3.8
		c0,2-0.5,3.5-1.5,4.3c-1,1-2.3,1.5-3.8,1.5s-2.8-0.3-3.8-0.8c-1-0.5-1.6-1.3-2-2.3H212c0.3,2.5,1.5,4.5,3.5,5.8c2,1.3,4.8,2,8.1,2
		c3.5,0,6.1-1,7.9-3c2-2,2.8-4.5,2.8-7.6V99.1h-5.6v3.3c-1.6-2.5-4-3.6-7.1-3.6C218.6,98.8,216.1,99.8,213.9,101.9z M216.9,109.8
		c0-2,0.7-3.5,1.8-4.6c1.2-1.2,2.5-1.6,4.1-1.6c1.6,0,3,0.5,4.1,1.6c1.2,1.2,1.8,2.6,1.8,4.6s-0.7,3.5-1.8,4.6
		c-1.2,1.2-2.6,1.6-4.1,1.6s-3-0.5-4.1-1.6C217.4,113.5,216.9,111.8,216.9,109.8z"/>
	<path class="st0" d="M242.2,101.9c-2.1,2-3.3,4.6-3.3,8.1s1.2,6.1,3.3,8.1c2.1,2,4.8,3.1,8.2,3.1c3.3,0,6.1-1,8.2-3.1
		c2.1-2,3.3-4.8,3.3-8.1s-1.2-5.9-3.3-8.1c-2.3-2-5.1-3.1-8.2-3.1C247.3,98.8,244.5,99.8,242.2,101.9z M256.2,109.8
		c0,2-0.7,3.6-1.8,4.8c-1.2,1.2-2.5,1.6-4.1,1.6c-1.6,0-3-0.5-4-1.6c-1.2-1.2-1.6-2.6-1.6-4.8s0.5-3.6,1.6-4.8
		c1.2-1.2,2.5-1.6,4.1-1.6c1.5,0,3,0.5,4.1,1.6C255.7,106.2,256.2,107.9,256.2,109.8z"/>
	<path class="st0" d="M275.8,90.4c-3.1,0-5.3,0.7-6.8,1.8c-1.5,1.2-2.1,3.1-2.1,5.6v1.3h-2.5v4.5h2.5v17.2h5.6v-17.2h3.6v-4.5h-3.6
		V98c0-1,0.3-1.8,0.8-2.1c0.5-0.5,1.3-0.7,2.5-0.7V90.4z"/>
	<path class="st0" d="M281.6,101.9c-2,2-3,4.6-3,7.9c0,3.3,1,5.9,3,8.1c2,2.1,4.6,3.1,7.6,3.1s5.4-1.3,7.1-4v3.6h5.6V99.1h-5.6v3.3
		c-1.6-2.5-4-3.6-7.1-3.6C286,98.8,283.4,99.8,281.6,101.9z M290.2,103.6c1.6,0,3,0.5,4.3,1.6c1.2,1.2,1.8,2.6,1.8,4.6
		s-0.7,3.5-1.8,4.6c-1.2,1.2-2.6,1.6-4.1,1.6c-1.5,0-3-0.5-4.1-1.6c-1.2-1.2-1.8-2.8-1.8-4.6c0-2,0.7-3.5,1.8-4.6
		C287.2,104.1,288.5,103.6,290.2,103.6z"/>
	<path class="st0" d="M312.6,114.3c-1-1.2-1.5-2.8-1.5-4.8s0.5-3.6,1.5-4.8c1-1.2,2.3-1.8,4-1.8c2.1,0,3.6,0.8,4.3,2.6h6.1
		c-0.7-2.3-1.8-4.1-3.6-5.4c-1.8-1.3-4.1-2-6.8-2c-3.3,0-5.9,1-8.1,3.1c-2,2-3,4.8-3,8.1c0,3.3,1,6.1,3,8.1s4.8,3,8.1,3
		c2.6,0,4.9-0.7,6.8-2c1.8-1.3,3.1-3.1,3.8-5.4H321c-0.8,1.8-2.1,2.6-4.3,2.6C314.8,115.9,313.4,115.4,312.6,114.3z"/>
	<path class="st0" d="M337.9,99.1h-5.8v21.6h5.8V99.1z M337.5,91.2c-0.7-0.7-1.5-1-2.5-1c-0.8,0-1.6,0.3-2.5,1c-0.7,0.7-1,1.5-1,2.3
		c0,1,0.3,1.8,1,2.3c0.8,0.7,1.5,1,2.5,1c0.8,0,1.8-0.3,2.5-1c0.7-0.7,1-1.5,1-2.3C338.5,92.7,338.2,91.9,337.5,91.2z"/>
	<path class="st0" d="M349.7,91.9H344v28.9h5.8V91.9z"/>
	<path class="st0" d="M361.4,99.1h-5.8v21.6h5.8V99.1z M358.6,90.2c-1,0-1.8,0.3-2.5,1c-0.7,0.7-1,1.5-1,2.3c0,1,0.3,1.8,1,2.3
		c0.7,0.7,1.5,1,2.5,1s1.8-0.3,2.5-1c0.7-0.7,1-1.5,1-2.3c0-1-0.3-1.6-1-2.3C360.3,90.5,359.6,90.2,358.6,90.2z"/>
	<path class="st0" d="M368.2,103.6v10.6c0,2.3,0.7,4,1.8,5.1c1.3,1,3.1,1.5,5.3,1.5h3.6v-4.6h-2.6c-0.8,0-1.5-0.2-1.8-0.5
		c-0.3-0.3-0.5-0.8-0.5-1.5v-10.6h5.1v-4.5H374v-5.3h-5.8v5.3h-2.3v4.5H368.2z"/>
	<path class="st0" d="M385.2,101.9c-2.1,2-3.3,4.6-3.3,8.1s1.2,6.1,3.3,8.1c2.1,2,4.9,3.1,8.2,3.1c3.3,0,6.1-1,8.2-3.1
		c2.3-2.1,3.3-4.8,3.3-8.1s-1.2-5.9-3.3-8.1c-2.3-2-4.9-3.1-8.2-3.1C390.2,98.8,387.3,99.8,385.2,101.9z M389.3,114.6
		c-1.2-1.2-1.6-2.6-1.6-4.8s0.5-3.6,1.6-4.8c1.2-1.2,2.5-1.6,4.1-1.6c1.5,0,3,0.5,4.1,1.6c1.2,1.2,1.6,2.8,1.6,4.8
		c0,2.1-0.7,3.6-1.8,4.8c-1.2,1.2-2.5,1.6-4.1,1.6C391.8,116.4,390.5,115.8,389.3,114.6z"/>
	<path class="st1" d="M61.3,99.1h24.3c1.3,0,2.5,1.2,2.5,2.5l0,0c0,1.3-1.2,2.5-2.5,2.5H61.3c-1.3,0-2.5-1.2-2.5-2.5l0,0
		C58.9,100.3,59.8,99.1,61.3,99.1z"/>
	<path class="st1" d="M61.3,107.4h8.7c1.3,0,2.5,1.2,2.5,2.5l0,0c0,1.3-1.2,2.5-2.5,2.5h-8.7c-1.3,0-2.5-1.2-2.5-2.5l0,0
		C58.9,108.5,59.8,107.4,61.3,107.4z"/>
	<path class="st2" d="M76.8,107.4h8.7c1.3,0,2.5,1.2,2.5,2.5l0,0c0,1.3-1.2,2.5-2.5,2.5h-8.7c-1.3,0-2.5-1.2-2.5-2.5l0,0
		C74.4,108.5,75.5,107.4,76.8,107.4z"/>
	<path class="st1" d="M61.3,115.6h4.8c1.3,0,2.5,1.2,2.5,2.5l0,0c0,1.3-1.2,2.5-2.5,2.5h-4.8c-1.3,0-2.5-1.2-2.5-2.5l0,0
		C58.9,116.8,59.8,115.6,61.3,115.6z"/>
	<path class="st2" d="M72.9,115.6h12.5c1.3,0,2.5,1.2,2.5,2.5l0,0c0,1.3-1.2,2.5-2.5,2.5H72.9c-1.3,0-2.5-1.2-2.5-2.5l0,0
		C70.4,116.8,71.6,115.6,72.9,115.6z"/>
</g>
</svg>
