<?xml version="1.0" encoding="utf-8"?>
<!-- Generator: Adobe Illustrator 27.5.0, SVG Export Plug-In . SVG Version: 6.00 Build 0)  -->
<svg version="1.1" id="Layer_1" xmlns="http://www.w3.org/2000/svg" xmlns:xlink="http://www.w3.org/1999/xlink" x="0px" y="0px"
	 viewBox="0 0 450 220" style="enable-background:new 0 0 450 220;" xml:space="preserve">
<style type="text/css">
	.st0{fill:#FF8300;}
	.st1{fill:#FFC080;}
	.st2{fill:#FFDFBF;}
	.st3{fill:#333333;}
</style>
<g>
	<g>
		<path class="st0" d="M153.74,131.3L153.74,131.3c-14,2.73-28.39,2.73-42.39,0l0,0c-3.27-0.64-5.89-3.1-6.71-6.33l0,0
			c-2.51-9.82-2.51-20.12,0-29.94v0c0.82-3.23,3.44-5.7,6.71-6.33l0,0c14-2.73,28.39-2.73,42.39,0h0c3.27,0.64,5.89,3.1,6.71,6.33v0
			c2.51,9.82,2.51,20.12,0,29.94l0,0C159.63,128.2,157.01,130.67,153.74,131.3z"/>
		<path class="st1" d="M161.48,120.13c0.53-3.13,0.81-6.29,0.85-9.45c-3.69-4.39-5.79-10.88-11.34-10.88c-1.44,0-2.7,0.4-3.82,1.09
			C151.11,107.02,154.88,115.34,161.48,120.13z"/>
		<path class="st1" d="M113.29,107.41c-4.99,0-6.34,6.01-10.13,9.48c0.21,1.81,0.5,3.61,0.87,5.4c8.3,3.28,13.4-1.78,17.5-8.56
			C119.32,110.64,117.35,107.41,113.29,107.41z"/>
		<path class="st1" d="M129.96,119.31c8.5,0,10.5-14.31,17.21-18.42c-2.84-4.41-5.76-7.69-9.88-7.69
			c-6.79,0-10.43,11.72-15.77,20.53C123.55,116.57,125.76,119.31,129.96,119.31z"/>
		<path class="st2" d="M147.17,100.89c-6.71,4.11-8.72,18.42-17.21,18.42c-4.2,0-6.41-2.73-8.44-5.58
			c-4.1,6.78-9.21,11.84-17.5,8.56c0.19,0.9,0.39,1.79,0.62,2.68l0,0c0.82,3.23,3.44,5.7,6.71,6.33l0,0c14,2.73,28.39,2.73,42.39,0
			h0c3.27-0.64,5.89-3.1,6.71-6.33l0,0c0.41-1.6,0.75-3.22,1.03-4.84C154.88,115.34,151.11,107.02,147.17,100.89z"/>
	</g>
	<g>
		<path class="st3" d="M184.41,96.69h-9.63c-0.13,0-0.24,0.11-0.24,0.24v26.05c0,0.13,0.11,0.24,0.24,0.24h9.55
			c3.55,0,6.33-0.98,8.27-2.92c1.94-1.94,2.92-4.84,2.92-8.64v-3.44c0-3.8-0.98-6.7-2.9-8.62
			C190.69,97.66,187.93,96.69,184.41,96.69z M191.61,108.4v3.32c0,2.72-0.6,4.75-1.77,6.03c-1.17,1.28-3,1.92-5.43,1.92h-5.95
			v-19.46h5.95c2.43,0,4.26,0.67,5.43,1.98C191.01,103.51,191.61,105.6,191.61,108.4z"/>
		<path class="st3" d="M213.71,104.99c-1.47-1.23-3.61-1.85-6.34-1.85c-2.41,0-4.34,0.54-5.73,1.62c-1.41,1.09-2.13,2.59-2.13,4.47
			v0.11c0,0.13,0.11,0.24,0.24,0.24h3.13c0.13,0,0.24-0.11,0.24-0.24v-0.11c0-0.93,0.34-1.64,1.05-2.15
			c0.72-0.52,1.81-0.79,3.24-0.79c3.27,0,4.86,1.35,4.86,4.14v1.08h-5.77c-2.46,0-4.36,0.51-5.66,1.5
			c-1.31,1.01-1.98,2.48-1.98,4.36c0,1.95,0.65,3.47,1.92,4.51c1.26,1.02,3.11,1.54,5.49,1.54c2.65,0,4.69-0.69,6.07-2.05v1.58
			c0,0.13,0.11,0.24,0.24,0.24h3.13c0.13,0,0.24-0.11,0.24-0.24v-12.61C215.95,108.03,215.19,106.23,213.71,104.99z M212.26,114.41
			v1.27c0,1.58-0.43,2.77-1.28,3.52c-0.86,0.76-2.23,1.15-4.07,1.15c-1.53,0-2.66-0.25-3.38-0.75c-0.69-0.49-1.03-1.22-1.03-2.26
			c0-1.01,0.34-1.73,1.05-2.2c0.72-0.49,1.89-0.73,3.47-0.73H212.26z"/>
		<path class="st3" d="M231.08,103.4h-4.9v-5.27c0-0.08-0.04-0.15-0.11-0.2c-0.07-0.04-0.15-0.05-0.22-0.02l-3.21,1.32
			c-0.09,0.04-0.15,0.12-0.15,0.22v3.95h-3.16c-0.13,0-0.24,0.11-0.24,0.24v2.42c0,0.13,0.11,0.24,0.24,0.24h3.16v11.13
			c0,3.84,2.02,5.79,6.01,5.79h2.15c0.13,0,0.24-0.11,0.24-0.24v-2.79c0-0.13-0.11-0.24-0.24-0.24h-1.62
			c-1.04,0-1.79-0.21-2.22-0.61c-0.43-0.4-0.64-1.11-0.64-2.09v-10.94h4.9c0.13,0,0.24-0.11,0.24-0.24v-2.42
			C231.31,103.51,231.21,103.4,231.08,103.4z"/>
		<path class="st3" d="M248.67,104.99c-1.47-1.23-3.61-1.85-6.34-1.85c-2.41,0-4.34,0.54-5.73,1.62c-1.41,1.09-2.13,2.59-2.13,4.47
			v0.11c0,0.13,0.11,0.24,0.24,0.24h3.13c0.13,0,0.24-0.11,0.24-0.24v-0.11c0-0.93,0.34-1.64,1.05-2.15
			c0.72-0.52,1.81-0.79,3.24-0.79c3.27,0,4.86,1.35,4.86,4.14v1.08h-5.77c-2.46,0-4.36,0.51-5.66,1.5
			c-1.31,1.01-1.98,2.48-1.98,4.36c0,1.95,0.65,3.47,1.92,4.51c1.26,1.02,3.11,1.54,5.49,1.54c2.65,0,4.69-0.69,6.07-2.05v1.58
			c0,0.13,0.11,0.24,0.24,0.24h3.13c0.13,0,0.24-0.11,0.24-0.24v-12.61C250.91,108.03,250.15,106.23,248.67,104.99z M247.22,114.41
			v1.27c0,1.58-0.43,2.77-1.28,3.52c-0.86,0.76-2.23,1.15-4.07,1.15c-1.53,0-2.66-0.25-3.38-0.75c-0.69-0.49-1.03-1.23-1.03-2.26
			c0-1.01,0.34-1.73,1.05-2.2c0.72-0.49,1.89-0.73,3.47-0.73H247.22z"/>
		<path class="st3" d="M263.73,119.86h-1.66c-1.09,0-1.85-0.22-2.27-0.65c-0.42-0.43-0.63-1.19-0.63-2.25V96.92
			c0-0.13-0.11-0.24-0.24-0.24h-3.21c-0.13,0-0.24,0.11-0.24,0.24v20.23c0,2.05,0.51,3.58,1.52,4.57c1.01,0.98,2.57,1.48,4.64,1.48
			h2.08c0.13,0,0.24-0.11,0.24-0.24v-2.87C263.97,119.97,263.87,119.86,263.73,119.86z"/>
		<path class="st3" d="M283.4,103.4h-3.36c-0.1,0-0.19,0.06-0.22,0.15l-5.45,14.63l-5.7-14.63c-0.04-0.09-0.12-0.15-0.22-0.15h-3.44
			c-0.08,0-0.15,0.04-0.2,0.1c-0.04,0.07-0.05,0.15-0.02,0.22l7.78,19.25l-0.2,0.56c-0.28,0.77-0.68,1.32-1.18,1.61
			c-0.51,0.3-1.32,0.46-2.41,0.46h-1.36c-0.13,0-0.24,0.11-0.24,0.24v2.91c0,0.13,0.11,0.24,0.24,0.24h1.36
			c1.67,0,3.05-0.32,4.09-0.94c1.05-0.63,1.86-1.66,2.4-3.06l8.34-21.25c0.03-0.07,0.02-0.16-0.03-0.22
			C283.55,103.44,283.48,103.4,283.4,103.4z"/>
		<path class="st3" d="M296.81,103.4h-4.9v-5.27c0-0.08-0.04-0.15-0.1-0.2c-0.07-0.04-0.15-0.05-0.22-0.02l-3.21,1.32
			c-0.09,0.04-0.15,0.12-0.15,0.22v3.95h-3.16c-0.13,0-0.24,0.11-0.24,0.24v2.42c0,0.13,0.11,0.24,0.24,0.24h3.16v11.13
			c0,3.84,2.02,5.79,6.01,5.79h2.15c0.13,0,0.24-0.11,0.24-0.24v-2.79c0-0.13-0.11-0.24-0.24-0.24h-1.62
			c-1.04,0-1.78-0.21-2.22-0.61c-0.43-0.4-0.64-1.11-0.64-2.09v-10.94h4.9c0.13,0,0.24-0.11,0.24-0.24v-2.42
			C297.04,103.51,296.94,103.4,296.81,103.4z"/>
		<path class="st3" d="M304.32,96.72h-3.21c-0.13,0-0.24,0.11-0.24,0.24v3.47c0,0.13,0.11,0.24,0.24,0.24h3.21
			c0.13,0,0.24-0.11,0.24-0.24v-3.47C304.56,96.83,304.45,96.72,304.32,96.72z"/>
		<path class="st3" d="M304.32,103.4h-3.21c-0.13,0-0.24,0.11-0.24,0.24v19.33c0,0.13,0.11,0.24,0.24,0.24h3.21
			c0.13,0,0.24-0.11,0.24-0.24v-19.33C304.56,103.51,304.45,103.4,304.32,103.4z"/>
		<path class="st3" d="M324.07,104.95c-1.47-1.28-3.53-1.93-6.12-1.93c-2.82,0-5.06,0.8-6.66,2.39c-1.6,1.59-2.41,3.91-2.41,6.91
			v1.93c0,3,0.81,5.32,2.41,6.91c1.6,1.59,3.85,2.39,6.7,2.39c2.59,0,4.64-0.65,6.1-1.93c1.47-1.29,2.21-3.05,2.21-5.26v-0.15
			c0-0.13-0.11-0.24-0.24-0.24h-3.13c-0.13,0-0.24,0.11-0.24,0.24v0.15c0,1.22-0.39,2.15-1.2,2.84c-0.81,0.69-1.99,1.04-3.51,1.04
			c-3.65,0-5.43-1.98-5.43-6.07v-1.77c0-4.06,1.77-6.03,5.43-6.03c1.52,0,2.7,0.35,3.51,1.04c0.81,0.69,1.2,1.63,1.2,2.88v0.19
			c0,0.13,0.11,0.24,0.24,0.24h3.13c0.13,0,0.24-0.11,0.24-0.24v-0.19C326.3,108.04,325.55,106.24,324.07,104.95z"/>
		<path class="st3" d="M344.74,113.42c-1.08-0.88-2.74-1.46-4.93-1.71l-2.95-0.38c-1.36-0.15-2.33-0.42-2.87-0.81
			c-0.52-0.37-0.77-0.91-0.77-1.64c0-0.85,0.36-1.49,1.1-1.95c0.76-0.48,1.94-0.72,3.5-0.72c1.53,0,2.73,0.26,3.56,0.78
			c0.8,0.5,1.19,1.21,1.19,2.16v0.11c0,0.13,0.11,0.24,0.24,0.24h3.06c0.13,0,0.24-0.11,0.24-0.24v-0.15c0-1.83-0.76-3.31-2.25-4.38
			c-1.47-1.06-3.51-1.59-6.07-1.59c-2.46,0-4.43,0.53-5.88,1.57c-1.47,1.06-2.21,2.54-2.21,4.4c0,1.6,0.54,2.86,1.59,3.75
			c1.04,0.87,2.67,1.44,4.84,1.7l2.76,0.34c1.42,0.15,2.45,0.43,3.09,0.83c0.6,0.38,0.89,0.94,0.89,1.69c0,0.92-0.41,1.61-1.26,2.1
			c-0.88,0.5-2.11,0.76-3.68,0.76c-1.73,0-3.02-0.29-3.83-0.86c-0.8-0.56-1.18-1.3-1.18-2.26v-0.08c0-0.13-0.11-0.24-0.24-0.24
			h-3.06c-0.13,0-0.24,0.11-0.24,0.24v0.11c0,1.93,0.76,3.48,2.25,4.59c1.47,1.1,3.54,1.65,6.14,1.65c2.63,0,4.74-0.54,6.27-1.61
			c1.56-1.09,2.35-2.63,2.35-4.59C346.39,115.61,345.83,114.32,344.74,113.42z"/>
	</g>
</g>
</svg>
