<?xml version="1.0" encoding="utf-8"?>
<!-- Generator: Adobe Illustrator 27.8.1, SVG Export Plug-In . SVG Version: 6.00 Build 0)  -->
<svg version="1.1" id="Layer_1" xmlns="http://www.w3.org/2000/svg" xmlns:xlink="http://www.w3.org/1999/xlink" x="0px" y="0px"
	 viewBox="0 0 450 220" style="enable-background:new 0 0 450 220;" xml:space="preserve">
<style type="text/css">
	.st0{fill:#FFFFFF;}
	.st1{fill:#0A2FF1;}
</style>
<image style="display:none;overflow:visible;enable-background:new    ;" width="1026" height="1026" xlink:href="99F34F2D03B4865D.png"  transform="matrix(0.1358 0 0 0.1358 151.57 34.6684)">
</image>
<image style="display:none;overflow:visible;enable-background:new    ;" width="1000" height="229" xlink:href="99F34F2D03B4865F.jpg"  transform="matrix(0.388 0 0 0.388 38 60.78)">
</image>
<image style="display:none;overflow:visible;enable-background:new    ;" width="1356" height="874" xlink:href="99F34F2D03B4865A.png"  transform="matrix(0.2196 0 0 0.2196 74.1968 13)">
</image>
<g>
	<rect x="350.6" y="93.6" class="st0" width="6.9" height="32"/>
	<polygon class="st0" points="385.6,100.2 376.7,100.2 376.7,125.6 369.8,125.6 369.8,100.2 360.9,100.2 360.9,93.6 385.6,93.6 	"/>
	<g>
		<path class="st1" d="M87.6,123.5H64.9c1.1,4.2,4.1,6.4,8.8,6.4c3.3,0,7.1-1.3,9.7-3l3.1,5.5c-3.8,2.7-8.2,4.2-13.1,4.2
			c-5.3,0-9.3-1.5-12.2-4.6c-2.8-3-4.2-6.8-4.2-11.1c0-4.6,1.4-8.3,4.3-11.3c2.9-3,6.7-4.5,11.3-4.5c4.3,0,8,1.4,10.8,4.1
			c2.8,2.7,4.2,6.3,4.2,11C87.8,121.2,87.7,122.3,87.6,123.5z M64.9,117.7h15.3c-0.7-3.9-3.5-6.3-7.5-6.3
			C68.8,111.4,65.9,113.8,64.9,117.7z"/>
		<path class="st1" d="M113.4,93.9h7.8v42h-7.6v-3.7c-2.5,2.9-5.5,4.4-9.3,4.4c-4.2,0-7.8-1.5-10.7-4.5c-2.8-3-4.2-6.8-4.2-11.3
			c0-4.5,1.4-8.2,4.2-11.2c2.9-3,6.4-4.5,10.7-4.5c3.7,0,6.7,1.4,9.2,4.2L113.4,93.9L113.4,93.9z M111.5,114.6
			c-1.5-1.7-3.5-2.5-6-2.5c-2.5,0-4.5,0.9-6.1,2.5c-1.5,1.7-2.3,3.7-2.3,6.1c0,2.5,0.8,4.5,2.3,6.2c1.6,1.7,3.6,2.5,6.1,2.5
			c2.5,0,4.5-0.9,6-2.5c1.5-1.7,2.3-3.8,2.3-6.2C113.8,118.3,113,116.3,111.5,114.6z"/>
		<path class="st1" d="M125.7,123.1v-17.4h7.8v17.4c0,3.8,2.3,6.3,6,6.3s6-2.5,6-6.3v-17.4h7.8v17.4c0,8.5-5.2,13.4-13.8,13.4
			C130.9,136.5,125.7,131.6,125.7,123.1z"/>
		<path class="st1" d="M160.6,132.1c-3-2.9-4.5-6.7-4.5-11.3c0-4.6,1.5-8.4,4.5-11.3c3-3,6.9-4.5,11.6-4.5c6.1,0,11.5,3,14,8.4
			l-6.2,3.4c-1.8-3-4.4-4.6-7.7-4.6c-2.5,0-4.5,0.9-6.1,2.5c-1.6,1.6-2.5,3.7-2.5,6.1c0,2.5,0.8,4.5,2.4,6.2c1.6,1.6,3.7,2.5,6,2.5
			c3.1,0,6.3-1.9,7.7-4.5l6.3,3.7c-2.6,4.9-7.9,7.9-14.2,7.9C167.4,136.5,163.6,135,160.6,132.1z"/>
		<path class="st1" d="M211.7,105.7h7.4v30.1h-7.4v-3.5c-2.6,2.8-5.8,4.2-9.6,4.2c-4.3,0-7.9-1.5-10.7-4.5c-2.8-3-4.2-6.9-4.2-11.4
			c0-4.5,1.4-8.3,4.2-11.2c2.8-3,6.4-4.5,10.7-4.5c3.8,0,7,1.4,9.6,4.3L211.7,105.7L211.7,105.7z M209.4,114.6
			c-1.6-1.7-3.6-2.5-6-2.5c-2.5,0-4.5,0.9-6.1,2.5c-1.5,1.7-2.3,3.8-2.3,6.1c0,2.5,0.8,4.5,2.4,6.2c1.6,1.7,3.6,2.5,6,2.5
			c2.5,0,4.4-0.9,6-2.5c1.6-1.7,2.5-3.8,2.5-6.2C211.8,118.4,211,116.3,209.4,114.6z"/>
		<path class="st1" d="M226.8,132.1c-3-2.9-4.5-6.7-4.5-11.3c0-4.6,1.5-8.4,4.5-11.3c3-3,6.9-4.5,11.6-4.5c6.1,0,11.5,3,14,8.4
			l-6.2,3.4c-1.8-3-4.4-4.6-7.7-4.6c-2.5,0-4.5,0.9-6.1,2.5c-1.6,1.6-2.5,3.7-2.5,6.1c0,2.5,0.8,4.5,2.4,6.2c1.6,1.6,3.7,2.5,6,2.5
			c3.1,0,6.3-1.9,7.7-4.5l6.3,3.7c-2.6,4.9-7.9,7.9-14.2,7.9C233.6,136.5,229.7,135,226.8,132.1z"/>
		<path class="st1" d="M255.6,101c-1.8-1.8-1.8-5,0-6.8c1.8-1.8,5-1.8,6.9,0c1.8,1.8,1.8,5,0,6.8C260.6,102.8,257.4,102.8,255.6,101
			z M262.9,135.8h-7.8v-30.1h7.8V135.8z"/>
		<path class="st1" d="M270.6,109.6c3-3.1,6.9-4.6,11.6-4.6s8.6,1.5,11.6,4.6c3,3,4.5,6.8,4.5,11.2c0,4.5-1.5,8.2-4.5,11.2
			c-3,3-6.9,4.6-11.6,4.6c-4.7,0-8.6-1.5-11.6-4.6c-3-3-4.5-6.8-4.5-11.2C266,116.3,267.5,112.6,270.6,109.6z M282.2,129.4
			c2.4,0,4.3-0.9,5.9-2.5c1.6-1.7,2.5-3.8,2.5-6.1c0-2.4-0.9-4.4-2.5-6.1c-1.6-1.7-3.5-2.5-5.9-2.5c-2.4,0-4.3,0.9-5.9,2.5
			c-1.6,1.7-2.4,3.7-2.4,6.1c0,2.4,0.8,4.4,2.4,6.1C277.8,128.5,279.8,129.4,282.2,129.4z M278.2,101.2l3.4-9.7h8.7l-5.2,9.7H278.2z
			"/>
		<path class="st1" d="M301.5,135.8v-30.1h7.6v4.2c1.6-2.9,5.2-5,9.4-5c3.3,0,6.1,1.1,8.3,3.3c2.3,2.2,3.4,5.3,3.4,9.3v18.4h-7.8
			v-16.2c0-4.8-2.5-7.5-6.3-7.5c-4.2,0-6.9,3.1-6.9,7.6v16.1L301.5,135.8L301.5,135.8z"/>
		<path class="st1" d="M383.7,83.4h-34c-5.1,0-9.3,4.2-9.3,9.3v38.2c0,2.7,2.2,5,5,5h27.9c14.4,0,19.6-11.8,19.6-18.2v-25
			C393,87.5,388.8,83.4,383.7,83.4z M357.4,125.6h-6.9v-32h6.9V125.6z M385.6,100.2h-8.9v25.5h-6.9v-25.5h-8.9v-6.6h24.7
			L385.6,100.2L385.6,100.2z"/>
	</g>
</g>
</svg>
