<?xml version="1.0" encoding="utf-8"?>
<!-- Generator: Adobe Illustrator 27.8.1, SVG Export Plug-In . SVG Version: 6.00 Build 0)  -->
<svg version="1.1" id="Layer_1" xmlns="http://www.w3.org/2000/svg" xmlns:xlink="http://www.w3.org/1999/xlink" x="0px" y="0px"
	 viewBox="0 0 450 220" style="enable-background:new 0 0 450 220;" xml:space="preserve">
<style type="text/css">
	.st0{fill:#6A2875;}
	.st1{fill:#97639D;}
	.st2{fill:#15A6D9;}
	.st3{fill:#0082BE;}
</style>
<image style="display:none;overflow:visible;enable-background:new    ;" width="1026" height="1026" xlink:href="212FB232D4C7B92.png"  transform="matrix(0.1358 0 0 0.1358 151.57 34.6684)">
</image>
<image style="display:none;overflow:visible;enable-background:new    ;" width="1000" height="229" xlink:href="212FB232D4C7B96.jpg"  transform="matrix(0.388 0 0 0.388 38 60.78)">
</image>
<image style="display:none;overflow:visible;enable-background:new    ;" width="1356" height="874" xlink:href="212FB232D4C7B96.png"  transform="matrix(0.2196 0 0 0.2196 74.1968 13)">
</image>
<g>
	<polygon class="st0" points="105.6,147.8 63.8,147.8 84.7,110 	"/>
	<polygon class="st1" points="42.8,110 84.7,110 63.8,147.8 	"/>
	<polygon class="st2" points="42.8,110 84.7,110 63.8,72.2 	"/>
	<polygon class="st3" points="105.6,72.2 63.8,72.2 84.7,110 	"/>
	<g>
		<polygon class="st0" points="130,104.2 152.7,104.2 152.7,112.5 130,112.5 130,131.2 152.7,131.2 152.7,139.5 121.7,139.5 
			121.7,79.2 152.7,79.4 152.7,87.7 130,87.5 		"/>
		<polygon class="st0" points="173.2,113 167.3,118.9 167.3,139.5 159,139.5 159,79.3 167.3,79.3 167.3,107.2 195.3,79.2 207,79.2 
			179.1,107.1 211.5,139.5 199.7,139.5 		"/>
		<path class="st0" d="M237.7,139.5c-2.9,0-5.7-0.6-8.4-1.7c-2.6-1.2-4.8-2.7-6.8-4.6c-2-2-3.5-4.3-4.6-6.8
			c-1.1-2.7-1.7-5.5-1.7-8.3V79.2h8.3v38.9c0,1.8,0.3,3.5,1,5.1c0.7,1.6,1.6,3,2.8,4.1c1.2,1.2,2.6,2.1,4.2,2.8c1.6,0.7,3.3,1,5.1,1
			c1.8,0,3.5-0.3,5.1-1c1.6-0.7,3-1.6,4.1-2.8c1.2-1.2,2.1-2.6,2.8-4.1c0.7-1.6,1-3.3,1-5.1V79.2h8.3v38.9c0,2.9-0.6,5.7-1.7,8.3
			c-1,2.5-2.5,4.7-4.6,6.8c-2,2-4.3,3.5-6.8,4.6C243.3,138.9,240.6,139.5,237.7,139.5"/>
		<polygon class="st0" points="265.6,139.5 265.6,79.2 275,79.2 294.2,124.8 312.1,79.2 321.3,79.2 321.3,139.5 313,139.5 313,99.1 
			297.2,139.5 291.6,139.5 273.9,97.7 273.9,139.5 		"/>
		<polygon class="st0" points="335.8,104.2 358.5,104.2 358.5,112.5 335.8,112.5 335.8,131.2 358.5,131.2 358.5,139.5 327.5,139.5 
			327.5,79.2 358.5,79.4 358.5,87.7 335.8,87.5 		"/>
		<polygon class="st0" points="398.9,79.4 407.2,79.4 407.2,139.8 401.1,139.8 373.2,96.7 373.2,139.7 364.9,139.7 364.9,79.2 
			371.7,79.2 398.9,121.2 		"/>
	</g>
</g>
</svg>
