<?xml version="1.0" encoding="utf-8"?>
<!-- Generator: Adobe Illustrator 27.7.0, SVG Export Plug-In . SVG Version: 6.00 Build 0)  -->
<svg version="1.1" id="Layer_1" xmlns="http://www.w3.org/2000/svg" xmlns:xlink="http://www.w3.org/1999/xlink" x="0px" y="0px"
	 viewBox="0 0 450 220" style="enable-background:new 0 0 450 220;" xml:space="preserve">
<style type="text/css">
	.st0{fill:none;}
	.st1{fill:#FFFFFF;}
</style>
<rect class="st0" width="450" height="220"/>
<g>
	<path d="M154,106.7c-1.5-2-2.5-2.8,0.3-3.1c2.9-0.3,7.2-2.1,6.9-3.5c-0.3-1.4-4.3-5.1-9.2-6.6c-3.7-1.1-4.9-2.9-5.3-3.7
		c0-0.1,0-0.3,0-0.4c0-3.2-2.6-5.9-5.9-5.9c-3.2,0-5.9,2.6-5.9,5.9c0,0-0.5,2.6-5.4,4.1c-4.9,1.5-8.9,5.2-9.2,6.6
		c-0.3,1.4,4,3.2,6.9,3.5c2.9,0.3,1.8,1.1,0.3,3.1c-1.5,2-7.5,9.2-7.3,11.5c0.2,2.3,0.8,2.5,3.1,2.5c2.3,0,10.4,0,10.4,0
		s1.7-0.1,2.8-2.3c1-2.2,2.8-6.3,3.9-6.9c0.1-0.1,0.4-0.1,0.5,0c1.1,0.6,2.9,4.7,3.9,6.9c1,2.2,2.8,2.3,2.8,2.3s8.1,0,10.4,0
		c2.3,0,2.9-0.2,3.1-2.5C161.5,115.9,155.5,108.6,154,106.7z"/>
	<path d="M195.2,142.6L174,121.4c2.8-5.3,4.4-11.4,4.4-17.8c0-20.9-16.9-37.8-37.8-37.8s-37.8,16.9-37.8,37.8
		c0,20.9,16.9,37.8,37.8,37.8c6,0,11.6-1.4,16.6-3.8l21.5,21.5c4.6,4.6,11.9,4.6,16.5,0l0,0C199.7,154.5,199.7,147.2,195.2,142.6z
		 M113.7,103.6c0-14.8,12-26.9,26.9-26.9s26.9,12,26.9,26.9c0,14.8-12,26.9-26.9,26.9S113.7,118.5,113.7,103.6z"/>
	<path class="st1" d="M183.4,145L168,129.5c-0.7-0.7-0.7-1.7,0-2.4h0c0.7-0.7,1.7-0.7,2.4,0l15.5,15.5c0.7,0.7,0.7,1.7,0,2.4h0
		C185.1,145.7,184.1,145.7,183.4,145z"/>
	<g>
		<path d="M193.2,93.2c-3.5,0-7.1,0-10.6,0c-1,0-1,0-0.9-1.1c0.1-1.1,0.3-2.2,0.3-3.3c0-0.6,0.2-1.1,0.9-1.2c1.2-0.1,1.5-1,1.6-2.1
			c0.7-6.7,1.4-13.3,2.2-20c0.1-1.1,0.1-1.1-0.9-1.5c-0.9-0.3-0.9-0.3-0.8-1.3c0.1-1.2,0.3-2.3,0.4-3.5c0-0.6,0.3-0.8,0.9-0.8
			c0.2,0,0.4,0,0.6,0c6.8,0,13.6,0,20.4,0c0.2,0,0.5,0,0.7,0c0.7,0,0.8,0.1,0.7,0.9c-0.3,2.7-0.6,5.3-0.9,8
			c-0.1,0.6-0.3,0.8-0.9,0.8c-1,0-2,0-3.1,0c-0.5,0-0.7-0.2-0.7-0.7c0-0.7-0.1-1.3-0.2-2c0-0.5-0.3-0.7-0.7-0.7c-2.2,0-4.4,0-6.6,0
			c-0.5,0-0.7,0.2-0.7,0.7c-0.2,2-0.4,4-0.7,6.1c-0.1,0.5,0.1,0.8,0.6,0.8c1.8,0,3.5,0,5.3,0c0.5,0,0.8-0.2,0.9-0.7
			c0.2-1.5,1.2-1.7,2.4-1.6c0.4,0.1,0.8,0,1.2,0c0.5,0,0.7,0.3,0.6,0.8c-0.3,3-0.6,5.9-0.9,8.9c-0.1,0.5-0.3,0.8-0.8,0.8
			c-0.8,0-1.5,0-2.3,0c-0.5,0-0.8-0.2-0.9-0.7c-0.1-0.5,0.1-1.1-0.4-1.4c-0.4-0.3-1-0.1-1.4-0.1c-1.4,0-2.9,0-4.3,0
			c-0.5,0-0.8,0.2-0.8,0.8c-0.2,2.2-0.5,4.4-0.7,6.7c-0.1,0.9,0,0.9,0.8,0.9c2.1,0,4.1,0,6.2,0c0.5,0,0.8-0.2,1-0.8
			c0.3-0.9,0.6-1.7,0.9-2.6c0.2-0.6,0.5-0.7,1-0.7c0.9,0,1.8,0,2.7,0c0.9,0,0.9,0.1,0.8,1c-0.3,2.6-0.5,5.1-0.8,7.6
			c0,0.4-0.1,0.8-0.1,1.2c-0.1,0.9-0.1,0.9-1,0.9c-3.3,0-6.6,0-9.8,0C193.9,93.2,193.6,93.2,193.2,93.2z"/>
		<path d="M289,91.6c-0.6,0.3-1,0.6-1.3,0.8c-1.8,1.1-3.8,1.7-6,1.8c-0.2,0-0.5,0-0.7,0c-3.5-0.2-5.2-2-5.7-5.7
			c-0.3-2.2-0.1-4.3,0.2-6.4c0.3-2.1,0.5-4.3,0.8-6.4c0.2-1.6,0.6-3.2,1.3-4.6c1.1-2.4,2.9-3.7,5.3-4.2c2-0.3,4-0.3,6,0.3
			c1.3,0.4,2.5,1,3.5,2c0.4,0.4,0.7,0.4,1-0.1c0-0.1,0.1-0.1,0.1-0.2c0.6-1.3,1.7-1.8,3-1.6c0.7,0.1,1.4,0,2,0c0.7,0,0.8,0,0.7,0.9
			c-0.2,2.1-0.5,4.3-0.7,6.4c-0.8,7.6-1.7,15.2-2.5,22.8c-0.1,1-0.1,1,0.9,1.4c1,0.4,1,0.4,0.9,1.5c-0.1,1.1-0.3,2.3-0.4,3.4
			c0,0.6-0.2,0.9-0.8,0.8c-3.6,0-7.2,0-10.7,0c-0.6,0-0.7-0.2-0.7-0.8c0.1-1.2,0.3-2.5,0.4-3.8c0-0.6,0.3-0.9,0.8-1c0,0,0.1,0,0.1,0
			c1.5-0.1,2.1-0.9,2.1-2.5C288.6,94.9,288.9,93.4,289,91.6z M282.8,84.5c0.1,2.6,0.7,3.2,2.7,3.1c1.3-0.1,2.5-0.6,3.6-1.2
			c0.4-0.3,0.6-0.6,0.7-1.1c0.1-0.9,0.2-1.8,0.3-2.7c0.3-2.5,0.5-4.9,0.8-7.4c0.1-1,0.1-1-0.9-1.4c-0.6-0.2-1.3-0.3-1.9-0.4
			c-2.5-0.3-3.8,0.7-4.4,3.3C283.1,79.4,283,82.2,282.8,84.5z"/>
		<path d="M219.1,69.4c0.5-0.3,1-0.6,1.5-0.9c2.7-1.7,5.6-2.2,8.8-1.6c3,0.5,4.5,2.6,4.3,5.8c-0.1,2-0.4,4-0.6,6
			c-0.3,2.5-0.6,5-0.8,7.5c-0.1,1.1-0.1,1.1,0.8,1.4c1.1,0.4,1.1,0.4,0.9,1.5c-0.1,1.1-0.3,2.3-0.4,3.4c0,0.6-0.3,0.8-0.8,0.7
			c-3.4,0-6.7,0-10.1,0c-0.6,0-0.8-0.2-0.7-0.8c0.2-1.3,0.3-2.6,0.4-3.9c0.1-0.6,0.4-0.8,0.9-0.9c0.9-0.2,1.2-0.7,1.3-1.6
			c0.3-3.2,0.7-6.4,1-9.6c0,0,0-0.1,0-0.1c0.3-2.5-0.3-3.1-2.6-3c-1.3,0-2.5,0.3-3.6,0.8c-0.5,0.2-0.7,0.6-0.8,1.2
			c-0.4,3.7-0.8,7.4-1.2,11c-0.1,0.9-0.1,0.9,0.8,1.3c0.9,0.4,0.9,0.4,0.8,1.4c-0.1,1.2-0.3,2.3-0.4,3.5c0,0.6-0.3,0.7-0.8,0.7
			c-3.4,0-6.7,0-10.1,0c-0.6,0-0.8-0.2-0.7-0.8c0.2-1.3,0.3-2.6,0.4-3.9c0-0.5,0.3-0.8,0.7-0.8c1.5-0.1,1.6-1.2,1.8-2.5
			c0.3-3.6,0.8-7.1,1.2-10.7c0.1-1.2,0.1-1.2-0.9-1.6c-1-0.4-1-0.4-0.9-1.5c0.1-1.1,0.2-2.3,0.4-3.4c0.1-0.6,0.3-0.8,0.9-0.8
			c2.5,0,5,0,7.5,0c0.8,0,0.8,0,0.8,0.9C219,68.6,218.9,68.9,219.1,69.4z"/>
		<path d="M312.3,67.6c-0.2,1.5-0.3,3.1-0.5,4.7c-0.1,0.5-0.4,0.7-0.8,0.7c-1,0.2-1.2,0.8-1.3,1.8c-0.3,3.3-0.7,6.6-1.1,9.9
			c-0.2,2.1,0.2,2.7,2.2,2.8c1,0.1,2,0.1,2.9-0.2c1.1-0.3,1.7-1,1.8-2.3c0.4-3.6,0.8-7.1,1.2-10.7c0.1-0.9,0.1-0.9-0.8-1.3
			c-0.9-0.4-0.9-0.4-0.8-1.3c0.1-1.2,0.3-2.4,0.4-3.6c0-0.5,0.2-0.7,0.7-0.7c2.9,0,5.8,0,8.7,0c0.5,0,0.7,0.1,0.6,0.7
			c-0.2,1.3-0.3,2.6-0.4,3.9c-0.1,0.6-0.3,0.9-0.8,1c-0.9,0.2-1.1,0.8-1.2,1.7c-0.3,3.4-0.7,6.7-1.1,10.1c-0.1,0.8-0.2,1.5-0.4,2.3
			c-0.7,3.3-2.6,5.5-5.5,6.4c-3.4,1-6.8,1-10.3,0.2c-0.6-0.1-1.2-0.4-1.8-0.7c-1.6-0.9-2.6-2.3-3-4.2c-0.2-1.2-0.2-2.5,0-3.7
			c0.4-3.4,0.8-6.9,1.1-10.3c0.1-1.2,0.2-1.2-0.9-1.7c-0.4-0.2-0.6-0.5-0.5-1c0.2-1.3,0.3-2.6,0.4-3.9c0.1-0.7,0.4-0.8,0.9-0.8
			c1.4,0,2.8,0,4.2,0c1.6,0,3.2,0,4.9,0C311.4,67.4,311.8,67.3,312.3,67.6z"/>
		<path d="M261.7,94.2c-2.1,0-3.7-0.2-5.3-0.7c-3-1-4.6-3.1-4.9-6.4c-0.1-1.1-0.1-2.2,0-3.3c0.3-2.7,0.5-5.5,1-8.2
			c1-4.9,3.8-7.8,8.3-8.6c0.6-0.1,1.2-0.2,1.8-0.2c1.9-0.2,3.8-0.1,5.8,0.4c0.6,0.1,1.3,0.4,1.9,0.7c1.9,0.9,3.1,2.5,3.6,4.7
			c0.4,1.7,0.4,3.4,0.2,5c-0.2,2.2-0.5,4.4-0.8,6.7c-0.1,0.4-0.1,0.9-0.2,1.3c-1.1,4.9-3.9,7.7-8.5,8.5
			C263.4,94.1,262.4,94.2,261.7,94.2z M261.9,87.8c2.3,0,3.3-0.8,3.9-3.2c0.1-0.2,0.1-0.5,0.1-0.7c0.3-2.4,0.6-4.8,0.8-7.3
			c0-0.6,0-1.1-0.1-1.7c-0.2-1-0.6-1.5-1.6-1.7c-0.8-0.2-1.7-0.2-2.5,0c-1.1,0.2-1.9,0.8-2.3,2c-0.3,0.7-0.5,1.4-0.5,2.2
			c-0.3,2.4-0.5,4.8-0.7,7.2C258.8,87,259.5,87.8,261.9,87.8z"/>
		<path d="M343.6,85.2c0.6,1.4,1.2,2.8,1.8,4.2c0.2,0.4-0.1,0.7-0.3,1c-0.9,1.2-2,2.1-3.4,2.6c-3.2,1.3-6.5,1.6-10,0.7
			c-3.6-1-5.7-3.7-6.1-7.7c-0.2-1.6,0-3.2,0.2-4.8c0.2-2.1,0.4-4.1,0.9-6.1c1.2-5,4.2-7.7,8.9-8.2c2.1-0.2,4.1-0.2,6.2,0.3
			c3.3,0.8,5,2.8,5.3,6.5c0.2,2.5-0.1,4.9-0.4,7.3c-0.2,1.7-0.2,1.7-1.8,1.7c-3.5,0-7.1,0-10.6,0c-0.3,0-0.6,0-0.9,0
			c-0.3,0-0.4,0.2-0.5,0.5c-0.4,2.4,0.8,4.1,3,4.4c2.7,0.3,5.2,0,7.2-2.2C343.2,85.3,343.4,85.3,343.6,85.2z M336.9,77.5
			c0.9,0,1.8,0,2.7,0c0.4,0,0.7,0,0.7-0.5c0.1-0.9,0.2-1.9,0-2.8c-0.2-0.8-0.6-1.3-1.3-1.6c-2.1-0.8-4.2,0.2-4.9,2.4
			c-0.2,0.6-0.3,1.2-0.4,1.8c-0.1,0.6,0.1,0.7,0.6,0.7C335.2,77.4,336,77.5,336.9,77.5z"/>
		<path d="M248,67.4c1.2,0,2.4,0,3.5,0c0.8,0,0.9,0.1,0.8,0.9c-0.1,1.2-0.3,2.4-0.4,3.6c0,0.7-0.3,0.9-0.9,0.9c-0.9,0-1.9,0-2.8,0
			c-0.9,0-0.9,0-1,0.9c-0.5,4.2-0.9,8.4-1.4,12.6c-0.1,0.9-0.1,0.9,0.8,1.2c1.6,0.5,1.6,0.5,1.4,2.3c-0.1,0.8-0.2,1.6-0.3,2.4
			c-0.1,1-0.1,1.1-1.1,1.1c-3.1,0-6.2,0-9.3,0c-0.4,0-0.8,0-1.1,0c-0.7,0-0.7-0.1-0.6-0.8c0.1-1.3,0.3-2.5,0.4-3.8
			c0-0.5,0.2-0.9,0.7-0.9c1.4-0.1,1.6-1.1,1.8-2.4c0.3-3.8,0.8-7.6,1.2-11.4c0.1-1.1,0.1-1.1-1-1.2c-0.1,0-0.2,0-0.3,0
			c-0.9,0-0.9,0-0.8-1c0.1-1.2,0.2-2.3,0.4-3.5c0.1-0.9,0.1-0.9,1-0.9c1.9,0,1.4,0.1,1.8-1.8c0.1-0.8,0.2-1.5,0.3-2.3
			c0.6-3.3,2.4-5.2,5.5-5.7c1.8-0.3,3.6-0.3,5.4,0.1c0.4,0.1,0.8,0.3,1.2,0.4c0.5,0.2,0.6,0.5,0.5,1c-0.4,1.2-0.7,2.5-1,3.7
			c-0.1,0.5-0.4,0.6-0.8,0.4c-0.6-0.3-1.3-0.2-1.9-0.2c-0.8,0.1-1.4,0.6-1.6,1.5C248.1,65.5,247.9,66.4,248,67.4z"/>
	</g>
	<g>
		<path d="M260.5,111.7c0.2-1.4,0.3-2.6,0.4-3.8c0.1-0.5-0.2-0.7-0.6-0.9c-1.3-0.5-1.3-0.5-1.2-2.1c0.1-0.9,0.2-1.9,0.3-2.8
			c0-0.7,0.3-0.9,0.9-0.9c1.8,0,3.7,0,5.5,0c1,0,2.1,0,3.1,0c0.3,0.4,0.2,0.6,0.2,0.9c-1,8.8-1.9,17.7-2.9,26.5
			c0,0.4-0.1,0.8-0.1,1.2c-0.1,0.4,0.1,0.7,0.5,0.8c0.5,0.2,1.1,0.1,1.3,0.6c0.3,0.5,0,1.1-0.1,1.7c-0.1,0.9-0.2,1.9-0.3,2.8
			c0,0.5-0.2,0.7-0.7,0.7c-2.6,0-5.2,0-7.8,0c-0.5,0-0.7-0.2-0.6-0.8c0-0.4,0.2-0.8-0.1-1.2c-0.5,0-0.7,0.3-1.1,0.5
			c-2.2,1.4-4.5,2.2-7.1,2.1c-3.7-0.1-5.6-1.9-6-5.9c-0.1-1.2-0.1-2.5,0-3.7c0.3-2.8,0.6-5.5,0.9-8.2c0.2-1.6,0.6-3.2,1.2-4.7
			c1.2-3,3.3-4.6,6.4-4.8c2.6-0.2,5,0.1,7.4,1.6C260.1,111.6,260.2,111.6,260.5,111.7z M256.3,116.5c-1.9,0-3.1,0.7-3.6,2.7
			c-0.7,2.9-0.9,5.9-1.1,8.9c0,0.1,0,0.2,0,0.2c0.2,1.6,0.8,2.2,2.3,2.2c1.3,0,2.4-0.4,3.5-1c0.7-0.4,1.2-0.8,1.2-1.8
			c0-0.5,0.1-1,0.2-1.5c0.3-2.7,0.6-5.4,0.9-8.1c0.1-0.9,0.1-0.9-0.7-1.2C258.2,116.6,257.3,116.5,256.3,116.5z"/>
		<path d="M204.2,136.5c-3.4,0-6.7,0-10.1,0c-1,0-1,0-0.9-1.1c0.1-1.1,0.3-2.2,0.3-3.3c0-0.7,0.3-1.1,0.9-1.2c1.1-0.1,1.4-0.8,1.6-2
			c0.7-6.7,1.4-13.4,2.2-20.1c0.1-1.1,0.1-1.1-0.9-1.5c-0.9-0.3-0.9-0.3-0.8-1.3c0.1-1.1,0.2-2.3,0.4-3.4c0.1-0.9,0.1-0.9,1-0.9
			c2.6,0,5.1,0,7.7,0c1,0,2,0,3.1,0c0.8,0,0.8,0.1,0.7,0.9c-0.1,1.2-0.3,2.4-0.4,3.6c0,0.6-0.3,0.9-0.8,1c-1.8,0.5-1.5,0.3-1.7,2.2
			c-0.7,6.3-1.4,12.6-2.1,18.9c0,0.2,0,0.4-0.1,0.6c-0.1,0.5,0.1,0.7,0.6,0.7c1.1,0,2.3,0,3.4,0c0.6,0,1.3,0,1.9,0
			c0.5,0,0.8-0.2,0.9-0.8c0.3-1.7,0.7-3.4,1.1-5.1c0.2-1,0.2-1,1.2-1c0.8,0,1.6,0,2.4,0c1.1,0,1.1,0,1,1.2c-0.3,2.8-0.6,5.6-0.9,8.4
			c-0.1,1.1-0.2,2.2-0.4,3.3c-0.1,1-0.1,1-1,1C210.9,136.5,207.6,136.5,204.2,136.5z"/>
		<path d="M225.3,110.7c1.5,0,3,0,4.5,0c1,0,1.1,0,0.9,1.1c-0.1,1.1-0.3,2.2-0.3,3.3c0,0.7-0.3,1.2-0.9,1.3
			c-0.9,0.1-1.2,0.7-1.3,1.7c-0.3,3.3-0.7,6.6-1.1,9.9c-0.2,2.4,0.2,2.9,2.4,3c0.9,0,1.9,0,2.8-0.3c1-0.3,1.6-1,1.7-2.1
			c0.4-3.7,0.8-7.4,1.2-11.1c0.1-0.5-0.2-0.7-0.6-0.9c-1.2-0.5-1.2-0.5-1-1.8c0.1-1.1,0.2-2.1,0.3-3.2c0-0.5,0.3-0.8,0.8-0.8
			c2.9,0,5.7,0,8.6,0c0.5,0,0.8,0.2,0.7,0.8c-0.2,1.2-0.3,2.5-0.4,3.8c0,0.6-0.3,1-0.8,1.1c-0.8,0.2-1,0.7-1.1,1.5
			c-0.3,3.3-0.7,6.6-1.1,9.9c-0.1,0.9-0.2,1.8-0.4,2.6c-0.7,3.3-2.5,5.4-5.5,6.3c-3.4,1-6.9,1.1-10.4,0.2c-0.6-0.1-1.2-0.4-1.7-0.7
			c-1.7-0.9-2.7-2.3-3.1-4.3c-0.2-1.2-0.2-2.5,0-3.7c0.4-3.4,0.7-6.8,1.1-10.2c0.1-1.2,0.1-1.3-0.9-1.8c-0.4-0.2-0.5-0.4-0.5-0.9
			c0.2-1.3,0.3-2.7,0.4-4c0.1-0.6,0.3-0.7,0.8-0.7C222.1,110.7,223.7,110.7,225.3,110.7z"/>
		<path d="M315.2,137.5c-1.6,0-3.2-0.2-4.8-0.7c-2.8-1-4.4-2.9-4.8-6.1c-0.1-1.1-0.2-2.1-0.1-3.2c0.2-2.4,0.5-4.9,0.8-7.3
			c0.1-1,0.3-1.9,0.6-2.8c1.1-3.7,3.4-5.9,6.8-6.8c2.8-0.7,5.7-0.8,8.6-0.1c0.6,0.1,1.1,0.3,1.6,0.5c2.2,1,3.5,2.7,3.9,5.2
			c0.3,1.5,0.3,3,0.1,4.4c-0.2,2.1-0.5,4.3-0.7,6.4c-0.1,0.4-0.1,0.9-0.2,1.3c-1.1,5.5-4,8.4-9.2,9
			C317,137.4,316.1,137.5,315.2,137.5z M320.6,119.2c0-0.2,0-0.3,0-0.5c-0.1-1.6-0.6-2.2-2.1-2.3c-3-0.4-4.3,0.7-4.9,3.8
			c0,0.2,0,0.3-0.1,0.5c-0.2,2.1-0.5,4.2-0.7,6.3c-0.1,0.8-0.1,1.6,0,2.4c0.1,0.7,0.4,1.1,1,1.4c2.4,1.1,5-0.1,5.6-2.7
			C320.3,125.2,320.5,122.2,320.6,119.2z"/>
		<path d="M301,127.4c0.7,1.4,1.4,2.8,2.1,4.2c0.2,0.4-0.1,0.7-0.3,1c-1.7,2.4-3.9,4-6.6,4.6c-2.3,0.5-4.6,0.4-7-0.3
			c-3.3-1.1-5.1-3.5-5.4-7.2c-0.1-1.5,0-2.9,0.2-4.4c0.2-1.8,0.4-3.6,0.6-5.5c0.5-3.4,1.8-6.2,4.6-8c2.6-1.7,5.5-2,8.5-1.8
			c1.5,0.1,2.9,0.4,4.3,1.1c0.3,0.1,0.5,0.3,0.8,0.5c1.2,0.8,1.9,1.7,1.5,3.3c-0.3,1.2-0.3,2.6-0.4,3.9c-0.1,0.6-0.3,0.9-0.9,0.9
			c-1.3,0-2.6,0-3.8,0c-0.8,0-0.8-0.1-0.9-0.9c0-0.3-0.1-0.7-0.1-1c0-0.8-0.4-1.2-1-1.5c-1.7-0.7-3.6-0.1-4.5,1.6
			c-0.4,0.8-0.7,1.7-0.8,2.6c-0.2,1.8-0.4,3.6-0.6,5.5c-0.1,0.6-0.1,1.3,0,2c0.2,1.3,0.9,2.1,2.1,2.4c2.5,0.6,4.7-0.2,6.5-2
			c0.2-0.2,0.3-0.3,0.4-0.5c0.1-0.2,0.2-0.3,0.3-0.5C300.8,127.3,300.9,127.3,301,127.4z"/>
		<path d="M275.1,136.5c-1.7,0-3.4,0-5.1,0c-0.8,0-0.8-0.1-0.8-0.9c0.1-1.2,0.3-2.3,0.4-3.5c0-0.6,0.3-0.9,0.8-1.1
			c1.6-0.5,1.4-0.1,1.6-2.2c0.4-3.7,0.8-7.3,1.2-11c0.1-1.1,0.1-1.1-0.8-1.4c-0.2-0.1-0.4-0.2-0.7-0.2c-0.3-0.1-0.4-0.3-0.4-0.7
			c0.2-1.4,0.3-2.8,0.5-4.2c0-0.5,0.3-0.6,0.7-0.6c1.2,0,2.4,0,3.6,0c1.4,0,2.7,0,4.1,0c1.3,0,1.4-0.3,1.2,1.5
			c-0.3,2.4-0.5,4.8-0.8,7.2c-0.4,3.3-0.7,6.6-1.1,9.9c-0.1,1.2-0.1,1.2,1,1.6c0.9,0.3,0.9,0.3,0.8,1.3c-0.1,1.1-0.2,2.3-0.4,3.4
			c-0.1,0.9-0.1,0.9-0.9,0.9C278.4,136.5,276.8,136.5,275.1,136.5z"/>
		<path d="M239.5,99.1c0,0.4-0.3,0.7-0.5,1c-1.7,2.4-3.4,4.8-5.1,7.2c-0.4,0.6-0.9,0.9-1.6,0.8c-1.2-0.1-2.3,0-3.4,0
			c-0.3-0.4-0.1-0.6,0-0.8c1.1-2.6,2.2-5.2,3.3-7.7c0.2-0.5,0.5-0.7,1-0.7c2,0,3.9,0,5.9,0C239.2,98.9,239.4,98.8,239.5,99.1z"/>
	</g>
	<circle cx="278.6" cy="104.4" r="3.6"/>
</g>
</svg>
