<?xml version="1.0" encoding="utf-8"?>
<!-- Generator: Adobe Illustrator 27.5.0, SVG Export Plug-In . SVG Version: 6.00 Build 0)  -->
<svg version="1.1" id="Layer_1" xmlns="http://www.w3.org/2000/svg" xmlns:xlink="http://www.w3.org/1999/xlink" x="0px" y="0px"
	 viewBox="0 0 450 220" style="enable-background:new 0 0 450 220;" xml:space="preserve">
<style type="text/css">
	.st0{fill:#473E6C;}
	.st1{fill:#009383;}
</style>
<g>
	<g>
		<path class="st0" d="M176.02,95.01L175.66,97h-9.8l-1.06,6.05h8.94l-0.34,1.99h-8.94l-1.28,7.2h-2.14l3.05-17.23H176.02z"/>
		<path class="st0" d="M184.43,112.21l0.32-1.89c-1.33,1.47-3,2.09-4.69,2.11c-3.1,0-4.91-2.06-4.3-5.6l1.18-6.71h2.04l-1.18,6.68
			c-0.42,2.33,0.39,3.76,2.83,3.76c2.21-0.02,4.23-1.74,4.62-3.93l1.16-6.51h2.01l-2.14,12.09h-1.87H184.43z"/>
		<path class="st0" d="M193.55,100.09l-0.22,1.89c1.2-1.5,2.92-2.11,4.55-2.11c3.07,0,4.96,2.06,4.33,5.63l-1.18,6.71H199l1.18-6.68
			c0.44-2.43-0.61-3.88-3.02-3.78c-2.21,0.02-4.03,1.77-4.42,3.96l-1.16,6.51h-1.99l2.11-12.11H193.55z"/>
		<path class="st0" d="M219.15,94.98l-3.02,17.23h-1.89l0.37-2.24c-1.28,1.67-3.27,2.46-5.06,2.46c-2.97,0-5.16-1.89-5.16-5.14
			c0-4.72,3.42-7.45,7.35-7.45c1.72,0,3.44,0.79,4.13,2.43l1.28-7.27h1.99L219.15,94.98z M211.58,101.72
			c-2.75,0-4.96,1.89-5.14,5.18c-0.12,2.36,1.18,3.61,3.59,3.61c2.7,0,5.16-2.14,5.16-5.14c0-2.19-1.43-3.66-3.64-3.66H211.58z"/>
		<path class="st0" d="M229.42,112.26l0.42-2.21c-1.15,1.77-3.32,2.46-4.99,2.46c-3.05,0-5.21-1.99-5.21-5.26
			c0-4.55,3.56-7.35,7.47-7.35c1.82,0,3.47,0.81,4.08,2.38l0.44-2.21h1.94l-2.14,12.14h-1.94L229.42,112.26z M221.63,106.95
			c0,2.26,1.13,3.71,3.56,3.71c5.85,0,7.49-8.92,1.67-8.92C224.14,101.77,221.63,103.71,221.63,106.95z"/>
		<path class="st0" d="M245.2,110.56c-1.3,1.4-3.17,1.87-4.84,1.87c-3.07,0-5.36-1.87-5.36-5.18c0-4.67,3.29-7.4,7.57-7.4
			c1.65,0,3.02,0.57,4.08,1.82l-1.45,1.25c-0.71-0.84-1.84-1.18-2.92-1.18c-3.1,0-5.11,2.01-5.21,5.18
			c-0.07,2.24,1.33,3.64,3.66,3.64c1.15,0,2.26-0.42,3.37-1.35L245.2,110.56z"/>
		<path class="st0" d="M249.23,100.02h2.02l-2.14,12.19h-2.01L249.23,100.02z M249.65,96.31c-0.34,1.77,2.31,1.77,2.65,0.02
			C252.62,94.57,249.97,94.57,249.65,96.31z"/>
		<path class="st0" d="M260.11,99.8c3.27,0,5.31,2.16,5.31,5.28c0,4.25-3.42,7.35-7.54,7.35c-3.19,0-5.28-2.14-5.28-5.23
			C252.59,102.95,256.03,99.8,260.11,99.8z M263.41,105.43c0.2-2.29-1.25-3.78-3.47-3.78c-2.83,0-5.26,2.21-5.33,5.26
			c-0.07,2.14,1.28,3.64,3.46,3.64C260.92,110.54,263.14,108.25,263.41,105.43z M259.15,98.13l2.14-3.12h2.48v0.07l-2.8,3.17h-1.84
			L259.15,98.13z"/>
		<path class="st0" d="M270.75,100.09l-0.22,1.89c1.2-1.5,2.92-2.11,4.55-2.11c3.07,0,4.96,2.06,4.33,5.63l-1.18,6.71h-2.01
			l1.18-6.68c0.44-2.43-0.61-3.88-3.02-3.78c-2.21,0.02-4.03,1.77-4.42,3.96l-1.16,6.51h-1.99l2.11-12.11H270.75z"/>
		<path class="st0" d="M287.51,112.21l3.02-17.18h12.53l-0.61,3.51h-8.7l-0.71,4.08h8.16l-0.61,3.42h-8.16l-1.08,6.17H287.51z"/>
		<path class="st0" d="M309.58,95.01l-2.41,13.69h8.6l-0.61,3.51h-12.43l3.02-17.2H309.58z"/>
		<path class="st0" d="M325.04,112.63c-4.84,0-7.89-2.83-7.89-7.42c0-6.44,4.79-10.62,11.06-10.62c4.84,0,7.89,2.83,7.89,7.42
			C336.09,108.45,331.3,112.63,325.04,112.63z M327.59,98.03c-3.66,0-6.61,2.95-6.61,6.49c0,2.7,1.77,4.64,4.64,4.64
			c3.34,0,5.95-2.36,6.51-5.55C332.7,100.46,330.93,98.03,327.59,98.03z"/>
		<path class="st0" d="M352.36,112.21h-4.18l-3.39-5.65h-2.85l-1.01,5.65h-3.83l3.02-17.2c2.8,0,5.38,0,8.16,0
			c3.69,0,5.46,2.31,5.46,4.94c0,3.1-1.55,5.09-5.04,6.27l3.71,5.7L352.36,112.21z M343.39,98.3l-0.88,5.01h4.37
			c1.99,0,3-1.57,3-2.78c0-1.06-0.59-2.24-2.16-2.24H343.39z"/>
	</g>
	<g id="ZHeLn1_00000111907164070436382450000014562086113736151725_">
		<g>
			<g>
				<path class="st0" d="M145.96,106.19c-0.64,0.07-4.36,0.25-5.65,0.28c-6.34,0.15-12.67,0.3-18.92,1.61
					c-9.01,1.89-16.82,5.91-22.94,12.92c-1.36,1.56-2.41,3.32-2.18,5.52c0.18,1.71,1.57,2.91,3.67,3.13
					c4.12,0.43,7.65-1.09,10.8-3.57c4.34-3.43,6.82-8.06,8.38-13.26c0.01-0.04,0.03-0.09,0.05-0.13
					c-1.49,5.67-3.46,11.11-8.27,14.92c-3.1,2.46-6.5,4.21-10.62,4.03c-3.24-0.14-5.46-1.96-5.75-4.92
					c-0.22-2.27,0.66-4.29,1.82-6.18c5.95-9.67,14.8-15.48,25.4-18.88c5.86-1.88,11.87-2.75,18.03-2.31
					c2.75,0.2,5.45,0.61,7.98,1.81c0.91,0.43,2.53,1.52,2.5,2.81C150.24,104.34,150.19,105.75,145.96,106.19z"/>
				<path class="st1" d="M122.03,99.36c0.52-1.02,0.95-2.1,1.57-3.05c2.58-3.92,6.41-6.04,10.8-7.24c2.07-0.57,4.15-0.91,6.24-0.92
					c1.3,0,2.63,0.07,3.93,0.36c2.54,0.56,3.35,1.48,3.35,2.08c0,0.41-0.4,0.8-0.81,0.98c-1,0.42-2.68,0.39-4.57,0.44
					c-1.08,0.03-2.16-0.03-3.24-0.01c-3.37,0.06-6.69,0.39-9.94,1.48c-3.08,1.04-5.56,2.83-7.05,5.8c-0.03,0.06-0.09,0.11-0.13,0.16
					C122.14,99.42,122.08,99.39,122.03,99.36z"/>
			</g>
		</g>
	</g>
</g>
</svg>
