<?xml version="1.0" encoding="utf-8"?>
<!-- Generator: Adobe Illustrator 27.5.0, SVG Export Plug-In . SVG Version: 6.00 Build 0)  -->
<svg version="1.1" id="Layer_1" xmlns="http://www.w3.org/2000/svg" xmlns:xlink="http://www.w3.org/1999/xlink" x="0px" y="0px"
	 viewBox="0 0 450 220" style="enable-background:new 0 0 450 220;" xml:space="preserve">
<style type="text/css">
	.st0{fill:#FF5023;}
</style>
<g>
	<g>
		<g>
			<g>
				<path class="st0" d="M304.71,88.38c-9.19-3.97-19.61-2.29-26.57,4.26c-3.11,2.93-5.74,6.68-8.28,11.79
					c-2.13-4.45-4.6-8.58-8.43-11.94c-6.86-6.03-16.96-6.03-25.86-6.03l-17.97,0c-4.39,0-7.96,3.57-7.96,7.96v17.92
					c0,11.03-5.64,16.86-16.31,16.86c-10.51,0-16.07-5.72-16.07-16.56V94.42c0-4.39-3.57-7.96-7.96-7.96h-20.54h-9.81
					c-4.39,0-7.96,3.57-7.96,7.96v7.82c0,2.68,0.74,5.19,2.03,7.34c-1.29,2.13-2.03,4.63-2.03,7.29v14.14
					c0,1.26,1.02,2.27,2.27,2.27s2.27-1.02,2.27-2.27v-14.14c0-1.26,0.24-2.47,0.69-3.57l0.01,0c0.58-1.44,1.5-2.7,2.65-3.7
					c0,0,0,0-0.01-0.01c1.68-1.45,3.87-2.33,6.26-2.33h9.86c1.31,0,2.37,1.06,2.37,2.37s-1.06,2.37-2.37,2.37h-9.7
					c-1.37,0-2.67-0.29-3.85-0.8c-1.31,0.86-2.31,2.16-2.78,3.7c1.98,1.04,4.24,1.64,6.63,1.64h9.7c3.81,0,6.92-3.1,6.92-6.92
					s-3.1-6.92-6.92-6.92h-9.86c-3.37,0-6.47,1.18-8.9,3.16c-0.45-1.12-0.7-2.35-0.7-3.64v-7.82c0-1.88,1.53-3.41,3.41-3.41h9.81
					h20.54c1.88,0,3.41,1.53,3.41,3.41v18.22c0,13.41,7.51,21.1,20.62,21.1c13.26,0,20.86-7.8,20.86-21.4V94.42
					c0-1.88,1.53-3.41,3.41-3.41h8.74c0.01,0,0.01,0,0.01,0h9.21c8.5,0,17.29,0,22.86,4.9c3.92,3.44,6.24,8.04,8.57,13.18l0,0
					l3.35,7.11c2.39,4.62,4.87,8.42,7.78,11.16c4.45,4.19,10.32,6.39,16.38,6.39c3.41,0,6.88-0.7,10.19-2.13
					c8.81-3.81,14.29-12.25,14.29-21.48v-0.61C319,100.29,313.52,92.19,304.71,88.38z M314.45,110.14c0,7.51-4.32,14.19-11.55,17.31
					c-7.52,3.25-16.02,1.91-21.65-3.4c-2.72-2.56-5.06-6.26-7.36-10.91c-0.53-1.08-1.05-2.19-1.56-3.31
					c0.51-1.11,1.03-2.23,1.56-3.3c2.3-4.65,4.64-8.01,7.36-10.57c5.64-5.31,14.13-6.64,21.65-3.4c7.23,3.12,11.55,9.47,11.55,16.97
					V110.14z M267.24,116.33l-1.53-3c-1.95,4.07-4.1,7.78-7.29,10.62c-5.38,4.79-12.5,4.79-20.74,4.79h-4.86
					c-1.32,0-2.4-1.08-2.4-2.4V97.81c0-1.26-1.02-2.27-2.27-2.27s-2.27,1.02-2.27,2.27v28.53c0,3.83,3.12,6.95,6.95,6.95h4.86
					c8.79,0,17.09,0,23.76-5.94c2.9-2.58,5.03-5.7,6.82-9.01c-0.33-0.62-0.66-1.26-0.99-1.92
					C267.26,116.39,267.25,116.36,267.24,116.33z"/>
			</g>
		</g>
	</g>
</g>
</svg>
