<?xml version="1.0" encoding="utf-8"?>
<!-- Generator: Adobe Illustrator 27.5.0, SVG Export Plug-In . SVG Version: 6.00 Build 0)  -->
<svg version="1.1" id="Layer_1" xmlns="http://www.w3.org/2000/svg" xmlns:xlink="http://www.w3.org/1999/xlink" x="0px" y="0px"
	 viewBox="0 0 450 220" style="enable-background:new 0 0 450 220;" xml:space="preserve">
<style type="text/css">
	.st0{fill:#231F20;}
	.st1{fill:#F93549;}
</style>
<g>
	<path class="st0" d="M167.14,145.57c0-0.1,0.08-0.19,0.19-0.19h2.31c1.24,0,2.27,1.01,2.27,2.23c0,1.25-1.02,2.28-2.25,2.28h-1.47
		v2.37c0,0.11-0.09,0.2-0.19,0.2h-0.66c-0.11,0-0.19-0.09-0.19-0.2V145.57z M169.57,148.89c0.7,0,1.28-0.57,1.28-1.3
		c0-0.68-0.59-1.21-1.28-1.21h-1.4v2.51H169.57z"/>
	<path class="st0" d="M174.46,145.56c0-0.1,0.08-0.18,0.19-0.18h2.75c1.21,0,2.2,0.96,2.2,2.16c0,0.93-0.62,1.7-1.5,2.05l1.39,2.57
		c0.07,0.13,0,0.29-0.18,0.29h-0.79c-0.08,0-0.14-0.05-0.16-0.09l-1.35-2.68h-1.52v2.57c0,0.1-0.09,0.19-0.19,0.19h-0.66
		c-0.11,0-0.19-0.09-0.19-0.19V145.56z M177.32,148.81c0.66,0,1.23-0.55,1.23-1.25c0-0.66-0.58-1.2-1.23-1.2h-1.8v2.46H177.32z"/>
	<path class="st0" d="M182.53,145.56c0-0.1,0.08-0.18,0.19-0.18h4.05c0.11,0,0.19,0.09,0.19,0.18v0.57c0,0.1-0.08,0.19-0.19,0.19
		h-3.2v2.06h2.7c0.1,0,0.19,0.09,0.19,0.2v0.57c0,0.11-0.09,0.19-0.19,0.19h-2.7v2.18h3.2c0.11,0,0.19,0.09,0.19,0.19v0.55
		c0,0.1-0.08,0.19-0.19,0.19h-4.05c-0.11,0-0.19-0.09-0.19-0.19V145.56z"/>
	<path class="st0" d="M189.14,145.64c-0.07-0.13,0.02-0.26,0.17-0.26h0.72c0.08,0,0.15,0.06,0.17,0.11l2.23,5h0.06l2.22-5
		c0.02-0.05,0.08-0.11,0.17-0.11h0.72c0.15,0,0.23,0.13,0.17,0.26l-3.11,6.8c-0.03,0.06-0.09,0.11-0.17,0.11h-0.1
		c-0.08,0-0.14-0.05-0.17-0.11L189.14,145.64z"/>
	<path class="st0" d="M198.19,145.56c0-0.1,0.08-0.18,0.19-0.18h4.04c0.11,0,0.19,0.09,0.19,0.18v0.57c0,0.1-0.08,0.19-0.19,0.19
		h-3.2v2.06h2.7c0.1,0,0.2,0.09,0.2,0.2v0.57c0,0.11-0.09,0.19-0.2,0.19h-2.7v2.18h3.2c0.11,0,0.19,0.09,0.19,0.19v0.55
		c0,0.1-0.08,0.19-0.19,0.19h-4.04c-0.11,0-0.19-0.09-0.19-0.19V145.56z"/>
	<path class="st0" d="M205.44,145.45c0-0.1,0.09-0.18,0.19-0.18h0.25l4.39,5.08h0.01v-4.78c0-0.1,0.08-0.19,0.2-0.19h0.64
		c0.1,0,0.19,0.09,0.19,0.19v6.8c0,0.1-0.09,0.18-0.19,0.18h-0.26l-4.38-5.22h-0.01v4.92c0,0.11-0.08,0.2-0.19,0.2h-0.64
		c-0.1,0-0.19-0.09-0.19-0.2V145.45z"/>
	<path class="st0" d="M217.79,145.27c1.02,0,1.76,0.34,2.45,0.94c0.09,0.08,0.09,0.2,0.01,0.28l-0.45,0.46
		c-0.07,0.09-0.16,0.09-0.25,0c-0.48-0.42-1.12-0.68-1.75-0.68c-1.45,0-2.54,1.21-2.54,2.63c0,1.42,1.1,2.62,2.55,2.62
		c0.74,0,1.26-0.29,1.74-0.67c0.09-0.07,0.18-0.06,0.24-0.01l0.47,0.46c0.08,0.07,0.06,0.2-0.01,0.27
		c-0.69,0.67-1.56,0.98-2.46,0.98c-2.02,0-3.65-1.61-3.65-3.63C214.14,146.9,215.77,145.27,217.79,145.27"/>
	<path class="st0" d="M223.01,145.56c0-0.1,0.09-0.18,0.2-0.18h0.66c0.1,0,0.2,0.09,0.2,0.18v6.69c0,0.1-0.09,0.19-0.2,0.19h-0.66
		c-0.1,0-0.2-0.09-0.2-0.19V145.56z"/>
	<path class="st0" d="M230.5,145.27c2.03,0,3.64,1.63,3.64,3.65c0,2.02-1.62,3.63-3.64,3.63c-2.02,0-3.63-1.61-3.63-3.63
		C226.87,146.9,228.48,145.27,230.5,145.27 M230.5,151.54c1.45,0,2.63-1.17,2.63-2.62c0-1.44-1.18-2.64-2.63-2.64
		c-1.43,0-2.62,1.2-2.62,2.64C227.88,150.37,229.07,151.54,230.5,151.54 M229.58,144.57l-0.14-0.28c-0.04-0.08,0.01-0.16,0.06-0.19
		l1.59-0.92c0.06-0.04,0.21-0.06,0.26,0.03l0.23,0.45c0.06,0.1,0.02,0.2-0.06,0.24l-1.7,0.73
		C229.69,144.69,229.62,144.67,229.58,144.57"/>
	<path class="st0" d="M236.97,145.45c0-0.1,0.09-0.18,0.19-0.18h0.25l4.39,5.08h0.01v-4.78c0-0.1,0.08-0.19,0.19-0.19h0.65
		c0.1,0,0.19,0.09,0.19,0.19v6.8c0,0.1-0.09,0.18-0.19,0.18h-0.26l-4.38-5.22h-0.01v4.92c0,0.11-0.08,0.2-0.2,0.2h-0.64
		c-0.1,0-0.19-0.09-0.19-0.2V145.45z"/>
	<path class="st0" d="M245.83,149.28c0-0.67,0.55-1.22,1.19-1.22c0.68,0,1.22,0.56,1.22,1.22c0,0.65-0.55,1.18-1.22,1.18
		C246.38,150.46,245.83,149.93,245.83,149.28"/>
	<path class="st0" d="M254.49,145.27c1.02,0,1.77,0.34,2.45,0.94c0.09,0.08,0.09,0.2,0.01,0.28l-0.44,0.46
		c-0.07,0.09-0.16,0.09-0.25,0c-0.48-0.42-1.13-0.68-1.75-0.68c-1.45,0-2.54,1.21-2.54,2.63c0,1.42,1.1,2.62,2.55,2.62
		c0.74,0,1.25-0.29,1.74-0.67c0.09-0.07,0.18-0.06,0.24-0.01l0.46,0.46c0.08,0.07,0.06,0.2-0.01,0.27
		c-0.69,0.67-1.56,0.98-2.46,0.98c-2.02,0-3.65-1.61-3.65-3.63C250.85,146.9,252.47,145.27,254.49,145.27"/>
	<path class="st0" d="M259.71,145.56c0-0.1,0.09-0.18,0.19-0.18h0.66c0.1,0,0.19,0.09,0.19,0.18v6.69c0,0.1-0.09,0.19-0.19,0.19
		h-0.66c-0.1,0-0.19-0.09-0.19-0.19V145.56z"/>
	<path class="st0" d="M264.06,145.56c0-0.1,0.08-0.18,0.19-0.18h4.04c0.11,0,0.19,0.09,0.19,0.18v0.57c0,0.1-0.08,0.19-0.19,0.19
		h-3.19v2.06h2.7c0.1,0,0.2,0.09,0.2,0.2v0.57c0,0.11-0.09,0.19-0.2,0.19h-2.7v2.18h3.19c0.11,0,0.19,0.09,0.19,0.19v0.55
		c0,0.1-0.08,0.19-0.19,0.19h-4.04c-0.11,0-0.19-0.09-0.19-0.19V145.56z"/>
	<path class="st0" d="M271.31,145.45c0-0.1,0.09-0.18,0.2-0.18h0.25l4.39,5.08h0.01v-4.78c0-0.1,0.08-0.19,0.19-0.19h0.65
		c0.1,0,0.19,0.09,0.19,0.19v6.8c0,0.1-0.09,0.18-0.19,0.18h-0.26l-4.39-5.22h-0.01v4.92c0,0.11-0.08,0.2-0.19,0.2h-0.64
		c-0.1,0-0.2-0.09-0.2-0.2V145.45z"/>
	<path class="st0" d="M283.66,145.27c1.02,0,1.76,0.34,2.45,0.94c0.09,0.08,0.09,0.2,0.01,0.28l-0.44,0.46
		c-0.07,0.09-0.16,0.09-0.25,0c-0.47-0.42-1.13-0.68-1.75-0.68c-1.45,0-2.54,1.21-2.54,2.63c0,1.42,1.1,2.62,2.55,2.62
		c0.74,0,1.25-0.29,1.74-0.67c0.09-0.07,0.19-0.06,0.25-0.01l0.46,0.46c0.08,0.07,0.06,0.2-0.01,0.27
		c-0.69,0.67-1.56,0.98-2.46,0.98c-2.02,0-3.65-1.61-3.65-3.63C280.01,146.9,281.63,145.27,283.66,145.27"/>
	<path class="st0" d="M288.87,145.56c0-0.1,0.09-0.18,0.19-0.18h0.67c0.1,0,0.19,0.09,0.19,0.18v6.69c0,0.1-0.09,0.19-0.19,0.19
		h-0.67c-0.1,0-0.19-0.09-0.19-0.19V145.56z"/>
	<path class="st0" d="M292.32,152.19l3.1-6.8c0.04-0.06,0.13-0.12,0.18-0.12h0.1c0.05,0,0.14,0.05,0.17,0.12l3.08,6.8
		c0.06,0.13-0.02,0.26-0.17,0.26h-0.64c-0.12,0-0.19-0.06-0.23-0.16l-0.63-1.38h-3.31c-0.2,0.47-0.41,0.92-0.62,1.38
		c-0.03,0.07-0.11,0.16-0.24,0.16h-0.63C292.34,152.45,292.26,152.32,292.32,152.19 M296.9,150.05l-1.24-2.78h-0.05l-1.23,2.78
		H296.9z"/>
	<path class="st0" d="M300.83,149.28c0-0.67,0.55-1.22,1.18-1.22c0.67,0,1.22,0.56,1.22,1.22c0,0.65-0.55,1.18-1.22,1.18
		C301.38,150.46,300.83,149.93,300.83,149.28"/>
	<path class="st0" d="M306.15,145.56c0-0.1,0.08-0.18,0.18-0.18h2.33c1.95,0,3.55,1.59,3.55,3.52c0,1.96-1.6,3.55-3.55,3.55h-2.33
		c-0.1,0-0.18-0.09-0.18-0.2V145.56z M308.52,151.49c1.49,0,2.57-1.09,2.57-2.59c0-1.49-1.08-2.57-2.57-2.57h-1.33v5.16H308.52z"/>
	<path class="st0" d="M315.04,145.56c0-0.1,0.08-0.18,0.19-0.18h4.04c0.11,0,0.19,0.09,0.19,0.18v0.57c0,0.1-0.08,0.19-0.19,0.19
		h-3.2v2.06h2.7c0.1,0,0.19,0.09,0.19,0.2v0.57c0,0.11-0.09,0.19-0.19,0.19h-2.7v2.18h3.2c0.11,0,0.19,0.09,0.19,0.19v0.55
		c0,0.1-0.08,0.19-0.19,0.19h-4.04c-0.11,0-0.19-0.09-0.19-0.19V145.56z"/>
	<path class="st0" d="M322.29,145.56c0-0.1,0.08-0.18,0.19-0.18h2.75c1.21,0,2.2,0.96,2.2,2.16c0,0.93-0.61,1.7-1.49,2.05l1.38,2.57
		c0.07,0.13,0,0.29-0.17,0.29h-0.79c-0.08,0-0.15-0.05-0.16-0.09l-1.35-2.68h-1.53v2.57c0,0.1-0.09,0.19-0.19,0.19h-0.66
		c-0.11,0-0.19-0.09-0.19-0.19V145.56z M325.15,148.81c0.65,0,1.23-0.55,1.23-1.25c0-0.66-0.58-1.2-1.23-1.2h-1.8v2.46H325.15z"/>
	<path class="st0" d="M330.37,145.56c0-0.1,0.08-0.18,0.19-0.18h4.04c0.11,0,0.19,0.09,0.19,0.18v0.57c0,0.1-0.08,0.19-0.19,0.19
		h-3.2v2.06h2.7c0.1,0,0.19,0.09,0.19,0.2v0.57c0,0.11-0.09,0.19-0.19,0.19h-2.7v2.18h3.2c0.11,0,0.19,0.09,0.19,0.19v0.55
		c0,0.1-0.08,0.19-0.19,0.19h-4.04c-0.11,0-0.19-0.09-0.19-0.19V145.56z"/>
	<path class="st0" d="M340.63,145.27c1.02,0,1.76,0.34,2.45,0.94c0.09,0.08,0.09,0.2,0.01,0.28l-0.44,0.46
		c-0.07,0.09-0.16,0.09-0.25,0c-0.47-0.42-1.13-0.68-1.75-0.68c-1.45,0-2.54,1.21-2.54,2.63c0,1.42,1.1,2.62,2.55,2.62
		c0.74,0,1.25-0.29,1.74-0.67c0.09-0.07,0.19-0.06,0.24-0.01l0.46,0.46c0.08,0.07,0.06,0.2-0.01,0.27
		c-0.69,0.67-1.56,0.98-2.46,0.98c-2.02,0-3.65-1.61-3.65-3.63C336.98,146.9,338.61,145.27,340.63,145.27"/>
	<path class="st0" d="M345.85,145.56c0-0.1,0.09-0.18,0.19-0.18h0.67c0.11,0,0.19,0.09,0.19,0.18v2.82h3.7v-2.82
		c0-0.1,0.09-0.18,0.2-0.18h0.67c0.1,0,0.19,0.09,0.19,0.18v6.69c0,0.1-0.09,0.19-0.19,0.19h-0.67c-0.11,0-0.2-0.09-0.2-0.19v-2.92
		h-3.7v2.92c0,0.1-0.08,0.19-0.19,0.19h-0.67c-0.11,0-0.19-0.09-0.19-0.19V145.56z"/>
	<path class="st0" d="M358.11,145.27c2.02,0,3.64,1.63,3.64,3.65c0,2.02-1.61,3.63-3.64,3.63c-2.02,0-3.63-1.61-3.63-3.63
		C354.48,146.9,356.08,145.27,358.11,145.27 M358.11,151.54c1.44,0,2.63-1.17,2.63-2.61c0-1.44-1.18-2.64-2.63-2.64
		c-1.44,0-2.62,1.2-2.62,2.64C355.49,150.37,356.67,151.54,358.11,151.54"/>
	<path class="st0" d="M364.07,151.43c0.08-0.13,0.17-0.28,0.26-0.42c0.09-0.13,0.23-0.17,0.34-0.08c0.06,0.05,0.84,0.69,1.62,0.69
		c0.7,0,1.15-0.43,1.15-0.94c0-0.61-0.53-0.99-1.53-1.41c-1.03-0.43-1.84-0.97-1.84-2.14c0-0.79,0.61-1.87,2.21-1.87
		c1.01,0,1.77,0.53,1.87,0.6c0.08,0.05,0.16,0.19,0.06,0.34c-0.08,0.12-0.17,0.26-0.26,0.39c-0.08,0.13-0.21,0.19-0.35,0.1
		c-0.07-0.04-0.78-0.51-1.36-0.51c-0.85,0-1.15,0.54-1.15,0.91c0,0.58,0.44,0.93,1.28,1.27c1.17,0.48,2.17,1.03,2.17,2.26
		c0,1.06-0.94,1.91-2.25,1.91c-1.23,0-2.01-0.65-2.17-0.8C364.04,151.68,363.97,151.6,364.07,151.43"/>
	<path class="st1" d="M101.78,120.03c-9.56,9.63-15.8,22.6-18.99,29.51c0,0-0.01,0.03-0.04,0.07c-0.25,0.55-0.48,1.07-0.7,1.55
		c-0.73,1.94-1.33,4.99,1.73,5.62v0.01c5.97,1.33,18.27,3.71,30.18,3.71c4,0,8.03-0.27,11.87-0.68
		C120.42,144,111.48,129.18,101.78,120.03 M146.27,152.45c-5.6-17.27-23.61-38.75-33.89-48.45l0.01-0.01
		c-5.17-4.94-9.25-9.25-9.25-14.61c0-7.04,5.46-11.29,10.82-11.42c5.36,0.13,10.82,4.38,10.82,11.42c0,5.44-4.23,9.82-9.51,14.87
		c3.38,3.33,7.39,7.69,11.46,12.62c8.13-8.09,14.95-17.06,14.95-29.33c0-15.86-12.18-28.28-27.72-28.31
		C98.41,59.27,86.25,71.7,86.25,87.55c0,13.21,7.91,22.6,16.84,31.18l-0.01,0.01c9.97,9.42,19.13,24.66,24.61,40.86
		c6.82-0.81,12.81-2.01,16.45-2.83C146.59,156.27,146.7,154.24,146.27,152.45"/>
	<path class="st0" d="M167.55,103.76c0-0.4,0.36-0.76,0.76-0.76h1.58c0.44,0,0.77,0.36,0.77,0.76v11.8h16.41v-11.8
		c0-0.4,0.32-0.76,0.77-0.76h1.58c0.4,0,0.76,0.36,0.76,0.76v26.76c0,0.4-0.36,0.76-0.76,0.76h-1.58c-0.45,0-0.77-0.36-0.77-0.76
		v-12.25h-16.41v12.25c0,0.4-0.32,0.76-0.77,0.76h-1.58c-0.4,0-0.76-0.36-0.76-0.76V103.76z"/>
	<path class="st0" d="M202.4,103.76c0-0.4,0.37-0.76,0.77-0.76h1.54c0.44,0,0.77,0.36,0.77,0.76v16.85c0,4.61,2.87,8.21,7.6,8.21
		c4.77,0,7.68-3.52,7.68-8.13v-16.94c0-0.4,0.32-0.76,0.77-0.76h1.54c0.41,0,0.77,0.36,0.77,0.76v17.1
		c0,6.14-4.36,10.84-10.75,10.84c-6.35,0-10.68-4.69-10.68-10.84V103.76z"/>
	<path class="st0" d="M236.06,103.76c0-0.4,0.33-0.76,0.77-0.76h15.93c0.44,0,0.77,0.36,0.77,0.76v1.17c0,0.4-0.32,0.77-0.77,0.77
		h-13.58v9.86h11.6c0.4,0,0.77,0.36,0.77,0.77v1.17c0,0.44-0.37,0.77-0.77,0.77h-11.6v10.31h13.58c0.44,0,0.77,0.36,0.77,0.77v1.17
		c0,0.4-0.32,0.76-0.77,0.76h-15.93c-0.44,0-0.77-0.36-0.77-0.76V103.76z M241.11,98.75c-0.16-0.32,0-0.65,0.24-0.77l6.06-3.4
		c0.24-0.16,0.84-0.24,1.05,0.13l0.73,1.45c0.16,0.32,0.08,0.72-0.25,0.85l-6.5,2.71c-0.57,0.24-0.76,0.24-0.93-0.08L241.11,98.75z"
		/>
	<path class="st0" d="M262.44,127.04c0.2-0.24,0.4-0.52,0.61-0.77c0.4-0.53,0.85-0.85,1.41-0.36c0.28,0.24,3.24,3.07,6.83,3.07
		c3.28,0,5.42-2.06,5.42-4.45c0-2.78-2.43-4.44-7.07-6.39c-4.45-1.94-7.11-3.76-7.11-8.37c0-2.75,2.18-7.19,8.61-7.19
		c3.96,0,6.91,2.07,6.91,2.07c0.24,0.12,0.73,0.61,0.24,1.37c-0.16,0.25-0.32,0.53-0.49,0.77c-0.36,0.57-0.77,0.73-1.42,0.36
		c-0.28-0.16-2.83-1.86-5.3-1.86c-4.28,0-5.58,2.75-5.58,4.44c0,2.71,2.06,4.29,5.46,5.7c5.46,2.22,8.97,4.28,8.97,8.97
		c0,4.2-4,7.28-8.73,7.28c-4.78,0-8.01-2.79-8.53-3.28C262.36,128.14,261.95,127.81,262.44,127.04"/>
	<path class="st0" d="M290.05,103.76c0-0.4,0.32-0.77,0.76-0.77h8.93c4.97,0,9.05,4.04,9.05,8.94c0,5.01-4.08,9.09-9.01,9.09h-6.67
		v9.5c0,0.4-0.36,0.77-0.77,0.77h-1.54c-0.44,0-0.76-0.36-0.76-0.77V103.76z M299.54,118.03c3.32,0,6.14-2.71,6.14-6.18
		c0-3.28-2.82-5.78-6.14-5.78h-6.43v11.97H299.54z"/>
	<path class="st0" d="M318.24,103.76c0-0.4,0.32-0.76,0.77-0.76h15.92c0.44,0,0.76,0.36,0.76,0.76v1.17c0,0.4-0.32,0.77-0.76,0.77
		h-13.58v9.86h11.6c0.41,0,0.76,0.36,0.76,0.77v1.17c0,0.45-0.36,0.77-0.76,0.77h-11.6v10.31h13.58c0.44,0,0.76,0.36,0.76,0.77v1.17
		c0,0.4-0.32,0.76-0.76,0.76h-15.92c-0.45,0-0.77-0.36-0.77-0.76V103.76z"/>
	<path class="st0" d="M345.67,103.76c0-0.4,0.32-0.76,0.73-0.76h9.05c7.8,0,14.19,6.34,14.19,14.1c0,7.84-6.39,14.19-14.19,14.19
		h-9.05c-0.4,0-0.73-0.36-0.73-0.76V103.76z M354.8,128.5c6.64,0,11.44-4.73,11.44-11.4c0-6.63-4.81-11.36-11.44-11.36h-6.06v22.76
		H354.8z"/>
	<path class="st0" d="M167.74,73.9c0-0.21,0.17-0.4,0.4-0.4h8.25c0.23,0,0.4,0.19,0.4,0.4v0.61c0,0.21-0.17,0.4-0.4,0.4h-7.03v5.73
		h6.01c0.21,0,0.4,0.19,0.4,0.4v0.61c0,0.21-0.19,0.4-0.4,0.4h-6.01v5.71c0,0.21-0.19,0.4-0.4,0.4h-0.81c-0.23,0-0.4-0.19-0.4-0.4
		V73.9z"/>
	<path class="st0" d="M182.19,73.9c0-0.21,0.19-0.4,0.4-0.4h0.8c0.23,0,0.4,0.19,0.4,0.4v8.73c0,2.39,1.48,4.25,3.93,4.25
		c2.47,0,3.98-1.82,3.98-4.21V73.9c0-0.21,0.17-0.4,0.4-0.4h0.8c0.21,0,0.39,0.19,0.39,0.4v8.86c0,3.18-2.26,5.61-5.57,5.61
		c-3.28,0-5.52-2.43-5.52-5.61V73.9z"/>
	<path class="st0" d="M200.24,73.67c0-0.21,0.19-0.37,0.4-0.37h0.52l9.44,11.76h0.04V73.9c0-0.21,0.17-0.4,0.4-0.4h0.74
		c0.21,0,0.4,0.19,0.4,0.4v14.08c0,0.21-0.19,0.38-0.4,0.38h-0.38l-9.6-11.99h-0.02v11.38c0,0.21-0.17,0.4-0.4,0.4h-0.73
		c-0.21,0-0.4-0.19-0.4-0.4V73.67z"/>
	<path class="st0" d="M219.25,73.9c0-0.21,0.17-0.39,0.38-0.39h4.69c4.04,0,7.34,3.28,7.34,7.3c0,4.06-3.31,7.35-7.34,7.35h-4.69
		c-0.21,0-0.38-0.19-0.38-0.4V73.9z M223.99,86.71c3.43,0,5.92-2.45,5.92-5.9c0-3.43-2.49-5.88-5.92-5.88h-3.14v11.78H223.99z"/>
	<path class="st0" d="M235.27,87.61l6.36-14.08c0.06-0.13,0.16-0.24,0.35-0.24h0.21c0.19,0,0.29,0.11,0.36,0.24l6.32,14.08
		c0.12,0.27-0.04,0.54-0.36,0.54h-0.84c-0.19,0-0.31-0.12-0.35-0.23l-1.55-3.46h-7.43l-1.53,3.46c-0.05,0.11-0.17,0.23-0.36,0.23
		h-0.83C235.31,88.15,235.14,87.88,235.27,87.61 M245.21,83.17c-1.03-2.28-2.03-4.58-3.06-6.87h-0.17l-3.06,6.87H245.21z"/>
	<path class="st0" d="M260.05,73.29c2.11,0,3.64,0.73,5.06,1.95c0.17,0.16,0.19,0.42,0.02,0.59l-0.56,0.56
		c-0.17,0.21-0.34,0.19-0.55-0.02c-1.09-0.94-2.58-1.57-3.99-1.57c-3.31,0-5.84,2.79-5.84,6.03c0,3.22,2.53,6,5.84,6
		c1.82,0,2.89-0.73,3.99-1.57c0.21-0.17,0.38-0.15,0.5-0.06l0.63,0.57c0.17,0.13,0.12,0.42-0.02,0.57
		c-1.42,1.38-3.22,2.03-5.08,2.03c-4.19,0-7.56-3.33-7.56-7.51C252.5,76.66,255.87,73.29,260.05,73.29"/>
	<path class="st0" d="M271.03,73.9c0-0.21,0.19-0.4,0.4-0.4h0.84c0.21,0,0.4,0.19,0.4,0.4v13.85c0,0.21-0.19,0.4-0.4,0.4h-0.84
		c-0.21,0-0.4-0.19-0.4-0.4V73.9z"/>
	<path class="st0" d="M286.24,73.29c4.19,0,7.54,3.37,7.54,7.56c0,4.18-3.35,7.51-7.54,7.51c-4.19,0-7.51-3.33-7.51-7.51
		C278.73,76.66,282.06,73.29,286.24,73.29 M286.24,86.9c3.33,0,6.07-2.72,6.07-6.05s-2.74-6.09-6.07-6.09
		c-3.33,0-6.04,2.76-6.04,6.09S282.91,86.9,286.24,86.9 M284.36,71.31c-0.09-0.17,0-0.33,0.12-0.4l3.14-1.76
		c0.13-0.09,0.44-0.13,0.54,0.06l0.38,0.75c0.09,0.17,0.04,0.38-0.12,0.44l-3.37,1.4c-0.3,0.12-0.4,0.12-0.48-0.04L284.36,71.31z"/>
	<path class="st0" d="M299.88,73.67c0-0.21,0.19-0.37,0.4-0.37h0.52l9.44,11.76h0.02l0.02-11.16c0-0.21,0.17-0.4,0.4-0.4h0.73
		c0.21,0,0.4,0.19,0.4,0.4v14.08c0,0.21-0.19,0.38-0.4,0.38h-0.37l-9.61-11.99h-0.02v11.38c0,0.21-0.17,0.4-0.4,0.4h-0.74
		c-0.21,0-0.4-0.19-0.4-0.4V73.67z"/>
</g>
</svg>
