<?xml version="1.0" encoding="utf-8"?>
<!-- Generator: Adobe Illustrator 27.5.0, SVG Export Plug-In . SVG Version: 6.00 Build 0)  -->
<svg version="1.1" id="Layer_1" xmlns="http://www.w3.org/2000/svg" xmlns:xlink="http://www.w3.org/1999/xlink" x="0px" y="0px"
	 viewBox="0 0 450 220" style="enable-background:new 0 0 450 220;" xml:space="preserve">
<style type="text/css">
	.st0{fill-rule:evenodd;clip-rule:evenodd;fill:url(#SVGID_1_);}
</style>
<linearGradient id="SVGID_1_" gradientUnits="userSpaceOnUse" x1="212.6034" y1="60.588" x2="235.8914" y2="140.845" gradientTransform="matrix(1 0 0 -1 0 222)">
	<stop  offset="0.0972" style="stop-color:#8036DA"/>
	<stop  offset="0.5728" style="stop-color:#4052C4"/>
	<stop  offset="1" style="stop-color:#61B6DD"/>
</linearGradient>
<path class="st0" d="M186.49,112.05c0.39,0.39,0.84,0.53,1.36,0.53c0.45,0,0.84-0.2,1.17-0.53l21.28-21.54
	c0.72-0.73,0.72-1.85,0-2.57l-13.93-14.1c-0.39-0.33-0.84-0.53-1.3-0.53h-0.06c-0.45,0-0.84,0.2-1.17,0.53l-21.28,21.54
	c-0.72,0.73-0.72,1.85,0,2.57L186.49,112.05z M214.4,112.35l-9.2-9.19c-0.33-0.33-0.78-0.52-1.24-0.52c-0.45,0-0.91,0.2-1.24,0.52
	l-14.15,14.08c-0.33,0.33-0.78,0.52-1.24,0.52c-0.45,0-0.84-0.29-1.17-0.61l-9.12-9c-0.72-0.72-1.84-0.72-2.56,0l-14.57,14.48
	c-0.72,0.72-0.72,1.83,0,2.54l20.88,20.74c0.32,0.32,0.76,0.51,1.15,0.52h0.06c0.45,0,0.91-0.2,1.24-0.52l31.1-31.08
	c0.72-0.65,0.72-1.83,0.06-2.47L214.4,112.35z M233.69,93.62h-6.97l-6,29.79h6.98L233.69,93.62z M236.19,99.24h9.59l-4.84,24.17
	h6.93l4.88-24.17h9.55l1.16-5.62h-26.11L236.19,99.24z M276.85,109.58c2.31,0,4.1-0.53,5.35-1.57c1.29-1.05,1.92-2.56,1.92-4.51
	c0-1.42-0.49-2.48-1.46-3.19c-0.97-0.71-2.35-1.07-4.15-1.07h-5.48l-2.1,10.34h5.9H276.85z M291.15,102.86
	c0,2.78-0.76,5.16-2.27,7.15c-1.51,1.99-3.61,3.39-6.29,4.21l5.22,9.2h-7.32l-4.71-8.34h-5.9l-1.67,8.34h-6.98l5.99-29.79h12.2
	c3.71,0,6.59,0.81,8.65,2.43s3.08,3.89,3.08,6.81L291.15,102.86z"/>
</svg>
