<?xml version="1.0" encoding="utf-8"?>
<!-- Generator: Adobe Illustrator 27.5.0, SVG Export Plug-In . SVG Version: 6.00 Build 0)  -->
<svg version="1.1" id="Layer_1" xmlns="http://www.w3.org/2000/svg" xmlns:xlink="http://www.w3.org/1999/xlink" x="0px" y="0px"
	 viewBox="0 0 450 220" style="enable-background:new 0 0 450 220;" xml:space="preserve">
<style type="text/css">
	.st0{fill-rule:evenodd;clip-rule:evenodd;}
</style>
<g id="White_Logo">
	<path d="M316.16,104.87c0-7.82-5.46-14.17-13.76-14.17h-16.82v38.6h9.61V119h4.93l6.8,10.3h10.83l-8.1-12.21
		C313.72,114.64,316.16,110.08,316.16,104.87z M300.32,111.22h-5.13v-12.7h5.13c3.71,0,6.35,2.61,6.35,6.35
		S303.99,111.22,300.32,111.22z"/>
	<path d="M258.22,90.7l-15.96,38.6h9.73l2.04-5.46h14.54l2.04,5.46h9.73l-15.96-38.6H258.22z M256.59,117l4.68-12.58l4.68,12.58
		H256.59z"/>
	<path d="M223.94,98.56c4.28,0,7.33,2,9.08,5.09l7.41-4.8c-3.66-6.03-8.67-8.71-16.53-8.71c-9.61,0-19.67,7.17-19.67,19.87
		s10.14,19.87,19.79,19.87c7.65,0,12.74-2.69,16.45-8.71l-7.08-4.64c-1.79,3.09-5.01,5.17-9.41,5.17c-5.99,0-10.14-4.8-10.14-11.69
		C213.84,103.12,217.99,98.56,223.94,98.56z"/>
	<polygon points="184.2,96.6 177.77,96.6 177.77,106.34 168.04,106.34 168.04,112.77 177.73,112.77 177.73,122.5 184.2,122.5 
		184.2,112.77 193.85,112.77 193.85,106.34 184.2,106.34 	"/>
	<polygon points="146.9,113.5 129.07,90.7 121.62,90.7 121.62,129.34 130.33,129.34 130.33,107.52 147.43,129.34 155.66,129.34 
		155.66,90.7 146.9,90.7 	"/>
	<rect x="100.37" y="90.7" width="9.61" height="38.6"/>
	<polygon points="92.79,90.7 80.9,90.7 68.61,107.39 68.61,90.7 59,90.7 59,129.34 68.61,129.34 68.61,119.2 72.27,114.93 
		81.8,129.34 93.32,129.34 78.75,107.27 	"/>
	<path d="M373,90.7h-6.11l-15.96,38.6h9.73l2.04-5.46h14.54l2.04,5.46H389L373,90.7z M365.26,117l4.68-12.58l4.68,12.58H365.26z"/>
	<polygon class="st0" points="352.44,90.7 322.02,90.7 322.02,98.52 332.41,98.52 332.41,129.34 342.05,129.34 342.05,98.52 
		352.44,98.52 	"/>
</g>
</svg>
