<?xml version="1.0" encoding="utf-8"?>
<!-- Generator: Adobe Illustrator 27.8.1, SVG Export Plug-In . SVG Version: 6.00 Build 0)  -->
<svg version="1.1" id="Layer_1" xmlns="http://www.w3.org/2000/svg" xmlns:xlink="http://www.w3.org/1999/xlink" x="0px" y="0px"
	 viewBox="0 0 450 220" style="enable-background:new 0 0 450 220;" xml:space="preserve">
<style type="text/css">
	.st0{fill:#F0911E;}
</style>
<image style="display:none;overflow:visible;enable-background:new    ;" width="1026" height="1026" xlink:href="6A11A02C0E1E779B.png"  transform="matrix(0.1358 0 0 0.1358 151.57 34.6684)">
</image>
<image style="display:none;overflow:visible;enable-background:new    ;" width="1000" height="229" xlink:href="6A11A02C0E1E7799.jpg"  transform="matrix(0.388 0 0 0.388 38 60.78)">
</image>
<image style="display:none;overflow:visible;enable-background:new    ;" width="1356" height="874" xlink:href="6A11A02C0E1E779F.png"  transform="matrix(0.2196 0 0 0.2196 74.1968 13)">
</image>
<g>
	<g>
		<path class="st0" d="M246.2,171.7l-0.7-6.1l0.8-0.1l0.1,0.7c0.3-0.4,0.7-0.9,1.3-1c0.5-0.1,1,0.2,1.2,0.6c0.3-0.4,0.7-0.9,1.3-0.9
			c0.8-0.1,1.3,0.4,1.4,1.3l0.6,4.8l-0.8,0.1l-0.6-4.7c-0.1-0.6-0.3-0.8-0.7-0.7c-0.5,0.1-0.8,0.5-1,0.8l0.6,4.9l-0.8,0.1l-0.6-4.7
			c-0.1-0.6-0.3-0.8-0.8-0.7c-0.5,0.1-0.8,0.5-1,0.8l0.6,4.9L246.2,171.7z"/>
		<path class="st0" d="M258.1,170.3l-0.8,0.1l-0.1-0.7c-0.3,0.5-0.9,0.9-1.3,0.9c-0.8,0.1-1.4-0.3-1.5-1.4l-0.6-4.6l0.8-0.1l0.5,4.5
			c0.1,0.7,0.3,1,0.8,0.9c0.4,0,0.7-0.4,1.1-0.9l-0.6-4.7l0.8-0.1L258.1,170.3z"/>
		<path class="st0" d="M259.5,161.6l0.8-0.1l0.1,1l-0.8,0.1L259.5,161.6z M259.8,171.4c0.1,0,0.2,0,0.3,0c0.4,0,0.6-0.3,0.5-0.8
			l-0.8-6.6l0.8-0.1l0.8,6.7c0.1,1-0.2,1.4-1.1,1.5c-0.2,0-0.3,0-0.5,0L259.8,171.4z"/>
		<path class="st0" d="M263.8,166.7l0,0.3c0.2,1.5,0.6,1.9,1.4,1.8c0.6-0.1,0.8-0.7,0.9-1.3l0.8,0c0,0.9-0.6,1.9-1.7,2
			c-1.3,0.2-2-0.7-2.2-2.9c-0.3-2.2,0.2-3.2,1.5-3.4c1.3-0.2,2,0.9,2.2,2.7l0,0.4L263.8,166.7z M265.8,165.7
			c-0.2-1.3-0.5-1.9-1.2-1.8c-0.6,0.1-1,0.6-0.8,2L265.8,165.7z"/>
		<path class="st0" d="M268.2,162.9l0.8-0.1l0.1,0.7l0,0c0.4-0.8,0.8-1,1.4-1l0.1,0.8c-0.6,0.1-1.1,0.3-1.4,1.3l0.5,4.3l-0.8,0.1
			L268.2,162.9z"/>
		<path class="st0" d="M273,165.6l0,0.3c0.2,1.5,0.6,1.9,1.4,1.8c0.6-0.1,0.8-0.7,0.9-1.3l0.8,0c0,0.9-0.6,1.9-1.7,2
			c-1.3,0.2-2-0.7-2.2-2.9c-0.3-2.2,0.2-3.2,1.5-3.4c1.3-0.2,2,0.9,2.2,2.7l0,0.4L273,165.6z M274.9,164.6c-0.2-1.3-0.5-1.9-1.2-1.8
			c-0.6,0.1-1,0.6-0.8,2L274.9,164.6z"/>
		<path class="st0" d="M280,163.1c-0.2-0.5-0.5-0.9-1.2-0.8c-0.4,0-0.6,0.4-0.6,0.8c0.1,1.2,2.7,1,3,2.9c0.1,1-0.5,1.8-1.5,1.9
			c-1.1,0.1-1.7-0.4-2.1-1.4l0.8-0.3c0.2,0.5,0.6,1,1.2,0.9c0.5-0.1,0.8-0.5,0.8-1c-0.2-1.4-2.7-1.1-3-2.9c-0.1-0.8,0.5-1.6,1.4-1.7
			c0.9-0.1,1.6,0.4,1.9,1.2L280,163.1z"/>
		<path class="st0" d="M288.6,162.3c-0.2-0.9-0.6-1.2-1.1-1.1c-0.7,0.1-1,0.6-0.7,2.6c0.2,2,0.6,2.4,1.3,2.3
			c0.5-0.1,0.8-0.4,0.8-1.4l0.8-0.1c0,1.2-0.5,2.1-1.6,2.2c-1.3,0.2-2-0.7-2.2-2.9c-0.3-2.2,0.2-3.2,1.5-3.4c1.1-0.1,1.7,0.5,2,1.7
			L288.6,162.3z"/>
		<path class="st0" d="M291.2,160.2l0.8-0.1l0.1,0.7l0,0c0.4-0.8,0.8-1,1.4-1l0.1,0.8c-0.6,0.1-1.1,0.3-1.4,1.3l0.5,4.3l-0.8,0.1
			L291.2,160.2z"/>
		<path class="st0" d="M296,162.8l0,0.3c0.2,1.5,0.6,1.9,1.4,1.8c0.6-0.1,0.8-0.7,0.9-1.3l0.8,0c0,0.9-0.6,1.9-1.7,2
			c-1.3,0.2-2-0.7-2.2-2.9c-0.3-2.2,0.2-3.2,1.5-3.4c1.3-0.2,2,0.9,2.2,2.7l0,0.4L296,162.8z M297.9,161.9c-0.2-1.3-0.5-1.9-1.2-1.8
			c-0.6,0.1-1,0.6-0.8,2L297.9,161.9z"/>
		<path class="st0" d="M303,160.6c-0.2-0.9-0.6-1.2-1.1-1.1c-0.7,0.1-1,0.6-0.7,2.6c0.2,2,0.6,2.4,1.3,2.3c0.5-0.1,0.8-0.4,0.8-1.4
			l0.8-0.1c0,1.2-0.5,2.1-1.6,2.2c-1.3,0.2-2-0.7-2.2-2.9c-0.3-2.2,0.2-3.2,1.5-3.4c1.1-0.1,1.7,0.5,2,1.7L303,160.6z"/>
		<path class="st0" d="M305.4,156.1l0.8-0.1l0.1,1l-0.8,0.1L305.4,156.1z M305.7,158.4l0.8-0.1l0.7,6.1l-0.8,0.1L305.7,158.4z"/>
		<path class="st0" d="M309.8,161.2l0,0.3c0.2,1.5,0.6,1.9,1.4,1.8c0.6-0.1,0.8-0.7,0.9-1.3l0.8,0c0,0.9-0.6,1.9-1.7,2
			c-1.3,0.2-2-0.7-2.2-2.9c-0.3-2.2,0.2-3.2,1.5-3.4c1.3-0.2,2,0.9,2.2,2.7l0,0.4L309.8,161.2z M311.7,160.2
			c-0.2-1.3-0.5-1.9-1.2-1.8c-0.6,0.1-1,0.6-0.8,2L311.7,160.2z"/>
		<path class="st0" d="M314.2,157.4l0.8-0.1l0.1,0.7c0.3-0.5,0.9-0.9,1.3-0.9c0.8-0.1,1.4,0.3,1.5,1.4l0.6,4.6l-0.8,0.1l-0.5-4.5
			c-0.1-0.7-0.3-1-0.8-0.9c-0.4,0-0.7,0.4-1.1,0.9l0.6,4.7l-0.8,0.1L314.2,157.4z"/>
		<path class="st0" d="M323.5,161.9L323.5,161.9c-0.3,0.5-0.7,0.8-1.2,0.9c-1,0.1-1.9-0.6-2.1-2.9c-0.3-2.3,0.4-3.2,1.4-3.4
			c0.5-0.1,0.9,0.2,1.2,0.4l-0.3-2.8l0.8-0.1l0.8,6.8c0.1,0.8,0.2,1.3,0.3,1.6l-0.8,0.1L323.5,161.9z M322.8,157.5
			c-0.3-0.2-0.6-0.5-1-0.4c-0.7,0.1-1.1,0.7-0.8,2.6c0.2,1.9,0.7,2.4,1.4,2.3c0.3,0,0.6-0.3,0.8-0.7L322.8,157.5z"/>
		<path class="st0" d="M327.4,155.7c1.3-0.2,2,0.7,2.2,2.9c0.3,2.2-0.2,3.2-1.5,3.4c-1.3,0.2-2-0.7-2.2-2.9
			C325.7,156.9,326.1,155.9,327.4,155.7z M328.1,161.3c0.7-0.1,1-0.6,0.7-2.6c-0.2-2-0.6-2.4-1.3-2.3c-0.7,0.1-1,0.6-0.7,2.6
			C327,161,327.4,161.4,328.1,161.3z"/>
	</g>
	<g>
		<g>
			<path class="st0" d="M205.6,136.9c-0.8,0.1-1.4,0-2.1-0.2c-0.5-0.2-0.8-0.5-0.9-1c0-0.2,0-0.5,0.1-0.8c0.3-0.9,1-1.6,2-2.3
				c0.9-0.6,1.9-1,2.9-1.1c0.7-0.1,1.4,0,2.1,0.2c0.5,0.2,0.8,0.6,0.9,1.1c0,0.2,0,0.5-0.1,0.8c-0.3,0.9-1,1.7-2,2.4
				C207.5,136.4,206.5,136.8,205.6,136.9L205.6,136.9z"/>
			<path class="st0" d="M269.7,128.8c-0.8,0.1-1.4,0-2.1-0.2c-0.5-0.2-0.8-0.5-0.9-1c0-0.2,0-0.5,0.1-0.8c0.3-0.9,1-1.6,2-2.3
				c0.9-0.6,1.9-1,2.9-1.1c0.7-0.1,1.4,0,2.1,0.2c0.5,0.2,0.8,0.6,0.9,1.1c0,0.2,0,0.5-0.1,0.7c-0.3,0.9-1,1.7-2,2.4
				C271.6,128.4,270.7,128.7,269.7,128.8L269.7,128.8z"/>
		</g>
	</g>
	<path class="st0" d="M321.8,138.6c-0.6,1.3-1.7,2.6-3.2,4.1c-1.9,1.8-3.6,2.8-5.1,3c-1,0.1-1.7-0.4-1.8-1.3c-0.1-0.4,0-0.9,0.2-1.4
		c1.3-4.4,2.3-7.7,3-10l1.9-6.3l-5,0.6l-0.3,1.1l-0.3,1l-0.7-0.7c-1.3-1.2-2.9-1.7-4.9-1.4c-2.9,0.4-5.5,1.9-7.8,4.7
		c-2,2.3-3.5,5.2-4.5,8.5l-0.7,2.3c-0.5,1.6-0.8,3.1-0.9,4.3l0,0.3l-0.2,0.2c-1.9,1.4-3.7,2.2-5.5,2.4c-2.4,0.3-2.9-1-3-1.8
		c-0.1-0.5,0-1,0.2-1.5l2-6.5l0.1-0.2l0.2-0.1c5.9-3.1,9.8-7.8,11.6-14c0.2-0.7,1.2-3.1,1.1-4.4c-0.1-1.1-1-1.8-2.5-2.3
		c-1.4-0.4-2.9-0.6-4.6-0.3c-2.4,0.3-4.5,1.1-6.3,2.5c-2,1.5-3.3,3.5-4.1,6l-6.3,20.9c-0.1,0.4-0.2,0.9-0.2,1.3v0.3l-0.3,0.2
		c-1.2,0.8-2.2,1.3-3.2,1.4c-1,0.1-1.7-0.4-1.8-1.3c0-0.4,0-0.8,0.2-1.4l5-16.7l-8.1,1l-5,16.6l-0.1,0.3l-0.3,0.1
		c-0.3,0.1-0.6,0.1-0.9,0.2c-1.9,0.2-2.3-1-2.4-1.5c-0.1-0.4,0-0.9,0.2-1.4c1.4-4.7,2-7.9,1.8-9.6c-0.2-1.6-1-3.6-5.9-3
		c-2.8,0.3-5,1.4-6.5,3.1l0.6-2l-6.2,0.8l-5.4,17.8l-0.1,0.2l-0.2,0.1c-1.3,1-2.5,1.5-3.5,1.7c-1,0.1-1.7-0.4-1.8-1.3
		c-0.1-0.4,0-0.9,0.2-1.4c1.3-4.4,2.3-7.8,3-10l1.9-6.3l-5,0.6l-0.3,1.1l-0.3,1l-0.7-0.7c-1.2-1.2-2.9-1.7-4.9-1.4
		c-2.9,0.4-5.5,1.9-7.8,4.7c-2,2.3-3.5,5.2-4.5,8.5l-0.7,2.3c-0.5,1.6-0.8,3.1-0.9,4.4l0,0.3l-0.2,0.2c-1.2,0.9-2.3,1.4-3.4,1.5
		c-1,0.1-1.7-0.4-1.8-1.3c0-0.4,0-0.8,0.2-1.4l5-16.7l-8.1,1l-5.6,18.3l-0.1,0.2l-0.2,0.1c-1.3,1-2.5,1.5-3.5,1.7
		c-1.1,0.1-1.6-0.5-1.7-1.2c0-0.2,0-0.4,0.1-0.5l9.1-29l-8.6,1.1l-3.7,10.8l-0.2,0.5l-0.6-0.1c-0.7-0.2-1.5-0.2-2.3-0.1
		c-2.9,0.4-5.5,1.9-7.8,4.6c-2,2.3-3.5,5.2-4.5,8.5l-0.7,2.3c-0.4,1.3-0.7,2.6-0.9,3.6l0,0.2l-0.2,0.1c-3.6,3.1-7.7,4.9-12.2,5.5
		l-2,0.3c-0.3,0-1.5,0.1-1.6-1.5c-0.1-0.6,0-1.4,0.3-2.3l1.2-3.9l0.1-0.4l0.4-0.1l6.9-0.9c3.2-0.4,5.1-1.8,5.8-4.4
		c1.1-3.7,1.6-6.3,1.4-7.6c-0.1-1.2-0.7-2.7-4.1-2.3l-6.8,0.9c-2.3,0.3-4.3,1.4-6.1,3.4c-1.6,1.8-2.8,4-3.6,6.5l-1.6,5.2
		c-0.5,1.7-0.9,3.2-1,4.5l0,0.3l-0.2,0.2c-1.1,0.8-2.1,1.2-3.1,1.3c-1.1,0.1-1.8-0.3-1.9-1.3c0-0.4,0-0.8,0.2-1.4l5.4-17.5
		c0.6-1.9,0.7-3.6,0.5-5.2c-0.4-3-1.9-4.2-4.8-3.9c-3.1,0.4-5.6,1.7-7.5,4l-0.6,0.7l-0.4-0.9c-0.8-1.8-2.3-2.5-4.4-2.2
		c-3.1,0.4-5.5,1.6-7,3.6l-0.3,0.4l1.3-3.5l-7.8,1l-11,36.2l8.7-1.1l9.2-30.2c0.4-1.3,1.3-2.1,2.5-2.2c1.2-0.1,1.7,0.5,1.8,1.2
		c0,0.2,0,0.5-0.1,0.9l0,0l0,0l-9.1,29.8l8.6-1.1l9.2-30.2c0.4-1.3,1.3-2.1,2.6-2.2c1.1-0.1,1.6,0.5,1.7,1.2c0,0.2,0,0.5-0.1,0.9
		l0,0l0,0l-7.3,23.5c-0.3,1-0.3,1.9-0.3,2.7c0.2,1.4,0.9,2.2,2.4,2.6c0.6,0.2,1.2,0.3,1.8,0.2c3-0.4,6.2-1.8,9.6-4.3l0.6-0.4
		l0.3,0.6c0.9,1.7,3.3,2.3,6.9,1.9l5.2-0.7c2.6-0.3,5.6-1.7,9.1-4.1c0.2-0.2,0.5-0.4,0.7-0.5l0.7-0.5l0.3,0.8c0.8,2.1,3.1,2.9,7,2.4
		c1.4-0.2,2.8-1,4.3-2.5l0.8-0.8l0.2,1.1c0.1,0.4,0.3,1.3,2.7,1c3-0.4,6.1-1.7,9.4-4l0.6-0.4l0.3,0.6c0.2,0.4,0.5,0.8,0.9,1.1
		c0.8,0.7,1.6,0.9,2.6,0.8c3.1-0.4,6.4-1.8,9.8-4.4l0.6-0.4l0.3,0.7c0.9,1.8,3.2,2.5,6.8,2.1c1.9-0.2,3.5-1.1,4.9-2.7l0.7-0.8
		l0.3,1.1c0.3,1,1,1.5,2.1,1.3c2.5-0.3,5.1-1.3,7.8-3l1.4-0.9l-0.5,1.6l-3.2,10.4l-1.4,4.7l8.6-1.1l3.1-10.4l1.1-3.7l0.2-0.6
		l0.6,0.2c0.8,0.3,1.6,0.4,2.5,0.2c1.5-0.2,3.1-0.9,4.7-2.1c1.6-1.2,2.9-2.6,4-4.3l0.6-0.9l0.5,1c0.2,0.4,0.6,1,2.2,0.8
		c0.5-0.1,1-0.2,1.6-0.4l0.7-0.2l0.1,0.7c0.2,1,0.6,1.7,1.3,2.4c0.8,0.7,1.6,0.9,2.6,0.8c3.1-0.4,6.4-1.9,9.8-4.4
		c0.2-0.1,0.4-0.3,0.6-0.4l0.5-0.4l0.4,0.5c0.4,0.6,1,1.1,1.7,1.5c1.5,0.9,3.3,1.2,5.3,1c2.9-0.4,5.9-1.7,8.9-3.9l0,0
		c0,0,0.1-0.1,0.1-0.1l0.6-0.4l0.3,0.6c0.9,1.7,3.2,2.3,6.7,1.9c1.9-0.2,3.6-1.2,4.9-2.7l0.7-0.8l0.3,1.1c0.3,1.1,1,1.5,2.1,1.3
		c3.1-0.4,6.4-1.9,9.8-4.4c3.4-2.5,5.6-5,6.5-7.5L321.8,138.6z M287.1,132.8c2.2-7.3,1.6-5.4,2.7-9c0.3-1,1-1.6,2-1.7
		c1.1-0.1,1.5,0.3,1.7,0.7c0.1,0.2,0,0.8,0,0.8l-0.8,3c-1.2,3.9-2.7,6.2-4.7,7l-1.2,0.5L287.1,132.8z M157,156.1l1.8-5.9
		c0.3-1.2,1.1-1.9,2.3-2c1.7-0.2,1.9,0.9,2,1.2c0,0.1,0,0.3,0,0.6l0,0.1l0,0.1l-1.8,6l-0.1,0.4l-0.4,0l-3.1,0.4l-1,0.1L157,156.1z
		 M186,146.7l-4.8,15.9c-0.5,1.6-1.3,2.4-2.4,2.6c-0.8,0.1-1.4-0.4-1.6-1.3c-0.1-0.5,0-1.1,0.2-1.8l4.3-14.5
		c0.2-0.8,0.8-1.7,2.4-1.9c0.7-0.1,1.3,0.1,1.6,0.5l0.2,0.3L186,146.7z M225.6,142.2l-4.3,14.3c-0.6,2.1-1.6,3.2-2.8,3.4
		c-0.9,0.1-1.5-0.4-1.6-1.4c-0.1-0.7,0-1.5,0.2-2.3l4.2-13.8c0.3-1.2,1.2-1.9,2.4-2c1.7-0.2,1.9,0.9,2,1.2
		C225.7,141.8,225.7,142,225.6,142.2z M252.8,138.7L252.8,138.7l0,0.1l-4.4,14.3c-0.7,2.3-1.6,3.5-2.9,3.6c-0.3,0-1.4,0.1-1.6-1.4
		c-0.1-0.6,0-1.3,0.2-2.2l4.4-14.2c0.3-1.2,1.1-1.9,2.4-2c1.7-0.2,1.9,0.9,2,1.2C252.9,138.3,252.9,138.5,252.8,138.7z M307.2,131.9
		l-4.3,14.3c-0.6,2.1-1.6,3.2-2.8,3.4c-0.7,0.1-1.5-0.2-1.6-1.4c-0.1-0.7,0-1.5,0.3-2.3l4.2-13.8c0.3-1.2,1.2-1.9,2.4-2
		c1.7-0.2,1.9,0.9,2,1.2C307.4,131.5,307.3,131.7,307.2,131.9z"/>
	<g>
		<path class="st0" d="M225.7,114.2l-15.6-2.8c-0.6-0.1-0.9-0.6-0.8-1.2l0.8-4.6c0.1-0.6,0.6-0.9,1.2-0.8l15.6,2.8
			c0.6,0.1,0.9,0.6,0.8,1.2l-0.8,4.6C226.8,113.9,226.3,114.3,225.7,114.2z"/>
		<path class="st0" d="M236.9,52.4l-15.6-2.8c-0.6-0.1-0.9-0.6-0.8-1.2l0.8-4.6c0.1-0.6,0.6-0.9,1.2-0.8l15.6,2.8
			c0.6,0.1,0.9,0.6,0.8,1.2l-0.8,4.6C238,52.1,237.4,52.5,236.9,52.4z"/>
	</g>
	<path class="st0" d="M245.7,60l-35.4-6.4c-0.4-0.1-0.7-0.5-0.7-1l0.1-0.6c0.1-0.4,0.5-0.7,1-0.7l35.4,6.4c0.4,0.1,0.7,0.5,0.7,1
		l-0.1,0.6C246.6,59.7,246.2,60,245.7,60z"/>
	<path class="st0" d="M239.8,92.7l-35.4-6.4c-0.4-0.1-0.7-0.5-0.7-1l0.1-0.6c0.1-0.4,0.5-0.7,1-0.7l35.4,6.4c0.4,0.1,0.7,0.5,0.7,1
		l-0.1,0.6C240.7,92.4,240.3,92.7,239.8,92.7z"/>
	<path class="st0" d="M238.6,99.2l-35.4-6.4c-0.4-0.1-0.7-0.5-0.7-1l0.1-0.6c0.1-0.4,0.5-0.7,1-0.7L239,97c0.4,0.1,0.7,0.5,0.7,1
		l-0.1,0.6C239.5,99,239.1,99.3,238.6,99.2z"/>
	<path class="st0" d="M263.4,53.5c-5-2.4-11.1-0.3-13.6,4.8c-2.5,5.1-0.4,11.2,4.7,13.6c5,2.4,11.1,0.3,13.6-4.8
		C270.5,62,268.4,55.9,263.4,53.5z M256,63.1c-0.4,0.5-1.2,0.6-1.7,0.2c-0.5-0.4-0.6-1.2-0.1-1.7c0.4-0.5,1.2-0.6,1.7-0.2
		C256.3,61.8,256.4,62.5,256,63.1z M259.7,67.3c-0.4,0.5-1.2,0.6-1.7,0.2c-0.5-0.4-0.6-1.2-0.1-1.7c0.4-0.5,1.2-0.6,1.7-0.2
		C260.1,66,260.2,66.8,259.7,67.3z M260.2,59.8c-0.4,0.5-1.2,0.6-1.7,0.2c-0.5-0.4-0.6-1.2-0.1-1.7c0.4-0.5,1.2-0.6,1.7-0.2
		C260.6,58.5,260.6,59.3,260.2,59.8z M263.9,63.8c-0.4,0.5-1.2,0.6-1.7,0.2c-0.5-0.4-0.6-1.2-0.1-1.7c0.4-0.5,1.2-0.6,1.7-0.2
		C264.3,62.4,264.3,63.2,263.9,63.8z"/>
	<path class="st0" d="M263.6,76.4c-3-1.4-6.6-0.2-8,2.9c-1.5,3-0.2,6.6,2.8,8.1c3,1.4,6.6,0.2,8-2.9
		C267.8,81.4,266.6,77.8,263.6,76.4z M258.9,83.7c-0.4,0-0.7-0.4-0.7-0.8c0-0.4,0.4-0.7,0.8-0.7c0.4,0,0.7,0.4,0.7,0.8
		C259.6,83.4,259.3,83.7,258.9,83.7z M259.8,80.7c-0.4,0-0.7-0.4-0.7-0.8c0-0.4,0.4-0.7,0.8-0.7c0.4,0,0.7,0.4,0.7,0.8
		C260.5,80.4,260.2,80.7,259.8,80.7z M262.2,84.4c-0.4,0-0.7-0.4-0.7-0.8c0-0.4,0.4-0.7,0.8-0.7c0.4,0,0.7,0.4,0.7,0.8
		C262.9,84.1,262.6,84.4,262.2,84.4z M262.9,81.3c-0.4,0-0.7-0.4-0.7-0.8c0-0.4,0.4-0.7,0.8-0.7c0.4,0,0.7,0.4,0.7,0.8
		C263.7,81,263.3,81.3,262.9,81.3z"/>
	<path class="st0" d="M202.6,97.7c-10.6-1-26,1.2-32.5,10.8c-2.3,3.4-2.6,7.8,0.6,10.7c3.4,3.1,8.7,3.3,13,3.1
		c7.4-0.3,14.6-2,22-2.3c7.3-0.4,14.2,1.4,21.3,3.2c5.9,1.5,12,3.1,18.1,2.3c4.1-0.5,10.1-2.4,11.5-6.9c0.8-2.4-0.1-6.3-2.2-7.8
		c-2.5-1.8-5.1,0.9-6,3.2c-3.9,10,16.3,0.6,18.9-0.7c12.5-6.6,25.6-13.7,40.3-13.7c3.1,0,6.8,0.5,9.2,2.7c2.7,2.5,2.7,6,3.4,9.3
		c0.9,4.5,3.6,7.4,7.8,9.1c3.5,1.4,11.5,4.1,14.9,1.1c2.7-2.4,0.6-5.9-2.2-7c-4.6-1.8-7.8,2.5-9.5,6.2c-2.4,5.5-4.9,10.6-8.2,15.7
		c-0.4,0.5,0.5,1.1,0.9,0.5c1.9-2.9,3.7-5.8,5.3-8.8c1.9-3.6,2.7-8.2,5.5-11.1c1-1,2.3-1.9,3.7-1.9c2,0,8.3,3.6,2.5,6.3
		c-1.8,0.9-4.8,0-6.7-0.3c-4.9-1-10.7-2.7-12.6-7.9c-1.1-3.1-0.7-6.7-2.4-9.6c-1.5-2.5-4-4-6.8-4.7c-7.4-1.8-16.2,0.6-23.2,2.8
		c-8.8,2.8-16.5,7.5-24.7,11.6c-2.6,1.3-5.2,2.4-8,3.2c-1.4,0.4-3.9,1.4-5.4,1.2c-4-0.6-0.9-9.5,3.4-5.3c2.6,2.5,0.9,6.9-1.4,8.7
		c-8.2,6.7-20.8,2.2-29.8-0.1c-8.8-2.3-17-2.6-26-1.4c-5.7,0.8-11.5,1.8-17.2,1.5c-6.3-0.3-14.4-4.2-9.7-11.9c3-5,9.3-7.6,14.7-9.2
		c5.6-1.7,11.4-2.1,17.2-1.6C203.3,98.8,203.3,97.8,202.6,97.7L202.6,97.7z"/>
	<path class="st0" d="M237.4,105.7l-35.9-6.4c-1.4-0.3-4-0.9-9.1-0.5c-5.4,0.5-9.5,2.1-10.4,2.1c-2.2,0-1.9,0,0.1-0.8
		c2.2-0.9,5.5-2.1,9.5-2.7c4.9-0.7,6.7-0.7,11.9-0.1l34.4,6.2c0.5,0.1,0.8,0.6,0.7,1.1l-0.1,0.5
		C238.3,105.5,237.9,105.8,237.4,105.7z"/>
	<g>
		<path class="st0" d="M245.5,66.2l0.1-0.4c0.1-0.4-0.2-0.9-0.7-1l-35.4-6.4c-0.4-0.1-0.9,0.2-1,0.7l-0.1,0.6
			c-0.1,0.4,0.2,0.9,0.7,1l29,5.2C240.5,65.1,243.1,65.2,245.5,66.2z"/>
		<path class="st0" d="M208.3,64.9c-0.4-0.1-0.9,0.2-1,0.7l-0.1,0.6c-0.1,0.4,0.2,0.9,0.7,1l23.7,4.3c0.4-0.8,0.8-1.5,1.4-2.1
			L208.3,64.9z"/>
		<path class="st0" d="M230.4,75.7l-23.3-4.2c-0.4-0.1-0.9,0.2-1,0.7l-0.1,0.6c-0.1,0.4,0.2,0.9,0.7,1l23.7,4.3
			C230.4,77.2,230.4,76.5,230.4,75.7z"/>
		<path class="st0" d="M232.3,82.8L206,78c-0.4-0.1-0.9,0.2-1,0.7l-0.1,0.6c-0.1,0.4,0.2,0.9,0.7,1l29.6,5.3
			C234,84.8,233.1,83.9,232.3,82.8z"/>
	</g>
	<g>
		<path class="st0" d="M250.1,72.8c-0.9-2.5-2.6-4.5-5-5.7c-1.4-0.7-2.8-1-4.2-1c-3.7,0-7.3,2.1-9,5.7c-2.4,5-0.4,10.9,4.5,13.3
			c2.4,1.1,5,1.3,7.5,0.4c2.5-0.9,4.5-2.7,5.7-5.1C250.8,78,251,75.3,250.1,72.8z M237.8,77.3c-0.3,0.7-1.1,0.9-1.8,0.6
			c-0.6-0.3-0.9-1.1-0.6-1.8c0.3-0.7,1.1-0.9,1.8-0.6C237.9,75.8,238.1,76.6,237.8,77.3z M239.6,73.5c-0.6-0.3-0.9-1.1-0.6-1.8
			c0.3-0.7,1.1-0.9,1.8-0.6c0.6,0.3,0.9,1.1,0.6,1.8C241,73.5,240.2,73.8,239.6,73.5z M242.8,80.7c-0.3,0.7-1.1,0.9-1.8,0.6
			c-0.7-0.3-0.9-1.1-0.6-1.8c0.3-0.7,1.1-0.9,1.8-0.6C242.8,79.2,243.1,80,242.8,80.7z M246.1,75.9c-0.3,0.7-1.1,0.9-1.8,0.6
			c-0.6-0.3-0.9-1.1-0.6-1.8c0.3-0.7,1.1-0.9,1.8-0.6C246.2,74.5,246.4,75.3,246.1,75.9z"/>
		<path class="st0" d="M240.5,87.2c-1.6,0-3.2-0.4-4.7-1.1c-5.4-2.6-7.7-9.2-5-14.7c2.7-5.5,9.2-7.8,14.7-5.2
			c2.6,1.3,4.6,3.5,5.6,6.3c1,2.8,0.8,5.8-0.5,8.4l0,0c-1.3,2.7-3.5,4.7-6.3,5.7C243,87,241.7,87.2,240.5,87.2z M240.7,66.7
			c-3.5,0-6.9,2-8.5,5.4c-2.3,4.7-0.3,10.3,4.3,12.5c2.2,1.1,4.8,1.2,7.1,0.4c2.4-0.8,4.3-2.6,5.4-4.8l0,0c1.1-2.3,1.3-4.8,0.4-7.2
			c-0.8-2.4-2.5-4.3-4.7-5.3C243.4,67,242.1,66.7,240.7,66.7z"/>
	</g>
</g>
</svg>
