<?xml version="1.0" encoding="utf-8"?>
<!-- Generator: Adobe Illustrator 23.0.5, SVG Export Plug-In . SVG Version: 6.00 Build 0)  -->
<svg version="1.1" id="Layer_1" xmlns="http://www.w3.org/2000/svg" xmlns:xlink="http://www.w3.org/1999/xlink" x="0px" y="0px"
	 viewBox="0 0 450 220" style="enable-background:new 0 0 450 220;" xml:space="preserve">
<style type="text/css">
	.st0{display:none;}
	.st1{display:inline;fill:#E94859;}
	.st2{display:inline;fill:#F9BA56;}
	.st3{display:inline;fill:#00AAB7;}
	.st4{display:inline;fill:#FFFFFF;}
	.st5{display:inline;fill:#52B4A3;}
	.st6{display:inline;}
	.st7{fill:#FFFFFF;}
	.st8{fill:#FFD102;}
	.st9{fill:#FFFFFF;stroke:#FFFFFF;stroke-width:1.5076;stroke-linecap:round;stroke-linejoin:round;stroke-miterlimit:10;}
	.st10{clip-path:url(#SVGID_2_);fill:#263B7F;}
	.st11{clip-path:url(#SVGID_2_);fill:#E71E80;}
	.st12{clip-path:url(#SVGID_2_);fill:#51B8DF;}
	.st13{clip-path:url(#SVGID_2_);fill:#F5BA36;}
	.st14{clip-path:url(#SVGID_2_);fill:#C376B0;}
	.st15{clip-path:url(#SVGID_2_);fill:#E91581;}
</style>
<image style="display:none;overflow:visible;" width="550" height="217" xlink:href="../Logo_nahual - Martina Renzi.png"  transform="matrix(0.5091 0 0 0.4654 84.905 58.78)">
</image>
<g class="st0">
	<path class="st1" d="M183.5,59.5l-11.1,41.6l-11-41.6h-14.9v75.6H158V88.9l9.3,35.2h10.2l9.3-35.2v46.2h11.6V59.5H183.5z"/>
	<path class="st2" d="M241.3,61.4c-3.3-3-8.2-4.4-14.4-4.4c-6.2,0-11.1,1.5-14.3,4.4c-3.3,2.9-5,7.1-5,11.9v46.1
		c0,5.8,1.7,10,5.1,13.1c3.3,2.9,8.2,4.3,14.4,4.3c6.2,0,11.1-1.5,14.3-4.3c3.3-3,5-7.2,5-12.5v-7.8h-11.3v7.8c0,3-0.9,6.5-8,6.5
		s-8-3.5-8-6.5V99.8h27.3V73.8C246.4,68.6,244.7,64.4,241.3,61.4z M218.9,89.4V73.8c0-3,0.9-6.5,8-6.5c7.1,0,8,3.5,8,6.5v15.5
		L218.9,89.4L218.9,89.4z"/>
	<path class="st3" d="M253.8,59.5v10.6h14.3v65h11.6v-65H294V59.5H253.8z"/>
	<path class="st4" d="M164.6,151.7v7.5h-1.8v-4.7l-1.6,4.7h-1.6l-1.6-4.7v4.7h-1.8v-7.5h2.2l2,5.2l2-5.2H164.6z"/>
	<path class="st4" d="M171.7,153.2v6h-1.8v-1.1c-0.2,0.4-0.4,0.6-0.8,0.9c-0.4,0.2-0.7,0.3-1.1,0.3c-0.7,0-1.2-0.2-1.6-0.7
		c-0.4-0.4-0.6-1.1-0.6-1.9v-3.5h1.8v3.2c0,0.4,0.1,0.7,0.3,0.9c0.2,0.2,0.5,0.4,0.8,0.4c0.4,0,0.7-0.1,0.8-0.4
		c0.2-0.2,0.3-0.5,0.3-1v-3.2H171.7z"/>
	<path class="st4" d="M172,160.5h0.4c0.2,0,0.3-0.1,0.4-0.1c0.1-0.1,0.1-0.2,0.1-0.4v-6.7h1.8v6.6c0,1.4-0.7,2.1-2.1,2.1H172V160.5z
		 M173.1,152.3c-0.2-0.2-0.3-0.4-0.3-0.7c0-0.3,0.1-0.5,0.3-0.7c0.2-0.2,0.5-0.2,0.8-0.2c0.3,0,0.6,0.1,0.8,0.2
		c0.2,0.2,0.3,0.4,0.3,0.7c0,0.2-0.1,0.5-0.3,0.7c-0.2,0.2-0.5,0.2-0.8,0.2C173.6,152.5,173.3,152.4,173.1,152.3z"/>
	<path class="st4" d="M181.6,156.5h-4.1c0,0.4,0.1,0.8,0.4,1c0.2,0.2,0.5,0.3,0.8,0.3c0.2,0,0.5-0.1,0.7-0.2
		c0.2-0.1,0.3-0.3,0.4-0.5h1.9c-0.1,0.4-0.2,0.8-0.5,1.1c-0.2,0.3-0.6,0.6-1,0.8c-0.4,0.2-0.8,0.3-1.3,0.3c-0.6,0-1.1-0.1-1.5-0.4
		c-0.4-0.2-0.8-0.6-1-1c-0.2-0.5-0.4-1-0.4-1.6c0-0.6,0.1-1.2,0.4-1.6s0.6-0.8,1-1c0.4-0.2,1-0.4,1.6-0.4c0.6,0,1.1,0.1,1.6,0.4
		c0.4,0.2,0.8,0.6,1,1c0.2,0.4,0.4,0.9,0.4,1.5C181.6,156.2,181.6,156.4,181.6,156.5z M179.5,154.9c-0.2-0.2-0.5-0.3-0.8-0.3
		s-0.6,0.1-0.8,0.3c-0.2,0.2-0.4,0.5-0.4,0.9h2.3C179.8,155.4,179.7,155.1,179.5,154.9z"/>
	<path class="st4" d="M185.2,153.5c0.4-0.2,0.7-0.3,1.1-0.3v1.9h-0.5c-0.5,0-0.8,0.1-1.1,0.3c-0.2,0.2-0.4,0.5-0.4,1v2.7h-1.8v-6
		h1.8v1.1C184.6,154,184.9,153.7,185.2,153.5z"/>
	<path class="st4" d="M192.7,156.5h-4.1c0,0.4,0.1,0.8,0.4,1c0.2,0.2,0.5,0.3,0.8,0.3c0.2,0,0.5-0.1,0.7-0.2
		c0.2-0.1,0.3-0.3,0.4-0.5h1.9c-0.1,0.4-0.2,0.8-0.5,1.1c-0.2,0.3-0.6,0.6-1,0.8c-0.4,0.2-0.8,0.3-1.3,0.3c-0.6,0-1.1-0.1-1.5-0.4
		c-0.4-0.2-0.8-0.6-1-1c-0.2-0.5-0.4-1-0.4-1.6c0-0.6,0.1-1.2,0.4-1.6s0.6-0.8,1-1c0.4-0.2,1-0.4,1.6-0.4c0.6,0,1.1,0.1,1.6,0.4
		c0.4,0.2,0.8,0.6,1,1c0.2,0.4,0.4,0.9,0.4,1.5C192.8,156.2,192.7,156.4,192.7,156.5z M190.6,154.9c-0.2-0.2-0.5-0.3-0.8-0.3
		s-0.6,0.1-0.8,0.3c-0.2,0.2-0.4,0.5-0.4,0.9h2.3C190.9,155.4,190.9,155.1,190.6,154.9z"/>
	<path class="st4" d="M197.6,153.7c0.4,0.4,0.7,0.9,0.8,1.5h-1.7c-0.1-0.2-0.2-0.4-0.4-0.5c-0.2-0.1-0.4-0.2-0.7-0.2
		c-0.2,0-0.4,0.1-0.5,0.1c-0.1,0.1-0.2,0.2-0.2,0.4c0,0.2,0.1,0.3,0.3,0.4c0.2,0.1,0.5,0.2,0.9,0.3c0.4,0.1,0.8,0.2,1.1,0.3
		c0.2,0.1,0.5,0.3,0.7,0.5c0.2,0.2,0.3,0.6,0.3,1c0,0.4-0.1,0.7-0.3,0.9c-0.2,0.2-0.4,0.5-0.8,0.6c-0.4,0.1-0.7,0.2-1.2,0.2
		c-0.8,0-1.5-0.2-1.9-0.5c-0.5-0.4-0.8-0.9-0.9-1.5h1.8c0,0.2,0.1,0.4,0.3,0.6c0.2,0.1,0.4,0.2,0.7,0.2c0.2,0,0.4-0.1,0.5-0.1
		c0.1-0.1,0.2-0.2,0.2-0.4c0-0.2-0.1-0.4-0.3-0.4c-0.2-0.1-0.5-0.2-1-0.3c-0.4-0.1-0.8-0.2-1.1-0.3c-0.3-0.1-0.5-0.3-0.7-0.5
		c-0.2-0.2-0.3-0.5-0.3-1c0-0.5,0.2-1,0.6-1.3c0.4-0.3,1-0.5,1.7-0.5C196.6,153.2,197.2,153.3,197.6,153.7z"/>
	<path class="st4" d="M207.3,156.5h-4.1c0,0.4,0.1,0.8,0.4,1c0.2,0.2,0.5,0.3,0.8,0.3c0.2,0,0.5-0.1,0.7-0.2
		c0.2-0.1,0.3-0.3,0.4-0.5h1.9c-0.1,0.4-0.2,0.8-0.5,1.1c-0.2,0.3-0.6,0.6-1,0.8c-0.4,0.2-0.8,0.3-1.3,0.3c-0.6,0-1.1-0.1-1.5-0.4
		c-0.4-0.2-0.8-0.6-1-1c-0.2-0.5-0.4-1-0.4-1.6c0-0.6,0.1-1.2,0.4-1.6c0.2-0.5,0.6-0.8,1-1c0.4-0.2,1-0.4,1.6-0.4
		c0.6,0,1.1,0.1,1.6,0.4c0.4,0.2,0.8,0.6,1,1c0.2,0.4,0.4,0.9,0.4,1.5C207.3,156.2,207.3,156.4,207.3,156.5z M205.1,154.9
		c-0.2-0.2-0.5-0.3-0.8-0.3c-0.3,0-0.6,0.1-0.8,0.3c-0.2,0.2-0.4,0.5-0.4,0.9h2.3C205.5,155.4,205.4,155.1,205.1,154.9z"/>
	<path class="st4" d="M213.6,153.8c0.4,0.4,0.6,1.1,0.6,1.9v3.5h-1.8V156c0-0.4-0.1-0.7-0.3-0.9c-0.2-0.2-0.5-0.4-0.8-0.4
		s-0.7,0.1-0.8,0.4c-0.2,0.2-0.3,0.5-0.3,1v3.2h-1.8v-6h1.8v1.1c0.2-0.4,0.4-0.6,0.8-0.9c0.4-0.2,0.7-0.3,1.1-0.3
		C212.6,153.2,213.2,153.4,213.6,153.8z"/>
	<path class="st4" d="M222.9,151.6v1.5h-2.1v6.1H219v-6.1h-2v-1.5H222.9z"/>
	<path class="st4" d="M229.2,156.5h-4.1c0,0.4,0.1,0.8,0.4,1c0.2,0.2,0.5,0.3,0.8,0.3c0.2,0,0.5-0.1,0.7-0.2
		c0.2-0.1,0.3-0.3,0.4-0.5h1.9c-0.1,0.4-0.2,0.8-0.5,1.1c-0.2,0.3-0.6,0.6-1,0.8c-0.4,0.2-0.8,0.3-1.3,0.3c-0.6,0-1.1-0.1-1.5-0.4
		c-0.4-0.2-0.8-0.6-1-1c-0.2-0.5-0.4-1-0.4-1.6c0-0.6,0.1-1.2,0.4-1.6c0.2-0.5,0.6-0.8,1-1c0.4-0.2,1-0.4,1.6-0.4
		c0.6,0,1.1,0.1,1.6,0.4c0.4,0.2,0.8,0.6,1,1c0.2,0.4,0.4,0.9,0.4,1.5C229.3,156.2,229.2,156.4,229.2,156.5z M227.1,154.9
		c-0.2-0.2-0.5-0.3-0.8-0.3c-0.3,0-0.6,0.1-0.8,0.3c-0.2,0.2-0.4,0.5-0.4,0.9h2.3C227.5,155.4,227.3,155.1,227.1,154.9z"/>
	<path class="st4" d="M234.8,153.8c0.5,0.4,0.8,1,1,1.8h-1.9c-0.1-0.2-0.2-0.4-0.4-0.6c-0.2-0.1-0.4-0.2-0.7-0.2
		c-0.3,0-0.6,0.1-0.8,0.4c-0.2,0.2-0.3,0.6-0.3,1.1s0.1,0.9,0.3,1.1c0.2,0.2,0.5,0.4,0.8,0.4c0.2,0,0.5-0.1,0.7-0.2
		c0.2-0.1,0.3-0.4,0.4-0.6h1.9c-0.1,0.7-0.5,1.3-1,1.8c-0.5,0.4-1.1,0.6-1.9,0.6c-0.6,0-1.1-0.1-1.5-0.4c-0.4-0.2-0.8-0.6-1-1
		c-0.2-0.5-0.4-1-0.4-1.6c0-0.6,0.1-1.2,0.4-1.6c0.2-0.5,0.6-0.8,1-1c0.4-0.2,1-0.4,1.6-0.4C233.6,153.2,234.2,153.3,234.8,153.8z"
		/>
	<path class="st4" d="M242,153.8c0.4,0.4,0.6,1.1,0.6,1.9v3.5h-1.8V156c0-0.4-0.1-0.7-0.3-0.9c-0.2-0.2-0.5-0.4-0.8-0.4
		c-0.4,0-0.7,0.1-0.8,0.4c-0.2,0.2-0.3,0.5-0.3,1v3.2h-1.8v-6h1.8v1.1c0.2-0.4,0.4-0.6,0.8-0.9c0.4-0.2,0.7-0.3,1.1-0.3
		C241.1,153.2,241.7,153.4,242,153.8z"/>
	<path class="st4" d="M248.1,153.5c0.5,0.2,0.8,0.6,1.1,1c0.2,0.5,0.4,1,0.4,1.6s-0.1,1.2-0.4,1.6c-0.2,0.5-0.6,0.8-1.1,1
		c-0.5,0.2-1,0.4-1.6,0.4c-0.6,0-1.1-0.1-1.6-0.4c-0.5-0.2-0.8-0.6-1.1-1c-0.2-0.5-0.4-1-0.4-1.6s0.1-1.2,0.4-1.6
		c0.2-0.5,0.6-0.8,1.1-1c0.5-0.2,1-0.4,1.6-0.4C247.2,153.2,247.7,153.3,248.1,153.5z M245.7,155.1c-0.2,0.2-0.4,0.6-0.4,1.1
		s0.1,0.9,0.4,1.1c0.2,0.2,0.5,0.4,0.8,0.4c0.4,0,0.6-0.1,0.8-0.4c0.2-0.2,0.4-0.6,0.4-1.1s-0.1-0.9-0.4-1.1
		c-0.2-0.2-0.5-0.4-0.8-0.4S246,154.9,245.7,155.1z"/>
	<path class="st4" d="M252.4,151.3v7.9h-1.8v-7.9H252.4z"/>
	<path class="st4" d="M258,153.5c0.5,0.2,0.8,0.6,1.1,1c0.2,0.5,0.4,1,0.4,1.6s-0.1,1.2-0.4,1.6c-0.2,0.5-0.6,0.8-1.1,1
		c-0.5,0.2-1,0.4-1.6,0.4c-0.6,0-1.1-0.1-1.6-0.4c-0.5-0.2-0.8-0.6-1.1-1c-0.2-0.5-0.4-1-0.4-1.6s0.1-1.2,0.4-1.6
		c0.2-0.5,0.6-0.8,1.1-1c0.5-0.2,1-0.4,1.6-0.4C257,153.2,257.5,153.3,258,153.5z M255.5,155.1c-0.2,0.2-0.4,0.6-0.4,1.1
		s0.1,0.9,0.4,1.1c0.2,0.2,0.5,0.4,0.8,0.4c0.4,0,0.6-0.1,0.8-0.4c0.2-0.2,0.4-0.6,0.4-1.1s-0.1-0.9-0.4-1.1
		c-0.2-0.2-0.5-0.4-0.8-0.4S255.8,154.9,255.5,155.1z"/>
	<path class="st4" d="M263.8,153.5c0.3,0.2,0.5,0.5,0.7,0.9v-1.1h1.8v5.9c0,0.5-0.1,1-0.3,1.5c-0.2,0.4-0.5,0.8-1,1
		c-0.4,0.2-1,0.4-1.6,0.4c-0.9,0-1.6-0.2-2.1-0.6c-0.5-0.4-0.8-1-1-1.7h1.8c0.1,0.2,0.2,0.4,0.4,0.5c0.2,0.1,0.5,0.2,0.8,0.2
		c0.4,0,0.7-0.1,0.9-0.3c0.2-0.2,0.4-0.5,0.4-1v-1c-0.2,0.4-0.4,0.6-0.7,0.9c-0.3,0.2-0.7,0.3-1.1,0.3c-0.5,0-0.9-0.1-1.3-0.4
		c-0.4-0.2-0.7-0.6-0.9-1c-0.2-0.5-0.4-1-0.4-1.6c0-0.6,0.1-1.2,0.4-1.6c0.2-0.5,0.5-0.8,0.9-1c0.4-0.2,0.8-0.4,1.3-0.4
		C263.1,153.2,263.5,153.3,263.8,153.5z M262.3,155.2c-0.2,0.2-0.4,0.6-0.4,1c0,0.4,0.1,0.8,0.4,1c0.2,0.2,0.5,0.4,0.9,0.4
		c0.4,0,0.7-0.1,0.9-0.4c0.2-0.2,0.4-0.6,0.4-1c0-0.4-0.1-0.8-0.4-1c-0.2-0.2-0.5-0.4-0.9-0.4C262.8,154.7,262.5,154.9,262.3,155.2z
		"/>
	<path class="st4" d="M270.2,151.7l-2.5,1.1v-1.2l2.5-1.2V151.7z M269.6,153.2v6h-1.8v-6H269.6z"/>
	<path class="st4" d="M274.5,153.5c0.3,0.2,0.5,0.5,0.7,0.9v-1.1h1.8v6h-1.8v-1.1c-0.2,0.4-0.4,0.6-0.7,0.9
		c-0.3,0.2-0.7,0.3-1.1,0.3c-0.5,0-0.9-0.1-1.3-0.4c-0.4-0.2-0.7-0.6-0.9-1c-0.2-0.5-0.4-1-0.4-1.6c0-0.6,0.1-1.2,0.4-1.6
		s0.5-0.8,0.9-1c0.4-0.2,0.8-0.4,1.3-0.4C273.7,153.2,274.1,153.3,274.5,153.5z M272.9,155.2c-0.2,0.2-0.4,0.6-0.4,1
		c0,0.4,0.1,0.8,0.4,1c0.2,0.2,0.5,0.4,0.9,0.4c0.4,0,0.7-0.1,0.9-0.4c0.2-0.2,0.4-0.6,0.4-1c0-0.4-0.1-0.8-0.4-1
		c-0.2-0.2-0.5-0.4-0.9-0.4C273.5,154.7,273.2,154.9,272.9,155.2z"/>
	<path class="st2" d="M146,166h5.5v-3h-2.2v-13.6h2.2v-3H146V166z"/>
	<path class="st2" d="M281.6,146.4v3h2.2V163h-2.2v3h5.5v-19.6H281.6z"/>
</g>
<g class="st0">
	<rect x="141.4" y="36.2" class="st5" width="145.6" height="145.6"/>
	<g class="st6">
		<g>
			<g>
				<path class="st7" d="M182.3,70.2h-11.8v-0.7c0-2.6,2.1-4.6,4.6-4.6h2.5c2.6,0,4.6,2.1,4.6,4.6V70.2z"/>
				<path class="st7" d="M255.6,70.2h-11.8v-0.7c0-2.6,2.1-4.6,4.6-4.6h2.5c2.6,0,4.6,2.1,4.6,4.6V70.2z"/>
				<path class="st8" d="M238.4,116.7c-2.8,0-5-2.2-5-5c0-2.8,2.2-5,5-5l16.5-0.1c0,0,0,0,0.1,0c0,0,0,0,0.1,0
					c2.2,0,2.7-1.1,2.9-1.4c0.5-1,0.5-2.6-0.6-4l-2.2-2.7c-1.3-1.5-1.9-3.5-1.9-5.5c0.1-3.1,1.8-5.1,2.9-6.4
					c0.2-0.2,0.3-0.4,0.5-0.6l0.7-0.8c1.2-1.5,1.3-3.2,0.8-4.2c-0.5-1.1-2-1.3-3.2-1.3h-24.8v31.8c0,2.1-1.3,3.9-3.2,4.7
					c-1.9,0.7-4.1,0.2-5.5-1.4l-31.2-35.1h-19.4c0,0-0.1,0-0.1,0.1v26.9c0,0,0,0.1,0.1,0.1h14c4.3,0,8.1-2.7,9.5-6.8
					c0.9-2.6,3.7-4,6.4-3.1c2.6,0.9,4,3.7,3.1,6.4c-2.8,8.1-10.4,13.5-19,13.5h-14c-5.6,0-10.1-4.5-10.1-10.1V79.8
					c0-5.6,4.5-10.1,10.1-10.1h21.6c1.4,0,2.8,0.6,3.7,1.7l23.9,26.9V74.7c0-2.8,2.2-5,5-5h29.8c5.6,0,10.1,2.5,12.2,7
					c2.2,4.6,1.4,10.4-2,14.7l-0.7,0.8c-0.2,0.3-0.5,0.6-0.7,0.8c0,0-0.1,0.1-0.1,0.1l1.4,1.7c0,0,0,0.1,0.1,0.1
					c3.3,4.2,4,10,1.7,14.7c-2.2,4.4-6.7,7.1-12,7L238.4,116.7C238.4,116.7,238.4,116.7,238.4,116.7z"/>
				<path class="st7" d="M248.1,86.2v1c0,1.3-1,2.3-2.3,2.3h-6.1c-1.3,0-2.3-1-2.3-2.3v-1c0-1.3,1-2.3,2.3-2.3h6.1
					C247,83.9,248.1,84.9,248.1,86.2z"/>
				<path class="st7" d="M248.1,99.7L248.1,99.7c0,1.6-1.3,2.9-2.9,2.9h-5.1c-1.6,0-2.9-1.3-2.9-2.9v0c0-1.6,1.3-2.9,2.9-2.9h5.1
					C246.8,96.8,248.1,98.1,248.1,99.7z"/>
				<g>
					<path class="st7" d="M189.8,93.2L189.8,93.2c0,1.5-1.2,2.7-2.7,2.7h-9.7c-1.5,0-2.7-1.2-2.7-2.7v0c0-1.5,1.2-2.7,2.7-2.7h9.7
						C188.6,90.5,189.8,91.7,189.8,93.2z"/>
					<path class="st7" d="M182.3,85.6L182.3,85.6c1.5,0,2.7,1.2,2.7,2.7V98c0,1.5-1.2,2.7-2.7,2.7l0,0c-1.5,0-2.7-1.2-2.7-2.7v-9.7
						C179.6,86.8,180.8,85.6,182.3,85.6z"/>
				</g>
			</g>
		</g>
		<g>
			<path class="st9" d="M177.5,137.7c0,1.7-0.3,3.1-0.8,4.4c-0.5,1.2-1.3,2.3-2.2,3.1c-1,0.8-2.1,1.4-3.5,1.8
				c-1.3,0.4-2.8,0.6-4.5,0.6c-0.8,0-1.7,0-2.6-0.1c-1-0.1-1.9-0.2-2.8-0.4v-18.8c0.9-0.2,1.8-0.3,2.8-0.4c1-0.1,1.9-0.1,2.7-0.1
				c1.6,0,3.1,0.2,4.4,0.6c1.3,0.4,2.5,1,3.4,1.8c1,0.8,1.7,1.8,2.2,3.1C177.2,134.5,177.5,136,177.5,137.7z M164.6,144.5
				c0.2,0,0.5,0,0.8,0c0.3,0,0.8,0,1.4,0c2.4,0,4.1-0.6,5.3-1.8c1.2-1.2,1.7-2.9,1.7-5c0-2.2-0.6-3.9-1.7-5
				c-1.1-1.2-2.9-1.8-5.3-1.8c-1,0-1.8,0-2.2,0.1V144.5z"/>
			<path class="st9" d="M185.8,147.4c-1.4-3-2.7-6.2-4-9.4c-1.3-3.3-2.5-6.6-3.6-9.9h3.9c0.4,1.3,0.9,2.6,1.4,4
				c0.5,1.4,0.9,2.7,1.4,4c0.5,1.3,0.9,2.6,1.4,3.8c0.5,1.2,0.9,2.4,1.4,3.4c0.4-1,0.9-2.1,1.3-3.4c0.5-1.2,0.9-2.5,1.4-3.8
				c0.5-1.3,0.9-2.7,1.4-4c0.5-1.4,0.9-2.7,1.3-4h3.8c-1.1,3.3-2.3,6.6-3.6,9.9c-1.3,3.3-2.6,6.4-4,9.4H185.8z"/>
			<path class="st9" d="M205.8,147.6c-1,0-2.1,0-3.1-0.1c-1-0.1-2-0.2-2.7-0.4v-18.8c0.4-0.1,0.8-0.1,1.3-0.2
				c0.5-0.1,0.9-0.1,1.4-0.2c0.5,0,1-0.1,1.4-0.1c0.5,0,0.9,0,1.4,0c1.2,0,2.3,0.1,3.3,0.3c1,0.2,1.9,0.5,2.6,0.9
				c0.7,0.4,1.3,0.9,1.7,1.6c0.4,0.7,0.6,1.5,0.6,2.5c0,0.9-0.2,1.7-0.7,2.3c-0.4,0.7-1,1.2-1.8,1.6c1.2,0.4,2,1,2.6,1.7
				c0.6,0.8,0.8,1.7,0.8,2.9c0,2-0.7,3.5-2.2,4.5C211,147.1,208.8,147.6,205.8,147.6z M203.4,135.9h2.5c1.3,0,2.4-0.2,3.1-0.6
				c0.8-0.4,1.1-1.1,1.1-2c0-0.9-0.4-1.6-1.2-2c-0.8-0.4-1.8-0.6-3.1-0.6c-0.5,0-1,0-1.4,0c-0.4,0-0.8,0-1.1,0.1V135.9z
				 M203.4,138.7v5.9c0.4,0,0.8,0.1,1.3,0.1c0.4,0,0.9,0,1.2,0c0.7,0,1.4,0,2-0.1c0.6-0.1,1.2-0.3,1.6-0.5c0.5-0.2,0.8-0.5,1.1-0.9
				c0.3-0.4,0.4-0.9,0.4-1.5c0-1.1-0.4-1.9-1.2-2.3c-0.8-0.4-1.9-0.6-3.3-0.6H203.4z"/>
			<path class="st9" d="M223,132.4c1.1,0,2.1,0.1,2.8,0.4c0.8,0.3,1.4,0.7,1.8,1.2c0.5,0.5,0.8,1.1,1,1.8c0.2,0.7,0.3,1.5,0.3,2.4
				v8.8c-0.5,0.1-1.3,0.2-2.4,0.4c-1,0.2-2.2,0.2-3.6,0.2c-0.9,0-1.7-0.1-2.4-0.3c-0.7-0.2-1.3-0.4-1.9-0.8
				c-0.5-0.4-0.9-0.9-1.2-1.4c-0.3-0.6-0.4-1.3-0.4-2.2c0-0.8,0.2-1.5,0.5-2.1c0.3-0.6,0.8-1,1.3-1.4c0.6-0.4,1.2-0.6,1.9-0.8
				c0.7-0.2,1.5-0.2,2.3-0.2c0.4,0,0.8,0,1.2,0.1c0.4,0,0.8,0.1,1.3,0.2v-0.6c0-0.4,0-0.8-0.1-1.1c-0.1-0.4-0.3-0.7-0.5-0.9
				c-0.2-0.3-0.5-0.5-0.9-0.6c-0.4-0.1-0.9-0.2-1.4-0.2c-0.8,0-1.5,0.1-2.1,0.2c-0.7,0.1-1.2,0.2-1.6,0.4l-0.4-2.7
				c0.4-0.1,1-0.3,1.9-0.4C221.2,132.5,222,132.4,223,132.4z M223.3,145c1,0,1.8-0.1,2.4-0.2v-3.7c-0.2-0.1-0.5-0.1-0.8-0.2
				c-0.4-0.1-0.7-0.1-1.2-0.1c-0.4,0-0.7,0-1.1,0.1c-0.4,0.1-0.7,0.2-1,0.3c-0.3,0.1-0.6,0.4-0.7,0.6c-0.2,0.3-0.3,0.6-0.3,1
				c0,0.8,0.3,1.4,0.8,1.7C221.7,144.9,222.4,145,223.3,145z"/>
			<path class="st9" d="M233,147.4v-21.1l3.4-0.6v7.2c0.4-0.1,0.8-0.2,1.3-0.3c0.5-0.1,1-0.1,1.5-0.1c1.2,0,2.1,0.2,2.9,0.5
				c0.8,0.3,1.4,0.8,1.9,1.4c0.5,0.6,0.8,1.3,1,2.1c0.2,0.8,0.3,1.7,0.3,2.7v8.2h-3.4v-7.7c0-0.8-0.1-1.4-0.2-2
				c-0.1-0.5-0.3-1-0.5-1.3c-0.2-0.3-0.5-0.6-0.9-0.8c-0.4-0.2-0.9-0.2-1.4-0.2c-0.4,0-0.9,0-1.4,0.1c-0.5,0.1-0.8,0.2-1,0.3v11.6
				H233z"/>
			<path class="st9" d="M254.9,126.8l-4.5,4.4l-1.7-1.5l4.1-4.9L254.9,126.8z M252.6,147.4h-3.4v-14.6h3.4V147.4z"/>
			<path class="st9" d="M261.8,132.4c1.1,0,2.1,0.1,2.8,0.4c0.8,0.3,1.4,0.7,1.8,1.2s0.8,1.1,1,1.8c0.2,0.7,0.3,1.5,0.3,2.4v8.8
				c-0.5,0.1-1.3,0.2-2.4,0.4c-1,0.2-2.2,0.2-3.6,0.2c-0.9,0-1.7-0.1-2.4-0.3c-0.7-0.2-1.3-0.4-1.9-0.8c-0.5-0.4-0.9-0.9-1.2-1.4
				c-0.3-0.6-0.4-1.3-0.4-2.2c0-0.8,0.2-1.5,0.5-2.1c0.3-0.6,0.8-1,1.3-1.4c0.6-0.4,1.2-0.6,1.9-0.8c0.7-0.2,1.5-0.2,2.3-0.2
				c0.4,0,0.8,0,1.2,0.1c0.4,0,0.8,0.1,1.3,0.2v-0.6c0-0.4,0-0.8-0.1-1.1c-0.1-0.4-0.3-0.7-0.5-0.9c-0.2-0.3-0.5-0.5-0.9-0.6
				c-0.4-0.1-0.9-0.2-1.4-0.2c-0.8,0-1.5,0.1-2.1,0.2c-0.7,0.1-1.2,0.2-1.6,0.4l-0.4-2.7c0.4-0.1,1-0.3,1.9-0.4
				C260,132.5,260.8,132.4,261.8,132.4z M262.1,145c1,0,1.8-0.1,2.4-0.2v-3.7c-0.2-0.1-0.5-0.1-0.8-0.2c-0.4-0.1-0.7-0.1-1.2-0.1
				c-0.4,0-0.7,0-1.1,0.1c-0.4,0.1-0.7,0.2-1,0.3c-0.3,0.1-0.6,0.4-0.7,0.6c-0.2,0.3-0.3,0.6-0.3,1c0,0.8,0.3,1.4,0.8,1.7
				S261.2,145,262.1,145z"/>
		</g>
	</g>
</g>
<g>
	<defs>
		<rect id="SVGID_1_" x="127.7" y="57.3" width="180" height="109"/>
	</defs>
	<clipPath id="SVGID_2_">
		<use xlink:href="#SVGID_1_"  style="overflow:visible;"/>
	</clipPath>
	<rect x="127.7" y="57.3" class="st10" width="180" height="109"/>
	<path class="st11" d="M139.1,110.8h24.6V84.3h-24.6V110.8z M160.9,107.7h-0.6h-1.6h-1.6V94l-5,11.6h-0.5h-0.3h-0.4l-5-11.6v13.7
		h-1.6h-1.5H142V87.4h0.8h2.4h1.6l4.7,10.6l4.7-10.6h1.6h2.5h0.6V107.7z"/>
	<path class="st12" d="M178,91.6c-3.1,0-5.6,2.7-5.6,6c0,3.3,2.5,6,5.6,6c3.1,0,5.6-2.7,5.6-6C183.5,94.2,181,91.6,178,91.6"/>
	<path class="st12" d="M165.6,110.8h24.6V84.3h-24.6V110.8z M178,107.9c-5.3,0-9.6-4.6-9.6-10.3s4.3-10.3,9.6-10.3s9.6,4.6,9.6,10.3
		S183.3,107.9,178,107.9"/>
	<path class="st13" d="M192.1,110.8h24.6V84.3h-24.6V110.8z M205.4,103.5c2,0,3.8-1.2,4.8-3l2.9,3.1c-1.7,2.5-4.5,4.2-7.7,4.2
		c-5.3,0-9.6-4.6-9.6-10.3c0-5.7,4.3-10.3,9.6-10.3c3.2,0,5.9,1.6,7.7,4.2l-2.9,3.1c-1-1.8-2.7-3-4.8-3c-3.1,0-5.6,2.7-5.6,6
		C199.9,100.9,202.3,103.5,205.4,103.5"/>
	<path class="st11" d="M218.6,110.8h24.6V84.3h-24.6V110.8z M239.7,107.7h-4.3v-8h-9v8h-4.3V87.4h4.3v8.5h9v-8.5h4.3V107.7z"/>
	<polygon class="st14" points="254.4,100.1 260.4,100.1 257.4,92.2 	"/>
	<path class="st14" d="M245.1,110.8h24.6V84.3h-24.6V110.8z M263.2,107.7l-1.5-3.9H253l-1.5,3.9h-4.4l8.2-20.3h4.4l8.1,20.3H263.2z"
		/>
	<path class="st14" d="M165.6,139.3h24.6v-26.5h-24.6V139.3z M178.9,132.1c2,0,3.8-1.2,4.8-3l2.9,3.1c-1.7,2.5-4.5,4.2-7.7,4.2
		c-5.3,0-9.6-4.6-9.6-10.3s4.3-10.3,9.6-10.3c3.2,0,5.9,1.6,7.7,4.2l-2.9,3.1c-1-1.8-2.7-3-4.8-3c-3.1,0-5.6,2.7-5.6,6
		S175.8,132.1,178.9,132.1"/>
	<path class="st11" d="M192.1,139.3h24.6v-26.5h-24.6V139.3z M212.6,136.2h-16.3v-20.3h16v3.8h-11.7v4.4h10.7v3.8h-10.7v4.5h12
		V136.2z"/>
	<path class="st13" d="M218.6,139.3h24.6v-26.5h-24.6V139.3z M238.4,136.2h-14.9v-20.3h4.3v16.3h10.7V136.2z"/>
	<path class="st12" d="M245.1,139.3h24.6v-26.5h-24.6V139.3z M259.3,136.2H255v-20.3h4.3V136.2z"/>
	<path class="st15" d="M271.6,139.3h24.6v-26.5h-24.6V139.3z M292,130.2c0,4-3.2,6.1-7.4,6.1c-3.1,0-6.1-1.2-8.2-3.1
		c0,0-0.6-0.6-0.6-0.6l1.7-3.7c0,0,0.6,0.6,0.7,0.6c1.9,1.8,4.6,3,6.6,3c1.8,0,2.8-0.7,2.8-1.9c0-3.8-10.1-1.6-10.1-8.8
		c0-3.7,2.9-6,7.3-6c2.6,0,5.1,0.8,7,2.1c0.1,0,0.3,0.2,0.4,0.3l-1.6,3.8c-0.1,0-0.3-0.2-0.4-0.3c-1.9-1.2-4.2-2-5.7-2
		c-1.4,0-2.4,0.6-2.4,1.7C281.9,125,292,122.9,292,130.2"/>
</g>
</svg>
