<?xml version="1.0" encoding="utf-8"?>
<!-- Generator: Adobe Illustrator 27.8.1, SVG Export Plug-In . SVG Version: 6.00 Build 0)  -->
<svg version="1.1" id="Layer_1" xmlns="http://www.w3.org/2000/svg" xmlns:xlink="http://www.w3.org/1999/xlink" x="0px" y="0px"
	 viewBox="0 0 450 220" style="enable-background:new 0 0 450 220;" xml:space="preserve">
<style type="text/css">
	.st0{fill:none;}
	.st1{fill:#C84534;}
</style>
<rect class="st0" width="450" height="220"/>
<g>
	<path class="st1" d="M300.4,85.7c-3.5,0-6.5-2.4-7.5-5.6h19.7l2.7-4.2h-22.4c0.9-3.3,3.9-5.6,7.5-5.6h13.5l2.7-4.2h-16.5
		c-6.6,0-12,5.4-12,12c0,6.6,5.4,12,12,12h14.2l2.7-4.2H300.4 M244.1,89.9h14.2l2.7-4.2h-16.6c-4.3,0-7.8-3.5-7.8-7.8
		c0-4.3,3.5-7.8,7.8-7.8h13.5l2.7-4.2h-16.5c-6.6,0-12,5.4-12,12C232.1,84.6,237.4,89.9,244.1,89.9 M156.6,85.7h-13.3
		c-4.3,0-7.7-3.5-7.7-7.8c0-4.3,3.5-7.8,7.7-7.8h13.3c4.3,0,7.8,3.5,7.8,7.8C164.4,82.2,160.9,85.7,156.6,85.7 M143,89.9h13.9
		c6.6,0,12-5.4,12-12c0-6.6-5.3-12-12-12H143c-6.6,0-12,5.4-12,12C131,84.6,136.4,89.9,143,89.9 M191.5,82.2c4.5,0,8.1-3.6,8.1-8.1
		c0-4.5-3.6-8.1-8.1-8.1h-20.2v24h4.6V70.2h15.2c2.1,0,3.9,1.7,3.9,3.9c0,2.1-1.7,3.9-3.9,3.9l-13,0l13.8,12h6.7l-9.2-7.8H191.5
		 M267.7,85.7V66h-4.6v21.7c0,0.6,0.2,1.2,0.7,1.6c0.4,0.5,1,0.7,1.7,0.7h21l2.7-4.2H267.7 M211.3,81.5h12.3L217.1,71l-11.9,18.9
		h-5.4l14.5-22.7c0.6-0.9,1.7-1.5,2.8-1.5c1.1,0,2.2,0.5,2.8,1.4l14.6,22.7H229l-2.6-4.2H214L211.3,81.5"/>
	<path class="st1" d="M300.4,85.7c-3.5,0-6.5-2.4-7.5-5.6h19.7l2.7-4.2h-22.4c0.9-3.3,3.9-5.6,7.5-5.6h13.5l2.7-4.2h-16.5
		c-6.6,0-12,5.4-12,12c0,6.6,5.4,12,12,12h14.2l2.7-4.2H300.4 M244.1,89.9h14.2l2.7-4.2h-16.6c-4.3,0-7.8-3.5-7.8-7.8
		c0-4.3,3.5-7.8,7.8-7.8h13.5l2.7-4.2h-16.5c-6.6,0-12,5.4-12,12C232.1,84.6,237.4,89.9,244.1,89.9 M156.6,85.7h-13.3
		c-4.3,0-7.7-3.5-7.7-7.8c0-4.3,3.5-7.8,7.7-7.8h13.3c4.3,0,7.8,3.5,7.8,7.8C164.4,82.2,160.9,85.7,156.6,85.7 M143,89.9h13.9
		c6.6,0,12-5.4,12-12c0-6.6-5.3-12-12-12H143c-6.6,0-12,5.4-12,12C131,84.6,136.4,89.9,143,89.9 M191.5,82.2c4.5,0,8.1-3.6,8.1-8.1
		c0-4.5-3.6-8.1-8.1-8.1h-20.2v24h4.6V70.2h15.2c2.1,0,3.9,1.7,3.9,3.9c0,2.1-1.7,3.9-3.9,3.9l-13,0l13.8,12h6.7l-9.2-7.8H191.5
		 M267.7,85.7V66h-4.6v21.7c0,0.6,0.2,1.2,0.7,1.6c0.4,0.5,1,0.7,1.7,0.7h21l2.7-4.2H267.7 M211.3,81.5h12.3L217.1,71l-11.9,18.9
		h-5.4l14.5-22.7c0.6-0.9,1.7-1.5,2.8-1.5c1.1,0,2.2,0.5,2.8,1.4l14.6,22.7H229l-2.6-4.2H214L211.3,81.5"/>
	<polygon class="st1" points="133.1,152 133.1,131.1 135.8,131.1 135.8,152 133.1,152 	"/>
	<path class="st1" d="M140.9,152v-15h1.8l0.5,2.6c0.6-0.9,1.4-1.6,2.3-2.1c0.9-0.5,2-0.7,3.1-0.7c1.7,0,3.1,0.5,4,1.6
		c0.9,1,1.4,2.5,1.4,4.5v9.3h-2.6v-9.2c0-2.6-1.1-3.9-3.4-3.9c-1,0-1.8,0.3-2.6,0.9c-0.8,0.6-1.4,1.4-1.8,2.4v9.9H140.9L140.9,152z"
		/>
	<path class="st1" d="M159.5,152v-12.9h-2.6v-1.3l2.6-0.9v-1.7c0-3.4,1.6-5.1,4.8-5.1c0.3,0,0.7,0,1.1,0.1v2c-0.2,0-0.5-0.1-0.9-0.1
		c-0.9,0-1.5,0.2-1.9,0.7c-0.4,0.5-0.6,1.2-0.6,2.3v1.8h3.5v2.1h-3.5V152H159.5L159.5,152z"/>
	<path class="st1" d="M169.3,152v-15h1.8l0.5,2.8c1-1.9,2.4-2.9,4.2-2.9c0.4,0,0.7,0,1,0.1v2.3h-0.7c-1.1,0-2,0.3-2.7,0.9
		c-0.7,0.6-1.2,1.5-1.5,2.7v9.1H169.3L169.3,152z"/>
	<path class="st1" d="M184.2,150.3c0.9,0,1.7-0.3,2.5-0.8c0.8-0.5,1.4-1.2,1.8-2.1v-2.9h-3.2c-1.3,0-2.3,0.2-2.9,0.7
		c-0.6,0.5-0.9,1.2-0.9,2.2c0,0.9,0.2,1.6,0.7,2.1C182.7,150,183.4,150.3,184.2,150.3L184.2,150.3z M189.4,152l-0.4-2.4
		c-1.2,1.8-2.9,2.7-5,2.7c-1.5,0-2.7-0.4-3.6-1.3c-0.9-0.9-1.4-2-1.4-3.4c0-1.6,0.5-2.8,1.6-3.7c1.1-0.9,2.6-1.3,4.5-1.3h3.5v-1
		c0-1.1-0.2-1.8-0.7-2.3c-0.5-0.4-1.3-0.7-2.4-0.7c-0.7,0-1.5,0.1-2.3,0.2c-0.8,0.2-1.8,0.4-2.8,0.8v-2.1c0.7-0.3,1.6-0.6,2.5-0.8
		c0.9-0.2,1.8-0.3,2.7-0.3c3.8,0,5.7,1.7,5.7,5V152H189.4L189.4,152z"/>
	<path class="st1" d="M195.1,151.3v-2.2c0.9,0.4,1.7,0.7,2.5,0.8c0.7,0.2,1.5,0.3,2.3,0.3c2.5,0,3.7-0.7,3.7-2.2
		c0-0.6-0.2-1.1-0.5-1.4c-0.4-0.3-1-0.6-1.9-0.9l-2.4-0.6c-1.4-0.4-2.4-0.9-3-1.6c-0.6-0.7-1-1.5-1-2.6c0-1.3,0.5-2.3,1.5-3.1
		c1-0.8,2.4-1.1,4.2-1.1c1,0,1.8,0.1,2.6,0.2c0.8,0.2,1.5,0.4,2,0.6v2.2c-1.5-0.6-3-0.9-4.5-0.9c-2.2,0-3.3,0.6-3.3,1.9
		c0,0.5,0.2,1,0.5,1.3c0.3,0.3,0.9,0.6,1.8,0.8l2.4,0.6c1.5,0.4,2.5,0.9,3.2,1.6c0.7,0.7,1,1.6,1,2.8c0,1.4-0.5,2.5-1.6,3.3
		c-1.1,0.8-2.6,1.2-4.6,1.2c-0.9,0-1.8-0.1-2.7-0.3C196.4,151.9,195.7,151.6,195.1,151.3L195.1,151.3z"/>
	<path class="st1" d="M210.6,147.5v-8.3H208v-1.3l2.6-0.9l1-4.1h1.6v4.1h3.3v2.1h-3.3v8.3c0,1.7,0.7,2.5,2.1,2.5c0.2,0,0.5,0,0.7,0
		c0.2,0,0.4-0.1,0.6-0.1v2.2c-0.3,0.1-0.5,0.1-0.8,0.1c-0.3,0-0.6,0-0.9,0c-1.5,0-2.6-0.4-3.3-1.2
		C211,150.3,210.6,149.1,210.6,147.5L210.6,147.5z"/>
	<path class="st1" d="M220.5,152v-15h1.8l0.5,2.8c1-1.9,2.4-2.9,4.2-2.9c0.4,0,0.7,0,1,0.1v2.3h-0.7c-1.1,0-2,0.3-2.7,0.9
		c-0.7,0.6-1.2,1.5-1.5,2.7v9.1H220.5L220.5,152z"/>
	<path class="st1" d="M231.6,146.3V137h2.6v9.2c0,1.3,0.3,2.3,0.8,3c0.6,0.7,1.4,1,2.4,1c0.9,0,1.8-0.3,2.6-0.9
		c0.8-0.6,1.4-1.5,1.8-2.5V137h2.6v15h-1.8l-0.5-2.6c-0.6,0.9-1.4,1.6-2.3,2.1c-0.9,0.5-1.9,0.7-3,0.7c-1.7,0-3-0.5-3.9-1.6
		C232,149.8,231.6,148.3,231.6,146.3L231.6,146.3z"/>
	<path class="st1" d="M259.9,149.2v2.1c-1.2,0.7-2.7,1.1-4.5,1.1c-2.3,0-4.1-0.7-5.3-2c-1.2-1.4-1.8-3.3-1.8-6
		c0-2.4,0.6-4.3,1.9-5.7c1.2-1.3,3-2,5.3-2c1.4,0,2.7,0.3,3.9,1v2.1c-1.3-0.6-2.4-1-3.5-1c-3.3,0-4.9,1.8-4.9,5.5
		c0,2,0.4,3.5,1.1,4.4c0.8,1,2,1.4,3.6,1.4c0.7,0,1.3-0.1,2-0.3C258.4,149.8,259.1,149.5,259.9,149.2L259.9,149.2z"/>
	<path class="st1" d="M264.7,147.5v-8.3h-2.6v-1.3l2.6-0.9l1-4.1h1.6v4.1h3.3v2.1h-3.3v8.3c0,1.7,0.7,2.5,2.1,2.5c0.2,0,0.5,0,0.7,0
		c0.2,0,0.4-0.1,0.6-0.1v2.2c-0.3,0.1-0.5,0.1-0.8,0.1c-0.3,0-0.6,0-0.9,0c-1.5,0-2.6-0.4-3.3-1.2
		C265,150.3,264.7,149.1,264.7,147.5L264.7,147.5z"/>
	<path class="st1" d="M274.4,146.3V137h2.6v9.2c0,1.3,0.3,2.3,0.8,3c0.6,0.7,1.4,1,2.4,1c0.9,0,1.8-0.3,2.5-0.9
		c0.8-0.6,1.4-1.5,1.8-2.5V137h2.6v15h-1.8l-0.5-2.6c-0.6,0.9-1.4,1.6-2.3,2.1c-0.9,0.5-1.9,0.7-3,0.7c-1.7,0-3-0.5-3.9-1.6
		C274.8,149.8,274.4,148.3,274.4,146.3L274.4,146.3z"/>
	<path class="st1" d="M292.1,152v-15h1.8l0.5,2.8c1-1.9,2.4-2.9,4.2-2.9c0.4,0,0.7,0,1,0.1v2.3h-0.7c-1.1,0-2,0.3-2.7,0.9
		c-0.7,0.6-1.2,1.5-1.5,2.7v9.1H292.1L292.1,152z"/>
	<path class="st1" d="M308.5,138.8c-1.3,0-2.3,0.4-3,1.1c-0.7,0.8-1.1,1.9-1.2,3.3h7.9c0-1.6-0.3-2.7-0.9-3.4
		C310.9,139.2,309.9,138.8,308.5,138.8L308.5,138.8z M314.1,151.3c-0.5,0.3-1.3,0.6-2.1,0.8c-0.9,0.2-1.9,0.3-2.9,0.3
		c-2.4,0-4.2-0.7-5.4-2c-1.2-1.4-1.8-3.3-1.8-6c0-2.5,0.6-4.4,1.7-5.7c1.2-1.3,2.8-2,5-2c4.2,0,6.3,2.3,6.3,6.9v1.7h-10.4
		c0.1,1.7,0.6,2.9,1.4,3.7c0.8,0.8,2,1.2,3.5,1.2c0.9,0,1.7-0.1,2.4-0.3s1.6-0.4,2.4-0.8V151.3L314.1,151.3z"/>
	<path class="st1" d="M166.7,115.9V96.1H162v21.7c0,0.3,0.1,0.6,0.2,0.8c0.1,0.3,0.3,0.5,0.5,0.7c0.5,0.4,1.1,0.7,1.7,0.6h21.1
		l2.7-4.3h-21.4V115.9L166.7,115.9z M143,120h14.2l2.7-4.1h-16.6c-2,0-4-0.9-5.4-2.3c-1.4-1.5-2.2-3.4-2.2-5.5c0-2,0.8-4,2.2-5.5
		c1.4-1.5,3.4-2.3,5.4-2.3h13.5l2.7-4.3H143c-3.2,0-6.3,1.3-8.5,3.5c-2.3,2.3-3.5,5.3-3.5,8.5c0,3.2,1.3,6.3,3.5,8.5
		C136.8,118.8,139.8,120,143,120L143,120L143,120z"/>
	<path class="st1" d="M275.8,96.1h-16.9v21.7c0,0.3,0.1,0.6,0.2,0.8c0.1,0.3,0.3,0.5,0.5,0.7c0.5,0.4,1.1,0.7,1.7,0.6h14.6
		c3.2,0,6.2-1.3,8.5-3.5c2.2-2.2,3.5-5.3,3.5-8.5c0-3.2-1.3-6.2-3.5-8.5C282.1,97.3,279,96.1,275.8,96.1L275.8,96.1L275.8,96.1z
		 M275.4,115.9h-12v-15.5h12c2.1,0,4.1,0.8,5.5,2.3c1.5,1.5,2.3,3.4,2.3,5.5c0,1-0.2,2-0.6,3s-1,1.8-1.7,2.5
		c-0.7,0.7-1.6,1.3-2.5,1.7C277.5,115.7,276.5,115.9,275.4,115.9L275.4,115.9z"/>
	<path class="st1" d="M199.1,120H213c3.2,0,6.2-1.3,8.5-3.5c2.2-2.2,3.5-5.3,3.5-8.5c0-3.2-1.3-6.2-3.5-8.5
		c-2.2-2.2-5.3-3.5-8.5-3.5h-13.9c-3.2,0-6.2,1.3-8.5,3.5c-2.2,2.2-3.5,5.3-3.5,8.5c0,3.2,1.3,6.2,3.5,8.5
		C192.9,118.8,195.9,120,199.1,120L199.1,120z M212.8,115.9h-13.3c-1,0-2-0.2-3-0.6c-0.9-0.4-1.8-1-2.5-1.7
		c-0.7-0.7-1.3-1.6-1.7-2.5c-0.4-0.9-0.6-2-0.6-3s0.2-2,0.6-3c0.4-0.9,1-1.8,1.7-2.5c0.7-0.7,1.6-1.3,2.5-1.7c0.9-0.4,2-0.6,3-0.6
		h13.3c2.1,0,4.1,0.8,5.5,2.3c1.5,1.5,2.3,3.4,2.3,5.5c0,2.1-0.8,4.1-2.3,5.5C216.8,115.1,214.8,115.9,212.8,115.9L212.8,115.9z"/>
	<path class="st1" d="M244.1,120h-4.7c-1.6,0-3.1-0.3-4.6-0.9c-1.5-0.6-2.8-1.5-3.9-2.6c-1.1-1.1-2-2.4-2.6-3.9
		c-0.6-1.5-0.9-3-0.9-4.6V96h4.6v12.1c0,2,0.8,3.8,2.2,5.2c1.4,1.4,3.3,2.2,5.2,2.2h4.7c2,0,3.8-0.8,5.2-2.2
		c1.4-1.4,2.2-3.3,2.2-5.2V96h4.6v12.1c0,1.6-0.3,3.1-0.9,4.6c-0.6,1.5-1.5,2.8-2.6,3.9c-1.1,1.1-2.4,2-3.9,2.6
		C247.2,119.7,245.7,120,244.1,120L244.1,120z"/>
</g>
</svg>
