<?xml version="1.0" encoding="utf-8"?>
<!-- Generator: Adobe Illustrator 27.7.0, SVG Export Plug-In . SVG Version: 6.00 Build 0)  -->
<svg version="1.1" id="Layer_1" xmlns="http://www.w3.org/2000/svg" xmlns:xlink="http://www.w3.org/1999/xlink" x="0px" y="0px"
	 viewBox="0 0 450 220" style="enable-background:new 0 0 450 220;" xml:space="preserve">
<style type="text/css">
	.st0{fill:none;}
	.st1{fill:#FF0000;}
</style>
<rect class="st0" width="450" height="220"/>
<g>
	<path class="st1" d="M287.423,89.57h6.364v34.757h27.622l-4.056,6.773h-29.93L287.423,89.57L287.423,89.57z M237.353,131.1
		l-23.566-39.595c-1.469-2.605-5.315-2.605-6.923,0.074l-23.357,39.446h7.692l7.063-11.908h15.035l3.986-6.773h-15.035l8.182-13.695
		l19.231,32.376h7.692V131.1z M251.689,89.57c-10.769,0-17.832,9.303-17.832,20.765s7.063,20.765,17.832,20.765h26.154l4.126-6.698
		h-30.07c-7.273,0-11.469-6.252-11.469-13.992c0-7.74,4.266-13.992,11.469-13.992h26.783l3.986-6.773L251.689,89.57z M88.332,96.343
		h27.622c7.273,0,11.538,6.252,11.538,13.992s-4.266,13.992-11.538,13.992H88.332c-7.273,0-11.469-6.252-11.469-13.992
		S81.059,96.343,88.332,96.343z M88.332,89.57c-10.769,0-17.832,9.303-17.832,20.765S77.563,131.1,88.332,131.1h27.622
		c10.769,0,17.832-9.303,17.832-20.765s-7.063-20.765-17.832-20.765H88.332z M328.192,113.61
		c1.049,6.103,5.035,10.717,11.189,10.717h30.07l-4.126,6.698h-26.154c-10.769,0-17.832-9.303-17.832-20.765
		s7.063-20.765,17.832-20.765h30.909l-3.986,6.773h-26.783c-6.084,0-10.07,4.466-11.189,10.494h37.832l-4.056,6.773L328.192,113.61
		L328.192,113.61z M169.871,114.205c6.294-0.149,11.399-5.582,11.399-12.355c0-6.698-5.035-12.206-11.399-12.355h-32.517V131.1
		h7.133V96.343h25.385c2.867,0,5.245,2.456,5.245,5.582c0,3.052-2.308,5.582-5.245,5.582h-20.35l22.937,23.593h9.231l-16.434-16.82
		L169.871,114.205z M376.794,89.57c1.678,0,2.937,1.414,2.937,3.275c0,1.861-1.329,3.275-2.937,3.275
		c-1.678,0-3.007-1.414-3.007-3.275C373.857,90.984,375.115,89.57,376.794,89.57V88.9c-2.028,0-3.706,1.637-3.706,3.87
		s1.678,3.945,3.706,3.945c2.028,0,3.706-1.637,3.706-3.945c0-2.233-1.678-3.87-3.706-3.87V89.57z"/>
	<path class="st1" d="M376.024,91.207h0.909c0.42,0,0.909,0.074,0.909,0.67c0,0.67-0.49,0.744-1.049,0.744h-0.769v0.595h0.769
		l1.119,1.935h0.699l-1.189-2.01c0.629-0.074,1.119-0.447,1.119-1.265c0-0.893-0.49-1.265-1.469-1.265h-1.608v4.466h0.629
		L376.024,91.207L376.024,91.207z"/>
</g>
</svg>
