<?xml version="1.0" encoding="utf-8"?>
<!-- Generator: Adobe Illustrator 27.5.0, SVG Export Plug-In . SVG Version: 6.00 Build 0)  -->
<svg version="1.1" id="Layer_1" xmlns="http://www.w3.org/2000/svg" xmlns:xlink="http://www.w3.org/1999/xlink" x="0px" y="0px"
	 viewBox="0 0 450 220" style="enable-background:new 0 0 450 220;" xml:space="preserve">
<style type="text/css">
	.st0{fill-rule:evenodd;clip-rule:evenodd;fill:#FFFFFF;}
	.st1{fill:#FFFFFF;filter:url(#Adobe_OpacityMaskFilter);}
	.st2{mask:url(#b_00000180339020611931227440000017767634409322389933_);}
	.st3{fill-rule:evenodd;clip-rule:evenodd;fill:#F58220;}
</style>
<g>
	<path class="st0" d="M184.55,113.97c-1.04,2.24-2.94,3.97-5.27,4.81c-2.32,0.85-4.89,0.74-7.12-0.32c-2.23-1.05-3.91-2.89-4.72-5.2
		l-0.02-0.03c-0.87-2.31-0.78-4.86,0.24-7.1c1.04-2.29,2.96-4.06,5.32-4.92c4.8-1.7,10.12,0.78,11.83,5.54
		C185.7,109.15,185.61,111.71,184.55,113.97L184.55,113.97z M188.5,105.4c-2.44-6.77-10.01-10.32-16.85-7.88
		c-3.39,1.26-6.07,3.73-7.54,6.97c-0.79,1.71-1.2,3.58-1.2,5.47c0,1.55,0.29,3.12,0.85,4.62c1.16,3.28,3.59,5.96,6.74,7.43
		c3.18,1.51,6.83,1.68,10.13,0.46c3.31-1.19,6.01-3.65,7.49-6.85C189.6,112.4,189.75,108.78,188.5,105.4L188.5,105.4z"/>
	<path class="st0" d="M163.76,114.6c0,0,0-0.01,0-0.01c-0.01,0-0.01-0.01-0.01-0.01L163.76,114.6
		C163.76,114.6,163.76,114.6,163.76,114.6z M264.42,119.88l3.54-1.12l0.18-18.09h-3.54l0.19,13.98l-8.95-14.55l-3.17,1.12
		l-0.18,18.27h3.54l-0.37-13.99h0.18C255.84,105.52,264.42,119.88,264.42,119.88z M202.88,109.06h-2.05v-5.59h2.05
		c1.72-0.04,3.13,0.89,3.17,2.61C206.01,108.62,203.95,109.08,202.88,109.06z M209.78,106.09c-0.09-3-1.94-5.45-6.53-5.41h-5.97
		l-0.18,18.83h3.54v-7.64h1.11c0.58,0.07,0.99,0.26,1.31,0.75l5.22,7.27l3.54-1.3l-5.78-7.64
		C208.25,110.2,209.7,108.48,209.78,106.09C209.78,106.09,209.78,106.09,209.78,106.09z M285.49,111.68h-4.66l2.42-7.46
		L285.49,111.68z M274.48,118.77l3.17,1.12l2.24-5.41h6.53l1.86,5.41l3.35-1.12l-6.71-18.09h-3.17L274.48,118.77L274.48,118.77z
		 M230.29,109.81c-0.08,4.28-2.83,6.64-6.9,6.71h-2.24v-12.86h2.98C227.78,103.61,230.21,106.32,230.29,109.81L230.29,109.81z
		 M217.8,100.68l-0.19,18.83h6.53c4.95-0.06,9.72-3.87,9.69-9.51c0.03-5.69-3.93-9.4-9.88-9.32
		C223.96,100.68,217.8,100.68,217.8,100.68z M244.47,119.51l0.18-18.83h-3.54l-0.18,18.83L244.47,119.51L244.47,119.51z"/>
	<defs>
		<filter id="Adobe_OpacityMaskFilter" filterUnits="userSpaceOnUse" x="141.31" y="91.54" width="167.37" height="36.92">
			<feColorMatrix  type="matrix" values="1 0 0 0 0  0 1 0 0 0  0 0 1 0 0  0 0 0 1 0"/>
		</filter>
	</defs>
	
		<mask maskUnits="userSpaceOnUse" x="141.31" y="91.54" width="167.37" height="36.92" id="b_00000180339020611931227440000017767634409322389933_">
		<path class="st1" d="M141.31,91.54h167.37v36.92H141.31V91.54z"/>
	</mask>
	<g class="st2">
		<path class="st3" d="M211.84,118.58l-3.54,1.3l-5.22-7.27c-0.32-0.48-0.73-0.67-1.31-0.75h-1.11v7.64h-3.55l0.18-18.83h5.97
			c4.59-0.04,6.44,2.41,6.53,5.41c-0.08,2.39-1.53,4.11-3.73,4.85L211.84,118.58L211.84,118.58z M233.83,110
			c0.03,5.64-4.74,9.45-9.69,9.51h-6.53l0.19-18.83h6.15C229.91,100.61,233.86,104.31,233.83,110z M244.65,100.68l-0.18,18.83h-3.54
			l0.18-18.83H244.65C244.65,100.68,244.65,100.68,244.65,100.68z M256.02,119.51h-3.54l0.18-18.27l3.17-1.12l8.94,14.54
			l-0.18-13.98h3.54l-0.18,18.09l-3.54,1.11l-8.58-14.36h-0.18L256.02,119.51L256.02,119.51z M291.64,118.77l-3.35,1.11l-1.87-5.4
			h-6.53l-2.24,5.4l-3.17-1.11l7.27-18.09h3.17L291.64,118.77z M180.62,122.47c-3.3,1.22-6.95,1.05-10.13-0.46
			c-3.15-1.47-5.58-4.14-6.74-7.42l-0.01-0.03c0,0.01,0,0.01,0.01,0.01c-0.56-1.48-0.84-3.05-0.85-4.62c0-1.87,0.4-3.72,1.2-5.47
			c1.47-3.24,4.15-5.71,7.54-6.97c6.85-2.44,14.41,1.11,16.86,7.88c1.24,3.37,1.1,7-0.4,10.22
			C186.63,118.82,183.93,121.28,180.62,122.47z M187.52,99l-2.72-7.46L164.24,99h-22.93v22h23.42l2.73,7.46l20.55-7.46h120.68V99
			H187.52L187.52,99L187.52,99z"/>
	</g>
	<path class="st3" d="M202.88,103.47h-2.05v5.59h2.05c1.07,0.01,3.13-0.45,3.17-2.98C206.02,104.37,204.6,103.43,202.88,103.47
		L202.88,103.47z M221.16,116.53h2.24c4.06-0.07,6.81-2.44,6.9-6.71c-0.09-3.49-2.51-6.21-6.15-6.15h-2.98V116.53z M285.49,111.68
		l-2.24-7.46l-2.42,7.46H285.49z M172.99,101.21c-2.39,0.89-4.28,2.63-5.32,4.92c-1.02,2.24-1.11,4.8-0.24,7.1l0.02,0.03
		c0.81,2.31,2.5,4.15,4.72,5.2c2.23,1.06,4.8,1.18,7.12,0.32c2.33-0.84,4.22-2.57,5.27-4.81c1.06-2.27,1.15-4.83,0.26-7.22
		C183.1,101.98,177.79,99.51,172.99,101.21z"/>
</g>
</svg>
