<?xml version="1.0" encoding="utf-8"?>
<!-- Generator: Adobe Illustrator 27.8.1, SVG Export Plug-In . SVG Version: 6.00 Build 0)  -->
<svg version="1.1" id="Layer_1" xmlns="http://www.w3.org/2000/svg" xmlns:xlink="http://www.w3.org/1999/xlink" x="0px" y="0px"
	 viewBox="0 0 450 220" style="enable-background:new 0 0 450 220;" xml:space="preserve">
<style type="text/css">
	.st0{fill:url(#SVGID_1_);}
	.st1{fill:url(#SVGID_00000017517840836757603950000012773735007287613572_);}
	.st2{fill:none;}
	.st3{fill:#A7A8AB;}
	.st4{font-family:'OpenSans';}
	.st5{font-size:54.7075px;}
	.st6{fill:#88398A;}
	.st7{font-family:'OpenSans-Bold';}
	.st8{font-size:36.4717px;}
</style>
<image style="display:none;overflow:visible;enable-background:new    ;" width="1026" height="1026" xlink:href="6BA017BDB5087323.png"  transform="matrix(0.1358 0 0 0.1358 151.57 34.6684)">
</image>
<image style="display:none;overflow:visible;enable-background:new    ;" width="1000" height="229" xlink:href="6BA017BDB5087321.jpg"  transform="matrix(0.388 0 0 0.388 38 60.78)">
</image>
<image style="display:none;overflow:visible;enable-background:new    ;" width="1356" height="874" xlink:href="6BA017BDB5087327.png"  transform="matrix(0.2196 0 0 0.2196 74.1968 13)">
</image>
<g>
	
		<linearGradient id="SVGID_1_" gradientUnits="userSpaceOnUse" x1="7.1174" y1="509.1046" x2="7.2424" y2="508.9796" gradientTransform="matrix(721.094 0 0 -482.937 -5039.7515 245916.8125)">
		<stop  offset="0" style="stop-color:#C9CCCE"/>
		<stop  offset="1" style="stop-color:#82828A"/>
	</linearGradient>
	<path class="st0" d="M137.6,111.9c-24.7,0-44.7-13.6-44.7-30.4s20-30.4,44.7-30.4s44.7,13.6,44.7,30.4S162.3,111.9,137.6,111.9z
		 M144.5,63c-18.8,0-34,9.3-34,20.8s15.2,20.8,34,20.8s32.6-6.4,32.6-20.8C177.1,69.4,163.3,63,144.5,63z"/>
	
		<linearGradient id="SVGID_00000002375133423035382100000018103676255157575868_" gradientUnits="userSpaceOnUse" x1="127.8486" y1="674.7077" x2="177.1219" y2="674.7077" gradientTransform="matrix(1 0 0 1 0 -578)">
		<stop  offset="0" style="stop-color:#883A8A"/>
		<stop  offset="0.1652" style="stop-color:#843886"/>
		<stop  offset="0.3365" style="stop-color:#783379"/>
		<stop  offset="0.5105" style="stop-color:#632A65"/>
		<stop  offset="0.6864" style="stop-color:#471E48"/>
		<stop  offset="0.8621" style="stop-color:#220F23"/>
		<stop  offset="1" style="stop-color:#000000"/>
	</linearGradient>
	<path style="fill:url(#SVGID_00000002375133423035382100000018103676255157575868_);" d="M165.5,102.5c-0.7-0.7-1.6-1.3-2.2-1.6
		c-1.6-0.8-4.3-1.6-4.3-1.6s13.3-1,13.3-14.5s-13.9-13.7-13.9-13.7h-30.6v51.1h15.2v-20c0,0,3.5,0,4.1,0c0.8,0,1.2,0.3,2,0.9
		c1,0.8,2.7,3.7,2.7,3.7l8,15.4h17.2L166.5,104C166.5,104,166.2,103.3,165.5,102.5z M152.4,90.9h-9.2v-8.7h9.2c0,0,4.3-0.2,4.3,4.2
		C156.7,90.9,152.4,90.9,152.4,90.9z"/>
	<rect x="172.5" y="80.4" class="st2" width="184.6" height="48.3"/>
	<text transform="matrix(1 0 0 1 172.4736 121.9392)" class="st3 st4 st5">-Ladies</text>
	<text transform="matrix(1 0 0 1 92.9268 158.2146)" class="st6 st7 st8">BUENOS AIRES</text>
</g>
</svg>
