<?xml version="1.0" encoding="utf-8"?>
<!-- Generator: Adobe Illustrator 27.5.0, SVG Export Plug-In . SVG Version: 6.00 Build 0)  -->
<svg version="1.1" id="Layer_1" xmlns="http://www.w3.org/2000/svg" xmlns:xlink="http://www.w3.org/1999/xlink" x="0px" y="0px"
	 viewBox="0 0 450 220" style="enable-background:new 0 0 450 220;" xml:space="preserve">
<style type="text/css">
	.st0{fill-rule:evenodd;clip-rule:evenodd;fill:#004B85;}
	.st1{fill-rule:evenodd;clip-rule:evenodd;fill:#7DC242;}
	.st2{fill:#004B85;}
</style>
<g>
	<path class="st0" d="M151.3,124.24c-2.72,0-5.48,1.43-5.48,4.46c0,3.74,3.34,4.17,6.37,4.77c5.26,1.34,12.97,2.83,12.97,9.78
		c0,8.6-7.42,11.59-14.84,11.59c-7.87,0-13.43-3.08-13.19-11.83h7.49c-0.29,3.85,1.92,6.44,5.77,6.44c2.98,0,6.93-0.91,6.93-4.59
		c0-4.06-4.95-4.34-7.95-5.1c-4.84-1.22-11.39-3.39-11.39-9.51c0-7.89,7.22-11.41,14.33-11.41c6.71,0,11.88,3.65,11.88,10.6
		l-7.17,0.02C156.75,125.97,154.88,124.24,151.3,124.24L151.3,124.24z"/>
	<path class="st0" d="M181.47,154.85c-7.8,0-12.46-5.19-12.46-12.74c0-7.53,4.66-12.72,12.46-12.72c7.8,0,12.46,5.19,12.46,12.72
		C193.94,149.66,189.28,154.85,181.47,154.85L181.47,154.85z M181.47,150.06c4.37,0,5.08-4.12,5.08-7.95c0-3.81-0.71-7.93-5.08-7.93
		c-4.37,0-5.08,4.12-5.08,7.93C176.39,145.94,177.1,150.06,181.47,150.06L181.47,150.06z"/>
	<path class="st0" d="M205.15,130.08h4.34v4.79h-4.34v19.29h-7.17v-19.29h-3.57v-4.79h3.57c-0.18-6.82,0.44-11.23,8.22-11.23
		c1.29,0,2.61,0.15,3.9,0.33v4.46C205.04,123.06,204.95,125.37,205.15,130.08L205.15,130.08z"/>
	<path class="st0" d="M216.11,125.33l7.17-2.59v7.35h5.37v4.79h-5.37v11.16c0,3.16,0.47,4.03,2.94,4.03c0.76,0,1.52-0.11,2.29-0.16
		v4.23c-0.8,0.38-4.63,0.73-5.62,0.73c-5.57,0-6.77-2.92-6.77-8.15v-11.83h-4.83v-4.79h4.83V125.33L216.11,125.33z"/>
	<path class="st0" d="M235.61,125.33l7.17-2.59v7.35h5.39v4.79h-5.39v11.16c0,3.16,0.47,4.03,2.96,4.03c0.76,0,1.52-0.11,2.29-0.16
		v4.23c-0.82,0.38-4.63,0.73-5.62,0.73c-5.59,0-6.79-2.92-6.79-8.15v-11.83h-4.81v-4.79h4.81V125.33L235.61,125.33z"/>
	<path class="st0" d="M256.93,144.06c0,3.08,0.44,6.01,4.14,6.01c2.5,0,3.74-0.93,4.43-3.1h6.44c-0.63,5.91-5.26,7.89-10.87,7.89
		c-8.24,0-11.54-4.64-11.54-12.66c0-7.24,4.21-12.79,11.54-12.79c4.52,0,8.24,1.54,10.23,5.75c0.67,1.34,1,2.78,1.2,4.3
		c0.2,1.49,0.2,3.01,0.2,4.61H256.93L256.93,144.06z M265.3,139.25c0-2.63-0.73-5.06-4.23-5.06c-3.32,0-4.05,2.43-4.14,5.06H265.3
		L265.3,139.25z"/>
	<polygon class="st0" points="282.91,139.94 289.97,129.81 297.94,129.81 289.68,140.35 298.46,154.16 290.12,154.16 282.91,140.99 
		282.82,141.08 282.82,154.16 275.66,154.16 275.66,119.53 282.82,119.53 282.82,139.85 282.91,139.94 	"/>
	<path class="st0" d="M256.57,65.15c1.29,0,2.34,1.05,2.34,2.36c0,1.31-1.05,2.36-2.34,2.36c-1.31,0-2.36-1.05-2.36-2.36
		C254.21,66.2,255.26,65.15,256.57,65.15L256.57,65.15z"/>
	<path class="st0" d="M256.15,112.83c1.29,0,2.34,1.05,2.34,2.36c0,1.31-1.05,2.36-2.34,2.36c-1.31,0-2.36-1.05-2.36-2.36
		C253.79,113.88,254.85,112.83,256.15,112.83L256.15,112.83z"/>
	<path class="st0" d="M261.49,100.93c1.31,0,2.34,1.07,2.34,2.36c0,1.31-1.03,2.36-2.34,2.36c-1.29,0-2.34-1.05-2.34-2.36
		C259.15,102,260.2,100.93,261.49,100.93L261.49,100.93z"/>
	<path class="st0" d="M259.85,106.88c1.29,0,2.34,1.05,2.34,2.36c0,1.31-1.05,2.36-2.34,2.36c-1.29,0-2.34-1.05-2.34-2.36
		C257.51,107.93,258.57,106.88,259.85,106.88L259.85,106.88z"/>
	<path class="st0" d="M256.84,89.01c1.31,0,2.34,1.05,2.34,2.36c0,1.31-1.03,2.36-2.34,2.36c-1.29,0-2.34-1.05-2.34-2.36
		C254.5,90.06,255.55,89.01,256.84,89.01L256.84,89.01z"/>
	<path class="st0" d="M260.42,94.94c1.31,0,2.34,1.07,2.34,2.36c0,1.31-1.03,2.36-2.34,2.36c-1.29,0-2.34-1.05-2.34-2.36
		C258.08,96.01,259.13,94.94,260.42,94.94L260.42,94.94z"/>
	<path class="st0" d="M251.73,77.07c1.31,0,2.34,1.05,2.34,2.36c0,1.31-1.03,2.36-2.34,2.36c-1.29,0-2.34-1.05-2.34-2.36
		C249.39,78.12,250.44,77.07,251.73,77.07L251.73,77.07z"/>
	<path class="st0" d="M253.23,71.1c1.29,0,2.34,1.05,2.34,2.36c0,1.31-1.05,2.36-2.34,2.36c-1.31,0-2.36-1.05-2.36-2.36
		C250.87,72.15,251.93,71.1,253.23,71.1L253.23,71.1z"/>
	<path class="st0" d="M252.62,83.06c1.29,0,2.34,1.05,2.34,2.36c0,1.31-1.05,2.36-2.34,2.36c-1.29,0-2.34-1.05-2.34-2.36
		C250.27,84.11,251.33,83.06,252.62,83.06L252.62,83.06z"/>
	<path class="st1" d="M249.66,65.15c1.29,0,2.34,1.05,2.34,2.36c0,1.31-1.05,2.36-2.34,2.36c-1.29,0-2.34-1.05-2.34-2.36
		C247.32,66.2,248.37,65.15,249.66,65.15L249.66,65.15z"/>
	<path class="st1" d="M249.24,112.83c1.31,0,2.34,1.05,2.34,2.36c0,1.31-1.03,2.36-2.34,2.36c-1.29,0-2.34-1.05-2.34-2.36
		C246.9,113.88,247.95,112.83,249.24,112.83L249.24,112.83z"/>
	<path class="st1" d="M263.05,112.83c1.31,0,2.34,1.05,2.34,2.36c0,1.31-1.03,2.36-2.34,2.36c-1.29,0-2.34-1.05-2.34-2.36
		C260.71,113.88,261.76,112.83,263.05,112.83L263.05,112.83z"/>
	<path class="st1" d="M263.46,65.15c1.29,0,2.34,1.05,2.34,2.36c0,1.31-1.05,2.36-2.34,2.36c-1.29,0-2.34-1.05-2.34-2.36
		C261.12,66.2,262.18,65.15,263.46,65.15L263.46,65.15z"/>
	<path class="st1" d="M233.87,100.93c1.29,0,2.34,1.07,2.34,2.36c0,1.31-1.05,2.36-2.34,2.36c-1.31,0-2.34-1.05-2.34-2.36
		C231.53,102,232.57,100.93,233.87,100.93L233.87,100.93z"/>
	<path class="st1" d="M240.79,100.93c1.29,0,2.32,1.07,2.32,2.36c0,1.31-1.03,2.36-2.32,2.36c-1.31,0-2.36-1.05-2.36-2.36
		C238.43,102,239.48,100.93,240.79,100.93L240.79,100.93z"/>
	<path class="st1" d="M247.68,100.93c1.29,0,2.34,1.07,2.34,2.36c0,1.31-1.05,2.36-2.34,2.36c-1.29,0-2.34-1.05-2.34-2.36
		C245.34,102,246.39,100.93,247.68,100.93L247.68,100.93z"/>
	<path class="st1" d="M254.57,100.93c1.31,0,2.36,1.07,2.36,2.36c0,1.31-1.05,2.36-2.36,2.36c-1.29,0-2.34-1.05-2.34-2.36
		C252.23,102,253.29,100.93,254.57,100.93L254.57,100.93z"/>
	<path class="st1" d="M268.4,100.93c1.29,0,2.34,1.07,2.34,2.36c0,1.31-1.05,2.36-2.34,2.36c-1.31,0-2.36-1.05-2.36-2.36
		C266.04,102,267.09,100.93,268.4,100.93L268.4,100.93z"/>
	<path class="st1" d="M275.29,100.93c1.29,0,2.34,1.07,2.34,2.36c0,1.31-1.05,2.36-2.34,2.36c-1.29,0-2.34-1.05-2.34-2.36
		C272.95,102,274.01,100.93,275.29,100.93L275.29,100.93z"/>
	<path class="st1" d="M239.13,106.88c1.31,0,2.36,1.05,2.36,2.36c0,1.31-1.05,2.36-2.36,2.36c-1.29,0-2.34-1.05-2.34-2.36
		C236.79,107.93,237.85,106.88,239.13,106.88L239.13,106.88z"/>
	<path class="st1" d="M246.05,106.88c1.31,0,2.34,1.05,2.34,2.36c0,1.31-1.03,2.36-2.34,2.36c-1.29,0-2.34-1.05-2.34-2.36
		C243.71,107.93,244.76,106.88,246.05,106.88L246.05,106.88z"/>
	<path class="st1" d="M252.96,106.88c1.29,0,2.34,1.05,2.34,2.36c0,1.31-1.05,2.36-2.34,2.36c-1.31,0-2.36-1.05-2.36-2.36
		C250.6,107.93,251.65,106.88,252.96,106.88L252.96,106.88z"/>
	<path class="st1" d="M266.77,106.88c1.29,0,2.34,1.05,2.34,2.36c0,1.31-1.05,2.36-2.34,2.36c-1.31,0-2.36-1.05-2.36-2.36
		C264.41,107.93,265.46,106.88,266.77,106.88L266.77,106.88z"/>
	<path class="st1" d="M273.66,106.88c1.31,0,2.36,1.05,2.36,2.36c0,1.31-1.05,2.36-2.36,2.36c-1.29,0-2.34-1.05-2.34-2.36
		C271.32,107.93,272.37,106.88,273.66,106.88L273.66,106.88z"/>
	<path class="st1" d="M236.12,89.01c1.31,0,2.36,1.05,2.36,2.36c0,1.31-1.05,2.36-2.36,2.36c-1.29,0-2.34-1.05-2.34-2.36
		C233.78,90.06,234.83,89.01,236.12,89.01L236.12,89.01z"/>
	<path class="st1" d="M243.04,89.01c1.29,0,2.34,1.05,2.34,2.36c0,1.31-1.05,2.36-2.34,2.36c-1.29,0-2.34-1.05-2.34-2.36
		C240.69,90.06,241.75,89.01,243.04,89.01L243.04,89.01z"/>
	<path class="st1" d="M249.93,89.01c1.31,0,2.36,1.05,2.36,2.36c0,1.31-1.05,2.36-2.36,2.36c-1.29,0-2.34-1.05-2.34-2.36
		C247.59,90.06,248.64,89.01,249.93,89.01L249.93,89.01z"/>
	<path class="st1" d="M263.76,89.01c1.29,0,2.34,1.05,2.34,2.36c0,1.31-1.05,2.36-2.34,2.36c-1.31,0-2.36-1.05-2.36-2.36
		C261.4,90.06,262.45,89.01,263.76,89.01L263.76,89.01z"/>
	<path class="st1" d="M270.65,89.01c1.29,0,2.34,1.05,2.34,2.36c0,1.31-1.05,2.36-2.34,2.36c-1.29,0-2.34-1.05-2.34-2.36
		C268.31,90.06,269.36,89.01,270.65,89.01L270.65,89.01z"/>
	<path class="st1" d="M277.56,89.01c1.29,0,2.34,1.05,2.34,2.36c0,1.31-1.05,2.36-2.34,2.36c-1.29,0-2.36-1.05-2.36-2.36
		C275.2,90.06,276.27,89.01,277.56,89.01L277.56,89.01z"/>
	<path class="st1" d="M232.8,94.94c1.29,0,2.34,1.07,2.34,2.36c0,1.31-1.05,2.36-2.34,2.36c-1.29,0-2.34-1.05-2.34-2.36
		C230.46,96.01,231.51,94.94,232.8,94.94L232.8,94.94z"/>
	<path class="st1" d="M239.72,94.94c1.29,0,2.34,1.07,2.34,2.36c0,1.31-1.05,2.36-2.34,2.36c-1.31,0-2.36-1.05-2.36-2.36
		C237.36,96.01,238.41,94.94,239.72,94.94L239.72,94.94z"/>
	<path class="st1" d="M246.61,94.94c1.31,0,2.34,1.07,2.34,2.36c0,1.31-1.03,2.36-2.34,2.36c-1.29,0-2.34-1.05-2.34-2.36
		C244.27,96.01,245.32,94.94,246.61,94.94L246.61,94.94z"/>
	<path class="st1" d="M253.52,94.94c1.29,0,2.34,1.07,2.34,2.36c0,1.31-1.05,2.36-2.34,2.36c-1.31,0-2.34-1.05-2.34-2.36
		C251.18,96.01,252.22,94.94,253.52,94.94L253.52,94.94z"/>
	<path class="st1" d="M267.33,94.94c1.29,0,2.34,1.07,2.34,2.36c0,1.31-1.05,2.36-2.34,2.36c-1.29,0-2.36-1.05-2.36-2.36
		C264.97,96.01,266.04,94.94,267.33,94.94L267.33,94.94z"/>
	<path class="st1" d="M274.22,94.94c1.31,0,2.36,1.07,2.36,2.36c0,1.31-1.05,2.36-2.36,2.36c-1.29,0-2.34-1.05-2.34-2.36
		C271.88,96.01,272.94,94.94,274.22,94.94L274.22,94.94z"/>
	<path class="st1" d="M281.14,94.94c1.29,0,2.34,1.07,2.34,2.36c0,1.31-1.05,2.36-2.34,2.36c-1.31,0-2.34-1.05-2.34-2.36
		C278.8,96.01,279.83,94.94,281.14,94.94L281.14,94.94z"/>
	<path class="st1" d="M237.92,77.07c1.29,0,2.34,1.05,2.34,2.36c0,1.31-1.05,2.36-2.34,2.36s-2.34-1.05-2.34-2.36
		C235.58,78.12,236.63,77.07,237.92,77.07L237.92,77.07z"/>
	<path class="st1" d="M244.83,77.07c1.29,0,2.34,1.05,2.34,2.36c0,1.31-1.05,2.36-2.34,2.36c-1.31,0-2.36-1.05-2.36-2.36
		C242.47,78.12,243.53,77.07,244.83,77.07L244.83,77.07z"/>
	<path class="st1" d="M258.64,77.07c1.29,0,2.34,1.05,2.34,2.36c0,1.31-1.05,2.36-2.34,2.36c-1.31,0-2.34-1.05-2.34-2.36
		C256.3,78.12,257.33,77.07,258.64,77.07L258.64,77.07z"/>
	<path class="st1" d="M265.53,77.07c1.31,0,2.34,1.05,2.34,2.36c0,1.31-1.03,2.36-2.34,2.36c-1.29,0-2.34-1.05-2.34-2.36
		C263.19,78.12,264.25,77.07,265.53,77.07L265.53,77.07z"/>
	<path class="st1" d="M272.45,77.07c1.29,0,2.34,1.05,2.34,2.36c0,1.31-1.05,2.36-2.34,2.36c-1.29,0-2.36-1.05-2.36-2.36
		C270.09,78.12,271.16,77.07,272.45,77.07L272.45,77.07z"/>
	<path class="st1" d="M239.41,71.1c1.31,0,2.36,1.05,2.36,2.36c0,1.31-1.05,2.36-2.36,2.36c-1.29,0-2.34-1.05-2.34-2.36
		C237.07,72.15,238.12,71.1,239.41,71.1L239.41,71.1z"/>
	<path class="st1" d="M246.32,71.1c1.29,0,2.34,1.05,2.34,2.36c0,1.31-1.05,2.36-2.34,2.36c-1.29,0-2.34-1.05-2.34-2.36
		C243.98,72.15,245.03,71.1,246.32,71.1L246.32,71.1z"/>
	<path class="st1" d="M260.13,71.1c1.31,0,2.34,1.05,2.34,2.36c0,1.31-1.03,2.36-2.34,2.36c-1.29,0-2.34-1.05-2.34-2.36
		C257.79,72.15,258.84,71.1,260.13,71.1L260.13,71.1z"/>
	<path class="st1" d="M267.04,71.1c1.29,0,2.34,1.05,2.34,2.36c0,1.31-1.05,2.36-2.34,2.36c-1.31,0-2.36-1.05-2.36-2.36
		C264.68,72.15,265.73,71.1,267.04,71.1L267.04,71.1z"/>
	<path class="st1" d="M273.93,71.1c1.31,0,2.36,1.05,2.36,2.36c0,1.31-1.05,2.36-2.36,2.36c-1.29,0-2.34-1.05-2.34-2.36
		C271.59,72.15,272.65,71.1,273.93,71.1L273.93,71.1z"/>
	<path class="st1" d="M231.9,83.06c1.31,0,2.36,1.05,2.36,2.36c0,1.31-1.05,2.36-2.36,2.36c-1.29,0-2.34-1.05-2.34-2.36
		C229.55,84.11,230.61,83.06,231.9,83.06L231.9,83.06z"/>
	<path class="st1" d="M238.81,83.06c1.29,0,2.34,1.05,2.34,2.36c0,1.31-1.05,2.36-2.34,2.36c-1.31,0-2.34-1.05-2.34-2.36
		C236.47,84.11,237.5,83.06,238.81,83.06L238.81,83.06z"/>
	<path class="st1" d="M245.7,83.06c1.31,0,2.36,1.05,2.36,2.36c0,1.31-1.05,2.36-2.36,2.36c-1.29,0-2.34-1.05-2.34-2.36
		C243.36,84.11,244.41,83.06,245.7,83.06L245.7,83.06z"/>
	<path class="st1" d="M259.53,83.06c1.29,0,2.34,1.05,2.34,2.36c0,1.31-1.05,2.36-2.34,2.36c-1.31,0-2.36-1.05-2.36-2.36
		C257.17,84.11,258.22,83.06,259.53,83.06L259.53,83.06z"/>
	<path class="st1" d="M266.42,83.06c1.29,0,2.34,1.05,2.34,2.36c0,1.31-1.05,2.36-2.34,2.36c-1.29,0-2.34-1.05-2.34-2.36
		C264.08,84.11,265.13,83.06,266.42,83.06L266.42,83.06z"/>
	<path class="st1" d="M273.34,83.06c1.29,0,2.34,1.05,2.34,2.36c0,1.31-1.05,2.36-2.34,2.36c-1.31,0-2.36-1.05-2.36-2.36
		C270.98,84.11,272.03,83.06,273.34,83.06L273.34,83.06z"/>
	<path class="st1" d="M280.23,83.06c1.31,0,2.36,1.05,2.36,2.36c0,1.31-1.05,2.36-2.36,2.36c-1.29,0-2.34-1.05-2.34-2.36
		C277.89,84.11,278.94,83.06,280.23,83.06L280.23,83.06z"/>
	<path class="st2" d="M302.09,124.64L302.09,124.64L302.09,124.64c0-1.49,0.6-2.84,1.58-3.82c0.97-0.98,2.32-1.59,3.82-1.59v0h0h0v0
		c1.49,0,2.84,0.61,3.82,1.59c0.97,0.98,1.58,2.33,1.58,3.82h0v0v0h0c0,1.5-0.6,2.86-1.58,3.84c-0.97,0.98-2.32,1.59-3.82,1.59v0h0
		h0v0c-1.49,0-2.84-0.61-3.82-1.59C302.69,127.5,302.09,126.14,302.09,124.64L302.09,124.64L302.09,124.64L302.09,124.64z
		 M303.04,124.64L303.04,124.64L303.04,124.64L303.04,124.64L303.04,124.64c0,1.24,0.5,2.36,1.3,3.17c0.8,0.81,1.91,1.31,3.14,1.31
		v0h0h0v0c1.23,0,2.34-0.5,3.14-1.31c0.8-0.81,1.3-1.93,1.3-3.17h0v0v0h0c0-1.23-0.5-2.34-1.3-3.15c-0.8-0.81-1.91-1.31-3.14-1.31v0
		h0h0v0c-1.23,0-2.34,0.5-3.14,1.31C303.54,122.3,303.04,123.41,303.04,124.64L303.04,124.64z"/>
	<path class="st0" d="M306.48,124.17h0.74c0.47,0,0.78-0.04,0.89-0.07c0.13-0.04,0.22-0.11,0.29-0.2c0.07-0.11,0.11-0.24,0.11-0.38
		c0-0.16-0.05-0.31-0.15-0.4c-0.09-0.11-0.22-0.16-0.38-0.2c-0.07-0.02-0.33-0.02-0.73-0.02h-0.78V124.17L306.48,124.17z
		 M305.49,127.04v-4.97h2.1c0.53,0,0.91,0.04,1.16,0.13c0.24,0.09,0.42,0.25,0.56,0.47c0.15,0.24,0.22,0.49,0.22,0.78
		c0,0.38-0.11,0.69-0.33,0.93c-0.22,0.25-0.54,0.4-0.96,0.47c0.2,0.13,0.38,0.25,0.53,0.42c0.13,0.15,0.33,0.42,0.56,0.8l0.6,0.98
		h-1.2l-0.71-1.09c-0.25-0.4-0.44-0.63-0.53-0.74c-0.09-0.09-0.2-0.16-0.31-0.2c-0.11-0.04-0.27-0.05-0.51-0.05h-0.2v2.09H305.49
		L305.49,127.04z"/>
</g>
</svg>
