<?xml version="1.0" encoding="utf-8"?>
<!-- Generator: Adobe Illustrator 27.5.0, SVG Export Plug-In . SVG Version: 6.00 Build 0)  -->
<svg version="1.1" id="Layer_1" xmlns="http://www.w3.org/2000/svg" xmlns:xlink="http://www.w3.org/1999/xlink" x="0px" y="0px"
	 viewBox="0 0 450 220" style="enable-background:new 0 0 450 220;" xml:space="preserve">
<style type="text/css">
	.st0{fill:#00A0E0;}
</style>
<g id="g12" transform="matrix(1.25,0,0,-1.25,0,157.78504)">
	<g id="g3012">
		<path id="path16" class="st0" d="M219.4,60.12v0.75h0.64c0.29,0,0.67,0,0.67-0.3c0-0.37-0.19-0.45-0.52-0.45H219.4L219.4,60.12
			L219.4,60.12z M220.52,59.67c0.52,0.04,0.8,0.26,0.8,0.8c0,0.78-0.47,0.91-1.15,0.91h-1.44v-2.96h0.66v1.25h0.46l0.66-1.25h0.72
			L220.52,59.67L220.52,59.67z M219.88,57.69c-1.24,0-2.17,0.91-2.17,2.17c0,1.28,0.93,2.18,2.17,2.18c1.22,0,2.17-0.91,2.17-2.18
			C222.05,58.6,221.1,57.69,219.88,57.69L219.88,57.69z M219.88,57.02c1.58,0,2.85,1.27,2.85,2.85c0,1.59-1.27,2.86-2.85,2.86
			c-1.59,0-2.85-1.27-2.85-2.86C217.03,58.29,218.29,57.02,219.88,57.02L219.88,57.02z"/>
		<path id="path18" class="st0" d="M203.09,35.41h-8.48v7.4h20.72V22.1h-7.4v4.36c-3.48-2.73-7.88-4.36-12.65-4.36
			c-11.32,0-20.5,9.18-20.5,20.5c0,11.32,9.18,20.5,20.5,20.5c9.07,0,16.77-5.89,19.47-14.06h-11.04c-1.94,2.53-4.99,4.17-8.43,4.17
			c-5.86,0-10.61-4.75-10.61-10.61c0-5.86,4.75-10.61,10.61-10.61C198.37,31.99,201.15,33.31,203.09,35.41L203.09,35.41
			L203.09,35.41z"/>
		<path id="path20" class="st0" d="M148.62,35.79c0.22-1.53,0.32-2.47,1.08-3.37c1.29-1.42,3.53-1.75,6.26-1.75
			c4.12,0,6.58,1.14,6.58,3.78c0,1.46-0.86,2.74-2.25,3.31c-1.12,0.47-2.46,0.8-8.02,1.94c-4.92,0.94-6.63,1.51-8.61,2.74
			c-3.37,2.08-5.19,5.24-5.19,9.07c0,7.27,6.63,11.86,17.17,11.86c6.79,0,11.98-1.84,14.87-5.39c1.15-1.34,2.43-4.02,2.66-6.49
			l0-0.3h-11.34v0.1c-0.65,3.03-2.58,4.29-6.62,4.29c-3.26,0-5.67-1.56-5.67-3.73c0-1.32,0.8-2.32,2.51-3.02
			c1.07-0.43,1.07-0.43,7.38-1.56c4.07-0.76,6.63-1.56,8.67-2.69c3.85-2.13,5.78-5.29,5.78-9.64c0-3.54-1.28-6.57-3.74-8.69
			c-3.1-2.64-7.81-4.02-14.07-4.02c-4.55,0-9.04,0.85-11.93,2.31c-2.67,1.32-4.65,3.35-5.78,6.05c-0.51,1.07-0.83,2.72-0.89,5.21
			H148.62L148.62,35.79L148.62,35.79z"/>
		<g id="g2998">
			<path id="path22" class="st0" d="M141.86,19.52c-0.58,0.33-1.4,0.54-2.06,0.54c-1.31,0-2.27-0.87-2.27-2.21
				c0-1.27,0.71-1.55,1.78-1.86c0.37-0.1,1.04-0.27,1.04-0.75c0-0.46-0.42-0.66-0.82-0.66c-0.59,0-1.09,0.31-1.52,0.68l-0.73-1.38
				c0.67-0.47,1.48-0.75,2.31-0.75c0.66,0,1.35,0.18,1.87,0.62c0.52,0.45,0.68,1.12,0.68,1.77c0,1.06-0.71,1.52-1.62,1.79
				l-0.44,0.13c-0.3,0.1-0.76,0.24-0.76,0.63c0,0.37,0.42,0.55,0.73,0.55c0.42,0,0.82-0.17,1.13-0.44L141.86,19.52L141.86,19.52z"/>
			<path id="path24" class="st0" d="M146.25,18.45c1.02,0,1.86-0.83,1.86-1.74c0-1.13-0.84-1.96-1.86-1.96
				c-1.02,0-1.85,0.83-1.85,1.96C144.39,17.62,145.23,18.45,146.25,18.45L146.25,18.45z M146.25,20.11c-1.89,0-3.64-1.39-3.64-3.38
				c0-2.13,1.53-3.63,3.64-3.63c2.11,0,3.64,1.5,3.64,3.63C149.88,18.71,148.14,20.11,146.25,20.11L146.25,20.11z"/>
			<path id="path26" class="st0" d="M154.45,18.44v1.45h-3.77v-6.57h1.71v2.58h1.87v1.45h-1.87v1.1H154.45L154.45,18.44z"/>
			<path id="path28" class="st0" d="M158.02,18.44h1.41v1.45h-4.53v-1.45h1.41v-5.13h1.71V18.44L158.02,18.44z"/>
			<path id="path30" class="st0" d="M161.14,19.89h-1.78l1.96-6.57h1.73l1.29,3.81h0.02l1.15-3.81h1.75l2.1,6.57h-1.78l-1.24-4.25
				h-0.02l-1.29,4.25h-1.36l-1.38-4.25h-0.02L161.14,19.89L161.14,19.89L161.14,19.89z"/>
			<path id="path32" class="st0" d="M172.66,15.76h-1.42l0.7,2.09h0.02L172.66,15.76L172.66,15.76L172.66,15.76z M173.12,14.46
				l0.43-1.14h1.82l-2.47,6.57h-1.87l-2.53-6.57h1.81l0.46,1.14H173.12L173.12,14.46z"/>
			<path id="path34" class="st0" d="M177.61,18.58h0.16c0.56,0,1.19-0.1,1.19-0.82c0-0.71-0.63-0.82-1.19-0.82h-0.16V18.58
				L177.61,18.58z M179.3,16.01c0.93,0.16,1.44,0.95,1.44,1.86c0,1.4-0.99,2.02-2.28,2.02h-2.56v-6.57h1.71v2.53h0.02l1.61-2.53
				h2.13L179.3,16.01L179.3,16.01L179.3,16.01z"/>
			<path id="path36" class="st0" d="M185.57,18.44v1.45h-3.74v-6.57h3.74v1.45h-2.03v1.13h1.93v1.45h-1.93v1.1H185.57L185.57,18.44z
				"/>
			<path id="path38" class="st0" d="M192.78,16.98v-1.34h1.4c-0.07-0.76-0.64-1.14-1.38-1.14c-1.12,0-1.74,1.04-1.74,2.06
				c0,1,0.59,2.08,1.71,2.08c0.69,0,1.19-0.42,1.42-1.05l1.62,0.68c-0.57,1.23-1.61,1.84-2.97,1.84c-2.12,0-3.57-1.4-3.57-3.54
				c0-2.07,1.44-3.47,3.51-3.47c1.1,0,2.07,0.39,2.71,1.29c0.58,0.82,0.65,1.64,0.67,2.6H192.78L192.78,16.98L192.78,16.98z"/>
			<path id="path40" class="st0" d="M200.95,19.89v-3.46c0-0.85-0.06-1.79-1.16-1.79c-1.1,0-1.16,0.93-1.16,1.79v3.46h-1.71v-3.7
				c0-0.85,0.04-1.68,0.69-2.32c0.55-0.54,1.42-0.73,2.18-0.73c0.77,0,1.63,0.19,2.18,0.73c0.65,0.64,0.69,1.47,0.69,2.32v3.7
				H200.95L200.95,19.89L200.95,19.89z"/>
			<path id="path42" class="st0" d="M205.44,18.58h0.16c0.56,0,1.18-0.1,1.18-0.82c0-0.71-0.63-0.82-1.18-0.82h-0.16V18.58
				L205.44,18.58z M207.13,16.01c0.93,0.16,1.44,0.95,1.44,1.86c0,1.4-0.99,2.02-2.29,2.02h-2.55v-6.57h1.71v2.53h0.02l1.61-2.53
				h2.13L207.13,16.01L207.13,16.01L207.13,16.01z"/>
			<path id="path44" class="st0" d="M213.65,19.89v-3.46c0-0.85-0.06-1.79-1.16-1.79c-1.1,0-1.16,0.93-1.16,1.79v3.46h-1.71v-3.7
				c0-0.85,0.04-1.68,0.69-2.32c0.55-0.54,1.41-0.73,2.18-0.73c0.77,0,1.63,0.19,2.18,0.73c0.65,0.64,0.69,1.47,0.69,2.32v3.7
				H213.65L213.65,19.89z"/>
		</g>
	</g>
</g>
</svg>
