<?xml version="1.0" encoding="utf-8"?>
<!-- Generator: Adobe Illustrator 27.7.0, SVG Export Plug-In . SVG Version: 6.00 Build 0)  -->
<svg version="1.1" id="Layer_1" xmlns="http://www.w3.org/2000/svg" xmlns:xlink="http://www.w3.org/1999/xlink" x="0px" y="0px"
	 viewBox="0 0 450 220" style="enable-background:new 0 0 450 220;" xml:space="preserve">
<style type="text/css">
	.st0{fill:none;}
	.st1{fill:#FF7900;}
</style>
<rect x="-0.5" y="-1" class="st0" width="450" height="220"/>
<path d="M156,92.1c-2.4-4.4-5.8-5.5-8.9-5.5c-3.6,0-7.3,1.8-7.6,6.7c-0.2,4.7,5.3,6.9,9.1,8c9.8,2.4,20,7.3,19.3,21.8
	c-0.4,12.7-11.5,18.4-21.6,18.4c-7.1,0-16.2-3.1-21.3-15.3l9.8-5.8c3.1,6.7,8.2,9.3,12,9.3c4.9,0,8.4-3.1,8.4-7.3
	c0.4-6-5.3-8.7-9.8-9.8c-6.4-1.6-18.7-6-18.4-19.1c0.2-13.3,10.4-18.9,20.2-18.9c7.6,0,14.2,3.6,18.2,11.8L156,92.1z"/>
<rect x="219.2" y="93.7" width="12.2" height="46.2"/>
<path d="M259.2,139.9c-10.9,2-20.4-2.4-20-14.9V93.7l11.8-12v12h8.2v10h-8.2v21.1c0,3.1,3.1,5.3,8.2,4.7V139.9z"/>
<path d="M282.3,139.9c-10.2,1.8-18.4-2-18.4-14.9V76.1h12.2v49.1c0,2.4,1.1,5.1,6.2,4.7L282.3,139.9L282.3,139.9z"/>
<path d="M314,139.9v-4c-2.9,3.6-7.1,5.1-10.7,5.1c-11.8,0-18-7.1-18-16c0-10.4,9.8-15.6,19.3-15.6c2.9,0,6,0.7,8.4,1.8
	c-0.2-6.4-4.2-8.7-8.9-8.9c-4.4,0-9.6,1.6-12.2,3.8l-4.7-8c5.8-4.4,11.8-5.5,18-5.5c10.2,0,19.8,5.5,19.8,18.9v28.2H314L314,139.9
	L314,139.9z M313.4,127.5v-7.3c-2.2-0.9-5.1-1.6-7.8-1.6c-4.7,0-8.9,1.8-8.9,6C296.3,133,308.7,132.3,313.4,127.5"/>
<polygon points="201.2,93.7 213.8,93.7 198.3,139.9 182.9,139.9 167.6,93.7 180.3,93.7 190.7,127.5 "/>
<path class="st1" d="M225.2,74.6c-6.9,0-13.1,2.9-17.5,7.3l8.4,8.4c2.4-2.4,5.5-4,9.3-4c3.6,0,6.9,1.6,9.3,4l8.2-8.4
	C238.3,77.5,232,74.6,225.2,74.6"/>
</svg>
