<?xml version="1.0" encoding="utf-8"?>
<!-- Generator: Adobe Illustrator 27.5.0, SVG Export Plug-In . SVG Version: 6.00 Build 0)  -->
<svg version="1.1" id="Layer_1" xmlns="http://www.w3.org/2000/svg" xmlns:xlink="http://www.w3.org/1999/xlink" x="0px" y="0px"
	 viewBox="0 0 450 220" style="enable-background:new 0 0 450 220;" xml:space="preserve">
<style type="text/css">
	.st0{fill:#FF7900;}
</style>
<path d="M182.45,99.95c-1.51-2.75-3.57-3.43-5.5-3.43c-2.2,0-4.53,1.1-4.67,4.12c-0.14,2.88,3.3,4.26,5.63,4.95
	c6.04,1.51,12.36,4.53,11.95,13.46c-0.27,7.83-7.14,11.4-13.33,11.4c-4.4,0-10.03-1.92-13.19-9.48l6.04-3.57
	c1.92,4.12,5.08,5.77,7.42,5.77c3.02,0,5.22-1.92,5.22-4.53c0.27-3.71-3.3-5.36-6.04-6.04c-3.98-0.96-11.54-3.71-11.4-11.81
	c0.14-8.24,6.46-11.68,12.5-11.68c4.67,0,8.79,2.2,11.27,7.28L182.45,99.95z"/>
<rect x="221.47" y="100.91" width="7.56" height="28.57"/>
<path d="M246.2,129.49c-6.73,1.24-12.64-1.51-12.36-9.2v-19.37l7.28-7.42v7.42h5.08v6.18h-5.08v13.05c0,1.92,1.92,3.3,5.08,2.88
	V129.49z"/>
<path d="M260.49,129.49c-6.32,1.1-11.4-1.24-11.4-9.2V90.06h7.56v30.36c0,1.51,0.69,3.16,3.85,2.88V129.49z"/>
<path d="M280.13,129.49v-2.47c-1.79,2.2-4.4,3.16-6.59,3.16c-7.28,0-11.13-4.4-11.13-9.89c0-6.46,6.04-9.62,11.95-9.62
	c1.79,0,3.71,0.41,5.22,1.1c-0.14-3.98-2.61-5.36-5.5-5.5c-2.75,0-5.91,0.96-7.56,2.34l-2.88-4.95c3.57-2.75,7.28-3.43,11.13-3.43
	c6.32,0,12.23,3.43,12.23,11.68v17.45h-6.87V129.49z M279.72,121.79v-4.53c-1.37-0.55-3.16-0.96-4.81-0.96c-2.88,0-5.5,1.1-5.5,3.71
	C269.14,125.23,276.83,124.81,279.72,121.79"/>
<polygon points="210.34,100.91 218.17,100.91 208.56,129.49 199.08,129.49 189.6,100.91 197.43,100.91 203.89,121.79 "/>
<path class="st0" d="M225.18,89.1c-4.26,0-8.11,1.79-10.85,4.53l5.22,5.22c1.51-1.51,3.43-2.47,5.77-2.47c2.2,0,4.26,0.96,5.77,2.47
	l5.08-5.22C233.28,90.88,229.44,89.1,225.18,89.1"/>
</svg>
