<?xml version="1.0" encoding="utf-8"?>
<!-- Generator: Adobe Illustrator 27.7.0, SVG Export Plug-In . SVG Version: 6.00 Build 0)  -->
<svg version="1.1" id="Layer_1" xmlns="http://www.w3.org/2000/svg" xmlns:xlink="http://www.w3.org/1999/xlink" x="0px" y="0px"
	 viewBox="0 0 450 220" style="enable-background:new 0 0 450 220;" xml:space="preserve">
<style type="text/css">
	.st0{fill:none;}
	.st1{fill:#4500A7;}
</style>
<rect class="st0" width="450" height="220"/>
<g>
	<path class="st1" d="M230.9,104.9c1.8-1.3,3.8-2,6-2.1c1.2-0.1,2.4,0,3.6,0.2c1.9,0.3,3.7,1,5.2,2.2c2,1.7,3.7,3.6,4.6,6.1
		c0.1,0.3,0.2,0.3,0.5,0.2c2.1-0.9,4.3-1.9,6.4-2.8c0.5-0.2,1-0.4,1.6-0.7c-0.4-0.9-0.9-1.9-1.3-2.8c-1.5-3.2-3.8-5.8-6.7-7.9
		c-3.7-2.6-7.9-3.7-12.4-3.8c-1.9,0-3.7,0.2-5.5,0.6c-5.5,1.3-10,4.1-13.4,8.7c-3,4.2-4.4,9-4.8,14.1c-0.1,1.6,0,3.2,0.2,4.9
		c0.4,3.2,1.3,6.2,2.8,9.1c2.4,4.6,6,7.9,10.8,10c2,0.9,4,1.4,6.2,1.6c0.1,0,0.1,0.1,0.2,0.2c0.1,0,0.2,0,0.3,0
		c0.1-0.1,0.2-0.1,0.3-0.2c0,0,0.1-0.1,0.1-0.1c1.2,0,2.3,0,3.5,0c0,0,0.1,0,0.1,0c0,0,0.1,0,0.1,0c0.2,0,0.5,0,0.7,0
		c0.5,0,1,0,1.5,0c0.4-0.1,0.8-0.1,1.2-0.2c3.2-0.4,6-1.7,8.6-3.5c2.2-1.5,3.9-3.4,5.5-5.6c0.6-0.9,1.2-1.8,1.8-2.7
		c-0.2-0.1-0.3-0.2-0.4-0.3c-2.1-1.4-4.2-2.8-6.3-4.3c-0.3-0.2-0.4-0.1-0.6,0.1c-1.6,2.2-3.4,4.1-5.8,5.6c-3.1,1.9-6.3,2.4-9.9,1.8
		c-1.9-0.4-3.7-1.1-5.3-2.3c-3.6-2.9-5.2-6.8-5.6-11.3c-0.2-2.1,0-4.2,0.5-6.2C226.3,109.9,227.9,107,230.9,104.9z"/>
	<path class="st1" d="M87,95.4c-0.1-0.2,0.2-0.6-0.3-0.6c-0.3,0-0.6,0-1,0c0,0-0.1,0-0.1,0c-0.2,0-0.4,0-0.6,0c0,0-0.1,0-0.1,0
		c0,0-0.1,0-0.1,0c-0.1,0-0.1,0-0.2,0c0,0-0.1,0-0.1,0c-0.1,0-0.1,0-0.2,0c0,0-0.1,0-0.1,0c-0.1,0-0.1,0-0.2,0c0,0-0.1,0-0.1,0
		c-0.1,0-0.1,0-0.2,0c0,0-0.1,0-0.1,0c-0.1,0-0.1,0-0.2,0c0,0-0.1,0-0.1,0c-0.1,0-0.1,0-0.2,0c0,0-0.1,0-0.1,0c-0.1,0-0.1,0-0.2,0
		c0,0-0.1,0-0.1,0c-0.1,0-0.1,0-0.2,0c0,0-0.1,0-0.1,0c-0.1,0-0.1,0-0.2,0c0,0-0.1,0-0.1,0c-0.1,0-0.1,0-0.2,0c0,0-0.1,0-0.1,0
		c-0.1,0-0.1,0-0.2,0c0,0-0.1,0-0.1,0c-0.1,0-0.1,0-0.2,0c0,0-0.1,0-0.1,0c-0.1,0-0.1,0-0.2,0c0,0-0.1,0-0.1,0c-0.1,0-0.1,0-0.2,0
		c0,0-0.1,0-0.1,0c-0.1,0-0.1,0-0.2,0c0,0-0.1,0-0.1,0c-0.1,0-0.1,0-0.2,0c0,0-0.1,0-0.1,0c-0.1,0-0.1,0-0.2,0c0,0-0.1,0-0.1,0
		c-0.1,0-0.1,0-0.2,0c0,0-0.1,0-0.1,0c-0.1,0-0.1,0-0.2,0c0,0-0.1,0-0.1,0c-0.2,0-0.3,0-0.5,0c-0.2,0-0.4,0-0.6,0
		c-0.1,0-0.3,0-0.4,0c-0.1,0-0.1,0-0.2,0c0,0-0.1-0.1-0.1-0.1c0-0.2,0-0.4,0-0.6c0-3.2,0-6.3,0-9.5c0,0,0-0.1,0-0.1c0,0,0,0,0,0
		c-0.2,0-0.4,0-0.6,0c-0.1,0-0.2,0-0.3,0c-0.1,0-0.1,0-0.2,0c-0.5,0-0.9,0-1.4,0c-0.1,0-0.2,0.1-0.3,0.1c-1.7,0-3.5,0-5.2,0
		c-0.1,0-0.2,0-0.3-0.1c-0.3,0-0.5,0-0.8,0c-0.3,0-0.4,0.1-0.4,0.4c0,0.6,0,1.2-0.1,1.9c-0.1,1.4-0.2,2.8-0.2,4.2
		c-0.1,1.3-0.2,2.6-0.2,4c-0.1,0-0.2,0-0.2,0.1c-0.5,0-1,0-1.4,0c-0.1,0-0.1,0-0.2,0c0,0-0.1,0-0.1,0c-0.1,0-0.1,0-0.2,0
		c0,0-0.1,0-0.1,0c-0.1,0-0.1,0-0.2,0c0,0-0.1,0-0.1,0c-0.1,0-0.1,0-0.2,0c0,0-0.1,0-0.1,0c-0.1,0-0.1,0-0.2,0c0,0-0.1,0-0.1,0
		c-0.1,0-0.1,0-0.2,0c0,0-0.1,0-0.1,0c-0.1,0-0.1,0-0.2,0c0,0-0.1,0-0.1,0c-0.1,0-0.1,0-0.2,0c0,0-0.1,0-0.1,0c-0.1,0-0.1,0-0.2,0
		c0,0-0.1,0-0.1,0c-0.1,0-0.1,0-0.2,0c0,0-0.1,0-0.1,0c-0.1,0-0.1,0-0.2,0c-0.1,0-0.2,0-0.2,0c-0.1,0-0.2,0-0.3,0
		c-0.4,0-0.9,0-1.3,0c0,2.5,0,5.1,0,7.6c2.3,0,4.6,0,6.9,0c0,0.1,0,0.3,0,0.4c0,0.5,0,1,0,1.5c0,0,0,0,0,0.1c0,0,0,0,0,0
		c0,0.1,0,0.3,0,0.4c0,8.4,0,16.9,0,25.3c0,1.1,0.1,2.1,0.2,3.2c0.1,1.5,0.5,2.9,1.2,4.2c1.3,2.4,3.5,3.6,6.1,3.7
		c4,0.2,8.1,0,12.2,0c0.1,0,0.2,0,0.4,0c0-0.2,0-0.3,0-0.5c0-2.4,0-4.8,0-7.2c0-0.2-0.1-0.4-0.1-0.6c-0.1,0-0.1,0-0.2,0
		c-0.3,0-0.6,0-1,0c0,0-0.1,0-0.1,0c-0.2,0-0.4,0-0.6,0c0,0-0.1,0-0.1,0c-0.1,0-0.2,0-0.2,0c0,0-0.1,0-0.1,0c0,0-0.1,0-0.1,0
		c-0.1,0-0.1,0-0.2,0c0,0-0.1,0-0.1,0c-0.1,0-0.1,0-0.2,0c0,0-0.1,0-0.1,0c-0.1,0-0.1,0-0.2,0c0,0-0.1,0-0.1,0c-0.1,0-0.1,0-0.2,0
		c0,0-0.1,0-0.1,0c-0.1,0-0.1,0-0.2,0c0,0-0.1,0-0.1,0c-0.1,0-0.1,0-0.2,0c0,0-0.1,0-0.1,0c-0.1,0-0.1,0-0.2,0c0,0-0.1,0-0.1,0
		c-0.1,0-0.1,0-0.2,0c-0.1,0-0.2,0-0.2,0c0,0-0.1,0-0.1,0c-0.1,0-0.2,0-0.2,0c0,0-0.1,0-0.1,0c-0.1,0-0.2,0-0.2,0c0,0-0.1,0-0.1,0
		c-0.2,0-0.4,0-0.6,0c0,0-0.1,0-0.1,0c-0.7,0-1.3,0-2,0c0,0-0.1,0-0.1,0c-0.8-0.1-1.3-0.6-1.3-1.5c0-0.1,0-0.1,0-0.2
		c0-0.1,0-0.1,0-0.2c0-9.4,0-18.9,0-28.3c0-0.3,0.1-0.4,0.4-0.4c3,0,6.1,0,9.1,0c0.2,0,0.3,0,0.5,0c0-0.2,0-0.4,0-0.6
		C87,99.7,87,97.6,87,95.4z"/>
	<path class="st1" d="M390,113.2c0-1.7-0.2-3.3-0.3-5c-0.2-1.8-0.7-3.5-1.3-5.2c-1.1-2.8-2.8-5.1-5.3-6.9c-2.9-2.1-6.3-2.8-9.8-2.6
		c-1,0.1-2.1,0.2-3.1,0.4c-3.4,0.7-6.2,2.5-8.4,5.2c-1.2,1.5-2.1,3.2-2.8,5c-0.1,0.3-0.2,0.6-0.6,0.7c-0.1-0.2-0.2-0.3-0.2-0.5
		c-0.3-0.8-0.6-1.6-0.9-2.4c-1.1-2.7-2.8-4.8-5.3-6.4c-2-1.3-4.2-1.8-6.5-2c-1.6-0.2-3.1,0-4.6,0.3c-2.7,0.6-5,1.7-7.1,3.6
		c-1.7,1.6-3,3.5-4,5.5c-0.1,0.2-0.2,0.3-0.3,0.5c-0.1,0.1-0.2,0-0.3,0c0,0,0,0,0,0c0,0,0,0,0,0c0-0.1,0-0.2,0-0.3c0,0,0-0.1,0-0.1
		c0-2.7-0.1-5.5-0.1-8.3c-0.2,0-0.2,0-0.3,0c-0.1,0-0.1,0-0.2,0c-2.8,0-5.5,0-8.3,0c-0.1,0-0.2,0-0.3,0.1c0,0.1,0,0.3-0.1,0.4
		c0,0.3,0,0.7,0,1c0,0,0,0,0,0.1c0,0,0,0,0,0c0,0.1,0,0.2,0,0.2c0,0,0,0,0,0.1c0,0,0,0,0,0c0,0.1,0,0.2,0,0.2c0,0,0,0,0,0.1
		c0,0,0,0,0,0c0,0.2,0,0.3,0,0.5c0,10.4,0,20.8,0,31.2c0,3.9,0,7.8,0,11.7c0,0.1,0,0.1,0,0.2c0,0.1,0,0.1,0,0.2c0,0,0,0,0,0.1
		c0,0,0,0,0,0c0,0.1,0,0.2,0,0.2c0,0.1,0,0.2,0.1,0.3c0.1,0,0.1,0,0.2,0c2.9,0,5.8,0,8.7,0c0,0,0.1,0,0.1,0c0.2,0,0.4,0,0.6,0
		c0.1,0,0.1,0,0.2,0c0.1,0,0.2-0.1,0.3-0.1c0-0.2,0-0.5,0-0.7c0-7.4,0-14.8,0-22.1c0-1.1,0-2.2,0-3.3c0-0.2,0-0.4,0-0.6
		c0-1.4,0.3-2.7,0.7-4c0.6-2.2,1.8-4.2,3.6-5.7c2.6-2.1,5.6-2.7,8.8-2.2c3.2,0.5,5.1,2.4,6.1,5.4c0.5,1.6,0.7,3.2,0.7,4.8
		c0,9.4,0,18.7,0,28.1c0,0.2,0,0.3,0,0.5c3.2,0,6.4,0,9.6,0c0.1,0,0.3,0,0.4-0.1c0-0.2,0-0.3,0.1-0.5c0-0.1,0-0.1,0-0.2
		c0-0.1,0-0.1,0-0.2c0-0.1,0-0.1,0-0.2c0-0.1,0-0.1,0-0.2c0-0.1,0-0.1,0-0.2c0-0.1,0-0.1,0-0.2c0-0.1,0-0.1,0-0.2c0-0.1,0-0.1,0-0.2
		c0-0.1,0-0.1,0-0.2c0-0.1,0-0.1,0-0.2c0-0.1,0-0.1,0-0.2c0-0.1,0-0.1,0-0.2c0-0.1,0-0.1,0-0.2c0-0.1,0-0.1,0-0.2c0-0.1,0-0.1,0-0.2
		c0-0.1,0-0.1,0-0.2c0-0.1,0-0.1,0-0.2c0-0.1,0-0.1,0-0.2c0-0.1,0-0.1,0-0.2c0-0.1,0-0.1,0-0.2c0-0.1,0-0.1,0-0.2c0-0.1,0-0.1,0-0.2
		c0-0.1,0-0.1,0-0.2c0-0.1,0-0.1,0-0.2c0-0.1,0-0.1,0-0.2c0-0.1,0-0.1,0-0.2c0-0.1,0-0.1,0-0.2c0-0.1,0-0.1,0-0.2c0-0.1,0-0.1,0-0.2
		c0-0.1,0-0.1,0-0.2c0-0.1,0-0.1,0-0.2c0-0.1,0-0.1,0-0.2c0-0.1,0-0.1,0-0.2c0-0.1,0-0.1,0-0.2c0-0.1,0-0.1,0-0.2c0-0.1,0-0.1,0-0.2
		c0-0.1,0-0.1,0-0.2c0-0.1,0-0.1,0-0.2c0-0.1,0-0.1,0-0.2c0-0.1,0-0.1,0-0.2c0-0.1,0-0.1,0-0.2c0-0.1,0-0.1,0-0.2c0-0.1,0-0.1,0-0.2
		c0-0.1,0-0.1,0-0.2c0-0.1,0-0.1,0-0.2c0-0.1,0-0.1,0-0.2c0-0.1,0-0.1,0-0.2c0-0.1,0-0.1,0-0.2c0-0.1,0-0.1,0-0.2c0-0.1,0-0.1,0-0.2
		c0-0.1,0-0.1,0-0.2c0-0.1,0-0.1,0-0.2c0-0.1,0-0.1,0-0.2c0-0.1,0-0.1,0-0.2c0-0.1,0-0.1,0-0.2c0-0.1,0-0.1,0-0.2c0-0.1,0-0.1,0-0.2
		c0-0.1,0-0.1,0-0.2c0-0.1,0-0.1,0-0.2c0-0.1,0-0.1,0-0.2c0-0.1,0-0.1,0-0.2c0-0.1,0-0.1,0-0.2c0-0.1,0-0.1,0-0.2c0-0.1,0-0.1,0-0.2
		c0-0.1,0-0.1,0-0.2c0-0.1,0-0.1,0-0.2c0-0.1,0-0.1,0-0.2c0-0.1,0-0.1,0-0.2c0-0.1,0-0.1,0-0.2c0-0.1,0-0.1,0-0.2c0-0.1,0-0.1,0-0.2
		c0-0.1,0-0.1,0-0.2c0-0.1,0-0.1,0-0.2c0-0.1,0-0.1,0-0.2c0-0.1,0-0.1,0-0.2c0-0.1,0-0.1,0-0.2c0-0.1,0-0.1,0-0.2c0-0.1,0-0.1,0-0.2
		c0-0.1,0-0.1,0-0.2c0-0.1,0-0.1,0-0.2c0-0.1,0-0.1,0-0.2c0-0.1,0-0.1,0-0.2c0-0.1,0-0.1,0-0.2c0-0.1,0-0.1,0-0.2c0-0.1,0-0.1,0-0.2
		c0-0.1,0-0.1,0-0.2c0-0.1,0-0.1,0-0.2c0-0.1,0-0.1,0-0.2c0-0.1,0-0.1,0-0.2c0-0.1,0-0.1,0-0.2c0-0.1,0-0.1,0-0.2c0-0.1,0-0.1,0-0.2
		c0-0.1,0-0.1,0-0.2c0-0.1,0-0.1,0-0.2c0-0.1,0-0.1,0-0.2c0-0.1,0-0.1,0-0.2c0-0.1,0-0.1,0-0.2c0-0.1,0-0.1,0-0.2c0-0.1,0-0.1,0-0.2
		c0-0.1,0-0.1,0-0.2c0-0.1,0-0.1,0-0.2c0-0.1,0-0.1,0-0.2c0-0.1,0-0.1,0-0.2c0-0.1,0-0.1,0-0.2c0-0.1,0-0.1,0-0.2c0-0.1,0-0.1,0-0.2
		c0-0.1,0-0.1,0-0.2c0-0.1,0-0.1,0-0.2c0-0.1,0-0.1,0-0.2c0-0.1,0-0.1,0-0.2c0-0.1,0-0.1,0-0.2c0-0.1,0-0.1,0-0.2c0-0.1,0-0.1,0-0.2
		c0-0.1,0-0.1,0-0.2c0-0.1,0-0.1,0-0.2c0-0.1,0-0.1,0-0.2c0-0.1,0-0.1,0-0.2c0-0.1,0-0.1,0-0.2c0-0.1,0-0.1,0-0.2c0-0.1,0-0.1,0-0.2
		c0-0.1,0-0.1,0-0.2c0-0.1,0-0.1,0-0.2c0-0.1,0-0.1,0-0.2c0-0.1,0-0.1,0-0.2c0-0.1,0-0.1,0-0.2c0-0.1,0-0.1,0-0.2c0-0.1,0-0.1,0-0.2
		c0-0.1,0-0.1,0-0.2c0-0.1,0-0.1,0-0.2c0-0.1,0-0.1,0-0.2c0-0.1,0-0.1,0-0.2c0-0.1,0-0.1,0-0.2c0-0.1,0-0.1,0-0.2c0-0.1,0-0.1,0-0.2
		c0-0.1,0-0.1,0-0.2c0-0.1,0-0.1,0-0.2c0-0.1,0-0.1,0-0.2c0-0.1,0-0.1,0-0.2c0-0.1,0-0.1,0-0.2c0-0.1,0-0.1,0-0.2c0-0.1,0-0.1,0-0.2
		c0-0.1,0-0.1,0-0.2c0-0.1,0-0.1,0-0.2c0-0.1,0-0.1,0-0.2c0-0.1,0-0.1,0-0.2c0-0.1,0-0.1,0-0.2c0-0.1,0-0.1,0-0.2c0-0.1,0-0.1,0-0.2
		c0-0.1,0-0.1,0-0.2c0-0.1,0-0.1,0-0.2c0-0.1,0-0.1,0-0.2c0-0.1,0-0.1,0-0.2c0-0.1,0-0.1,0-0.2c0-0.1,0-0.1,0-0.2c0-0.1,0-0.1,0-0.2
		c0-0.1,0-0.1,0-0.2c0-0.1,0-0.1,0-0.2c0-0.1,0-0.1,0-0.2c0-0.1,0-0.1,0-0.2c0-0.1,0-0.1,0-0.2c0-0.1,0-0.1,0-0.2
		c0-0.4,0-0.8,0.1-1.1c0.3-2,0.7-4,1.7-5.8c1.3-2.2,2.9-3.9,5.3-4.9c2.2-0.9,4.4-1,6.7-0.5c1.9,0.4,3.4,1.3,4.4,3
		c0.5,0.8,0.9,1.7,1.2,2.6c0.6,1.6,0.6,3.3,0.7,5c0,0.4,0,0.8,0,1.2c0,0,0,0.1,0,0.1c0,0.1,0,0.1,0,0.2c0,0,0,0.1,0,0.1
		c0,0.1,0,0.1,0,0.2c0,0,0,0.1,0,0.1c0,0.1,0,0.1,0,0.2c0,0,0,0.1,0,0.1c0,0.2,0,0.3,0,0.5c0,0,0,0.1,0,0.1c0,0.1,0,0.1,0,0.2
		c0,0,0,0.1,0,0.1c0,0.1,0,0.1,0,0.2c0,0,0,0.1,0,0.1c0,0.1,0,0.1,0,0.2c0,0,0,0.1,0,0.1c0,0.1,0,0.1,0,0.2c0,0,0,0.1,0,0.1
		c0,0.1,0,0.1,0,0.2c0,0,0,0.1,0,0.1c0,0.1,0,0.1,0,0.2c0,0,0,0.1,0,0.1c0,0.1,0,0.1,0,0.2c0,0,0,0.1,0,0.1c0,0.1,0,0.1,0,0.2
		c0,0,0,0.1,0,0.1c0,0.1,0,0.1,0,0.2c0,0,0,0.1,0,0.1c0,0.1,0,0.1,0,0.2c0,0,0,0.1,0,0.1c0,0.1,0,0.1,0,0.2c0,0,0,0.1,0,0.1
		c0,0.1,0,0.1,0,0.2c0,0,0,0.1,0,0.1c0,0.1,0,0.1,0,0.2c0,0,0,0.1,0,0.1c0,0.1,0,0.1,0,0.2c0,0,0,0.1,0,0.1c0,0.1,0,0.1,0,0.2
		c0,0,0,0.1,0,0.1c0,0.1,0,0.1,0,0.2c0,0,0,0.1,0,0.1c0,0.1,0,0.1,0,0.2c0,0,0,0.1,0,0.1c0,0.1,0,0.1,0,0.2c0,0,0,0.1,0,0.1
		c0,0.1,0,0.1,0,0.2c0,0,0,0.1,0,0.1c0,0.1,0,0.1,0,0.2c0,0,0,0.1,0,0.1c0,0.1,0,0.1,0,0.2c0,0,0,0.1,0,0.1c0,0.1,0,0.1,0,0.2
		c0,0,0,0.1,0,0.1c0,0.1,0,0.1,0,0.2c0,0,0,0.1,0,0.1c0,0.1,0,0.1,0,0.2c0,0,0,0.1,0,0.1c0,0.1,0,0.1,0,0.2c0,0,0,0.1,0,0.1
		c0,0.1,0,0.1,0,0.2c0,0,0,0.1,0,0.1c0,0.1,0,0.1,0,0.2c0,0,0,0.1,0,0.1c0,0.1,0,0.1,0,0.2c0,0,0,0.1,0,0.1c0,0.1,0,0.1,0,0.2
		c0,0,0,0.1,0,0.1c0,0.1,0,0.1,0,0.2c0,0,0,0.1,0,0.1c0,0.1,0,0.1,0,0.2c0,0,0,0.1,0,0.1c0,0.1,0,0.1,0,0.2c0,0,0,0.1,0,0.1
		c0,0.1,0,0.1,0,0.2c0,0,0,0.1,0,0.1c0,0.1,0,0.1,0,0.2c0,0,0,0.1,0,0.1c0,0.1,0,0.1,0,0.2c0,0,0,0.1,0,0.1c0,0.1,0,0.1,0,0.2
		c0,0,0,0.1,0,0.1c0,0.1,0,0.1,0,0.2c0,0,0,0.1,0,0.1c0,0.1,0,0.1,0,0.2c0,0,0,0.1,0,0.1c0,0.1,0,0.1,0,0.2c0,0,0,0.1,0,0.1
		c0,0.1,0,0.1,0,0.2c0,0,0,0.1,0,0.1c0,0.1,0,0.1,0,0.2c0,0,0,0.1,0,0.1c0,0.1,0,0.1,0,0.2c0,0,0,0.1,0,0.1c0,0.1,0,0.1,0,0.2
		c0,0,0,0.1,0,0.1c0,0.1,0,0.1,0,0.2c0,0,0,0.1,0,0.1c0,0.1,0,0.1,0,0.2c0,0,0,0.1,0,0.1c0,0.1,0,0.1,0,0.2c0,0,0,0.1,0,0.1
		c0,0.1,0,0.1,0,0.2c0,0,0,0.1,0,0.1c0,0.1,0,0.1,0,0.2c0,0,0,0.1,0,0.1c0,0.1,0,0.1,0,0.2c0,0,0,0.1,0,0.1c0,0.1,0,0.1,0,0.2
		c0,0,0,0.1,0,0.1c0,0.1,0,0.1,0,0.2c0,0,0,0.1,0,0.1c0,0.1,0,0.1,0,0.2c0,0,0,0.1,0,0.1c0,0.1,0,0.1,0,0.2c0,0,0,0.1,0,0.1
		c0,0.1,0,0.1,0,0.2c0,0,0,0.1,0,0.1c0,0.1,0,0.1,0,0.2c0,0,0,0.1,0,0.1c0,0.1,0,0.1,0,0.2c0,0,0,0.1,0,0.1c0,0.1,0,0.1,0,0.2
		c0,0,0,0.1,0,0.1c0,0.1,0,0.1,0,0.2c0,0,0,0.1,0,0.1c0,0.1,0,0.1,0,0.2c0,0,0,0.1,0,0.1c0,0.1,0,0.1,0,0.2c0,0,0,0.1,0,0.1
		c0,0.1,0,0.1,0,0.2c0,0,0,0.1,0,0.1c0,0.1,0,0.1,0,0.2c0,0,0,0.1,0,0.1c0,0.1,0,0.1,0,0.2c0,0,0,0.1,0,0.1c0,0.1,0,0.1,0,0.2
		c0,0,0,0.1,0,0.1c0,0.1,0,0.1,0,0.2c0,0,0,0.1,0,0.1c0,0.1,0,0.1,0,0.2c0,0,0,0.1,0,0.1c0,0.1,0,0.1,0,0.2c0,0,0,0.1,0,0.1
		c0,0.1,0,0.1,0,0.2c0,0,0,0.1,0,0.1c0,0.1,0,0.1,0,0.2c0,0,0,0.1,0,0.1c0,0.1,0,0.1,0,0.2c0,0,0,0.1,0,0.1c0,0.1,0,0.1,0,0.2
		c0,0,0,0.1,0,0.1c0,0.1,0,0.1,0,0.2c0,0,0,0.1,0,0.1c0,0.1,0,0.1,0,0.2c0,0,0,0.1,0,0.1c0,0.1,0,0.1,0,0.2c0,0,0,0.1,0,0.1
		c0,0.1,0,0.1,0,0.2c0,0,0,0.1,0,0.1c0,0.1,0,0.1,0,0.2c0,0.2,0,0.4,0,0.5c0,0.1,0,0.1,0,0.2c0.1,0,0.2,0.1,0.3,0.1
		c3.1,0,6.1,0,9.2,0c0.2,0,0.3-0.1,0.5-0.1c0-0.2,0-0.3,0-0.5C390,131.5,390,122.3,390,113.2z"/>
	<path class="st1" d="M207.6,121.6c0-0.1,0-0.1,0-0.2c0-0.1,0-0.1,0-0.2c0-1.5,0-3.1,0-4.6c0,0,0-0.1,0-0.1c0-1.9-0.2-3.8-0.6-5.6
		c-0.7-3.3-1.8-6.3-3.8-9c-1.7-2.5-4-4.4-6.7-5.8c-2.5-1.3-5.2-2.1-8-2.4c-1.5-0.1-3.1,0-4.7,0.1c-3,0.3-5.8,1.2-8.5,2.7
		c-3.6,2.1-6.5,5-8.6,8.6c-2.1,3.6-3.2,7.5-3.6,11.7c-0.2,2.1,0,4.2,0.4,6.2c0.5,2.6,1.3,5.1,2.5,7.4c2.2,4.1,5.5,7.2,9.6,9.3
		c2.3,1.2,4.7,2,7.3,2.4c0.5,0.1,1,0.2,1.5,0.2c0,0,0,0,0.1,0c0.1,0,0.1-0.1,0.2-0.1c0.7,0.1,1.4,0.1,2.1,0.2c0.2,0,0.3,0,0.5,0
		c0.1,0,0.1-0.1,0.2-0.1c1.1,0,2.1-0.1,3.2-0.1c0,0,0.1,0,0.1,0c0,0,0,0,0.1,0c0.1,0,0.1,0,0.2,0c2.8-0.4,5.5-1.3,8.1-2.7
		c2.9-1.5,5.3-3.6,7.4-6c0.2-0.3,0.2-0.5,0-0.8c-1.8-1.8-3.5-3.5-5.3-5.3c-0.3-0.3-0.4-0.2-0.6,0c-1.5,1.6-3.3,2.9-5.2,4
		c-2,1.1-4,1.8-6.3,1.8c-0.1,0-0.3,0-0.4,0c-0.2,0-0.3,0-0.5,0c-0.2,0-0.5,0-0.7,0c0,0-0.1,0-0.1,0c0,0-0.1,0-0.1,0
		c-0.1,0-0.3,0-0.4,0c-0.1,0-0.2,0-0.3,0c-2-0.1-3.9-0.6-5.7-1.4c-3.2-1.4-5.6-3.6-6.9-6.8c-0.4-0.9-0.5-1.9-0.7-2.8
		c0.1,0,0.2,0,0.2-0.1c0.1,0,0.1,0,0.2,0c0,0,0.1,0,0.1,0c0.1,0,0.1,0,0.2,0c0,0,0.1,0,0.1,0c0.7,0,1.4,0,2.2,0c0,0,0.1,0,0.1,0
		c0.1,0,0.3,0,0.4,0c7.7,0,15.4,0,23,0c2.5,0,4.9,0,7.4,0c0,0,0.1,0,0.1,0c0.1,0,0.2,0,0.2,0c0.1,0,0.2,0,0.3,0c0,0,0,0,0-0.1
		c0-0.1,0-0.2,0-0.3c0,0,0-0.1,0-0.1C207.6,121.8,207.6,121.7,207.6,121.6z M197.8,114.4c-8.2,0-16.5,0-24.7,0
		c0.1-0.4,0.1-0.8,0.2-1.2c0.9-3.7,2.9-6.6,6.2-8.6c2.2-1.3,4.6-1.9,7.2-1.7c2.1,0.1,4.1,0.5,5.9,1.7c2.3,1.4,3.8,3.4,4.6,6
		c0.3,1.1,0.6,2.2,0.6,3.3c0,0.1,0.1,0.2,0.1,0.3C197.8,114.2,197.8,114.3,197.8,114.4z"/>
	<path class="st1" d="M135.4,121.8c0-1.7,0-3.5,0-5.2c0,0,0-0.1,0-0.1c0-0.5-0.1-1.1-0.1-1.6c0-0.6,0-1.1-0.1-1.7
		c-0.3-2.1-0.8-4.2-1.5-6.2c-1.4-3.8-3.7-7-7-9.4c-3.6-2.6-7.7-3.8-12.1-3.9c-0.6,0-1.2,0-1.8,0.1c-0.7,0-1.4,0.1-2.1,0.2
		c-3.5,0.6-6.8,1.9-9.7,4.1c-2.9,2.1-5.1,4.7-6.8,7.8c-1.4,2.6-2.4,5.3-2.8,8.2c-0.1,0.9-0.3,1.8-0.3,2.7c-0.1,2.3,0,4.6,0.4,6.8
		c0.5,2.3,1.1,4.4,2.2,6.5c1.9,3.7,4.6,6.7,8.2,8.8c2.9,1.8,6,3,9.4,3.4c0.4,0,0.8,0.1,1.2,0.2c0.6,0,1.3,0,1.9,0
		c0,0,0.1-0.1,0.1-0.1c0.9,0,1.9-0.1,2.8-0.1c0.4,0,0.9,0,1.3,0c1.7-0.2,3.3-0.6,4.9-1.2c4.3-1.6,8-4,10.8-7.6
		c0.2-0.2,0.2-0.4,0-0.6c-1.8-1.8-3.6-3.6-5.4-5.4c-0.2-0.2-0.4-0.2-0.6,0c-1.4,1.6-3,2.7-4.8,3.8c-1.9,1.1-3.8,1.9-6,2.1
		c-1.1,0.1-2.2,0.1-3.4,0c-2.2-0.1-4.4-0.7-6.4-1.7c-3.1-1.5-5.2-3.8-6.4-7c-0.3-0.7-0.4-1.5-0.6-2.3c0.3,0,0.5,0,0.6,0
		c0,0,0.1,0,0.1,0c0.2,0,0.3,0,0.5,0c0,0,0.1,0,0.1,0c0.1,0,0.1,0,0.2,0c10.9,0,21.8,0,32.8,0C135.2,122.3,135.4,122.2,135.4,121.8
		C135.4,121.9,135.4,121.8,135.4,121.8z M100.7,114.4c0.1-0.4,0.2-0.8,0.3-1.2c1.3-5.4,4.7-8.7,10.1-10c1.1-0.3,2.3-0.3,3.5-0.3
		c2,0,3.9,0.6,5.7,1.6c1.9,1.1,3.2,2.7,4.1,4.7c0.6,1.3,1,2.7,1.1,4.2c0,0.3,0.1,0.7,0.1,1C117.3,114.4,109,114.4,100.7,114.4z"/>
	<path class="st1" d="M159.9,133c-0.2,0-0.3,0-0.5,0c-0.5,0-1,0-1.4,0c-1.5,0-2.9,0-4.4,0c-0.7,0-1.1-0.3-1.2-1c0-0.2,0-0.4,0-0.6
		c0-0.1,0-0.1,0-0.2c0-0.1,0-0.1,0-0.2c0-0.1,0-0.1,0-0.2c0-0.1,0-0.1,0-0.2c0-0.1,0-0.1,0-0.2c0-0.1,0-0.1,0-0.2c0-0.1,0-0.1,0-0.2
		c0-0.1,0-0.1,0-0.2c0-0.1,0-0.1,0-0.2c0-0.1,0-0.1,0-0.2c0-0.1,0-0.1,0-0.2c0-0.1,0-0.1,0-0.2c0-0.1,0-0.1,0-0.2c0-0.1,0-0.1,0-0.2
		c0-0.1,0-0.1,0-0.2c0-0.1,0-0.1,0-0.2c0-0.1,0-0.1,0-0.2c0-0.1,0-0.1,0-0.2c0-0.1,0-0.1,0-0.2c0-0.1,0-0.1,0-0.2c0-0.1,0-0.1,0-0.2
		c0-0.1,0-0.1,0-0.2c0-0.1,0-0.1,0-0.2c0-0.1,0-0.1,0-0.2c0-0.1,0-0.1,0-0.2c0-0.1,0-0.1,0-0.2c0-0.1,0-0.1,0-0.2c0-0.1,0-0.1,0-0.2
		c0-0.1,0-0.1,0-0.2c0-0.1,0-0.1,0-0.2c0-0.1,0-0.1,0-0.2c0-0.1,0-0.1,0-0.2c0-0.1,0-0.1,0-0.2c0-0.1,0-0.1,0-0.2c0-0.1,0-0.1,0-0.2
		c0-0.1,0-0.1,0-0.2c0-0.1,0-0.1,0-0.2c0-0.1,0-0.1,0-0.2c0-0.1,0-0.1,0-0.2c0-0.1,0-0.1,0-0.2c0-0.1,0-0.1,0-0.2c0-0.1,0-0.1,0-0.2
		c0-0.1,0-0.1,0-0.2c0-0.1,0-0.1,0-0.2c0-0.1,0-0.1,0-0.2c0-0.1,0-0.1,0-0.2c0-0.1,0-0.1,0-0.2c0-0.1,0-0.1,0-0.2c0-0.1,0-0.1,0-0.2
		c0-0.1,0-0.1,0-0.2c0-0.1,0-0.1,0-0.2c0-0.1,0-0.1,0-0.2c0-0.1,0-0.1,0-0.2c0-0.1,0-0.1,0-0.2c0-0.1,0-0.1,0-0.2c0-0.1,0-0.1,0-0.2
		c0-0.1,0-0.1,0-0.2c0-0.1,0-0.1,0-0.2c0-0.1,0-0.1,0-0.2c0-0.1,0-0.1,0-0.2c0-0.1,0-0.1,0-0.2c0-0.1,0-0.1,0-0.2c0-0.1,0-0.1,0-0.2
		c0-0.1,0-0.1,0-0.2c0-0.1,0-0.1,0-0.2c0-0.1,0-0.1,0-0.2c0-0.1,0-0.1,0-0.2c0-0.1,0-0.1,0-0.2c0-0.1,0-0.1,0-0.2c0-0.1,0-0.1,0-0.2
		c0-0.1,0-0.1,0-0.2c0-0.1,0-0.1,0-0.2c0-0.1,0-0.1,0-0.2c0-0.1,0-0.1,0-0.2c0-0.1,0-0.1,0-0.2c0-0.1,0-0.1,0-0.2c0-0.1,0-0.1,0-0.2
		c0-0.1,0-0.1,0-0.2c0-0.1,0-0.1,0-0.2c0-0.1,0-0.1,0-0.2c0-0.1,0-0.1,0-0.2c0-0.1,0-0.1,0-0.2c0-0.1,0-0.1,0-0.2c0-0.1,0-0.1,0-0.2
		c0-0.1,0-0.1,0-0.2c0-0.1,0-0.1,0-0.2c0-0.1,0-0.1,0-0.2c0-0.1,0-0.1,0-0.2c0-0.1,0-0.1,0-0.2c0-0.1,0-0.1,0-0.2c0-0.1,0-0.1,0-0.2
		c0-0.1,0-0.1,0-0.2c0-0.1,0-0.1,0-0.2c0-0.1,0-0.1,0-0.2c0-0.1,0-0.1,0-0.2c0-0.1,0-0.1,0-0.2c0-0.1,0-0.1,0-0.2c0-0.1,0-0.1,0-0.2
		c0-0.1,0-0.1,0-0.2c0-0.1,0-0.1,0-0.2c0-0.1,0-0.1,0-0.2c0-0.1,0-0.1,0-0.2c0-0.1,0-0.1,0-0.2c0-0.1,0-0.1,0-0.2c0-0.1,0-0.1,0-0.2
		c0-0.1,0-0.1,0-0.2c0-0.1,0-0.1,0-0.2c0-0.1,0-0.1,0-0.2c0-0.1,0-0.1,0-0.2c0-0.1,0-0.1,0-0.2c0-0.1,0-0.1,0-0.2c0-0.1,0-0.1,0-0.2
		c0-0.1,0-0.1,0-0.2c0-0.1,0-0.1,0-0.2c0-0.1,0-0.1,0-0.2c0-0.1,0-0.1,0-0.2c0-0.1,0-0.1,0-0.2c0-0.1,0-0.1,0-0.2c0-0.1,0-0.1,0-0.2
		c0-0.1,0-0.1,0-0.2c0-0.1,0-0.1,0-0.2c0-0.1,0-0.1,0-0.2c0-0.1,0-0.1,0-0.2c0-0.1,0-0.1,0-0.2c0-0.1,0-0.1,0-0.2c0-0.1,0-0.1,0-0.2
		c0-0.1,0-0.1,0-0.2c0-0.1,0-0.1,0-0.2c0-0.1,0-0.1,0-0.2c0-0.1,0-0.1,0-0.2c0-0.1,0-0.1,0-0.2c0-0.1,0-0.1,0-0.2c0-0.1,0-0.1,0-0.2
		c0-0.1,0-0.1,0-0.2c0-0.1,0-0.1,0-0.2c0-0.1,0-0.1,0-0.2c0-0.1,0-0.1,0-0.2c0-0.1,0-0.1,0-0.2c0-0.1,0-0.1,0-0.2c0-0.1,0-0.1,0-0.2
		c0-0.1,0-0.1,0-0.2c0-0.1,0-0.1,0-0.2c0-0.1,0-0.1,0-0.2c0-0.1,0-0.1,0-0.2c0-0.1,0-0.1,0-0.2c0-0.1,0-0.1,0-0.2c0-0.1,0-0.1,0-0.2
		c0-0.1,0-0.1,0-0.2c0-0.1,0-0.1,0-0.2c0-0.1,0-0.1,0-0.2c0-0.1,0-0.1,0-0.2c0-0.1,0-0.1,0-0.2c0-0.1,0-0.1,0-0.2c0-0.1,0-0.1,0-0.2
		c0-0.1,0-0.1,0-0.2c0-0.1,0-0.1,0-0.2c0-0.1,0-0.1,0-0.2c0-0.1,0-0.1,0-0.2c0-0.1,0-0.1,0-0.2c0-0.1,0-0.1,0-0.2c0-0.1,0-0.1,0-0.2
		c0-0.1,0-0.1,0-0.2c0-0.1,0-0.1,0-0.2c0-0.1,0-0.1,0-0.2c0-0.1,0-0.1,0-0.2c0-0.1,0-0.1,0-0.2c0-0.1,0-0.1,0-0.2c0-0.1,0-0.1,0-0.2
		c0-0.1,0-0.1,0-0.2c0-0.1,0-0.1,0-0.2c0-0.1,0-0.1,0-0.2c0-0.1,0-0.1,0-0.2c0-0.1,0-0.1,0-0.2c0-0.1,0-0.1,0-0.2c0-0.1,0-0.1,0-0.2
		c0-0.1,0-0.1,0-0.2c0-0.1,0-0.1,0-0.2c0-0.1,0-0.1,0-0.2c0-0.1,0-0.1,0-0.2c0-0.1,0-0.1,0-0.2c0-0.1,0-0.1,0-0.2c0-0.1,0-0.1,0-0.2
		c0-0.1,0-0.1,0-0.2c0-0.1,0-0.1,0-0.2c0-0.1,0-0.1,0-0.2c0-0.1,0-0.1,0-0.2c0-0.1,0-0.1,0-0.2c0-0.1,0-0.1,0-0.2c0-0.1,0-0.1,0-0.2
		c0-0.1,0-0.1,0-0.2c0-0.1,0-0.1,0-0.2c0-0.1,0-0.1,0-0.2c0-0.1,0-0.1,0-0.2c0-0.1,0-0.1,0-0.2c0-0.1,0-0.1,0-0.2c0-0.1,0-0.1,0-0.2
		c0-0.1,0-0.1,0-0.2c0-0.1,0-0.1,0-0.2c0-0.1,0-0.1,0-0.2c0-0.1,0-0.1,0-0.2c0-0.1,0-0.1,0-0.2c0-0.1,0-0.1,0-0.2c0-0.1,0-0.1,0-0.2
		c0-0.1,0-0.1,0-0.2c0-0.1,0-0.1,0-0.2c0-0.1,0-0.1,0-0.2c0-0.1,0-0.1,0-0.2c0-0.1,0-0.1,0-0.2c0-0.1,0-0.1,0-0.2c0-0.1,0-0.1,0-0.2
		c0-0.1,0-0.1,0-0.2c0-0.1,0-0.1,0-0.2c0-0.1,0-0.1,0-0.2c0-0.1,0-0.1,0-0.2c0-0.1,0-0.1,0-0.2c0-0.1,0-0.1,0-0.2c0-0.1,0-0.1,0-0.2
		c0-0.1,0-0.1,0-0.2c0-0.1,0-0.1,0-0.2c0-0.1,0-0.1,0-0.2c0-0.1,0-0.1,0-0.2c0-0.1,0-0.1,0-0.2c0-0.1,0-0.1,0-0.2c0-0.1,0-0.1,0-0.2
		c0-0.1,0-0.1,0-0.2c0-0.1,0-0.1,0-0.2c0-0.1,0-0.1,0-0.2c0-0.1,0-0.1,0-0.2c0-0.1,0-0.1,0-0.2c0-0.1,0-0.1,0-0.2c0-0.1,0-0.1,0-0.2
		c0-0.1,0-0.1,0-0.2c0-0.1,0-0.1,0-0.2c0-0.1,0-0.1,0-0.2c0-0.1,0-0.1,0-0.2c0-0.1,0-0.1,0-0.2c0-0.1,0-0.1,0-0.2c0-0.1,0-0.1,0-0.2
		c0-0.1,0-0.1,0-0.2c0-0.1,0-0.1,0-0.2c0-0.1,0-0.1,0-0.2c0-0.1,0-0.1,0-0.2c0-0.1,0-0.1,0-0.2c0-0.1,0-0.1,0-0.2c0-0.1,0-0.1,0-0.2
		c0-0.1,0-0.1,0-0.2c0-0.1,0-0.1,0-0.2c0-0.1,0-0.1,0-0.2c0-0.1,0-0.1,0-0.2c0-0.1,0-0.1,0-0.2c0-0.1,0-0.1,0-0.2c0-0.1,0-0.1,0-0.2
		c0-0.1,0-0.1,0-0.2c0-0.1,0-0.1,0-0.2c0-0.1,0-0.1,0-0.2c0-0.1,0-0.1,0-0.2c0-0.1,0-0.1,0-0.2c0-0.1,0-0.1,0-0.2c0-0.1,0-0.1,0-0.2
		c0-0.1,0-0.1,0-0.2c0-0.1,0-0.1,0-0.2c0-0.1,0-0.1,0-0.2c0-0.1,0-0.1,0-0.2c0-0.1,0-0.1,0-0.2c0-0.1,0-0.1,0-0.2c0-0.1,0-0.1,0-0.2
		c0-0.1,0-0.1,0-0.2c0-0.1,0-0.1,0-0.2c0-0.1,0-0.1,0-0.2c0-0.1,0-0.1,0-0.2c0-0.1,0-0.1,0-0.2c0-0.1,0-0.1,0-0.2c0-0.1,0-0.1,0-0.2
		c0-0.1,0-0.1,0-0.2c0-0.1,0-0.1,0-0.2c0-0.1,0-0.1,0-0.2c0-0.1,0-0.1,0-0.2c0-0.1,0-0.1,0-0.2c0-0.1,0-0.1,0-0.2c0-0.1,0-0.1,0-0.2
		c0-0.1,0-0.1,0-0.2c0-0.1,0-0.1,0-0.2c0-0.1,0-0.1,0-0.2c0-0.1,0-0.1,0-0.2c0-0.1,0-0.1,0-0.2c0-0.1,0-0.1,0-0.2c0-0.1,0-0.1,0-0.2
		c0-0.1,0-0.1,0-0.2c0-0.1,0-0.1,0-0.2c0-0.1,0-0.1,0-0.2c0-0.1,0-0.1,0-0.2c0-0.1,0-0.1,0-0.2c0-0.1,0-0.1,0-0.2c0-0.1,0-0.1,0-0.2
		c0-0.1,0-0.1,0-0.2c0-0.1,0-0.1,0-0.2c0-0.1,0-0.1,0-0.2c0-0.1,0-0.1,0-0.2c0-0.1,0-0.1,0-0.2c0-0.1,0-0.1,0-0.2c0-0.1,0-0.1,0-0.2
		c0-0.1,0-0.1,0-0.2c0-0.1,0-0.1,0-0.2c0-0.1,0-0.1,0-0.2c0-0.1,0-0.1,0-0.2c0-0.1,0-0.1,0-0.2c0-0.1,0-0.1,0-0.2c0-0.1,0-0.1,0-0.2
		c0-0.1,0-0.1,0-0.2c0-0.1,0-0.1,0-0.2c0-0.1,0-0.1,0-0.2c0-0.1,0-0.1,0-0.2c0-0.1,0-0.1,0-0.2c0-0.1,0-0.1,0-0.2c0-0.1,0-0.1,0-0.2
		c0-0.1,0-0.1,0-0.2c0-0.1,0-0.1,0-0.2c0-0.1,0-0.1,0-0.2c0-0.1,0-0.1,0-0.2c0-0.1,0-0.1,0-0.2c0-0.1,0-0.1,0-0.2c0-0.1,0-0.1,0-0.2
		c0-0.1,0-0.1,0-0.2c0-0.1,0-0.1,0-0.2c0-0.1,0-0.1,0-0.2c0-0.1,0-0.1,0-0.2c0-0.1,0-0.1,0-0.2c0-0.1,0-0.1,0-0.2c0-0.1,0-0.1,0-0.2
		c0-0.1,0-0.1,0-0.2c0-0.1,0-0.1,0-0.2c0-0.1,0-0.1,0-0.2c0-0.1,0-0.1,0-0.2c0-0.1,0-0.1,0-0.2c0-0.1,0-0.1,0-0.2c0-0.1,0-0.1,0-0.2
		c-0.1,0-0.3-0.1-0.4-0.1c-3.1,0-6.2,0-9.3,0c-0.1,0-0.2,0.1-0.3,0.1c0,0.5,0,1.1,0,1.6c0,17.4,0,34.9,0,52.3c0,0.1,0,0.3-0.1,0.4
		c0,0.3,0,0.7,0.1,1c0.1,1,0.2,2,0.5,2.9c0.9,3.3,2.9,5.1,6.7,5.4c0,0,0.1,0,0.1,0c0.1,0,0.3,0,0.4,0c2.9,0,5.8,0,8.7,0
		c0,0,0.1,0,0.1,0c0.2,0,0.4,0,0.6,0c0.1,0,0.1,0,0.2,0c0.3,0.1,0.5-0.1,0.5-0.4c0-0.6,0-1.3,0-1.9c0-1.8,0-3.6,0-5.4
		c0-0.2-0.1-0.4-0.1-0.6C160,133,160,133,159.9,133z"/>
	<path class="st1" d="M312.4,118.3c0-0.1,0-0.1,0-0.2c0-0.2-0.1-0.5-0.1-0.7c-0.1,0-0.2,0-0.2,0c-0.1,0-0.1,0-0.2,0
		c-0.1,0-0.1,0-0.2,0c-0.1,0-0.2,0-0.3,0c-0.1,0-0.1,0-0.2,0c-0.1,0-0.1,0-0.2,0c0,0-0.1,0-0.1,0c-2.2,0-4.5,0-6.7,0
		c-0.3,0-0.6,0-0.9,0c-0.1,0-0.2,0-0.2,0c-0.1,0-0.1,0-0.2,0c-0.1,0-0.2,0-0.3,0c0,0-0.1,0-0.1,0c0,0,0,0-0.1,0.1c0,0,0,0.1,0,0.1
		c0,0,0,0.1,0,0.1c0,0.4,0,0.8,0,1.2c0,0.1,0,0.3,0,0.4c0,0.1,0,0.2,0,0.3c0,0.1,0,0.2,0,0.3c0,0,0,0,0,0.1c0,0,0,0,0,0
		c-0.1,0.4-0.1,0.7-0.2,1.1c-0.2,1.7-0.8,3.4-1.7,4.9c-1.3,2.1-3,3.8-5.1,5c-1.4,0.8-2.9,1.5-4.5,1.7c-1.5,0.2-3,0.3-4.6,0
		c-4.1-0.6-7.4-2.5-9.9-5.8c-1.4-1.9-2.3-4-2.7-6.3c-0.2-1-0.1-2.1-0.2-3.2c0,0,0-0.1,0-0.1c0,0-0.1,0-0.1,0c0,0-0.1,0-0.1,0
		c-0.1,0-0.1,0-0.2,0c-0.1,0-0.1,0-0.2,0c-0.2,0-0.4,0-0.6,0c0,0-0.1,0-0.1,0c-0.1,0-0.2,0-0.2,0c0,0-0.1,0-0.1,0
		c-0.1,0-0.2,0-0.2,0c0,0-0.1,0-0.1,0c0,0-0.1,0-0.1,0c-0.1,0-0.1,0-0.2,0c0,0-0.1,0-0.1,0c-0.1,0-0.1,0-0.2,0c0,0-0.1,0-0.1,0
		c-0.1,0-0.1,0-0.2,0c0,0-0.1,0-0.1,0c-0.1,0-0.1,0-0.2,0c0,0-0.1,0-0.1,0c-0.1,0-0.1,0-0.2,0c0,0-0.1,0-0.1,0c-0.1,0-0.1,0-0.2,0
		c0,0-0.1,0-0.1,0c-0.1,0-0.1,0-0.2,0c0,0-0.1,0-0.1,0c-0.1,0-0.1,0-0.2,0c0,0-0.1,0-0.1,0c-0.1,0-0.1,0-0.2,0c0,0-0.1,0-0.1,0
		c-0.1,0-0.1,0-0.2,0c0,0-0.1,0-0.1,0c-0.1,0-0.1,0-0.2,0c0,0-0.1,0-0.1,0c-0.1,0-0.1,0-0.2,0c0,0-0.1,0-0.1,0c-0.1,0-0.1,0-0.2,0
		c0,0-0.1,0-0.1,0c-0.1,0-0.1,0-0.2,0c0,0-0.1,0-0.1,0c-0.1,0-0.1,0-0.2,0c0,0-0.1,0-0.1,0c-0.1,0-0.1,0-0.2,0c0,0-0.1,0-0.1,0
		c-0.1,0-0.1,0-0.2,0c0,0-0.1,0-0.1,0c-0.1,0-0.1,0-0.2,0c-0.1,0-0.2,0-0.2,0c0,0-0.1,0-0.1,0c-0.5,0-1.1,0-1.7,0c0,0.3,0,0.5,0,0.7
		c0,0.7,0,1.3,0,2c0,0.1,0,0.2,0,0.2c0,0,0,0,0,0.1c0,0,0,0,0,0c0.1,1,0.2,2.1,0.4,3.1c0.4,1.9,1,3.8,1.8,5.5c2.4,4.9,6,8.5,10.9,11
		c2.3,1.2,4.7,2,7.2,2.4c0.4,0.1,0.9,0.1,1.3,0.2c0.2,0,0.5,0,0.7,0c0,0,0.1-0.1,0.1-0.1c1,0,2,0,3.1-0.1c0.1,0,0.1,0,0.2,0
		c0,0,0.1,0,0.1,0c0,0,0.1,0,0.1,0c0.1,0,0.2,0,0.4,0c0.6,0,1.1,0,1.7,0c0.5-0.1,1.1-0.2,1.6-0.3c3.6-0.8,6.9-2.3,9.9-4.4
		c2.6-1.9,4.8-4.3,6.3-7.2c1.6-3,2.7-6.2,2.8-9.6c0,0,0-0.1,0-0.1c0-0.1,0-0.1,0-0.2c0,0,0-0.1,0-0.1c0-0.6,0-1.2,0-1.8
		c0-0.1,0-0.1,0-0.2C312.4,118.4,312.4,118.3,312.4,118.3z"/>
	<path class="st1" d="M265.1,111.9c0.1,0,0.1,0,0.2,0c0,0,0.1,0,0.1,0c3,0,6,0,8.9,0c0.1,0,0.1,0,0.2,0c0.1-0.1,0.2-0.2,0.2-0.4
		c1.3-2.8,3.3-5,5.9-6.5c3.4-1.9,7.1-2.4,10.9-1.6c2.2,0.4,4.2,1.3,5.9,2.7c1.8,1.5,3.3,3.2,4.2,5.4c0,0.1,0.2,0.2,0.2,0.3
		c0.1,0,0.3,0,0.4,0c2.9,0,5.7,0,8.6,0c0,0,0.1,0,0.1,0c0.1,0,0.2,0,0.2,0c0,0,0.1,0,0.1,0c0.1,0,0.1,0,0.2,0c0.1,0,0.1,0,0.2,0
		c0-0.2,0.1-0.3,0-0.5c-0.8-2.6-1.8-5.1-3.4-7.4c-1.2-1.8-2.7-3.4-4.3-4.8c-3.2-2.8-7-4.5-11.2-5.3c-1.7-0.4-3.5-0.5-5.3-0.3
		c-0.8,0.1-1.7,0.1-2.5,0.2c-3,0.4-5.8,1.3-8.4,2.8c-2.7,1.5-5.1,3.4-7.1,5.8c-1.9,2.3-3.4,4.9-4.3,7.8c-0.2,0.6-0.4,1.2-0.6,1.8
		C264.8,111.8,264.9,111.9,265.1,111.9C265.1,111.9,265.1,111.9,265.1,111.9z"/>
</g>
</svg>
