<?xml version="1.0" encoding="utf-8"?>
<!-- Generator: Adobe Illustrator 27.5.0, SVG Export Plug-In . SVG Version: 6.00 Build 0)  -->
<svg version="1.1" id="Layer_1" xmlns="http://www.w3.org/2000/svg" xmlns:xlink="http://www.w3.org/1999/xlink" x="0px" y="0px"
	 viewBox="0 0 450 220" style="enable-background:new 0 0 450 220;" xml:space="preserve">
<style type="text/css">
	.st0{fill:#006BB6;}
	.st1{fill:#086DB5;}
	.st2{fill:#FCFCFB;}
	.st3{fill:#C08A02;}
	.st4{fill-rule:evenodd;clip-rule:evenodd;fill:#FFFFFF;}
</style>
<g>
	<path class="st0" d="M270.62,143.24c-0.98,0-1.96,0-3.01,0c-0.2-0.13-0.46,0-0.66-0.07c-1.44-0.13-2.75-0.46-4-1.25
		c-1.64-1.05-2.69-2.56-2.82-4.53c-0.13-0.46,0.07-0.92-0.07-1.38c0-0.2,0-0.46,0-0.66c0-5.31,0-10.56,0-15.87
		c0-0.52,0.13-0.66,0.65-0.66c1.83,0.07,3.73,0,5.57,0c0.13,0.2,0.07,0.46,0.07,0.66c0,5.12,0,10.23,0,15.28
		c0,0.2-0.07,0.46,0.07,0.66c0.07,1.57,0.79,2.56,2.03,2.69c0.46,0.07,0.98,0.07,1.44,0c1.05-0.07,1.77-1.05,1.9-2.23
		c0.33-2.62,0.13-5.25,0.13-7.81c0.07-2.89,0-5.77,0-8.66c0-0.52,0.13-0.66,0.65-0.66c1.64,0,3.34,0,4.98,0
		c0.46,0,0.59,0.07,0.59,0.59c0,5.71,0,11.48,0,17.19c0,0.07,0,0.13,0,0.26c-0.13,0.26,0,0.59-0.07,0.92
		c-0.46,2.62-2.29,4.07-4.65,4.92c-0.72,0.26-1.51,0.46-2.23,0.52C271.08,143.24,270.82,143.11,270.62,143.24z"/>
	<path class="st0" d="M282.87,124.94c0.26,0,0.52,0,0.79-0.07c0.26-0.13,0.59,0.07,0.92-0.07c0.72-0.13,0.92,0.2,1.11,0.85
		c0.85,3.15,1.77,6.23,2.62,9.31c0.2,0.72,0.33,1.51,0.59,2.3c0.59-4.13,2.23-7.94,3.41-11.81c0.07-0.26,0.2-0.39,0.52-0.39
		c1.77,0,3.47,0,5.24,0c0.46,0,0.46,0.13,0.33,0.52c-1.7,4.39-3.34,8.85-5.04,13.25c-0.98,2.56-1.83,5.12-3.08,7.61
		c-1.11,2.3-2.88,3.74-5.31,4.39c-0.52,0.13-1.05,0.2-1.57,0.26c-0.98,0.26-1.11-0.72-1.44-1.25c-0.46-0.66-0.72-1.51-1.18-2.16
		c-0.33-0.46-0.13-0.52,0.33-0.66c1.05-0.2,2.03-0.52,2.95-1.12c1.18-0.72,1.83-1.84,2.49-3.02c-0.33-0.13-0.72,0-1.05-0.07
		c-0.2,0-0.39,0.13-0.52-0.13c-0.26-0.98-0.46-1.97-0.72-2.89c-0.52-1.77-1.18-3.48-1.77-5.25c-0.98-2.95-1.96-5.97-3.01-8.92
		c-0.2-0.46,0-0.59,0.39-0.59c0.2,0,0.39,0,0.52-0.07c0.26-0.13,0.59,0.07,0.92-0.07c0.26,0,0.46,0,0.72,0
		C282.28,124.94,282.61,125.07,282.87,124.94z"/>
	<path class="st0" d="M222.74,127.82c-0.13-0.59-0.2-1.18-0.33-1.77c-0.13-0.39,0-0.46,0.33-0.52c1.57-0.26,3.14-0.52,4.72-0.79
		c0.26-0.07,0.46,0,0.52,0.33c0.07,0.33,0.2,0.72,0.26,1.12c1.7-1.18,3.6-1.71,5.63-1.57c1.38,0.07,2.62,0.46,3.54,1.57
		c0.46,0.59,0.65,1.31,0.85,1.97c0.13,0.2,0,0.46,0.07,0.66c0,4.66,0,9.38,0,14.04c-0.07,0.13-0.2,0.07-0.33,0.07
		c-1.77,0-3.6,0-5.37,0c-0.13,0-0.2,0-0.26-0.07c-0.13-0.2-0.07-0.46-0.07-0.66c0-3.61,0-7.22,0-10.89c0-0.2,0.07-0.46-0.07-0.66
		c0.07-0.98-1.05-1.25-1.77-1.05c-0.52,0.13-0.98,0.46-1.44,0.79c-0.2,0.13-0.13,0.33-0.13,0.46c0,4,0,7.94,0,11.94
		c-0.07,0.13-0.2,0.07-0.33,0.07c-1.77,0-3.6,0-5.37,0c-0.13,0-0.2,0-0.26-0.07c-0.13-0.2-0.07-0.46-0.07-0.66c0-4,0-8,0-12
		c0-0.2,0.07-0.46-0.07-0.66c0-0.33,0-0.72-0.07-1.05C222.74,128.28,222.81,128.08,222.74,127.82z"/>
	<path class="st0" d="M151.54,118.77c6.03,0,11.99,0,18.08,0c-0.2,1.71-0.46,3.34-0.66,4.98c-0.2,0.13-0.39,0.07-0.59,0.07
		c-1.44,0-2.88,0-4.32,0c-0.72,0-0.72,0-0.72,0.66c0,5.9,0,11.74,0,17.64c0,0.85,0.07,0.72-0.79,0.72c-1.64,0-3.34,0-4.98,0
		c-0.2,0-0.39,0.07-0.59-0.07c0-6.3,0-12.59,0-18.89c-1.05-0.13-2.03,0-3.08-0.07c-0.79-0.07-1.64,0.07-2.42-0.07
		c-0.13-1.18-0.07-2.36-0.07-3.61C151.48,119.75,151.34,119.3,151.54,118.77z"/>
	<path class="st0" d="M185.01,129.72c0.2-2.1,1.9-3.94,4.26-4.66c1.44-0.39,2.95-0.39,4.45-0.39c0.2,0.13,0.46,0,0.65,0.07
		c1.57,0.26,3.08,0.85,4.52,1.51c0.33,0.13,0.46,0.26,0.26,0.59c-0.46,0.85-0.92,1.77-1.38,2.69c-0.33,0.59-0.39,0.66-1.05,0.33
		c-0.85-0.46-1.83-0.79-2.75-0.92c-0.46-0.07-0.92-0.07-1.44,0c-0.46,0.07-0.85,0.26-0.92,0.79c-0.07,0.59,0.26,0.98,0.79,1.25
		c1.05,0.46,2.16,0.59,3.28,0.85c3.14,0.59,4.78,2.75,4.26,6.17c-0.46,2.75-2.36,4.2-4.78,4.99c-1.64,0.52-3.28,0.52-4.91,0.39
		c-2.1-0.2-4.06-1.05-5.96-2.03c-0.26-0.13-0.2-0.26-0.13-0.39c0.59-1.25,1.24-2.49,1.83-3.74c0.13-0.33,0.33-0.26,0.59-0.13
		c1.31,0.72,2.62,1.44,4.06,1.84c0.26,0.07,0.46,0.13,0.72,0.13c0.39,0.07,0.85,0.07,1.24,0c0.52-0.07,0.85-0.46,1.11-0.85
		c0.33-0.52,0-1.25-0.72-1.51c-1.18-0.46-2.36-0.59-3.6-0.85c-1.7-0.39-3.21-0.92-4-2.69c-0.2-0.46-0.33-0.92-0.39-1.38
		c-0.13-0.26,0.07-0.59-0.07-0.92c0-0.07,0-0.13,0-0.2C185.01,130.31,184.88,130.05,185.01,129.72z"/>
	<path class="st0" d="M200.86,125.07c0.46,0,0.92,0,1.31-0.07c0.2-0.85,0-1.71,0.13-2.56c0-0.26,0.07-0.59,0.07-0.85
		c0-0.92,0.07-0.98,0.98-1.12c1.51-0.2,3.01-0.39,4.52-0.66c0.52-0.07,0.65,0,0.59,0.52c-0.13,0.26,0,0.52-0.07,0.79
		c-0.13,1.18-0.07,2.36-0.07,3.54c0,0.26,0.07,0.39,0.39,0.39c0.79,0,1.57,0,2.36,0c0.33,0,0.52,0,0.39,0.46
		c-0.26,1.12-0.46,2.3-0.65,3.48c-0.59,0.2-1.18,0-1.77,0.07c-0.26,0-0.46-0.07-0.72,0.07c-0.07,2.89-0.07,5.77,0,8.66
		c0,0.79,0.46,1.25,1.05,1.31c0.46,0.07,0.98,0.07,1.44,0c0.13,0,0.26,0,0.39-0.07c0.33-0.2,0.46,0,0.52,0.26
		c0.2,0.92,0.33,1.84,0.59,2.75c0.07,0.26,0,0.33-0.2,0.39c-1.05,0.52-2.1,0.79-3.27,0.85c-1.24,0.07-2.55,0.07-3.8-0.2
		c-1.51-0.39-2.62-1.38-2.75-3.21c-0.07-0.2-0.07-0.46-0.07-0.66c0-3.21,0-6.36,0-9.58c0-0.52-0.13-0.72-0.66-0.66
		c-0.26,0-0.52,0.07-0.79-0.07C200.73,127.69,200.73,126.38,200.86,125.07z"/>
	<path class="st0" d="M311.89,132.54c-0.07,0.07-0.13,0.13-0.2,0.2c-1.9,2.43-3.73,4.79-5.63,7.21c-0.79,0.98-1.57,1.97-2.29,3.02
		c-0.2,0.26-0.39,0.26-0.59,0.07c-1.24-0.92-2.49-1.77-3.73-2.69c-0.33-0.26-0.2-0.39,0-0.66c1.77-2.3,3.54-4.59,5.31-6.89
		c0.2-0.2,0.13-0.46,0-0.66c-1.77-2.3-3.54-4.59-5.31-6.89c-0.26-0.33-0.13-0.46,0.07-0.59c1.18-0.85,2.42-1.77,3.6-2.62
		c0.2-0.13,0.39-0.26,0.65,0.07c2.62,3.41,5.24,6.76,7.86,10.1C311.76,132.35,311.82,132.48,311.89,132.54z"/>
	<path class="st0" d="M146.43,121.92c0.07,0.07,0.13,0.07,0.2,0.13c1.24,0.92,2.49,1.84,3.73,2.75c0.26,0.2,0.33,0.26,0.07,0.59
		c-1.77,2.3-3.54,4.59-5.31,6.89c-0.2,0.26-0.13,0.39,0,0.59c1.7,2.23,3.41,4.46,5.11,6.69c0.33,0.46,0.39,0.66-0.13,1.05
		c-1.18,0.79-2.29,1.57-3.41,2.43c-0.33,0.26-0.46,0.13-0.65-0.13c-2.62-3.28-5.17-6.56-7.73-9.84c-0.26-0.39-0.26-0.66,0-0.98
		c1.44-1.77,2.82-3.61,4.19-5.38c1.18-1.51,2.36-3.02,3.54-4.53C146.17,122.05,146.24,121.92,146.43,121.92z"/>
	<path class="st1" d="M218.81,124.8c1.05,0,1.05,0,1.05,1.12c0,5.64,0,11.28,0,16.92c-0.07,0.13-0.2,0.07-0.33,0.07
		c-1.77,0-3.6,0-5.37,0c-0.13,0-0.2,0-0.26-0.07c-0.13-0.2-0.07-0.39-0.07-0.59c0-5.44,0-10.89,0-16.4c0-0.2-0.07-0.39,0.07-0.59
		c0.07,0,0.13,0,0.2,0c0.26-0.13,0.52,0,0.79-0.07c0.2,0,0.39,0,0.59,0c0.26-0.13,0.52,0.07,0.79-0.07c0.2,0,0.39,0,0.59,0
		c0.2-0.07,0.46,0,0.65-0.07c0.26,0,0.46,0,0.72-0.07C218.35,124.8,218.61,124.94,218.81,124.8z"/>
	<path class="st0" d="M220.25,120.87c-0.33,1.12-0.92,2.1-2.03,2.56c-1.31,0.52-2.62,0.46-3.73-0.52c-1.11-0.98-1.31-2.23-0.92-3.67
		c0.46-1.51,1.96-2.3,3.28-2.3c1.51,0,2.82,0.85,3.28,2.23c0.07,0.13,0.13,0.33,0.13,0.46
		C220.32,120.08,220.32,120.48,220.25,120.87z"/>
	<path class="st2" d="M194.12,107.36c0,0.26,0,0.46,0,0.72C193.92,107.88,193.92,107.62,194.12,107.36z"/>
	<path class="st0" d="M258.83,127.95c-0.46-1.12-0.85-2.16-1.24-3.28c-0.2-0.46-0.39-0.39-0.72-0.2c-0.52,0.39-1.11,0.79-1.83,0.85
		c-0.46,0.07-0.98,0.07-1.44,0c-0.26,0-0.46-0.07-0.72-0.13c-2.75-0.85-5.44-0.92-8.12,0.07c-2.1,0.79-3.54,2.1-3.86,4.46
		c-0.07,0.66-0.07,1.31,0,1.97c0.13,1.57,1.05,2.69,2.29,3.48c-1.38,0.79-2.1,1.9-2.03,3.54c0.07,1.31,0.65,2.16,1.83,2.75
		c0.92,0.46,1.9,0.46,2.82,0.52c0.39,0.07,0.79,0,1.18,0.07c1.24,0.07,2.42-0.07,3.67,0.07c0.2-0.07,0.39,0.13,0.59,0.13
		c0.79,0.13,1.11,0.72,0.92,1.51c-0.2,0.85-1.05,1.51-2.1,1.57c-0.65,0.07-1.38,0.07-2.03,0c-1.44-0.07-1.9-0.52-1.9-1.97
		c0-0.46-0.13-0.52-0.52-0.52c-1.24,0-2.49,0-3.73,0c-1.11,0-1.11,0-1.31,1.12c-0.07,0.26,0.07,0.59-0.07,0.92c0,0.07,0,0.13,0,0.26
		c-0.07,1.38,0.59,2.43,1.7,3.21c1.24,0.92,2.69,1.25,4.13,1.44c0.2,0.07,0.46,0,0.65,0.07c1.05,0,2.16,0,3.21,0
		c0.2-0.13,0.46,0,0.66-0.07c1.51-0.2,3.01-0.59,4.32-1.38c1.7-1.05,2.75-2.56,3.01-4.53c0.07-0.59,0.07-1.12,0-1.71
		c-0.2-0.85-0.46-1.71-1.11-2.36c-1.31-1.44-3.01-1.77-4.78-1.9c-1.05-0.07-2.1,0-3.14-0.07c-0.26-0.13-0.59,0.07-0.85-0.07
		c-0.33,0-0.66-0.13-0.79-0.39c-0.13-0.26,0.07-0.52,0.33-0.72c0.66-0.13,1.31,0,1.97-0.07c1.83,0,3.6-0.39,5.11-1.51
		c1.64-1.12,2.42-2.89,2.1-4.66c-0.07-0.52-0.39-0.85-0.59-1.38c0.79,0.07,1.44-0.07,2.1-0.39
		C258.9,128.48,258.96,128.28,258.83,127.95z M248.87,132.68c-1.31,0-1.96-0.66-1.96-1.9c0-1.31,0.72-2.03,2.1-1.97
		c1.38,0,2.1,0.72,2.1,2.03C251.04,132.02,250.25,132.68,248.87,132.68z"/>
	<path class="st0" d="M181.02,137.86c-0.26-0.39-0.39-0.39-0.79-0.13c-1.24,0.92-2.69,1.51-4.26,1.44c-1.57,0-2.62-1.05-2.69-2.62
		c-0.2-0.52,0.07-0.59,0.52-0.59c2.88,0,5.76,0,8.65,0c0.2,0,0.46,0.07,0.65-0.07c0-1.05,0-2.1,0-3.15c-0.13-0.2,0-0.46-0.07-0.66
		c-0.13-0.79-0.26-1.57-0.52-2.3c-0.46-1.44-1.11-2.75-2.36-3.67c-2.36-1.71-4.91-1.77-7.6-1.18c-2.1,0.46-3.47,1.84-4.45,3.67
		c-0.65,1.25-0.98,2.56-1.05,4c-0.13,0.33,0.07,0.66-0.07,0.98c0,0.33,0,0.66,0,1.05c0.13,0.33,0,0.72,0.07,1.05
		c0.07,0.39,0.07,0.85,0.2,1.25c0.33,1.71,1.05,3.15,2.23,4.33c1.24,1.25,2.75,1.9,4.45,2.03c0.2,0.13,0.46,0,0.66,0.07
		c0.92,0,1.83,0.13,2.75,0c1.97-0.26,3.8-1.05,5.44-2.3c0.26-0.2,0.26-0.33,0.07-0.59C182.13,139.63,181.54,138.78,181.02,137.86z
		 M173.16,131.36c0.07-0.39,0.13-0.85,0.2-1.25c0.26-0.92,0.98-1.38,1.9-1.38c0.92,0,1.38,0.46,1.64,1.44
		c0.46,1.64,0.39,1.77-1.31,1.77c-0.2,0-0.39,0-0.52,0c-0.46,0-0.98,0-1.44,0C173.16,132.02,173.03,131.82,173.16,131.36z"/>
	<path class="st3" d="M238.59,85.51c0-0.07,0-0.13,0-0.13c-0.13-0.39,0-0.85-0.07-1.25c-0.13-0.79-0.2-1.57-0.39-2.36
		c-1.18-4.99-4.06-8.66-8.58-11.09c-1.7-0.92-3.6-1.44-5.5-1.77c-0.26-0.13-0.52,0-0.79-0.07c-0.85,0-1.77,0-2.62,0
		c-0.2,0.13-0.46,0-0.65,0.07c-0.46,0.07-0.92,0.13-1.31,0.26c-2.75,0.52-5.17,1.71-7.34,3.48c-2.16,1.77-3.73,4-4.78,6.49
		c-0.72,1.71-1.18,3.54-1.18,5.44c-0.07,0.59-0.07,1.25,0,1.84c0.13,0.52,0.07,1.05,0.13,1.57c0.26,2.16,1.05,4.07,2.1,5.9
		c0.2,0.39,0.2,0.52-0.13,0.79c-3.86,3.87-7.79,7.74-11.66,11.68c-0.33,0.33-0.59,0.59-0.65,1.05c-0.07,0.26-0.07,0.46,0,0.72
		c0.07,0.39,0.26,0.66,0.52,0.92c0.85,0.85,1.77,1.77,2.62,2.62c0.85,0.85,1.77,0.85,2.55,0c3.6-3.61,7.27-7.28,10.87-10.89
		c0.39-0.39,0.72-0.98,1.24-1.12c0.46-0.07,0.92,0.39,1.38,0.66h0.07c1.83,0.79,3.73,1.51,5.76,1.64c0.26,0.07,0.52,0,0.79,0.07
		c0.66,0,1.31,0,2.03,0c0.26-0.13,0.52,0,0.79-0.07c0.72-0.07,1.44-0.2,2.16-0.39c2.62-0.66,4.91-1.84,6.88-3.61
		c3.34-2.95,5.17-6.69,5.7-11.09C238.59,86.43,238.46,85.97,238.59,85.51z"/>
	<path class="st4" d="M232.31,85.67c-0.07,0.26-0.33,0.2-0.52,0.13c-0.5-0.17-0.91-0.48-1.35-0.81c-0.07-0.06-0.15-0.11-0.22-0.17
		c-0.36-0.29-0.7-0.57-1.05-0.85l0,0c-0.34-0.28-0.69-0.56-1.05-0.85c-0.33-0.26-0.72-0.52-1.31-0.66c0.98,1.64,1.24,3.28,1.18,5.05
		c0,0.2,0,0.39,0.13,0.59c0.72,0.98,0.65,2.03,0.2,3.15c-0.46,1.05-0.33,1.97,0.46,2.82c0.33,0.39,0.79,0.66,1.24,0.85
		c0.2,0.07,0.52,0.2,0.39,0.52c-0.13,0.33-0.46,0.26-0.65,0.2c-1.51-0.59-3.14-2.23-2.23-4.46c0.26-0.59,0.52-1.18,0.33-1.84
		c-0.06,0.18-0.11,0.36-0.17,0.53c-0.12,0.41-0.24,0.8-0.42,1.17c-0.85,1.97-2.29,3.21-4.39,3.74c-0.39,0.07-0.46,0-0.46-0.39
		l-0.59-9.25c0-0.04,0-0.07,0-0.11c-0.01-0.28-0.01-0.5,0.39-0.61c0.52-0.2,0.79-0.72,0.59-1.25c-0.2-0.52-0.59-0.79-1.11-0.79
		c-0.59,0-1.11,0.33-1.18,0.85c-0.13,0.52,0.13,0.98,0.66,1.18c0.33,0.13,0.46,0.26,0.39,0.66c-0.1,1.38-0.2,2.77-0.29,4.17
		c-0.1,1.39-0.2,2.79-0.29,4.17c-0.02,0.25-0.03,0.47-0.04,0.65c-0.02,0.42-0.03,0.65-0.15,0.74c-0.15,0.11-0.48-0.01-1.22-0.29
		l-0.16-0.06c-2.03-0.72-3.14-2.36-3.8-4.39c-0.02-0.07-0.03-0.13-0.04-0.2l0,0c-0.01-0.13-0.03-0.26-0.16-0.39
		c-0.13,0.52,0.07,0.98,0.26,1.44c0.98,2.03-0.13,3.8-1.9,4.66c-0.13,0.07-0.33,0.13-0.46,0.13c-0.2,0-0.39,0-0.46-0.2
		c-0.07-0.2,0.07-0.33,0.26-0.46c0.33-0.13,0.66-0.26,0.92-0.46c1.18-0.79,1.57-1.9,0.98-3.15c-0.46-1.12-0.59-2.16,0.13-3.21
		c0.07-0.07,0.07-0.2,0.07-0.26c-0.07-1.77,0.07-3.54,1.05-5.18c-0.34-0.05-0.54,0.08-0.72,0.21c-0.06,0.04-0.13,0.09-0.2,0.12
		c-0.47,0.36-0.94,0.74-1.42,1.14l0,0c-0.39,0.32-0.79,0.64-1.2,0.96c-0.39,0.33-0.85,0.66-1.38,0.79c-0.2,0.07-0.39,0.07-0.52-0.2
		c-0.07-0.26,0.07-0.39,0.26-0.46c0.83-0.3,1.44-0.86,2.09-1.45v0c0.07-0.06,0.14-0.13,0.21-0.19c0.2-0.15,0.39-0.31,0.59-0.47v0
		c0.39-0.32,0.79-0.64,1.18-0.9c0.39-0.26,0.85-0.52,1.38-0.33c0.16,0.05,0.24-0.03,0.33-0.13c0.02-0.02,0.04-0.04,0.06-0.07
		c0.39-0.26,0.46-0.52,0.13-0.98c-0.61-0.76-0.82-1.68-1.04-2.6c-0.06-0.27-0.13-0.55-0.2-0.81c-0.04-0.13-0.07-0.27-0.1-0.41v0v0v0
		v0v0c-0.14-0.6-0.28-1.21-0.82-1.69c-0.13-0.13-0.2-0.33,0-0.46c0.2-0.2,0.46-0.13,0.65,0.07c0.33,0.26,0.52,0.66,0.59,1.05v0l0,0
		c0.26,0.92,0.52,1.84,0.72,2.69c0.13,0.52,0.33,1.12,0.72,1.64c0.33-0.79,0.85-1.25,1.51-1.71c0.26-0.2,0.52-0.66,0.07-1.12
		c-0.22-0.2-0.4-0.42-0.58-0.64c-0.3-0.37-0.6-0.73-1.06-0.94c-0.2-0.07-0.26-0.26-0.13-0.46c0.13-0.2,0.26-0.26,0.46-0.2
		c0.33,0.13,0.59,0.33,0.85,0.59c0.2,0.2,0.38,0.41,0.56,0.62v0l0,0c0.18,0.21,0.36,0.43,0.56,0.62c0.2,0.2,0.33,0.26,0.66,0.13
		c0.72-0.26,1.51-0.26,2.23,0c0.33,0.13,0.46,0,0.59-0.2c0.2-0.23,0.38-0.44,0.56-0.66v0l0,0c0.18-0.21,0.36-0.43,0.56-0.66v0
		c0.2-0.2,0.39-0.39,0.72-0.46c0.26-0.13,0.46-0.07,0.59,0.13c0.13,0.26-0.07,0.39-0.26,0.52c-0.56,0.28-0.92,0.76-1.27,1.23
		c-0.14,0.19-0.28,0.38-0.43,0.55c-0.2,0.2,0,0.72,0.33,0.85c0.66,0.39,1.18,0.85,1.44,1.64c0.5-0.69,0.7-1.5,0.89-2.26l0.03-0.1
		c0.01-0.05,0.02-0.11,0.04-0.16c0.19-0.81,0.38-1.66,0.75-2.4c0.13-0.33,0.33-0.66,0.79-0.59c0.39,0,0.46,0.26,0.26,0.46
		c-0.55,0.6-0.72,1.32-0.89,2.04c-0.05,0.22-0.1,0.43-0.16,0.65c-0.04,0.13-0.08,0.26-0.11,0.39c-0.28,0.98-0.56,1.95-1.2,2.82
		c-0.07,0.07-0.2,0.2-0.07,0.33c0.09,0.07,0.16,0.16,0.23,0.24c0.14,0.17,0.27,0.33,0.49,0.28c0.73-0.18,1.28,0.2,1.83,0.56v0
		c0.05,0.03,0.09,0.06,0.14,0.09c0.33,0.23,0.62,0.48,0.92,0.72c0.29,0.25,0.59,0.49,0.92,0.72c0.09,0.07,0.17,0.13,0.26,0.2l0,0
		c0.49,0.39,0.95,0.75,1.51,0.98C232.31,85.27,232.37,85.47,232.31,85.67z M219.01,86.13c-0.72,0-1.31,0.59-1.31,1.31
		s0.59,1.31,1.31,1.31c0.72,0,1.31-0.59,1.31-1.31S219.73,86.13,219.01,86.13z M217.05,91.31c-0.07-0.52,0.39-0.98,0.85-0.98
		c0.59,0,1.18,0.59,1.24,1.25c0,0.52-0.39,0.92-0.85,0.92C217.63,92.55,217.05,91.96,217.05,91.31z M225.56,87.44
		c0-0.72-0.59-1.38-1.31-1.38c-0.72,0-1.38,0.66-1.38,1.31c0,0.66,0.59,1.31,1.31,1.38C224.91,88.82,225.56,88.16,225.56,87.44z
		 M217.11,83.11c0.52,0,0.85,0.39,0.85,0.92c0,0.59-0.46,1.18-1.05,1.18c-0.46,0-0.85-0.46-0.85-0.98
		C216.06,83.63,216.52,83.11,217.11,83.11z M225.3,90.32c-0.59,0-1.11,0.59-1.18,1.25c0,0.52,0.39,0.92,0.92,0.98
		c0.65,0,1.18-0.59,1.18-1.25C226.22,90.72,225.76,90.32,225.3,90.32z M225.23,83.96c0.07-0.52,0.46-0.85,0.92-0.85
		c0.52,0,0.98,0.52,0.98,1.18c0,0.52-0.39,0.92-0.85,0.92C225.69,85.21,225.17,84.55,225.23,83.96z"/>
</g>
</svg>
