<?xml version="1.0" encoding="utf-8"?>
<!-- Generator: Adobe Illustrator 27.8.1, SVG Export Plug-In . SVG Version: 6.00 Build 0)  -->
<svg version="1.1" id="Layer_1" xmlns="http://www.w3.org/2000/svg" xmlns:xlink="http://www.w3.org/1999/xlink" x="0px" y="0px"
	 viewBox="0 0 450 220" style="enable-background:new 0 0 450 220;" xml:space="preserve">
<style type="text/css">
	.st0{fill:#0096C5;}
	.st1{fill:#36A853;}
	.st2{fill:#E94435;}
	.st3{fill:#F8BB15;}
</style>
<image style="display:none;overflow:visible;enable-background:new    ;" width="1026" height="1026" xlink:href="48EE6456B2634E48.png"  transform="matrix(0.1358 0 0 0.1358 151.57 34.6684)">
</image>
<image style="display:none;overflow:visible;enable-background:new    ;" width="1000" height="229" xlink:href="48EE6456B2634E48.jpg"  transform="matrix(0.388 0 0 0.388 38 60.78)">
</image>
<image style="display:none;overflow:visible;enable-background:new    ;" width="1356" height="874" xlink:href="48EE6456B2634E4F.png"  transform="matrix(0.2196 0 0 0.2196 74.1968 13)">
</image>
<g>
	<path class="st0" d="M186.4,91.5c-0.9,0-1.7,0.3-2.3,0.9c-0.6,0.6-1,1.4-1,2.4v21.6c0,2.2-0.4,4.4-1.1,6.3c-0.7,2-1.7,3.7-3.1,5.2
		c-1.3,1.5-2.9,2.7-4.8,3.6c-1.9,0.8-3.9,1.3-6.1,1.3c-2.2,0-4.3-0.4-6.2-1.3c-1.9-0.8-3.6-2-5-3.6c-1.4-1.5-2.5-3.2-3.4-5.2
		c-0.8-2-1.2-4.1-1.2-6.3V94.8c0-0.9-0.3-1.7-0.9-2.3c-0.6-0.6-1.4-0.9-2.3-0.9c-0.9,0-1.6,0.3-2.3,0.9c-0.6,0.6-0.9,1.4-0.9,2.3
		v21.6c0,3.1,0.6,6,1.7,8.8c1.1,2.8,2.7,5.2,4.7,7.3c2,2.1,4.4,3.8,7.1,4.9c2.7,1.2,5.6,1.8,8.7,1.8c3,0,5.9-0.6,8.5-1.8
		c2.6-1.2,5-2.8,6.9-4.9c1.9-2.1,3.4-4.5,4.5-7.3c1.1-2.8,1.6-5.7,1.6-8.8V94.8c0-0.9-0.3-1.7-0.9-2.4
		C188.1,91.8,187.3,91.5,186.4,91.5z"/>
	<path class="st1" d="M247.8,95.8c-1.4-1.4-3.1-2.5-5-3.3c-1.9-0.8-3.9-1.2-5.9-1.2c-2.4,0-4.6,0.5-6.7,1.6
		c-2.1,1.1-3.9,2.5-5.3,4.3c-1.5-1.8-3.3-3.3-5.4-4.3c-2.1-1.1-4.3-1.6-6.7-1.6c-2.1,0-4,0.4-5.9,1.2c-1.8,0.8-3.5,1.9-4.9,3.3
		c-1.4,1.4-2.5,3.1-3.3,4.9c-0.8,1.9-1.2,3.8-1.2,5.9v28.6c0,0.9,0.3,1.7,0.9,2.3c0.6,0.6,1.4,0.9,2.3,0.9c0.9,0,1.6-0.3,2.3-0.9
		c0.6-0.6,1-1.4,1-2.3l0.1-28.6v-0.3c0-0.1,0-0.1,0-0.2c0.1-1.1,0.4-2.1,0.9-3.1c0.5-1,1.1-1.9,1.9-2.6c0.8-0.7,1.7-1.3,2.7-1.8
		c1-0.4,2.1-0.6,3.2-0.6c1.2,0,2.4,0.2,3.5,0.7c1.1,0.5,2,1.1,2.8,2c0.8,0.9,1.4,1.9,1.9,3c0.4,1.1,0.7,2.3,0.7,3.5v28
		c0,0.9,0.3,1.7,0.9,2.3c0.6,0.6,1.4,0.9,2.3,0.9c0.9,0,1.6-0.3,2.3-0.9c0.6-0.6,1-1.4,1-2.3v-28.3v-0.2c0-0.1,0-0.1,0-0.2
		c0.1-2.2,1-4.2,2.7-5.9c0.8-0.8,1.7-1.4,2.7-1.8c1-0.4,2.1-0.6,3.2-0.6c1.2,0,2.4,0.2,3.5,0.7c1.1,0.5,2.1,1.1,2.9,2
		c0.8,0.8,1.4,1.8,1.9,2.9c0.5,1.1,0.7,2.3,0.7,3.4v28.1c0,0.9,0.3,1.7,0.9,2.3c0.6,0.6,1.4,0.9,2.3,0.9c0.9,0,1.6-0.3,2.3-0.9
		c0.6-0.6,1-1.4,1-2.3v-28.7c0-2.1-0.4-4-1.2-5.9C250.4,98.9,249.2,97.3,247.8,95.8z"/>
	<path class="st2" d="M302.9,106.2c-1.2-2.9-2.9-5.5-5-7.6c-2.2-2.2-4.7-3.9-7.5-5.1c-2.9-1.2-5.9-1.8-9.1-1.8
		c-3.2,0-6.2,0.6-9.1,1.8c-2.9,1.2-5.4,2.9-7.5,5.1c-2.2,2.2-3.9,4.8-5.1,7.7c-1.2,2.9-1.8,6-1.8,9.2c0,3.2,0.6,6.3,1.8,9.2
		c1.2,2.9,2.9,5.4,5.1,7.6c2.2,2.2,4.7,3.9,7.5,5.1c2.9,1.2,5.9,1.8,9.1,1.8c3.3,0,6.4-0.6,9.3-1.9c2.9-1.2,5.4-3,7.6-5.3l0,3.5
		c0,1,0.3,1.8,0.9,2.4c0.6,0.6,1.3,0.9,2.3,0.9c0.9,0,1.7-0.3,2.4-1c0.6-0.6,1-1.4,1-2.4v-20C304.7,112.2,304.1,109.1,302.9,106.2z
		 M297,122.1c-0.8,2.1-2,3.9-3.5,5.5c-1.5,1.6-3.3,2.9-5.4,3.8c-2.1,0.9-4.3,1.3-6.7,1.3c-2.4,0-4.6-0.4-6.6-1.3
		c-2.1-0.9-3.9-2.1-5.4-3.8c-1.6-1.6-2.8-3.4-3.6-5.5c-0.9-2.1-1.3-4.3-1.3-6.6c0-2.3,0.4-4.6,1.3-6.7c0.9-2.1,2.1-4,3.6-5.6
		c1.6-1.6,3.4-2.8,5.4-3.7c2.1-0.9,4.3-1.3,6.6-1.3c2.4,0,4.6,0.4,6.7,1.3c2.1,0.9,3.9,2.1,5.4,3.7c1.5,1.6,2.7,3.4,3.5,5.5
		c0.8,2.1,1.3,4.4,1.3,6.7C298.2,117.8,297.8,120,297,122.1z"/>
	<path class="st2" d="M186.6,80.8c-2.1,0-3.9,1.7-3.9,3.9c0,2.2,1.7,3.9,3.9,3.9s3.9-1.7,3.9-3.9C190.5,82.6,188.8,80.8,186.6,80.8z
		"/>
	<path class="st3" d="M149.2,88.4c2.1,0,3.9-1.7,3.9-3.8c0-2.1-1.7-3.8-3.9-3.8c-2.1,0-3.9,1.7-3.9,3.8
		C145.3,86.7,147,88.4,149.2,88.4z"/>
</g>
</svg>
