<?xml version="1.0" encoding="utf-8"?>
<!-- Generator: Adobe Illustrator 27.5.0, SVG Export Plug-In . SVG Version: 6.00 Build 0)  -->
<svg version="1.1" id="Layer_1" xmlns="http://www.w3.org/2000/svg" xmlns:xlink="http://www.w3.org/1999/xlink" x="0px" y="0px"
	 viewBox="0 0 450 220" style="enable-background:new 0 0 450 220;" xml:space="preserve">
<style type="text/css">
	.st0{fill:#C22527;}
</style>
<g>
	<path class="st0" d="M145.43,96.39l4.67,17.5l4.09-17.5h7.58l-7.39,27.22h-7.39l-4.67-16.92l-4.67,16.92h-7.39l-7.39-27.22h7.58
		l4.09,17.5l4.67-17.5L145.43,96.39L145.43,96.39z"/>
	<path class="st0" d="M183.98,123.61h-20.27V96.39h21.59l-1.32,5.45h-13.27v5.25h11.47l-1.32,5.45h-10.16v5.64h14.58L183.98,123.61z
		"/>
	<path d="M323.81,123.61h-20.27V96.39h21.59l-1.32,5.45h-13.27v5.25h11.47l-1.32,5.45h-10.16v5.64h14.58L323.81,123.61z"/>
	<path d="M215.21,123.61h-7v-11.08h-9.72v11.08h-7V96.39h7v10.7h9.72v-10.7h7V123.61z"/>
	<path d="M244.38,116.22c0,2.72-0.62,4.7-1.85,5.93c-1.23,1.23-3.21,1.85-5.93,1.85h-9.72c-2.72,0-4.7-0.61-5.93-1.85
		s-1.85-3.21-1.85-5.93v-12.44c0-2.72,0.61-4.7,1.85-5.93c1.23-1.23,3.21-1.85,5.93-1.85h9.72c2.72,0,4.7,0.62,5.93,1.85
		c1.23,1.23,1.85,3.21,1.85,5.93V116.22z M237.38,103.77c0-1.56-0.78-2.34-2.33-2.34h-6.61c-1.56,0-2.34,0.78-2.34,2.34v12.44
		c0,1.56,0.78,2.34,2.34,2.34h6.61c1.56,0,2.33-0.78,2.33-2.34V103.77z"/>
	<path d="M265.77,96.39h7v19.84c0,2.72-0.62,4.7-1.85,5.93c-1.23,1.23-3.21,1.85-5.93,1.85h-8.95c-2.72,0-4.7-0.61-5.93-1.85
		c-1.23-1.23-1.85-3.21-1.85-5.93V96.39h7v19.84c0,1.56,0.78,2.34,2.34,2.34h5.83c1.56,0,2.33-0.78,2.33-2.34L265.77,96.39
		L265.77,96.39z"/>
	<path d="M283.27,104.94c0,1.56,0.78,2.34,2.33,2.34h7c2.54,0,4.41,0.59,5.6,1.76c1.19,1.17,1.79,3.01,1.79,5.51v1.91
		c0,2.5-0.6,4.34-1.79,5.51c-1.19,1.17-3.06,1.76-5.6,1.76c-0.78,0-1.6,0-2.47,0s-1.75,0-2.64,0s-1.79,0-2.68,0
		c-0.89,0-1.75,0.06-2.55,0c-2.24-0.18-3.77-0.17-5.64-0.5l1.94-4.98c1.89,0,1.79,0,3.58,0c1.53,0,3.11,0,4.74,0
		c1.63,0,3.02,0,4.16,0c0.6,0,1.07-0.16,1.42-0.5c0.35-0.33,0.52-0.78,0.52-1.34v-3.3h-8.95c-2.72,0-4.7-0.61-5.93-1.85
		c-1.23-1.23-1.85-3.21-1.85-5.93v-1.17c0-2.72,0.61-4.7,1.85-5.93c1.23-1.23,3.21-1.85,5.93-1.85h13.65l-1.59,5.45h-10.51
		c-1.56,0-2.33,0.78-2.33,2.33L283.27,104.94L283.27,104.94z"/>
</g>
</svg>
